<?xml version="1.0" encoding="UTF-8"?>
<svg id="Layer_2" data-name="Layer 2" xmlns="http://www.w3.org/2000/svg" viewBox="0 0 17.43 22.54">
  <defs>
    <style>
      .cls-1 {
        fill: #ff6200;
      }
    </style>
  </defs>
  <g id="Layer_1-2" data-name="Layer 1">
    <path class="cls-1" d="M10.59,22.23c-.37-.15-.74-.29-1.1-.46-1.15-.56-2.12-1.37-3.04-2.24C3.87,17.09,1.98,14.2,.82,10.84,.28,9.29-.04,7.69,0,6.03,.05,4.58,.35,3.19,1.16,1.96,2.09,.55,3.39-.15,5.09,.03c.41,.04,.81,.17,1.22,.28,.18,.05,.26,.21,.31,.38,.42,1.41,.84,2.82,1.26,4.23,.02,.08,.05,.16,.08,.25,.22,.6,.11,1.14-.4,1.53-.34,.26-.75,.44-1.14,.64-.23,.12-.48,.19-.71,.31-.2,.11-.4,.23-.58,.38-.17,.14-.24,.34-.18,.57,.6,2.23,1.52,4.3,3.05,6.05,.5,.57,1.06,1.09,1.6,1.63,.15,.15,.33,.19,.51,.11,.23-.11,.46-.23,.67-.38,.35-.24,.66-.53,1.02-.76,.26-.17,.55-.32,.85-.42,.46-.15,.9-.04,1.25,.3,1.03,.98,2.06,1.97,3.08,2.96,.32,.31,.45,.71,.44,1.16,0,.07,0,.13,0,.2l-.14,.58s-.05,.09-.08,.13c-.44,.94-1.1,1.66-2.08,2.06-.8,.33-1.64,.39-2.49,.34-.45-.02-.91-.08-1.36-.13l-.69-.17Z"/>
  </g>
</svg>