<?xml version="1.0" encoding="UTF-8"?>
<svg id="Layer_1" data-name="Layer 1" xmlns="http://www.w3.org/2000/svg" viewBox="0 0 150 150">
  <defs>
    <style>
      .cls-1 {
        fill: #fff;
      }

      .cls-2 {
        fill: #ffc514;
      }
    </style>
  </defs>
  <path d="M63.94,123.13c-32.8,0-59.49-26.69-59.49-59.49S31.13,4.15,63.94,4.15s59.49,26.69,59.49,59.49-26.69,59.49-59.49,59.49Zm0-115.63C32.98,7.5,7.8,32.69,7.8,63.64s25.18,56.14,56.14,56.14,56.14-25.18,56.14-56.14S94.89,7.5,63.94,7.5Z"/>
  <g>
    <path class="cls-2" d="M122.12,64.01c0-7.43-1.42-14.52-3.97-21.04H45.11V118.55c6.01,2.11,12.46,3.27,19.19,3.27,31.93,0,57.82-25.89,57.82-57.82Z"/>
    <path d="M64.3,123.62c-6.76,0-13.42-1.14-19.79-3.38l-1.2-.42V41.17H119.38l.45,1.14c2.71,6.94,4.09,14.24,4.09,21.69,0,32.87-26.74,59.61-59.61,59.61Zm-17.39-6.36c5.62,1.84,11.46,2.77,17.39,2.77,30.89,0,56.02-25.13,56.02-56.02,0-6.6-1.15-13.07-3.41-19.24H46.91V117.26Z"/>
  </g>
  <path d="M141.65,139.51H43.07V40.93h98.58v98.58Zm-95.23-3.35h91.87V44.28H46.43v91.87Z"/>
  <g>
    <rect class="cls-1" x="38.68" y="37.09" width="13.19" height="13.19"/>
    <path d="M53.54,51.95h-16.54v-16.54h16.54v16.54Zm-13.19-3.35h9.84v-9.83h-9.84v9.83Z"/>
  </g>
  <g>
    <rect class="cls-1" x="130.69" y="37.09" width="13.19" height="13.19"/>
    <path d="M145.56,51.95h-16.54v-16.54h16.54v16.54Zm-13.19-3.35h9.84v-9.83h-9.84v9.83Z"/>
  </g>
  <g>
    <rect class="cls-1" x="38.68" y="130.98" width="13.19" height="13.19"/>
    <path d="M53.54,145.85h-16.54v-16.54h16.54v16.54Zm-13.19-3.35h9.84v-9.83h-9.84v9.83Z"/>
  </g>
  <g>
    <rect class="cls-1" x="130.69" y="130.98" width="13.19" height="13.19"/>
    <path d="M145.56,145.85h-16.54v-16.54h16.54v16.54Zm-13.19-3.35h9.84v-9.83h-9.84v9.83Z"/>
  </g>
  <rect x="83.04" y="54.67" width="14.24" height="3.59"/>
  <g>
    <path class="cls-2" d="M46.21,96.24s22.59,9.82,43.71-8.35"/>
    <path d="M61.12,100.63c-9.13,0-15.51-2.69-15.63-2.74l1.43-3.3c.88,.38,21.85,9.12,41.82-8.06l2.34,2.72c-10.49,9.03-21.43,11.37-29.96,11.37Z"/>
  </g>
  <g>
    <path class="cls-2" d="M84.81,83.71s7.03,2.44,7.86,9.82"/>
    <path d="M90.88,93.73c-.69-6.13-6.42-8.24-6.67-8.33l1.18-3.39c.33,.11,8.11,2.91,9.05,11.32l-3.57,.4Z"/>
  </g>
</svg>