<?xml version="1.0" encoding="UTF-8"?>
<svg id="Layer_1" data-name="Layer 1" xmlns="http://www.w3.org/2000/svg" viewBox="0 0 150 150">
  <defs>
    <style>
      .cls-1 {
        fill: #ffc514;
      }
    </style>
  </defs>
  <path d="M138.2,145.27H11.8c-4.81,0-8.73-3.92-8.73-8.73V67.94c0-4.81,3.92-8.73,8.73-8.73h29.51c.93,0,1.68,.75,1.68,1.68s-.75,1.68-1.68,1.68H11.8c-2.96,0-5.38,2.41-5.38,5.38v68.6c0,2.96,2.41,5.38,5.38,5.38h126.39c2.96,0,5.38-2.41,5.38-5.38V67.94c0-2.96-2.41-5.38-5.38-5.38h-10.26c-.93,0-1.68-.75-1.68-1.68s.75-1.68,1.68-1.68h10.26c4.81,0,8.73,3.92,8.73,8.73v68.6c0,4.81-3.92,8.73-8.73,8.73Z"/>
  <path d="M26.47,144.91c-.93,0-1.68-.75-1.68-1.68V61.91c0-.93,.75-1.68,1.68-1.68s1.68,.75,1.68,1.68v81.32c0,.93-.75,1.68-1.68,1.68Z"/>
  <path d="M16.22,115.92c-.93,0-1.68-.75-1.68-1.68v-24.39c0-.93,.75-1.68,1.68-1.68s1.68,.75,1.68,1.68v24.39c0,.93-.75,1.68-1.68,1.68Z"/>
  <path d="M123.34,145.26c-.93,0-1.68-.75-1.68-1.68V70.75c0-.93,.75-1.68,1.68-1.68s1.68,.75,1.68,1.68v72.83c0,.93-.75,1.68-1.68,1.68Z"/>
  <g>
    <polygon class="cls-1" points="90.81 6.41 67.13 48.48 40.26 75.7 63.94 99.74 92.23 72.52 132.53 47.77 90.81 6.41"/>
    <path d="M63.94,101.42c-.43,0-.87-.17-1.19-.5l-23.69-24.04c-.64-.65-.64-1.7,0-2.36l26.71-27.06L89.35,5.59c.26-.46,.71-.77,1.23-.84,.51-.07,1.04,.1,1.41,.47l41.72,41.36c.37,.36,.54,.87,.49,1.38s-.35,.97-.79,1.24l-40.15,24.65-28.15,27.1c-.33,.31-.74,.47-1.16,.47Zm-21.33-25.72l21.36,21.68,27.09-26.07c.09-.08,.18-.16,.29-.22l38.49-23.63L91.2,9.15l-22.61,40.15c-.07,.13-.16,.25-.27,.36l-25.71,26.05Zm24.51-27.22h0Z"/>
  </g>
  <g>
    <line class="cls-1" x1="67.13" y1="48.48" x2="91.52" y2="72.87"/>
    <path d="M91.52,74.55c-.43,0-.86-.16-1.19-.49l-24.39-24.39c-.66-.66-.66-1.72,0-2.37s1.72-.65,2.37,0l24.39,24.39c.66,.66,.66,1.72,0,2.37-.33,.33-.76,.49-1.19,.49Z"/>
  </g>
  <path d="M119.99,35.88c-.4,0-.8-.14-1.12-.43-.69-.62-.75-1.68-.13-2.37,1.29-1.45,2.01-3.32,2.01-5.26,0-4.36-3.54-7.9-7.9-7.9-2.11,0-4.09,.82-5.59,2.31-.65,.66-1.72,.65-2.37,0-.65-.65-.65-1.72,0-2.37,2.13-2.13,4.95-3.3,7.96-3.3,6.21,0,11.25,5.05,11.25,11.25,0,2.77-1.01,5.43-2.86,7.49-.33,.37-.79,.56-1.25,.56Z"/>
  <g>
    <line class="cls-1" x1="81.79" y1="64.06" x2="69.37" y2="76.74"/>
    <path d="M69.37,78.42c-.42,0-.85-.16-1.17-.48-.66-.65-.67-1.71-.02-2.37l12.42-12.68c.65-.66,1.71-.67,2.37-.02,.66,.65,.67,1.71,.02,2.37l-12.42,12.68c-.33,.33-.76,.5-1.2,.5Z"/>
  </g>
  <g>
    <line class="cls-1" x1="63.16" y1="83.21" x2="62.38" y2="83.99"/>
    <path d="M62.38,85.66c-.43,0-.86-.16-1.19-.49-.66-.66-.66-1.72,0-2.37l.78-.78c.65-.65,1.72-.65,2.37,0s.66,1.72,0,2.37l-.78,.78c-.33,.33-.76,.49-1.19,.49Z"/>
  </g>
  <path d="M50.9,127.46h-1.1c-.93,0-1.68-.75-1.68-1.68s.75-1.68,1.68-1.68h1.1c.93,0,1.68,.75,1.68,1.68s-.75,1.68-1.68,1.68Z"/>
  <path d="M63.59,127.46h-1.1c-.93,0-1.68-.75-1.68-1.68s.75-1.68,1.68-1.68h1.1c.93,0,1.68,.75,1.68,1.68s-.75,1.68-1.68,1.68Z"/>
  <path d="M76.28,127.46h-1.1c-.93,0-1.68-.75-1.68-1.68s.75-1.68,1.68-1.68h1.1c.93,0,1.68,.75,1.68,1.68s-.75,1.68-1.68,1.68Z"/>
  <path d="M88.98,127.46h-1.1c-.93,0-1.68-.75-1.68-1.68s.75-1.68,1.68-1.68h1.1c.93,0,1.68,.75,1.68,1.68s-.75,1.68-1.68,1.68Z"/>
  <path d="M101.67,127.46h-1.1c-.93,0-1.68-.75-1.68-1.68s.75-1.68,1.68-1.68h1.1c.93,0,1.68,.75,1.68,1.68s-.75,1.68-1.68,1.68Z"/>
  <path d="M51.04,103.01c-.43,0-.86-.16-1.19-.49l-13.61-13.61c-.32-.32-.49-.75-.49-1.2,0-.45,.19-.88,.51-1.19l6.89-6.72c.66-.65,1.72-.63,2.37,.03,.65,.66,.63,1.73-.03,2.37l-5.68,5.53,11.24,11.24,5.88-5.74c.67-.65,1.73-.63,2.37,.03,.65,.66,.63,1.73-.03,2.37l-7.07,6.89c-.33,.32-.75,.48-1.17,.48Z"/>
  <g>
    <path class="cls-1" d="M71.19,93.73l22.27,21.74s9.37-7.95,3.54-15.2l-15.38-16.26"/>
    <path d="M93.47,117.15c-.42,0-.85-.16-1.17-.48l-22.27-21.74c-.66-.65-.67-1.71-.03-2.37,.65-.66,1.71-.68,2.37-.03l21.11,20.61c2.04-2.15,5.88-7.2,2.26-11.77l-15.33-16.21c-.64-.67-.61-1.73,.07-2.37,.67-.63,1.73-.61,2.37,.07l15.38,16.26s.06,.07,.09,.1c5.42,6.74-.09,14.42-3.76,17.53-.31,.27-.7,.4-1.09,.4Z"/>
  </g>
  <path d="M90.28,94.17c-.34,0-.69-.11-.99-.32-.75-.55-.91-1.6-.36-2.34,2.07-2.82,2.89-5.47,2.45-7.87-.6-3.25-3.39-5.09-3.42-5.11-.77-.5-1-1.54-.5-2.31,.5-.78,1.53-1.01,2.31-.52,.16,.1,4.02,2.59,4.91,7.28,.64,3.35-.38,6.89-3.03,10.51-.33,.45-.84,.69-1.35,.69Z"/>
</svg>