<?xml version="1.0" encoding="UTF-8"?>
<svg id="Layer_1" data-name="Layer 1" xmlns="http://www.w3.org/2000/svg" viewBox="0 0 150 150">
  <defs>
    <style>
      .cls-1 {
        fill: #fff;
      }

      .cls-2 {
        fill: #ffc514;
      }
    </style>
  </defs>
  <g>
    <rect class="cls-1" x="5.91" y="28.6" width="138.18" height="95.72" rx="5.88" ry="5.88"/>
    <path d="M138.21,126H11.79c-4.17,0-7.56-3.39-7.56-7.56V34.48c0-4.17,3.39-7.56,7.56-7.56h126.42c4.17,0,7.56,3.39,7.56,7.56V118.44c0,4.17-3.39,7.56-7.56,7.56ZM11.79,30.28c-2.32,0-4.2,1.89-4.2,4.2V118.44c0,2.32,1.89,4.2,4.2,4.2h126.42c2.32,0,4.2-1.89,4.2-4.2V34.48c0-2.32-1.89-4.2-4.2-4.2H11.79Z"/>
  </g>
  <rect x="7.54" y="100.36" width="135.86" height="3.35"/>
  <circle cx="73.93" cy="112.74" r="3.63"/>
  <g>
    <rect class="cls-1" x="39.92" y="8.33" width="72" height="93.71"/>
    <path d="M113.6,103.72H38.25V6.65H113.6V103.72Zm-72-3.35H110.24V10.01H41.6V100.36Z"/>
  </g>
  <rect x="39.84" y="18.64" width="71.25" height="3.35"/>
  <g>
    <g>
      <polygon class="cls-2" points="91.81 50.75 75.92 62.59 60.04 50.75 75.92 40 91.81 50.75"/>
      <path d="M75.92,64.27c-.35,0-.71-.11-1-.33l-15.88-11.84c-.43-.32-.69-.84-.67-1.38,.01-.54,.29-1.05,.74-1.35l15.88-10.75c.57-.38,1.31-.38,1.88,0l15.88,10.75c.45,.3,.72,.81,.74,1.35,.01,.54-.24,1.06-.67,1.38l-15.88,11.84c-.3,.22-.65,.33-1,.33Zm-12.99-13.45l12.99,9.69,12.99-9.69-12.99-8.79-12.99,8.79Z"/>
    </g>
    <g>
      <polygon class="cls-2" points="60.04 50.75 60.04 68.11 75.97 78.62 75.92 62.59 60.04 50.75"/>
      <path d="M75.97,80.3c-.32,0-.64-.09-.92-.28l-15.94-10.5c-.47-.31-.75-.84-.75-1.4v-17.37c0-.63,.36-1.21,.92-1.5,.57-.28,1.24-.22,1.75,.15l15.88,11.84c.42,.32,.67,.81,.67,1.34l.05,16.03c0,.62-.34,1.19-.88,1.48-.25,.14-.52,.2-.8,.2Zm-14.26-13.08l12.57,8.29-.04-12.06-12.53-9.34v13.12Z"/>
    </g>
    <g>
      <polygon class="cls-2" points="91.81 50.75 75.92 62.59 75.92 78.62 91.69 67.35 91.81 50.75"/>
      <path d="M75.92,80.3c-.26,0-.53-.06-.77-.19-.56-.29-.91-.86-.91-1.49v-16.03c0-.53,.25-1.03,.67-1.34l15.88-11.84c.51-.38,1.19-.44,1.76-.15,.57,.29,.92,.87,.92,1.51l-.11,16.6c0,.54-.26,1.04-.7,1.35l-15.77,11.27c-.29,.21-.63,.31-.97,.31Zm1.68-16.86v11.93l12.42-8.88,.08-12.38-12.51,9.33Z"/>
    </g>
  </g>
  <g>
    <g>
      <path class="cls-1" d="M100.43,72.59l25.39-28.78s5.51-6.75,11.22,0c4.66,5.5-1.69,10.58-1.69,10.58l-28.99,24.33"/>
      <path d="M107.43,80.01l-2.16-2.57,28.99-24.33c.05-.04,2.54-2.09,2.78-4.66,.12-1.23-.31-2.39-1.29-3.55-1.36-1.6-2.74-2.41-4.18-2.41-2.46,.01-4.44,2.36-4.46,2.39l-25.43,28.82-2.52-2.22,25.39-28.78c.08-.1,2.92-3.53,6.96-3.57,2.51-.04,4.75,1.19,6.79,3.59,1.58,1.87,2.28,3.91,2.07,6.06-.39,3.99-3.85,6.79-3.99,6.91l-28.96,24.31Z"/>
    </g>
    <g>
      <path class="cls-2" d="M85.4,94.17s7.86-30.78,19.47-19.89c13.54,12.7-19.47,19.89-19.47,19.89Z"/>
      <path d="M83.11,96.39l.67-2.63c.54-2.11,5.51-20.68,14.13-23.19,2.76-.81,5.49,.03,8.11,2.49,3.19,2.99,4.38,6.05,3.53,9.1-2.42,8.76-21.61,13.18-23.79,13.66l-2.65,.58Zm16.79-22.76c-.35,0-.7,.05-1.05,.15-4.93,1.44-9.1,11.83-11.04,18.07,6.41-1.74,17.14-5.62,18.51-10.59,.49-1.78-.36-3.66-2.6-5.75-1.34-1.25-2.6-1.87-3.83-1.87Z"/>
    </g>
    <g>
      <line class="cls-1" x1="125.82" y1="43.81" x2="135.77" y2="53.97"/>
      <rect x="129.12" y="41.78" width="3.35" height="14.22" transform="translate(3.13 105.46) rotate(-44.4)"/>
    </g>
  </g>
  <g>
    <g>
      <rect x="51.16" y="124.53" width="3.35" height="15.96"/>
      <rect x="95.49" y="125.12" width="3.35" height="16.55"/>
    </g>
    <rect x="37.17" y="138.81" width="75.66" height="3.35"/>
  </g>
  <circle cx="47.5" cy="14.46" r="2.46"/>
  <circle cx="56.9" cy="14.46" r="2.46"/>
  <circle cx="66.29" cy="14.46" r="2.46"/>
</svg>