<?xml version="1.0" encoding="UTF-8"?>
<svg id="Layer_1" data-name="Layer 1" xmlns="http://www.w3.org/2000/svg" viewBox="0 0 150 150">
  <defs>
    <style>
      .cls-1 {
        fill: #ffc514;
      }
    </style>
  </defs>
  <path d="M120.64,141.2H5.05c-.93,0-1.68-.75-1.68-1.68V71.14c0-.93,.75-1.68,1.68-1.68H120.64c.93,0,1.68,.75,1.68,1.68v68.38c0,.93-.75,1.68-1.68,1.68Zm-113.92-3.35H118.97V72.82H6.73v65.02Z"/>
  <path d="M15.11,132.08c-.93,0-1.68-.75-1.68-1.68v-50.14c0-.93,.75-1.68,1.68-1.68s1.68,.75,1.68,1.68v50.14c0,.93-.75,1.68-1.68,1.68Z"/>
  <path d="M111.91,132.08c-.93,0-1.68-.75-1.68-1.68v-50.14c0-.93,.75-1.68,1.68-1.68s1.68,.75,1.68,1.68v50.14c0,.93-.75,1.68-1.68,1.68Z"/>
  <g>
    <polygon class="cls-1" points="78.87 105.48 47.28 85.19 47.28 125.48 78.87 105.48"/>
    <path d="M47.28,127.15c-.28,0-.56-.07-.81-.21-.54-.29-.87-.86-.87-1.47v-40.28c0-.61,.33-1.18,.87-1.47,.54-.29,1.19-.27,1.71,.06l31.59,20.29c.48,.31,.77,.84,.77,1.42s-.3,1.11-.78,1.41l-31.59,20c-.27,.17-.58,.26-.9,.26Zm1.68-38.89v34.17l26.79-16.96-26.79-17.21Z"/>
  </g>
  <path d="M34.39,71.59c-10.11,0-18.34-8.23-18.34-18.34s8.23-18.34,18.34-18.34,18.34,8.23,18.34,18.34-8.23,18.34-18.34,18.34Zm0-33.33c-8.26,0-14.99,6.72-14.99,14.99s6.72,14.99,14.99,14.99,14.99-6.72,14.99-14.99-6.72-14.99-14.99-14.99Z"/>
  <path d="M79.87,71.59c-17.31,0-31.39-14.08-31.39-31.39s14.08-31.39,31.39-31.39,31.39,14.08,31.39,31.39-14.08,31.39-31.39,31.39Zm0-59.43c-15.46,0-28.04,12.58-28.04,28.04s12.58,28.04,28.04,28.04,28.04-12.58,28.04-28.04-12.58-28.04-28.04-28.04Z"/>
  <path d="M144.95,135.7c-.29,0-.58-.07-.83-.22l-23.77-13.62c-.52-.3-.84-.85-.84-1.46v-28.98c0-.58,.3-1.12,.79-1.42l23.77-14.78c.52-.32,1.17-.34,1.7-.04s.86,.86,.86,1.47v57.38c0,.6-.32,1.15-.84,1.45-.26,.15-.55,.23-.84,.23Zm-22.09-16.27l20.41,11.7v-51.47l-20.41,12.69v27.08Z"/>
</svg>