<?xml version="1.0" encoding="UTF-8"?>
<svg id="Layer_1" data-name="Layer 1" xmlns="http://www.w3.org/2000/svg" viewBox="0 0 150 150">
  <defs>
    <style>
      .cls-1 {
        fill: #fff;
      }

      .cls-2 {
        fill: #ffc514;
      }
    </style>
  </defs>
  <g>
    <path d="M82.66,117.46H8.59c-2.61,0-4.73-2.12-4.73-4.73V21.2c0-2.61,2.12-4.73,4.73-4.73H124.14c2.61,0,4.73,2.12,4.73,4.73v47.27h-3.35V21.2c0-.76-.62-1.38-1.38-1.38H8.59c-.76,0-1.38,.62-1.38,1.38V112.72c0,.76,.62,1.38,1.38,1.38H82.66v3.35Z"/>
    <rect x="6.54" y="35.21" width="119.62" height="3.35"/>
    <circle cx="117.35" cy="27.69" r="2.23"/>
    <circle cx="109.3" cy="27.69" r="2.23"/>
    <circle cx="101.26" cy="27.69" r="2.23"/>
    <path d="M81.6,71.93H18.8v-26.1h62.8v26.1Zm-59.44-3.35h56.09v-19.39H22.16v19.39Z"/>
    <polygon points="100.68 65.6 97.33 65.6 97.33 45.82 116.62 45.82 116.62 49.18 100.68 49.18 100.68 65.6"/>
    <rect x="21.22" y="81.05" width="55.04" height="3.35"/>
    <rect x="21.22" y="91.32" width="55.04" height="3.35"/>
    <rect x="21.22" y="101.6" width="38.16" height="3.35"/>
  </g>
  <g>
    <g>
      <path class="cls-2" d="M144.35,108.42l.12-11.64-6.52-.06c-.44-1.85-1.09-3.61-1.95-5.26l5.13-4.56-7.73-8.71-5.2,4.62c-2.14-1.4-4.52-2.46-7.07-3.09v-7.47h-11.64v7.63c-1.94,.54-3.78,1.32-5.48,2.32l-4.32-4.37-8.29,8.18,4.39,4.44c-1.01,1.73-1.8,3.6-2.33,5.58l-6.86-.07-.12,11.64,6.9,.07c.56,2.21,1.45,4.3,2.61,6.21l-5.06,5.48,8.55,7.9,4.88-5.28c1.9,1.07,3.96,1.88,6.15,2.37l.67,7.5,11.6-1.03-.61-6.85c1.77-.53,3.44-1.26,5-2.17l5.11,4.72,7.9-8.55-4.77-4.41c.95-1.62,1.71-3.38,2.24-5.22l6.69,.07Z"/>
      <path d="M109.65,133.67l-.71-7.99c-1.46-.41-2.87-.95-4.23-1.62l-5.15,5.57-11.01-10.18,5.37-5.8c-.74-1.38-1.35-2.82-1.81-4.31l-7.33-.07,.15-15,7.27,.07c.4-1.23,.91-2.44,1.5-3.6l-4.69-4.75,10.67-10.54,4.6,4.66c1.13-.58,2.3-1.08,3.5-1.48v-8.07h15v7.87c1.82,.55,3.57,1.32,5.22,2.28l5.52-4.9,9.96,11.21-5.44,4.83c.47,1.03,.86,2.1,1.18,3.18l6.92,.07-.15,15-7.12-.07c-.38,1.1-.83,2.16-1.36,3.19l5.04,4.66-10.18,11.01-5.45-5.04c-.96,.5-1.95,.93-2.96,1.29l.64,7.19-14.94,1.33Zm-5.62-13.8l1.16,.65c1.78,1.01,3.7,1.75,5.7,2.2l1.19,.27,.63,7.04,8.26-.73-.58-6.54,1.31-.39c1.61-.48,3.17-1.16,4.64-2.01l1.07-.63,4.79,4.43,5.63-6.09-4.53-4.19,.68-1.16c.89-1.52,1.59-3.15,2.08-4.84l.35-1.23,6.29,.06,.08-8.29-6.16-.06-.3-1.28c-.4-1.69-1-3.33-1.8-4.87l-.6-1.16,4.85-4.31-5.51-6.2-4.9,4.36-1.07-.71c-2.02-1.33-4.22-2.29-6.55-2.86l-1.28-.31v-7.1h-8.29v7.23l-1.23,.34c-1.78,.49-3.48,1.22-5.07,2.15l-1.13,.66-4.06-4.11-5.9,5.82,4.11,4.16-.65,1.11c-.95,1.62-1.67,3.36-2.16,5.17l-.34,1.26-6.48-.07-.08,8.29,6.52,.07,.32,1.25c.52,2.02,1.33,3.96,2.42,5.75l.66,1.08-4.78,5.17,6.09,5.63,4.64-5.02Z"/>
    </g>
    <g>
      <circle class="cls-1" cx="115.47" cy="102.05" r="14.16"/>
      <path d="M115.47,117.89c-8.73,0-15.84-7.11-15.84-15.84s7.11-15.84,15.84-15.84,15.84,7.11,15.84,15.84-7.11,15.84-15.84,15.84Zm0-28.32c-6.88,0-12.49,5.6-12.49,12.48s5.6,12.48,12.49,12.48,12.49-5.6,12.49-12.48-5.6-12.48-12.49-12.48Z"/>
    </g>
  </g>
</svg>