<?xml version="1.0" encoding="UTF-8"?>
<svg id="Layer_2" data-name="Layer 2" xmlns="http://www.w3.org/2000/svg" viewBox="0 0 107.55 119.83">
  <defs>
    <style>
      .cls-1 {
        fill: #b7b7b7;
      }
    </style>
  </defs>
  <g id="Layer_1-2" data-name="Layer 1">
    <g>
      <g>
        <path class="cls-1" d="m43.38,0H10.84v77.83L43.38,0Z"/>
        <path class="cls-1" d="m66.28,0h32.5v77.83L66.28,0Z"/>
        <path class="cls-1" d="m54.83,28.68l20.71,49.14h-13.59l-6.19-15.65h-15.16l14.23-33.5Z"/>
      </g>
      <g>
        <path class="cls-1" d="m16.11,112.68l2.27,6.52c.08.16.19.24.39.24h4.37c.24,0,.28-.11.24-.35l-9.03-25.08c-.04-.2-.08-.24-.28-.24h-5.43c-.15,0-.24.11-.24.28-.08,1.32-.19,1.72-.35,2.11L0,119.05c-.04.28.05.39.28.39h3.91c.24,0,.35-.08.44-.31l2.15-6.44h9.33Zm-8.09-4.26c1.18-3.57,2.74-8.14,3.37-10.75h.04c.78,2.74,2.61,8.16,3.44,10.75h-6.84Z"/>
        <path class="cls-1" d="m34.99,119.83c2.35,0,4.85-.43,7.38-1.52.2-.08.24-.16.24-.35-.08-.7-.16-1.72-.16-2.5v-23.61c0-.15,0-.23-.19-.23h-4.26c-.16,0-.24.08-.24.28v8c-.67-.08-1.13-.11-1.68-.11-6.87,0-11.09,4.53-11.09,10.2,0,6.57,4.33,9.85,10,9.85Zm2.78-4.37c-.7.23-1.48.31-2.27.31-3.11,0-5.66-1.76-5.66-6.03,0-3.78,2.62-6.02,6.1-6.02.7,0,1.32.08,1.83.28v11.45Z"/>
        <path class="cls-1" d="m56.2,99.78c-5.87,0-9.49,4.5-9.49,10.05,0,4.96,2.89,10,9.41,10,5.51,0,9.38-4.06,9.38-10.12,0-5.35-3.28-9.92-9.29-9.92Zm-.24,3.94c3.32,0,4.72,2.85,4.72,6.1,0,4.02-2.07,6.02-4.48,6.02-2.98,0-4.73-2.5-4.73-6.1s1.87-6.02,4.5-6.02Z"/>
        <path class="cls-1" d="m69.89,91.62c-.16,0-.28.08-.28.28v26.73c0,.11.11.31.28.35,1.87.58,3.83.85,5.85.85,5.79,0,11.42-3.59,11.42-10.83,0-5.24-3.59-9.22-9.22-9.22-1.29,0-2.5.2-3.55.55l-.05-8.4c0-.28-.08-.31-.35-.31h-4.09Zm12.46,17.86c0,4.33-2.96,6.37-6.17,6.37-.67,0-1.26-.04-1.8-.2v-11.4c.62-.24,1.36-.44,2.73-.44,3.09,0,5.24,1.96,5.24,5.68Z"/>
        <path class="cls-1" d="m103.05,110.89c1.91,0,3.48-.04,4.02-.16.2-.04.28-.11.31-.28.11-.43.16-1.32.16-2.41,0-3.72-2.24-8.25-8.01-8.25s-9.18,4.81-9.18,10.24c0,4.81,2.54,9.81,9.65,9.81,2.66,0,4.38-.43,5.87-1.13.15-.08.23-.2.23-.43v-3.25c0-.19-.11-.23-.23-.15-1.48.63-3.09.94-4.85.94-3.98,0-5.79-2.2-5.9-4.92h7.94Zm-7.94-3.37c.31-1.91,1.52-3.98,4.22-3.98,2.98,0,3.76,2.5,3.76,3.63v.31c-.16.04-.67.04-2.15.04h-5.83Z"/>
      </g>
    </g>
  </g>
</svg>