<?xml version="1.0" encoding="UTF-8"?>
<svg id="Layer_2" data-name="Layer 2" xmlns="http://www.w3.org/2000/svg" viewBox="0 0 175 50.7">
  <defs>
    <style>
      .cls-1 {
        fill: #b7b7b7;
      }
    </style>
  </defs>
  <g id="Layer_1-2" data-name="Layer 1">
    <g>
      <path class="cls-1" d="m101.52,0c.2,0,.34,0,.47,0,2.28,0,4.56,0,6.84,0,.38,0,.38,0,.5.32,1.66,4.23,3.32,8.46,4.99,12.7,2.03,5.15,4.06,10.31,6.09,15.46.06.15.12.3.21.51.08-.13.14-.2.18-.28,1.29-2.78,2.59-5.56,3.88-8.34,3.11-6.69,6.22-13.37,9.32-20.06.11-.24.25-.31.49-.31,1.27,0,2.54,0,3.82,0,1.03,0,2.07,0,3.1,0,.12,0,.25,0,.43,0-.06.16-.1.28-.15.38-.93,1.92-1.86,3.84-2.79,5.77-1.69,3.51-3.38,7.02-5.06,10.53-2.95,6.14-5.9,12.28-8.85,18.41-2.33,4.85-4.66,9.69-6.98,14.54-.13.26-.26.52-.36.79-.08.21-.22.28-.43.27-.4-.01-.81,0-1.21,0-1.69,0-3.37,0-5.06,0-.18,0-.37-.02-.58-.04.04-.1.06-.16.09-.21,2.12-4.39,4.24-8.78,6.36-13.17q.26-.54.02-1.11c-3.23-7.62-6.45-15.25-9.68-22.87-1.84-4.34-3.67-8.67-5.51-13.01-.03-.07-.05-.14-.1-.28Z"/>
      <path class="cls-1" d="m175,37.22h-7.19c-4.31-9.29-8.62-18.59-12.94-27.89-.03,0-.06,0-.09,0-2.58,5.66-5.16,11.33-7.76,17.04.15.01.26.03.36.03,3.63,0,7.25,0,10.88,0,.84,0,.61-.1.97.61.69,1.37,1.38,2.74,2.06,4.11.06.11.11.22.18.37-.12.02-.21.05-.3.06-.3.01-.6.02-.91.02-4.99,0-9.97,0-14.96,0-.2,0-.4.01-.6-.01-.21-.03-.31.05-.4.25-.55,1.23-1.11,2.45-1.66,3.67-.26.58-.53,1.16-.8,1.76h-7.13c.02-.08.02-.15.05-.21,5.13-10.84,10.26-21.69,15.39-32.53.66-1.39,1.32-2.77,1.96-4.16.11-.23.23-.32.48-.32,1.5,0,3,0,4.49,0,.23,0,.33.08.42.28,4.54,9.62,9.09,19.24,13.64,28.86,1.12,2.36,2.23,4.72,3.35,7.09.15.31.3.62.49,1Z"/>
      <path class="cls-1" d="m79.15,26.38c.17,0,.27.02.37.02,3.74,0,7.48,0,11.22-.01.23,0,.39.04.5.28.74,1.51,1.5,3.02,2.25,4.52.04.09.08.18.13.3-.12.02-.21.04-.3.05-.33,0-.65.02-.98.02-4.9,0-9.8,0-14.69,0-.26,0-.53,0-.79-.02-.22-.03-.32.07-.4.25-.56,1.24-1.12,2.47-1.68,3.71-.26.57-.52,1.14-.78,1.73h-7.16c.03-.09.05-.16.08-.23,5.71-12.08,11.43-24.16,17.15-36.24.08-.16.16-.31.22-.48.07-.2.2-.26.4-.26.57,0,1.13,0,1.7,0,.96,0,1.91,0,2.87,0,.2,0,.32.06.41.25,1.01,2.16,2.02,4.33,3.04,6.48,4.63,9.79,9.26,19.58,13.89,29.36.15.32.3.63.45.95.02.04.02.09.04.18-.16,0-.29,0-.43,0-2.12,0-4.23,0-6.35.01-.27,0-.4-.1-.51-.33-4-8.65-8.01-17.3-12.02-25.95-.2-.43-.4-.87-.61-1.3-.05-.11-.11-.21-.22-.4-2.61,5.73-5.19,11.39-7.8,17.12Z"/>
      <path class="cls-1" d="m40.26,37.22h-7.16c-4.31-9.3-8.62-18.59-12.93-27.89-.03,0-.06,0-.1,0-2.58,5.66-5.16,11.32-7.76,17.04.17.01.27.03.38.03,3.7,0,7.4,0,11.11-.01.35,0,.5.12.65.42.7,1.45,1.43,2.88,2.15,4.32.06.11.11.22.18.38-.14.02-.25.04-.35.05-.31,0-.63.01-.94.01-4.92,0-9.85,0-14.77,0-.23,0-.45,0-.68-.02-.2-.02-.32.03-.41.23-.77,1.72-1.55,3.43-2.32,5.15-.09.2-.16.33-.43.33-2.19-.01-4.38,0-6.57,0-.09,0-.17,0-.3-.01.03-.09.04-.17.08-.25C5.1,26.34,10.13,15.72,15.16,5.09c.76-1.6,1.52-3.2,2.26-4.81.1-.2.21-.28.43-.28,1.51,0,3.02.01,4.53,0,.25,0,.35.13.44.32,2.2,4.67,4.41,9.34,6.62,14,3.56,7.53,7.13,15.06,10.69,22.58.04.08.07.16.12.3Z"/>
      <path class="cls-1" d="m66.78.02h7.18c-.07.16-.11.28-.17.4-1.17,2.45-2.34,4.9-3.5,7.35-1.7,3.59-3.4,7.17-5.09,10.76-2.9,6.13-5.8,12.26-8.69,18.4-.11.23-.23.31-.48.31-1.49,0-2.97,0-4.46,0-.26,0-.37-.1-.48-.32-3.19-6.76-6.38-13.52-9.58-20.27-2.58-5.46-5.17-10.92-7.75-16.38-.03-.06-.05-.13-.08-.24.15-.01.27-.03.39-.03,2.12,0,4.23,0,6.35,0,.29,0,.44.09.57.36,2.7,5.95,5.4,11.89,8.11,17.84,1.46,3.21,2.92,6.42,4.39,9.64.09.2.2.39.34.67C58.16,18.96,62.47,9.5,66.78.02Z"/>
    </g>
  </g>
</svg>