<?xml version="1.0" encoding="UTF-8"?>
<svg id="Layer_1" data-name="Layer 1" xmlns="http://www.w3.org/2000/svg" viewBox="0 0 206.09 180">
  <defs>
    <style>
      .cls-1 {
        fill: none;
        stroke: #ffc514;
        stroke-miterlimit: 10;
        stroke-width: 4px;
      }

      .cls-2 {
        fill: #fff;
        stroke-width: 0px;
      }
    </style>
  </defs>
  <g>
    <text/>
    <path class="cls-1" d="m26.78,88.68C26.78,45.95,61.42,11.3,104.16,11.3s77.38,34.64,77.38,77.38-34.64,77.38-77.38,77.38"/>
    <line class="cls-1" x1="105.07" y1="25.57" x2="105.07" y2="11.3"/>
    <polyline class="cls-1" points="105.07 50.29 105.07 88.47 139.56 124.1"/>
    <line class="cls-1" x1="105.07" y1="168.56" x2="105.07" y2="153.4"/>
    <line class="cls-1" x1="166.42" y1="88.63" x2="180.69" y2="88.63"/>
    <line class="cls-1" x1="24.55" y1="88.63" x2="39.73" y2="88.63"/>
  </g>
  <path class="cls-2" d="m61.76,161.02v7.68h-5.21v-7.59c-8.7-.51-15.27-4.1-19.54-8.96l4.27-5.38c3.33,3.75,8.53,7.25,15.27,7.94v-20.74c-8.7-2.3-17.75-5.29-17.75-15.79,0-8.87,7.51-15.1,17.75-15.79v-7.77h5.21v7.94c7.08.6,12.71,3.41,16.81,7.77l-4.27,5.21c-3.33-3.75-7.77-5.8-12.54-6.49v18.52c8.79,2.47,18.09,5.72,18.09,16.9,0,7.68-4.86,15.62-18.09,16.56Zm-5.21-34.82v-17.41c-6.14.34-10.41,3.93-10.41,8.96s4.69,6.83,10.41,8.45Zm5.21,28.42c8.19-.68,10.84-5.63,10.84-9.56,0-5.8-4.95-7.94-10.84-9.73v19.29Z"/>
</svg>