<?xml version="1.0" encoding="UTF-8"?>
<svg id="Layer_2" data-name="Layer 2" xmlns="http://www.w3.org/2000/svg" viewBox="0 0 198.01 67.76">
  <defs>
    <style>
      .cls-1 {
        fill: #b7b7b7;
      }
    </style>
  </defs>
  <g id="Layer_1-2" data-name="Layer 1">
    <g>
      <path class="cls-1" d="m86.86,42.28c1.83,0,3.66.02,5.49,0,.51,0,.71.1.71.67-.02,8.06-.02,16.12,0,24.18,0,.53-.18.63-.66.62-1.54-.03-3.09-.04-4.64,0-.61.02-.71-.2-.71-.75.02-4.48.01-8.96,0-13.44,0-.27.07-.56-.1-.88-.62.42-.92,1.09-1.32,1.65-2.93,4.14-5.83,8.31-8.73,12.48-.27.39-.45.62-.84.06-2.44-3.54-4.92-7.07-7.38-10.59-.86-1.23-1.73-2.45-2.63-3.72-.18.27-.1.55-.1.8,0,4.53-.02,9.06.01,13.59,0,.66-.18.81-.81.79-1.52-.05-3.04-.03-4.56,0-.47,0-.62-.12-.62-.6.01-8.08.01-16.17,0-24.25,0-.48.16-.61.62-.61,1.7.02,3.4.03,5.1,0,.43,0,.65.18.87.49,3.15,4.5,6.31,8.99,9.44,13.5.39.56.51.56.9,0,2.26-3.27,4.57-6.52,6.86-9.76.97-1.37,1.95-2.74,2.92-4.1.05-.04.1-.08.15-.12Zm.19,10.28l.03-.05h-.05s.02.05.02.05Z"/>
      <path class="cls-1" d="m43.99,42.29c4.28,0,8.55.01,12.83-.01.58,0,.81.11.78.75-.05,1.47-.05,2.94,0,4.4.02.67-.14.86-.84.85-6.49-.03-12.99,0-19.48-.04-.73,0-1.03.14-.94.92.07.64.06,1.29,0,1.93-.07.73.14.95.91.95,5.98-.04,11.95-.02,17.93-.02,1.17,0,1-.12,1,.96,0,1.39-.03,2.78.02,4.17.02.66-.12.87-.83.86-6.03-.03-12.06,0-18.09-.04-.82,0-1.02.24-.95.99.06.66.06,1.34,0,2.01-.06.67.21.8.83.79,2.78-.03,5.57-.01,8.35-.01,3.74,0,7.47.01,11.21-.01.6,0,.79.16.77.77-.04,1.54-.04,3.09,0,4.64.01.49-.14.6-.61.6-8.63-.01-17.26-.02-25.89,0-.53,0-.63-.18-.62-.66.01-8.06.01-16.12,0-24.18,0-.51.13-.64.64-.63,4.33.02,8.66.01,12.99.01Z"/>
      <path class="cls-1" d="m111.08,42.35c3.06,0,6.13-.1,9.19.03,3.04.13,5.07,2.38,5.95,4.9.4,1.15.48,2.38.48,3.6,0,5.38-.01,10.76.01,16.15,0,.57-.13.74-.71.72-1.49-.05-2.99-.06-4.48,0-.68.03-.8-.22-.79-.83.04-2.14-.01-4.28.03-6.41.01-.65-.12-.86-.83-.86-4.69.04-9.38,0-14.07.03-.64,0-.82-.16-.8-.8.05-1.44.05-2.89,0-4.33-.02-.67.14-.86.84-.86,4.66.03,9.33,0,13.99.03.65,0,.93-.12.86-.84-.12-1.24.16-2.51-.24-3.73-.19-.57-.53-.9-1.16-.9-5.51,0-11.03,0-16.54,0-.84,0-1.22.35-1.31,1.19-.05.46-.07.92-.07,1.39,0,5.36-.02,10.71.01,16.07,0,.7-.19.86-.86.84-1.52-.05-3.04-.03-4.56,0-.43,0-.57-.11-.57-.55.01-6.1-.1-12.21.07-18.31.06-2.32,1.32-4.27,3.38-5.59,1.2-.77,2.52-.99,3.89-1,2.76-.02,5.51,0,8.27,0,0,.02,0,.03,0,.05Z"/>
      <path class="cls-1" d="m10.67,67.74c-3.32,0-6.64-.01-9.97.01-.53,0-.7-.12-.7-.68.02-4.92.02-9.83,0-14.75,0-.47.08-.68.63-.67,1.57.04,3.14.04,4.71,0,.52-.01.64.15.64.65-.02,2.88,0,5.77-.03,8.65,0,.61.1.83.78.82,4.27-.04,8.55-.03,12.82-.01,1.62,0,2.41-.78,2.41-2.4,0-2.91,0-5.82,0-8.73,0-1.61-.77-2.37-2.4-2.37-6.26,0-12.52-.01-18.77.02-.65,0-.82-.16-.8-.8.05-1.52.04-3.04,0-4.56-.01-.52.17-.65.66-.65,6.36.01,12.72-.04,19.08.02,3.74.03,6.74,2.21,7.77,5.46.27.85.42,1.72.42,2.62-.02,2.99-.03,5.97,0,8.96.04,4.03-2.2,6.91-5.82,8.1-.86.28-1.74.3-2.63.3-2.94,0-5.87,0-8.81,0Z"/>
      <path class="cls-1" d="m169.39,67.74c-3.32,0-6.65-.01-9.97.01-.53,0-.7-.12-.7-.68.02-4.92.02-9.84,0-14.75,0-.57.2-.67.71-.66,1.55.03,3.09.03,4.64,0,.54-.01.69.14.68.68-.03,2.88,0,5.77-.02,8.65,0,.56.08.79.73.79,4.28-.03,8.55-.06,12.83,0,1.4.02,2.47-.98,2.43-2.4-.09-2.91-.04-5.82-.02-8.73,0-1.64-.73-2.38-2.4-2.38-6.23,0-12.47-.02-18.7.02-.73,0-.89-.21-.87-.9.05-1.49.03-2.99,0-4.48,0-.46.12-.62.6-.62,6.41.01,12.83-.06,19.24.04,3.37.05,5.95,1.61,7.43,4.74.51,1.07.68,2.24.68,3.41.02,2.96.04,5.92,0,8.88-.06,4.04-1.9,6.7-5.85,8.11-.87.31-1.8.28-2.72.28-2.91,0-5.82,0-8.73,0Z"/>
      <path class="cls-1" d="m83.58,32.64c27.51,0,55.02,0,82.54-.02.72,0,.97.13.94.91-.07,1.71-.02,1.71-1.74,1.71-54.77,0-109.53,0-164.3,0-1.1,0-.99.17-.99-.98,0-1.62,0-1.62,1.65-1.62h81.92Z"/>
      <path class="cls-1" d="m135.14,50.92c0,1.59,0,3,0,4.42,0,3.89-.01,7.78.01,11.67,0,.62-.19.77-.78.76-1.52-.04-3.04-.04-4.56,0-.56.01-.67-.17-.67-.69.02-8.01.02-16.02,0-24.03,0-.63.2-.77.78-.75,1.52.04,3.04.03,4.56.01.42,0,.72.11,1,.43,2.56,2.88,5.12,5.75,7.68,8.61,1.42,1.59,2.85,3.17,4.28,4.74.79.88,1.6,1.74,2.39,2.62.13.14.18.43.43.32.19-.08.08-.32.08-.49,0-2.88,0-5.77,0-8.65,0-2.29.01-4.58-.01-6.88,0-.51.08-.72.66-.71,1.54.04,3.09.03,4.64,0,.46,0,.69.07.69.62-.02,8.09-.02,16.17,0,24.26,0,.43-.11.58-.56.58-1.65-.02-3.3-.01-4.95,0-.86,0-1.19-.73-1.67-1.22-.69-.7-1.32-1.46-1.96-2.22-1.09-1.31-2.28-2.53-3.38-3.83-.9-1.06-1.88-2.07-2.8-3.11-1.65-1.87-3.38-3.66-4.95-5.6-.22-.27-.52-.48-.92-.84Zm.03-.09l-.04-.03v.05s.04-.02.04-.02Z"/>
      <path class="cls-1" d="m178.21,38.67c-2.78,0-5.56-.02-8.35.01-.58,0-.73-.21-.64-.71.31-1.66.09-3.33.14-4.99.01-.38.08-.67.37-.95,4.97-4.9,9.92-9.81,14.87-14.73.32-.32.64-.44,1.08-.44,2.42.02,4.84.03,7.26,0,.6,0,.71.18.71.74-.02,4.63,0,9.27-.03,13.9,0,.62.13.86.79.82,1-.06,2.01,0,3.01-.02.44-.01.57.13.57.57-.02,1.75-.02,3.5,0,5.25,0,.45-.15.57-.58.55-1.03-.03-2.06.03-3.09-.02-.61-.03-.72.18-.71.74.04,1.34,0,2.68.02,4.02.01.51-.09.72-.66.71-1.73-.03-3.45-.02-5.18.01-.47,0-.63-.1-.61-.6.03-1.34-.04-2.68.03-4.02.04-.75-.24-.87-.91-.86-2.7.03-5.41.01-8.11.01Zm-.62-6.37c3.01,0,6.02,0,9.03.02.41,0,.61-.08.6-.55-.02-2.7,0-5.4-.01-8.1,0-.14.05-.33-.12-.41-.18-.09-.28.09-.38.18-1.1,1.04-2.19,2.08-3.28,3.12-.24.23-.44.5-.69.72-1.78,1.58-3.59,3.11-5.17,4.9-.04.02-.08.05-.12.07.04.01.09.02.13.04Z"/>
      <path class="cls-1" d="m121.93.04c3.74,0,7.47,0,11.21-.01.52,0,.72.11.7.67-.04,1.31-.04,2.63,0,3.94.02.57-.2.67-.71.66-5.67-.02-11.34,0-17-.03-.77,0-1,.22-.91.95.1.76-.32,1.73.18,2.22.47.45,1.42.13,2.16.13,4.74.01,9.48.02,14.22,0,.63,0,.85.15.82.81-.05,1.21-.05,2.42,0,3.63.03.69-.14.91-.88.91-5.15-.03-10.31-.02-15.46-.02q-1.04,0-1.04,1.03c0,.49.04.98,0,1.47-.05.6.14.79.77.79,3.19-.03,6.39-.01,9.58-.01,2.5,0,5,.01,7.5-.01.55,0,.78.1.76.71-.05,1.31-.03,2.63,0,3.94,0,.46-.12.62-.61.62-7.55-.01-15.1-.01-22.65,0-.52,0-.66-.19-.66-.67.01-7.03.01-14.06,0-21.09,0-.61.27-.64.74-.64,3.76.01,7.52,0,11.28,0Z"/>
      <path class="cls-1" d="m40.51,22.41c-2.27,0-4.53.05-6.8-.01-3.63-.09-6.82-2.86-6.84-6.84-.01-2.96-.04-5.92.02-8.88.06-3.28,2.46-5.88,5.64-6.47.45-.08.92-.15,1.38-.15,4.61,0,9.22-.08,13.83.03,2.83.07,4.95,1.52,6.25,4.05.47.92.66,1.94.66,2.98,0,2.68,0,5.36,0,8.03,0,4.07-3.09,7.21-7.18,7.27-2.32.03-4.64,0-6.95,0,0,0,0,0,0-.01Zm.22-17.12c-2.16,0-4.33-.01-6.49,0-1.5.01-2.11.63-2.11,2.12,0,2.55,0,5.1,0,7.64,0,1.41.59,2.08,2,2.09,4.43.03,8.86.03,13.29,0,1.43-.01,1.98-.66,1.99-2.09,0-2.5,0-4.99,0-7.49,0-1.71-.56-2.28-2.26-2.29-2.14,0-4.27,0-6.41,0Z"/>
      <path class="cls-1" d="m75.42,14.27c0-4.45.03-8.91,0-13.36,0-.71.19-.92.89-.89,1.21.06,2.42.05,3.63,0,.63-.03.82.15.82.8-.02,6.38,0,12.77-.02,19.15,0,.79.35,1.8-.17,2.3-.48.46-1.47.11-2.24.14-.59.02-1.19-.07-1.77.02-.92.14-1.49-.33-2.04-.96-1.21-1.38-2.44-2.74-3.66-4.12-1.46-1.66-2.86-3.39-4.39-4.99-1.06-1.11-1.99-2.34-3.1-3.39-.43-.4-.62-1.01-1.28-1.35,0,.3,0,.55,0,.79,0,4.4-.01,8.8.01,13.21,0,.64-.16.84-.81.81-1.29-.05-2.58-.03-3.86,0-.48.01-.61-.15-.61-.62.01-7.05.01-14.11,0-21.16,0-.53.18-.64.66-.63,1.34.03,2.68.02,4.02,0,.37,0,.63.1.87.37,2.17,2.43,4.35,4.85,6.53,7.28,1.48,1.64,2.96,3.28,4.43,4.92.36.4.69.83,1.08,1.2.24.24.39.64.83.6.03.14-.01.41.15.36.22-.07.15-.32.02-.49Z"/>
      <path class="cls-1" d="m141.3,7.61c-.01,4.58-.02,9.17-.03,13.75,0,1.21.14,1.05-1.08,1.06-1.19,0-2.37-.01-3.56,0-.45,0-.63-.1-.63-.6.01-7.08.01-14.16,0-21.25,0-.45.16-.57.58-.56,1.42.02,2.83.02,4.25,0,.39,0,.59.19.83.45,4.14,4.62,8.29,9.23,12.43,13.85.14.15.27.31.43.51.24-.28.14-.54.14-.77,0-4.4.02-8.81,0-13.21,0-.62.13-.85.79-.83,1.29.05,2.58.03,3.86,0,.46,0,.62.11.62.6-.01,7.06-.01,14.11,0,21.17,0,.45-.09.65-.59.64-1.39-.03-2.78-.02-4.17,0-.38,0-.61-.15-.85-.42-4.16-4.67-8.33-9.33-12.5-14-.13-.15-.3-.28-.44-.42-.04-.08-.07-.12-.08,0Z"/>
      <path class="cls-1" d="m15.33,22.4c-2.88,0-5.77.04-8.65-.01C3.3,22.33.02,19.22.08,15.86c.05-3.04.03-6.08,0-9.11C.04,3.21,3.02.14,6.75.08,12.55-.02,18.35.05,24.14.03c.46,0,.55.17.55.59-.02,1.34-.04,2.68,0,4.02.02.57-.19.67-.7.67-5.36-.02-10.72,0-16.07-.02-.52,0-1.02.07-1.51.19-.65.16-1.06.64-1.06,1.35-.01,2.94-.01,5.87,0,8.81,0,.77.46,1.22,1.18,1.41.4.11.81.13,1.22.13,5.33,0,10.66.02,16-.03.82,0,.99.24.95.99-.06,1.13-.05,2.27,0,3.4.03.68-.12.92-.87.91-2.83-.05-5.67-.02-8.5-.02,0,0,0-.02,0-.03Z"/>
      <path class="cls-1" d="m174.24.04c3.99,0,7.99.01,11.98-.01.56,0,.77.12.75.72-.05,1.26-.04,2.52,0,3.78.02.6-.15.79-.77.78-2.86-.03-5.72,0-8.58-.03-.63,0-.82.15-.82.8.03,5.18,0,10.35.03,15.53,0,.62-.12.86-.8.83-1.23-.06-2.47-.05-3.71,0-.6.02-.78-.15-.78-.77.03-5.12.02-10.25.01-15.37,0-1.14.13-1-.97-1-2.78,0-5.56-.02-8.35.01-.56,0-.77-.11-.75-.72.05-1.26.04-2.52,0-3.78-.02-.59.13-.79.76-.78,3.99.03,7.99.02,11.98.02Z"/>
      <path class="cls-1" d="m95.1.04c3.97,0,7.93.01,11.9-.01.58,0,.75.15.73.73-.04,1.29-.04,2.58,0,3.86.02.55-.16.69-.69.69-2.81-.03-5.62.01-8.42-.03-.74-.01-.99.13-.99.95.05,5.12,0,10.25.04,15.37,0,.69-.17.88-.85.85-1.23-.06-2.47-.05-3.71,0-.59.02-.73-.17-.72-.74.02-5.18,0-10.35.03-15.53,0-.69-.15-.91-.87-.9-2.83.05-5.67,0-8.5.03-.52,0-.72-.11-.7-.67.04-1.31.04-2.63,0-3.94-.02-.58.2-.67.71-.66,4.02.02,8.04.01,12.06.01Z"/>
      <path class="cls-1" d="m197,2c-.36.62-.72,1.24-1.1,1.91-.55-.58-.73-1.37-1.32-2.07,0,.65,0,1.15,0,1.65,0,.25.12.57-.36.58-.46,0-.41-.26-.41-.54,0-1,0-2,0-3.01,0-.19-.14-.51.26-.51.27,0,.54-.06.71.29.31.64.69,1.25,1.08,1.95.38-.67.74-1.25,1.03-1.87.19-.4.48-.41.82-.37.42.05.24.39.24.61.02.95.01,1.9,0,2.85,0,.26.11.57-.37.59-.54.02-.39-.34-.4-.62-.02-.46-.01-.92-.02-1.39.02-.09.08-.19-.05-.23-.02,0-.07.11-.11.17Z"/>
      <path class="cls-1" d="m191.72.01c.38,0,.77,0,1.15,0,.32,0,.64-.09.64.46,0,.52-.26.54-.62.48-.66-.11-.84.18-.78.8.06.61.01,1.23.01,1.84,0,.23.04.46-.33.46-.33,0-.46-.1-.45-.44.02-.64-.04-1.28.02-1.92.05-.6-.14-.83-.75-.75-.33.04-.74.14-.69-.48.03-.37.12-.49.49-.47.43.03.87,0,1.31,0Z"/>
      <path class="cls-1" d="m75.42,14.27c.13.18.2.42-.02.49-.16.05-.13-.22-.15-.36.06-.05.11-.09.17-.14Z"/>
      <path class="cls-1" d="m197,2c.04-.06.09-.18.11-.17.13.04.07.14.05.23-.05-.02-.11-.04-.16-.05Z"/>
      <path class="cls-1" d="m141.3,7.61c.01-.13.05-.09.08,0,0,0-.04.01-.04.01h-.04Z"/>
      <path class="cls-1" d="m86.86,42.28s-.1.08-.15.12c-.02-.13.03-.17.15-.12Z"/>
      <polygon class="cls-1" points="87.05 52.56 87.03 52.5 87.08 52.51 87.05 52.56"/>
      <polygon class="cls-1" points="135.17 50.82 135.12 50.84 135.13 50.79 135.17 50.82"/>
      <path class="cls-1" d="m177.58,32.18s.02.07.01.11c-.04-.01-.09-.02-.13-.04.04-.02.08-.05.12-.07Z"/>
    </g>
  </g>
</svg>