<?xml version="1.0" encoding="UTF-8"?>
<svg id="Layer_2" data-name="Layer 2" xmlns="http://www.w3.org/2000/svg" viewBox="0 0 113.34 113">
  <defs>
    <style>
      .cls-1 {
        fill: #b7b7b7;
      }
    </style>
  </defs>
  <g id="Layer_1-2" data-name="Layer 1">
    <g>
      <path class="cls-1" d="m54.91,0h3.51c17.09.96,29.27,7.45,38.31,16.55,9.03,9.09,15.71,21.09,16.6,38.25v3.4c-.87,17.44-7.66,28.94-16.6,38.31-9.39,8.89-20.94,15.63-38.36,16.49h-3.46c-17.09-.97-29.27-7.45-38.31-16.55C7.57,87.35.89,75.36,0,58.2v-3.4s.07-.05.06-.11c.85-17.1,7.57-29.22,16.55-38.19C25.62,7.47,37.93.93,54.91,0h0Zm-11.11,8.1c-3.37.9-6.39,2.05-9.12,3.4-8.33,4.12-15.2,10.01-20,17.57-4.69,7.37-8.75,16.86-8.16,29.3.37,7.84,2.16,14.44,4.99,20.06,5.58,11.1,14.08,19.28,25.84,24.25,5.82,2.46,13.02,4.18,21.14,3.8,7.78-.37,14.53-2.12,20.12-4.93,10.95-5.51,19.58-14,24.37-25.73,2.42-5.93,4.25-12.78,3.85-21.08-.75-15.72-7.14-26.38-15.58-34.51-4.18-4.02-9.2-7.44-15.13-9.92-5.75-2.4-13.23-4.18-21.25-3.8-3.94.19-7.66.68-11.05,1.59h0Z"/>
      <path class="cls-1" d="m51.45,41.82c1.8,1.19,3.63,2.34,5.33,3.63-3.83,2.4-7.58,4.88-11.39,7.31.58.44,1.24.8,1.81,1.25,3.84-2.43,7.68-4.86,11.5-7.31,1.72,1.06,3.4,2.15,4.99,3.34-3.83,2.42-7.54,4.97-11.33,7.42.56.46,1.25.79,1.87,1.19,3.93-2.4,7.75-4.9,11.62-7.37v-8.05h8.5v16.04c2.4.13,5.04.02,7.54.06v7.54h-16.04v-7.65c-4.71,2.86-9.54,6.1-14.28,9.12-4.94-3.21-9.69-6.59-14.62-9.8-1.43,4.52-4.82,7.93-10.43,8.33-3.5.25-7.47-.19-11.5,0v-23.63c5.04.33,10.57-.67,14.56.57,3.53,1.1,6.04,3.91,7.2,7.42,4.93-3.1,9.78-6.27,14.68-9.41h0Zm-28.33,9.01v8.5c2.02.01,3.56.13,4.76-.79,1.78-1.37,2.14-4.76.57-6.57-1.05-1.21-2.82-1.46-5.27-1.3-.07,0-.06.09-.06.17Zm60.97-7.59h8.5v16.09h7.48v7.54h-16.04v-23.46c0-.08,0-.16.06-.17h0Z"/>
    </g>
  </g>
</svg>