<?xml version="1.0" encoding="UTF-8"?>
<svg id="Layer_2" data-name="Layer 2" xmlns="http://www.w3.org/2000/svg" viewBox="0 0 193.93 94.78">
  <defs>
    <style>
      .cls-1 {
        fill: #b7b7b7;
      }
    </style>
  </defs>
  <g id="Layer_1-2" data-name="Layer 1">
    <g>
      <polygon class="cls-1" points="103.48 6.14 106.06 3.52 108.42 5.91 108.65 6.11 106.06 8.73 103.48 6.14"/>
      <polygon class="cls-1" points="108.68 6.14 111.27 3.52 113.63 5.91 113.85 6.14 111.27 8.73 108.68 6.14"/>
      <path class="cls-1" d="m105.16,31.96c-.71,0-1.2-.26-1.23-.29-1-.39-1.55-1.49-1.55-3.04,0-.26,0-.42.03-.52v-.42h-21.98V7.92c0-.84-.55-1.07-1-1.32-.39-.19-.78-.42-.87-.97v-.32c3.04-2.23,5.24-5.14,5.24-5.14v24.17h18.65v-.94c-.03-.84-.1-2.55-4.17-2.59,0,0-1.91.03-3.81.03-1.07,0-2.13,0-2.84-.03-1.16-.1-1.81-1.39-1.84-2.55,0-.81.32-1.45.84-1.81l.29-.19.16.29c.36.71,1.91,1.03,4.82,1.03h.29c1.16,0,2.49-.03,4.01-.06h.26c4.94,0,5.49,4.3,5.53,6.14v.71h4.88v-7.3s.06-.55-.94-1.1c-.68-.39-.84-1.16-.84-1.16,3.94-2.84,5.04-5.3,5.04-5.3v18.19h-8.21v.26c0,1.1.19,2.52.84,3.01l.36.29-.39.23c-.48.32-1.03.48-1.55.48"/>
      <path class="cls-1" d="m65.86,30.44v-2.75h-11.28v-3.39h14.35v4.46s-.16,1.39,2.55,1.39c1.71,0,1.71-1.65,1.71-1.71v-7.95c0-1.1-.74-1.26-1.26-1.26h-17.32v-9.92s2,2.49,4.01,3.65c.32.19.16.74-.84,1.39-.19.13-.45.23-.45.52v1.23h17.16c2,.03,2.2,2.13,2.2,2.78v11.38s-.16,3.07-5.07,3.07c-6.11.03-5.75-2.88-5.75-2.88"/>
      <path class="cls-1" d="m134.02,27.69V.03l.58.94s.42.71,2.2,2.23c1.03.9,1.62,1.26,1.91,1.39.29.13.55.23.55.55v.29c-.06.58-.48.81-.87,1-.45.26-.9.48-.94,1.32-.06.65,0,19.94,0,19.94h-3.43Z"/>
      <path class="cls-1" d="m117.86,31.28l3.46-3.49-4.2-4.14V.03s1.84,3.49,4.3,5.24v.26c-.06.55-.39.78-.68.97-.39.26-.74.48-.78,1.36-.03.61,0,13.8,0,14.03l3.49,3.62,3.49-3.62s.03-13.38,0-14.03c-.03-.87-.39-1.1-.78-1.36-.32-.19-.65-.42-.68-.97v-.19c2.75-1.78,4.3-5.33,4.3-5.33v23.3l-4.2,4.43,3.49,3.49-5.59,5.62-5.62-5.56Zm5.62,2.33l2.33-2.36-2.33-2.33-2.36,2.33,2.36,2.36Z"/>
      <path class="cls-1" d="m109,63.05l5.91-6.37v-12.57c0-.1.13-.19.13-.19l.87-.42v-.71h-7.95v.71l.81.52c.23.13.26.23.26.32v7.21h-15.9l-3.59,4.56v-11.73l.03-.23s.06-.06.19-.13l.74-.48.06-.03v-.71h-7.92v.71l.78.52c.13.06.16.13.19.13h0v21.59l-.03.29c-.03.06-.1.1-.16.13l-.78.52v.71h7.92v-.71l-.84-.52c-.13-.06-.19-.1-.19-.1h0v-9.89l.84.26,1.1-.65c.19-.13.39-.19.48-.23.06-.03.19-.06.45-.06h16.58v7.56h0Z"/>
      <path class="cls-1" d="m193.45,52.38c-.94-2.94-3.07-5.36-6.33-7.17-2.94-1.65-7.14-2.46-12.8-2.46h-21.59v.71s.9.61.94.61h0v2.55h20.62c4.17,0,7.21.55,9.08,1.65,2.94,1.71,4.39,3.94,4.39,6.82,0,1.45-.39,2.75-1.13,3.91s-1.91,2.13-3.43,2.94c-2,1.03-5.04,1.55-9.05,1.55h-10.76v-15.09h-5.88v17.32l-.03.26s-.1.1-.16.16l-.71.45-.06.03v.71h17.64c3.39,0,6.04-.19,7.92-.58,2.55-.55,4.85-1.45,6.75-2.78,1.97-1.32,3.36-2.84,4.17-4.52.61-1.23.9-2.62.9-4.07-.06-1.03-.19-2.04-.48-3.01"/>
      <path class="cls-1" d="m115.89,66.41c-.16-.03-.26-.06-.32-.1l14.8-15.38-3.43-3.65-19.16,20.04h8.82v-.84h-.32c-.13-.03-.26-.03-.39-.06"/>
      <path class="cls-1" d="m128.52,46.31l3.78,4.01,3.91,3.94h-6.59l-3.62,3.78.78.55.84-.45c.1-.03.16-.06.23-.06h11.92l7.79,8.34s-.13.13-.81.13h-.29v.84h8.82l-23.36-24.62-3.39,3.55Z"/>
      <path class="cls-1" d="m71.91,43.5l.78.52c.19.13.29.23.29.32v21.33l-.06.29c-.06.06-.16.13-.23.16l-.81.52v.71h7.89v-.71l-.71-.52c-.1-.06-.16-.13-.16-.13h-.03v-21.65l.03-.23.19-.16.71-.48v-.71h-7.89v.74Z"/>
      <path class="cls-1" d="m38.88,62.63l-1.03.58c-.29.16-.42.23-.45.23l-17.61.03c-4.04,0-7.08-.52-9.11-1.55-3.04-1.58-4.52-3.81-4.52-6.88,0-1.36.39-2.68,1.16-3.88,1.52-2.23,3.72-3.75,6.85-4.33.84-.16,1.65-.19,2.17-.19h9.08c.55-.03.45.1.48.16l-.1.65h.74l3.88-4.69h-10.83c-2.52,0-4.46.1-5.82.26-.71.1-1.39.23-2.07.36-1.78.42-3.49,1.07-5.14,2-2.68,1.55-4.56,3.46-5.66,5.72C.29,52.38-.03,53.84,0,55.39c0,3.97,2.13,7.14,6.33,9.4,1.91,1.03,4.04,1.78,6.37,2.13,1.75.29,4.1.42,7.08.42h16.38l3.91-4.75h-.32l-.87.03Z"/>
      <path class="cls-1" d="m31.06,56.71l3.81-4.78H9.18l-2.59,3.85h23.17c.42.03.58.16.61.23l-.1.68h.78v.03Z"/>
      <path class="cls-1" d="m29.47,47.28l.74.26.1.03,1.13-.55c.32-.19.61-.29.94-.29h14.15v19.03l-.06.26c-.06.06-.13.13-.16.13l-.81.55v.71h7.92v-.71l-.81-.52-.19-.19v-19.26h12.6c.48.06.55.16.55.19v.68h.71l3.91-4.75h-37.13l-3.59,4.43Z"/>
      <polygon class="cls-1" points="35.74 94.43 41.72 79.34 43.66 79.34 49.58 94.43 46.51 94.43 45.31 91.29 41.4 91.29 40.56 89.16 44.5 89.16 42.95 84.99 42.53 83.7 42.11 84.99 38.56 94.43 35.74 94.43"/>
      <rect class="cls-1" x="57.01" y="79.34" width="2.94" height="15.09"/>
      <path class="cls-1" d="m76.95,94.43l-3.46-4.94h-1.68v4.94h-2.94v-15.09h4.85c1.78,0,3.13.39,4.07,1.2s1.39,2,1.39,3.59c0,1.16-.26,2.2-.81,3.04-.52.87-1.29,1.49-2.26,1.87l4.1,5.33h-3.26v.06Zm-5.11-7.01h1.91c1.65,0,2.49-1,2.49-2.97,0-.9-.19-1.58-.58-2.07-.39-.48-1.03-.71-1.94-.71h-1.87v5.75Z"/>
      <polygon class="cls-1" points="90.52 94.43 86.06 79.34 89.1 79.34 91.88 90.1 92.01 90.1 94.69 81.76 93.91 79.34 96.79 79.34 100.28 90.1 100.34 90.1 103.16 79.34 106.03 79.34 101.48 94.43 98.99 94.43 95.95 85.09 92.91 94.43 90.52 94.43"/>
      <polygon class="cls-1" points="110.88 94.43 116.86 79.34 118.8 79.34 124.71 94.43 121.67 94.43 120.48 91.29 116.53 91.29 115.69 89.16 119.67 89.16 118.09 84.99 117.67 83.7 117.25 84.99 113.69 94.43 110.88 94.43"/>
      <polygon class="cls-1" points="133.89 94.43 133.89 88.26 128.94 79.34 132.21 79.34 135.47 85.7 138.86 79.34 141.74 79.34 136.8 88.26 136.8 94.43 133.89 94.43"/>
      <path class="cls-1" d="m152.21,94.78c-1.58,0-2.88-.32-3.85-1v-3.07c1.16,1.03,2.46,1.55,3.91,1.55,1.81,0,2.71-.71,2.71-2.1,0-.55-.19-.97-.55-1.26s-1-.55-1.91-.78l-.55-.13c-2.55-.61-3.81-2.07-3.81-4.33,0-1.49.45-2.62,1.39-3.46.94-.81,2.26-1.23,3.97-1.23s2.94.32,3.85.97v3.07c-.42-.39-.97-.74-1.68-1.03-.71-.32-1.49-.45-2.29-.45-.87,0-1.49.16-1.87.45-.39.29-.58.74-.58,1.39,0,.55.16,1,.48,1.26.32.29.94.55,1.84.78l.55.13c1.36.32,2.36.81,3.01,1.49.65.65.94,1.58.94,2.78,0,1.55-.48,2.75-1.42,3.65-.87.87-2.26,1.32-4.14,1.32"/>
    </g>
  </g>
</svg>