<svg xmlns="http://www.w3.org/2000/svg" viewBox="0 0 557.99 509.75"><defs><style>.cls-1{fill:#fff;}.cls-10,.cls-12,.cls-2,.cls-3,.cls-4,.cls-5,.cls-6,.cls-7,.cls-8,.cls-9{fill:none;stroke-linecap:round;}.cls-12,.cls-2,.cls-3,.cls-4,.cls-5,.cls-6,.cls-7,.cls-8,.cls-9{stroke:#000;}.cls-10,.cls-12,.cls-2,.cls-3,.cls-4,.cls-5,.cls-6,.cls-8,.cls-9{stroke-miterlimit:10;}.cls-10,.cls-2{stroke-width:2.43px;}.cls-3{stroke-width:2.56px;}.cls-4,.cls-7{stroke-width:1.94px;}.cls-5{stroke-width:2.57px;}.cls-6{stroke-width:1.84px;}.cls-7{stroke-linejoin:round;}.cls-8{stroke-width:2.17px;}.cls-9{stroke-width:2.16px;}.cls-10{stroke:#fff;}.cls-11{fill:#f6c447;}.cls-12{stroke-width:2.41px;}</style></defs><g id="Layer_2" data-name="Layer 2"><g id="Layer_1-2" data-name="Layer 1"><path d="M222,362.34S144.88,378.08,111,378.11a59.39,59.39,0,0,1-9.68-.64c-2.48-.43-4.27-1.1-5.22-2C85.82,365.16,84,326.9,106.53,216.62l.8,1L141.67,261l51.75,65.27,0,0,27.28,34.42Z"/><path class="cls-1" d="M432.61,148s8-8.39,11.55-8.06,4.23,5.21,4.23,5.21"/><path class="cls-2" d="M432.61,148s8-8.39,11.55-8.06,4.23,5.21,4.23,5.21"/><path class="cls-1" d="M442.36,149.79s6.71-7.48,10.29-4.42,2.25,5.68,2.25,5.68"/><path class="cls-2" d="M442.36,149.79s6.71-7.48,10.29-4.42,2.25,5.68,2.25,5.68"/><path class="cls-1" d="M448.34,155.61s5-4.91,7.38-4.62,7.88,3.56,4.89,8.13"/><path class="cls-2" d="M448.34,155.61s5-4.91,7.38-4.62,7.88,3.56,4.89,8.13"/><path class="cls-1" d="M415.71,186.94s7.14-30,7.41-31.3,6.32-7.38,9.49-7.63,15.86,2,15.7,7.26-8.26,5.16-11.85,4.55-3.35,4.76-3.35,4.76l.11,4.64"/><path class="cls-2" d="M415.71,186.94s7.14-30,7.41-31.3,6.32-7.38,9.49-7.63,15.86,2,15.7,7.26-8.26,5.16-11.85,4.55-3.35,4.76-3.35,4.76l.11,4.64"/><path class="cls-1" d="M453.39,169.62s-3.8,4.11-5.26-1.27c0,0,6-9.2,10.29-9.54s7.89,5.41,4.7,9.15-14.77,17.62-17.32,20.61-11.33,8.15-11.33,8.15"/><path class="cls-2" d="M453.39,169.62s-3.8,4.11-5.26-1.27c0,0,6-9.2,10.29-9.54s7.89,5.41,4.7,9.15-14.77,17.62-17.32,20.61-11.33,8.15-11.33,8.15"/><path class="cls-1" d="M448.35,168s-9.07,2.09-5.07-8.19"/><path class="cls-2" d="M448.35,168s-9.07,2.09-5.07-8.19"/><path class="cls-3" d="M434.22,161.21l11.5,17.28s11.11,4.65,9.42-8.51"/><path class="cls-2" d="M437.23,143.7l-3.53-7.12L430,127.3,407.24,141s19,9.33,17.93,12"/><path d="M401.4,95c6.49,15,16.35,31.34,31.14,44,4.88-2.53,8.33-4,8.32-4,12.44-7.64,18.11-8.53,31.78-7.3-.17-.08-.34-.18-.52-.28-.89-.49-1.78-1-2.66-1.54s-1.73-1.06-2.58-1.61a89.59,89.59,0,0,1-7.32-5.26h0c-1.95-1.55-3.83-3.17-5.64-4.84h0c-.63-.57-1.24-1.16-1.84-1.74a0,0,0,0,1,0,0A120.29,120.29,0,0,1,434.61,90.8c-.8-1.23-1.56-2.45-2.29-3.68A165.91,165.91,0,0,1,418.26,57,163.12,163.12,0,0,1,401.4,95"/><path class="cls-4" d="M401.4,95c6.49,15,16.35,31.34,31.14,44,4.88-2.53,8.33-4,8.32-4,12.44-7.64,18.11-8.53,31.78-7.3-.17-.08-.34-.18-.52-.28-.89-.49-1.78-1-2.66-1.54s-1.73-1.06-2.58-1.61a89.59,89.59,0,0,1-7.32-5.26h0c-1.95-1.55-3.83-3.17-5.64-4.84h0c-.63-.57-1.24-1.16-1.84-1.74a0,0,0,0,1,0,0A120.29,120.29,0,0,1,434.61,90.8c-.8-1.23-1.56-2.45-2.29-3.68A165.91,165.91,0,0,1,418.26,57,163.12,163.12,0,0,1,401.4,95Z"/><path class="cls-5" d="M472.38,127.5c.28,0,9.08,3.79,12.43.44,10.06-10.09-22.26-61.18-52.68-78.39-9.1-5.14-13.86,2.79-13.87,7.42-.24.8.25-.79,0,0h0a166.59,166.59,0,0,0,14.06,30.15c.73,1.23,1.49,2.45,2.29,3.68a120.29,120.29,0,0,0,17.45,21.55,0,0,0,0,0,0,0c.6.58,1.21,1.17,1.84,1.74h0c1.81,1.67,3.69,3.29,5.64,4.84h0c2.32,1.84,4.76,3.6,7.32,5.25.85.55,1.71,1.09,2.58,1.61s2,1.19,2.92,1.68"/><path class="cls-1" d="M401.44,156.33a23.56,23.56,0,0,1-19.2-10.23,21.25,21.25,0,0,1-2-20.31c1.45-3.69,4.37-7.36,8.07-12a167,167,0,0,0,12.28-17.05l1.22-2,.93,2.14c7.42,17.16,17.24,31,29.18,41.23l1.38,1.18-1.61.83A112.27,112.27,0,0,0,418,148.36a21.55,21.55,0,0,1-16.58,8Z"/><path d="M401.59,97.38c6.16,14.22,15.49,29.7,29.51,41.68a115.07,115.07,0,0,0-13.91,8.4,20.22,20.22,0,0,1-15.75,7.65c-13.43,0-26.23-13.28-20.1-28.87,2.73-6.95,11.14-14.09,20.25-28.86m.38-5.24-2.45,4A165,165,0,0,1,387.33,113c-3.76,4.72-6.73,8.45-8.25,12.32a22.42,22.42,0,0,0,2.15,21.43,24.8,24.8,0,0,0,20.21,10.76,22.73,22.73,0,0,0,17.41-8.27,110.63,110.63,0,0,1,13.37-8.05l3.21-1.66-2.75-2.35c-11.8-10.08-21.51-23.8-28.85-40.79Z"/><line class="cls-6" x1="417.57" y1="61.36" x2="417.57" y2="61.37"/><path d="M458.05,85.23c4.95,6.18,8,12,6.72,13s-6.26-3.2-11.21-9.38-8-12-6.72-13,6.26,3.2,11.21,9.37"/><path class="cls-7" d="M450.7,82.47l-3.09-5.66s-7.93,9-17.28,6.49"/><path class="cls-7" d="M464.38,97.76s-.27.16-.72.47c-2.54,1.7-10.82,7.93-9.74,15.88"/><path class="cls-2" d="M224.49,142.19c5.11,5.81,12.16,11,21,11,20,0,27-26.49,27-26.49s10.65-53.51,10.65-55-31.84-23.11-31.84-23.11-42.91,11.94-43.63,12.65-9.78,32.42-9.78,32.42l6.46,69"/><line class="cls-2" x1="254.86" y1="183.39" x2="250.7" y2="153.39"/><path d="M190.65,97.12a21.46,21.46,0,0,1,16,12l.94-3.94,7.86.26c-.16-.41-.79-2.06-.95-2.49a15.74,15.74,0,0,1,3.18-16.27s13-4.91,5-13,1.26-12.47,1.26-12.47c5.29-5.28,45-3.71,52.62,8.24S290.61,81.8,290.61,81.8c24.3,5.92,18.46-32.61,18.17-33.23-2.54-5.55-7.4-2.8-14.58-5s-5.92-13.74-5.92-13.74c-7.29-30.22-36-19.44-39-10.56S235,27.59,223.62,22.62,198.79,33,200.69,40.06s-.32,8.51-.32,8.51c-36.34,16-9.72,48.55-9.72,48.55"/><path class="cls-1" d="M212,104.07c-.48-7.19-5.7-13-11.65-13s-10.39,5.83-9.91,13,5.71,13,11.66,13"/><path class="cls-8" d="M212,104.07c-.48-7.19-5.7-13-11.65-13s-10.39,5.83-9.91,13,5.71,13,11.66,13"/><path d="M240.34,93.18c0,2.23,1.1,4,2.47,4s2.47-1.8,2.47-4-1.11-4-2.47-4-2.47,1.8-2.47,4"/><path d="M271.29,96.47c0,2.23,1.11,4,2.47,4s2.47-1.8,2.47-4-1.11-4-2.47-4-2.47,1.8-2.47,4"/><path class="cls-9" d="M235.83,122a22.65,22.65,0,0,0,8.54,6.92,22.83,22.83,0,0,0,10.8,2.08"/><path class="cls-1" d="M252.21,164.32l2.66,19.07c1.82,16.17,5.19,80.72,8.17,142.52.07,1.69.15,3.39.24,5.07,3,62.86,5.54,121.41,5.54,121.41,31.5,1.86,53-11,53-11L306.56,276.92l-.49-5.32.1.08,16.3,12.09,44.93,23.68c18.46,12.87,24.72-5.07,24.72-5.07L439.8,196.27l-25-15.58-44.19,76.69-71.78-86-17.4-2.64-1.69-.25-.77-.12Z"/><path class="cls-2" d="M252.21,164.32l2.66,19.07c1.82,16.17,5.19,80.72,8.17,142.52.07,1.69.15,3.39.24,5.07,3,62.86,5.54,121.41,5.54,121.41,31.5,1.86,53-11,53-11L306.56,276.92l-.49-5.32.1.08,16.3,12.09,44.93,23.68c18.46,12.87,24.72-5.07,24.72-5.07L439.8,196.27l-25-15.58-44.19,76.69-71.78-86-17.4-2.64-1.69-.25-.77-.12Z"/><path class="cls-1" d="M224.5,328l-3.78,32.71,0,.37s-90.9,13.81-109.7,17.06a59.39,59.39,0,0,1-9.68-.64c-8.21-3.56-7.31-15-7.31-15s10.06-122.28,13-142.85c.1-.67.21-1.32.32-2,3.47-19,15.37-24.75,15.37-24.75,9.8-2.12,33.67-12.4,52.93-21.1l2.29-1,2.41-1.1,1.18-.54c2.74-1.25,5.32-2.44,7.69-3.54l1-.45h0l1.62-.74,6.21-2.91,2.09-1,1.62-.76.05,0,1.37-.65a.08.08,0,0,1,.1.12l-.3.51-21,34.66-1,1.58-1,1.59L141.67,261l-37.84,62.56h40.08l48.78,2.69.75.05Z"/><path class="cls-2" d="M224.5,328l-3.78,32.71,0,.37s-90.9,13.81-109.7,17.06a59.39,59.39,0,0,1-9.68-.64c-8.21-3.56-7.31-15-7.31-15s10.06-122.28,13-142.85c.1-.67.21-1.32.32-2,3.47-19,15.37-24.75,15.37-24.75,9.8-2.12,33.67-12.4,52.93-21.1l2.29-1,2.41-1.1,1.18-.54c2.74-1.25,5.32-2.44,7.69-3.54l1-.45h0l1.62-.74,6.21-2.91,2.09-1,1.62-.76.05,0,1.37-.65a.08.08,0,0,1,.1.12l-.3.51-21,34.66-1,1.58-1,1.59L141.67,261l-37.84,62.56h40.08l48.78,2.69.75.05Z"/><line class="cls-2" x1="149.21" y1="253.75" x2="143.91" y2="323.52"/><path class="cls-2" d="M176.77,171.28,197.91,294s7,24.45,14.58,32.78a.26.26,0,0,0,.46-.19l-8.58-164"/><path class="cls-2" d="M279.71,168.49s18.17,109.55-13.1,161.6"/><line class="cls-2" x1="306.07" y1="271.6" x2="298.79" y2="171.38"/><path class="cls-9" d="M265.32,88.09c-2.92,3.48-2.64,22.52-1.42,28.36s-4.84,8.22-10.23,2.83"/><path class="cls-1" d="M155.33,371.93c32-5.34,65.35-10.88,65.35-10.88L224.5,328l-69.17-3.82"/><path class="cls-2" d="M155.33,371.93c32-5.34,65.35-10.88,65.35-10.88L224.5,328l-69.17-3.82"/><path class="cls-2" d="M213,362.34l3.19,88.52s-43.33,12.89-77.91-2.87l5.68-74.16"/><path class="cls-2" d="M266.61,407.48s-34.9,8.73-52,1.6"/><path class="cls-2" d="M252.78,169.71S241,196.15,205.62,173.8"/><line class="cls-2" x1="254.86" y1="183.39" x2="252.21" y2="164.32"/><path d="M252.21,164.32l2.66,19.07c1.82,16.17,5.19,80.72,8.17,142.52.07,1.69.15,3.39.24,5.07,3,62.86,5.54,121.41,5.54,121.41,31.5,1.86,53-11,53-11L306.56,276.92l-.49-5.32.1.08,16.3,12.09,44.93,23.68c18.46,12.87,24.72-5.07,24.72-5.07L439.8,196.27l-25-15.58-44.19,76.69-71.78-86-17.4-2.64-1.69-.25-.77-.12Z"/><path class="cls-2" d="M252.21,164.32l2.66,19.07c1.82,16.17,5.19,80.72,8.17,142.52.07,1.69.15,3.39.24,5.07,3,62.86,5.54,121.41,5.54,121.41,31.5,1.86,53-11,53-11L306.56,276.92l-.49-5.32.1.08,16.3,12.09,44.93,23.68c18.46,12.87,24.72-5.07,24.72-5.07L439.8,196.27l-25-15.58-44.19,76.69-71.78-86-17.4-2.64-1.69-.25-.77-.12Z"/><path d="M224.5,328l-3.78,32.71,0,.37s-90.9,13.81-109.7,17.06a59.39,59.39,0,0,1-9.68-.64c-8.21-3.56-7.31-15-7.31-15s10.06-122.28,13-142.85c.1-.67.21-1.32.32-2,3.47-19,15.37-24.75,15.37-24.75,9.8-2.12,33.67-12.4,52.93-21.1l2.29-1,2.41-1.1,1.18-.54c2.74-1.25,5.32-2.44,7.69-3.54l1-.45h0l1.62-.74,6.21-2.91,2.09-1,1.62-.76.05,0a1.49,1.49,0,0,1,1.17,0,1.55,1.55,0,0,1,.92,1l.5,1.92,8.58,164a.26.26,0,0,1-.46.18l-19.07-.58-.73,0,.75.05Z"/><path class="cls-2" d="M224.5,328l-3.78,32.71,0,.37s-90.9,13.81-109.7,17.06a59.39,59.39,0,0,1-9.68-.64c-8.21-3.56-7.31-15-7.31-15s10.06-122.28,13-142.85c.1-.67.21-1.32.32-2,3.47-19,15.37-24.75,15.37-24.75,9.8-2.12,33.67-12.4,52.93-21.1l2.29-1,2.41-1.1,1.18-.54c2.74-1.25,5.32-2.44,7.69-3.54l1-.45h0l1.62-.74,6.21-2.91,2.09-1,1.62-.76.05,0a1.49,1.49,0,0,1,1.17,0,1.55,1.55,0,0,1,.92,1l.5,1.92,8.58,164a.26.26,0,0,1-.46.18l-19.07-.58-.73,0,.75.05Z"/><line class="cls-10" x1="149.21" y1="253.75" x2="143.91" y2="323.52"/><path class="cls-1" d="M258.87,336.35a1.16,1.16,0,0,0,.62.17,1.22,1.22,0,0,0,1.05-.59c.95-1.58,1.87-3.24,2.74-4.95,14.08-27.47,18.28-69.86,19.26-101.49.45-14.51.29-28.07-.07-39.14-.3-9.23-.74-16.73-1.08-21.61l-1.69-.25-.77-.12c1.56,22.89,5.83,110-15.89,157.54a88.15,88.15,0,0,1-4.59,8.77,1.22,1.22,0,0,0,.42,1.67"/><line class="cls-2" x1="306.07" y1="271.6" x2="298.79" y2="171.38"/><path class="cls-1" d="M219.28,341s4.17-2.89,8.8-11.63,20.5-14.58,20.5-14.58l12.83-5.31s6.52,4.84-4.36,10.89-7.73,5.37-7.73,5.37,24.8-7.32,28.22-6,5,5.64-1.07,7.59c-5.6,1.79-15.38,4.87-17,5.37a0,0,0,0,0,0,.05c2.27-.23,20.28-2.06,22.55-2.06s.8,5.18-4,7.66a59.48,59.48,0,0,1-10.15,3.88s0,0,0,0c1.42-.17,6.86-.77,6.86.05s-3.09,7.32-26.34,13.57a82.25,82.25,0,0,1-42.61,0Z"/><path class="cls-2" d="M219.28,341s4.17-2.89,8.8-11.63,20.5-14.58,20.5-14.58l12.83-5.31s6.52,4.84-4.36,10.89-7.73,5.37-7.73,5.37,24.8-7.32,28.22-6,5,5.64-1.07,7.59c-5.6,1.79-15.38,4.87-17,5.37a0,0,0,0,0,0,.05c2.27-.23,20.28-2.06,22.55-2.06s.8,5.18-4,7.66a59.48,59.48,0,0,1-10.15,3.88s0,0,0,0c1.42-.17,6.86-.77,6.86.05s-3.09,7.32-26.34,13.57a82.25,82.25,0,0,1-42.61,0Z"/><path d="M155.26,371.93c32-5.34,65.34-10.88,65.34-10.88L224.42,328l-69.16-3.82"/><path class="cls-2" d="M155.26,371.93c32-5.34,65.34-10.88,65.34-10.88L224.42,328l-69.16-3.82"/><path d="M213,362.34l3.19,88.52s-43.33,12.89-77.91-2.87l5.68-74.16"/><path class="cls-2" d="M213,362.34l3.19,88.52s-43.33,12.89-77.91-2.87l5.68-74.16"/><path class="cls-2" d="M266.61,407.48s-34.9,8.73-52,1.6"/><path class="cls-2" d="M252.78,169.71S241,196.15,205.62,173.8"/><path class="cls-10" d="M139.45,377.22c18.24-3.18,81.23-13.52,81.23-13.52"/><path class="cls-1" d="M175.63,171.79l4.43,25.72,21.83,126.84a1.22,1.22,0,0,0,1.2,1h.21a1.21,1.21,0,0,0,1-1.41l-3.71-21.55-18.6-108-4.06-23.59-2.29,1"/><line x1="222.51" y1="325.43" x2="153.34" y2="321.61"/><line class="cls-10" x1="222.51" y1="325.43" x2="153.34" y2="321.61"/><line x1="309.6" y1="443.49" x2="307.33" y2="508.53"/><line class="cls-2" x1="309.6" y1="443.49" x2="307.33" y2="508.53"/><line x1="143.91" y1="432.99" x2="143.91" y2="489.57"/><line class="cls-2" x1="143.91" y1="432.99" x2="143.91" y2="489.57"/><polyline class="cls-2" points="259.49 454.63 237.59 473.57 237.59 500.45"/><line class="cls-10" x1="293.37" y1="389.68" x2="317.14" y2="406.57"/><line class="cls-10" x1="201.42" y1="393.12" x2="160.45" y2="407.48"/><line class="cls-10" x1="300.86" y1="176.24" x2="368.27" y2="257.01"/><line class="cls-10" x1="372.09" y1="257.38" x2="413.5" y2="186"/><path class="cls-2" d="M63.24,203.36,10.7,213.93a3,3,0,0,1-3.49-2.32L1.32,182.29a3,3,0,0,1,.17-1.75h0l31.94,9.38,24.32-21.57a3.11,3.11,0,0,1,1,.55,3,3,0,0,1,1,1.66l5.89,29.31A3,3,0,0,1,63.24,203.36Z"/><path class="cls-11" d="M57.76,168.35,33.44,189.92,1.5,180.54l.06-.14a3.08,3.08,0,0,1,.85-1.05,2.93,2.93,0,0,1,1.23-.55l52.53-10.58a2.92,2.92,0,0,1,1.35.05.85.85,0,0,1,.24.08"/><path class="cls-2" d="M57.76,168.35,33.44,189.92,1.5,180.54l.06-.14a3.08,3.08,0,0,1,.85-1.05,2.93,2.93,0,0,1,1.23-.55l52.53-10.58a2.92,2.92,0,0,1,1.35.05A.85.85,0,0,1,57.76,168.35Z"/><line class="cls-2" x1="1.5" y1="180.54" x2="1.49" y2="180.54"/><path class="cls-2" d="M139.69,14.42c-.63-1.1-1-2.44-1.88-3.29-2-2-4.54-2.2-7.14-.52-2.22,1.43-4.18,3.29-6.28,4.93-.35.27-1,.68-1.18.55a3.32,3.32,0,0,1-.83-1.33,2,2,0,0,1-.06-.77,17.74,17.74,0,0,0-1.63-7.21,9.61,9.61,0,0,0-5.86-5.25,3.61,3.61,0,0,0-3.51.29c-1.67,1.18-2,3.23-.75,5.22a12.54,12.54,0,0,1,1.85,9.47,27.09,27.09,0,0,0,0,9.16,52.21,52.21,0,0,1,.48,5.86c0,1.3-2.2,2.88-3.5,2.81h-.14a3,3,0,0,0-1.78.54c-2.91,2.36-5.75,4.8-8.6,7.23a2.26,2.26,0,0,0-.27,3.44q6.72,8,13.5,16a2.21,2.21,0,0,0,3.35.29c2.9-2.41,5.8-4.84,8.63-7.35a3,3,0,0,0,.82-1.83,1,1,0,0,1,0-.16c.15-1.08.63-1.67,1.78-1.7a5.18,5.18,0,0,0,3.41-1.37c2.81-2.42,5.65-4.8,8.48-7.19h0c2.94-2.49,5.92-4.94,8.82-7.48,2.54-2.22,2.48-5,0-7.25a1.36,1.36,0,0,1-.46-.9,5.31,5.31,0,0,0-2.44-4.71,1.64,1.64,0,0,1-.53-1.07,6,6,0,0,0-3.38-5.23A2.89,2.89,0,0,1,139.69,14.42Z"/><path class="cls-11" d="M110.18,35.06l14.71,17.38a1,1,0,0,0,0,.16,3,3,0,0,1-.82,1.83c-2.83,2.51-5.73,4.94-8.63,7.35a2.21,2.21,0,0,1-3.35-.29q-6.78-8-13.5-16a2.25,2.25,0,0,1,.27-3.43c2.85-2.43,5.69-4.87,8.6-7.23a3,3,0,0,1,1.78-.54,2.82,2.82,0,0,1,1,.73"/><path class="cls-2" d="M110.18,35.06l14.71,17.38a1,1,0,0,0,0,.16,3,3,0,0,1-.82,1.83c-2.83,2.51-5.73,4.94-8.63,7.35a2.21,2.21,0,0,1-3.35-.29q-6.78-8-13.5-16a2.25,2.25,0,0,1,.27-3.43c2.85-2.43,5.69-4.87,8.6-7.23a3,3,0,0,1,1.78-.54A2.82,2.82,0,0,1,110.18,35.06Z"/><path class="cls-11" d="M514.45,259.7a5.85,5.85,0,1,1-7.29-3.9,5.84,5.84,0,0,1,7.29,3.9"/><path class="cls-12" d="M522.28,257.32a14,14,0,1,1-17.5-9.35A14,14,0,0,1,522.28,257.32Z"/><circle class="cls-12" cx="508.86" cy="261.4" r="25.72" transform="translate(116.38 677.6) rotate(-73.87)"/><path class="cls-12" d="M546.89,249.86a39.74,39.74,0,1,1-49.57-26.49A39.75,39.75,0,0,1,546.89,249.86Z"/><path class="cls-11" d="M557.38,236.64l-2-1.35.08,0c1.08-.61,0-2.23-1-1.63l-.07,0-.12-2.35a1.41,1.41,0,0,0-2.31-1l-8.3,6.86a1.41,1.41,0,0,0-.32,1.8l.42.72-30.1,17-5.78,3.26c-1.08.61,0,2.24,1,1.63l35.87-20.27.33.62a1.41,1.41,0,0,0,1.7.68l10.2-3.45a1.41,1.41,0,0,0,.35-2.5"/><polyline points="210.5 100.21 210.91 105.26 213.09 105.26"/><path class="cls-1" d="M303.6,175.29a17,17,0,0,0-9.78-5.9c-6.67-1.5-6.67-1.69-6.67-1.69l11.22-2.43,11.92,6.34-3.7,4.49"/><path d="M248.64,76.74c3,1.46,1.91,5.61-5.37,5.75-17.05.24-2.17-9.48,5.37-5.75"/><path d="M295.76,65.19c3.5-3.37,9,.79,8.2,2.85-1,2.48-8.43,1.85-9.5-.07-.63-1.13.3-1.82,1.3-2.78"/><path d="M271.42,83c4.56-2.41,9.62,3,8.27,4.82-1.64,2.17-9.58-.3-10.31-2.45-.43-1.25.74-1.69,2-2.37"/><path d="M307.6,274.23S345.75,310.5,380.39,315s61-118.74,61-118.74l-23.19,16.4-14,53.74-69.65,20.71"/></g></g></svg>