<svg xmlns="http://www.w3.org/2000/svg" viewBox="0 0 538.82 454.42"><defs><style>.cls-1,.cls-10,.cls-2,.cls-3,.cls-4,.cls-5,.cls-8,.cls-9{fill:none;stroke-miterlimit:10;}.cls-1,.cls-10,.cls-8,.cls-9{stroke:#000;}.cls-1,.cls-2,.cls-3,.cls-5,.cls-8,.cls-9{stroke-linecap:round;}.cls-1,.cls-10,.cls-3,.cls-4,.cls-5{stroke-width:2.67px;}.cls-2,.cls-3,.cls-4{stroke:#f6c548;}.cls-2{stroke-width:2.96px;}.cls-5{stroke:#fff;}.cls-6{fill:#fff;}.cls-7{fill:#f6c548;}.cls-8{stroke-width:2.35px;}.cls-9{stroke-width:2.49px;}</style></defs><g id="Layer_2" data-name="Layer 2"><g id="Layer_1-2" data-name="Layer 1"><path class="cls-1" d="M219.21,161.72s-17.7.62-30.13-17.09"/><path d="M224.43,161.72,227,182.35s8.66-1.64,18.65-3.58a21.23,21.23,0,0,0-2-14.22,1.48,1.48,0,1,1,2.6-1.41A23.69,23.69,0,0,1,249,174.45a25.39,25.39,0,0,1-.28,3.7l6.65-1.31a26.52,26.52,0,0,0,.89-6.81,26,26,0,0,0-1.87-9.73,1.48,1.48,0,1,1,2.74-1.11A28.8,28.8,0,0,1,259.23,170a29.13,29.13,0,0,1-.65,6.17l7.44-1.51c-.11-8.71-1.36-33.71-11.44-47,0,0-2.52-4.85,1.42-7.18,3.45-2,17.4,29.74,16.51,52.77a15.19,15.19,0,0,0,2.76-.77c.84-.84,5-30.48-17.88-59.34l-6.85,4.92s4.5,34.07-26.11,43.63"/><path class="cls-1" d="M239.53,118.32a9.25,9.25,0,0,1-6.11,5.25"/><path d="M203.75,103.05c0,2,1.12,3.72,2.5,3.72s2.51-1.67,2.51-3.72-1.12-3.72-2.51-3.72-2.5,1.67-2.5,3.72"/><path d="M239.07,100.63c0,2.06,1.12,3.72,2.5,3.72s2.51-1.66,2.51-3.72-1.13-3.71-2.51-3.71-2.5,1.66-2.5,3.71"/><path d="M209,88.32c2.18-2.09.58-6-5.37-4.55-13.89,3.39-.11,9.86,5.37,4.55"/><path d="M240.64,84.16c3.55-3.41,9.15.8,8.31,2.88-1,2.52-8.55,1.88-9.64-.07-.63-1.14.32-1.84,1.33-2.81"/><path class="cls-2" d="M195.93,88.76a17.35,17.35,0,1,0,20.16,2.39"/><path class="cls-3" d="M238.26,88.44a15.59,15.59,0,1,0,18.14,2.14"/><path class="cls-4" d="M222.62,104.35a9.92,9.92,0,0,1,7.52-.6"/><path d="M103.69,181.89q3.25-.57,6.54-.91c.21-1.25.52-2.49.84-3.72a11.63,11.63,0,0,1,2.05-4.78,5.72,5.72,0,0,1,1.85-1.42,2.82,2.82,0,0,1,1.71-.32,1.43,1.43,0,0,1,1.21,1.12,2.5,2.5,0,0,1-.74,1.71,12.48,12.48,0,0,0-2.4,7c8.46-.54,17-.23,25.54-.08.14-1.13.33-2.26.44-3.38a33.52,33.52,0,0,0-.47-8.06,9.2,9.2,0,0,1-.17-2.28,3,3,0,0,1,.94-2,1.8,1.8,0,0,1,2.12-.19,2.57,2.57,0,0,1,.83,1.18,17.13,17.13,0,0,1,1.23,6.66,41.66,41.66,0,0,1-.69,6.77c-.07.46-.15.92-.23,1.37,10.62.09,20.51-.47,29.2-2.61.54-.13,1.09-.28,1.63-.44h0c.76,0,1.53,0,2.3.06,1.55,0,3.29.16,4.36,1.29.61.65,1.3,1.7,2.1,1.31.55-.27.59-1,.55-1.63-.21-3.61-.44-7.22-.66-10.83-.65-10.7-1.45-21.89-7-31.08-.08-.11-.15-.23-.22-.34a5.91,5.91,0,0,0,1.06-.4,5.15,5.15,0,0,0,2.76-3,6.3,6.3,0,0,0-.11-3.36,12.61,12.61,0,0,0-4.89-6.88,2.21,2.21,0,0,0-2.26-.47c-.76.44-.78,1.52-.53,2.36a6.11,6.11,0,0,0,2.19,3.12c.78.6,1.77,1.06,2.13,2a1.91,1.91,0,0,1-.26,1.83s-4.19,3.29-7.82-3.09-1.66-11.69-1.66-11.69a9.53,9.53,0,0,1,.19-1.09,3.67,3.67,0,0,1,1.89-2.41,3.78,3.78,0,0,1,3.4.38,10.73,10.73,0,0,1,2.56,2.43c.77.91,1.71,2.12,2.85,2.46a4.68,4.68,0,0,0,4.68-.93c1.08-1.14,1.22-2.85,1.29-4.42a147.33,147.33,0,0,0-2.34-32.75q15.35-1.33,30.73-2.12a18,18,0,0,1,1-5.51,1.62,1.62,0,0,1,.47-.73,1,1,0,0,1,1-.07,2.33,2.33,0,0,1,.8.67,6,6,0,0,1,1.12,3.7,11.12,11.12,0,0,1-.15,1.73q9.44-.44,18.9-.67c0-1.4-.09-2.8-.12-4.2a15.73,15.73,0,0,1,.43-5.22,3.44,3.44,0,0,1,.57-1.13,1.51,1.51,0,0,1,1.09-.57,1.68,1.68,0,0,1,1.18.58,3.45,3.45,0,0,1,.83,1.79,10.91,10.91,0,0,1,.11,2,59.4,59.4,0,0,1-.23,6.68q12.21-.24,24.41-.14a117.15,117.15,0,0,0-10.32-36.76c-1.56-3.37-3.35-6.76-6.2-9.14-4-3.38-9.57-4.25-14.81-4.84-14.88-1.7-30.05-2.23-44.76.58-14.12,2.71-27.86,8.7-38.27,18.58l-.06-.26c-4,3.85-6.46,9-8.61,14.09a201.67,201.67,0,0,0-13.75,49.05c-1.51,10.29-2.25,20.78-5.51,30.65-4.86,14.74-15.16,27.56-17.87,42.84"/><path d="M220.57,136.13a6.92,6.92,0,0,1-10.13,1,5.5,5.5,0,0,1-2-4,4.24,4.24,0,0,1,1-2.71,3.34,3.34,0,0,1,.89-.81,2,2,0,0,1,1.05-.31,2.42,2.42,0,0,1,1.21.36,10.55,10.55,0,0,1,1.82,1.52A17.36,17.36,0,0,0,218,134a12.46,12.46,0,0,0,6.1,1.46l1,0a.73.73,0,0,1,.78.69.74.74,0,0,1-.69.79l-1.09,0a13.71,13.71,0,0,1-9.15-3.24c-1-.8-1.74-1.58-2.35-2.13a6.59,6.59,0,0,0-.79-.61,1.05,1.05,0,0,0-.47-.16.55.55,0,0,0-.28.09,2.1,2.1,0,0,0-.51.48,2.79,2.79,0,0,0-.67,1.78,4,4,0,0,0,1.53,2.9,5.42,5.42,0,0,0,8-.86.75.75,0,0,1,1-.09A.73.73,0,0,1,220.57,136.13Z"/><path d="M220.12,135.55c-7.27-2.18-7.6-7.75-10.15-4.65-3.33,4.1,4.55,11.07,10.15,4.65"/><path class="cls-1" d="M352.63,200.58l4.91-19.86s-.62-20.71,24.59-33c0,0,4.31-.26,1.55-7.78-2.52-6.86-6.7-17.51-5.81-24.78,0,0,2.72-4.36,6.28,1.7"/><path class="cls-1" d="M384.81,117.92c2.51,3.34,9.32,24.72,11.32,26.71"/><path class="cls-1" d="M237.72,179c-1.71-.2-2.7-.3-2.7-.3"/><path class="cls-1" d="M384.6,117.71c0-7.19,2.15-10.51,9.07,1.67,10.84,19.09,13.55,22.74,14.22,23.33"/><path class="cls-1" d="M402.79,135a61.33,61.33,0,0,0,2.27-10.13c1.87-12,1.09-14.32,6.44-17.16a.51.51,0,0,1,.76.43l.8,25.46.26,8.65"/><path class="cls-1" d="M387.3,208.88c-.49-15.34-.62-28.49.31-29.88,2.33-3.51,25.71-17.15,25.71-17.15-.54-19.09,6.31-28.92,6.31-28.92-3.16-1.36-5.25-.55-6.57.71"/><path d="M81.75,295.18c0,11.1.31,24.76,1.1,39.81,1.72,6.87,4.33,11.41,7.85,12.49,12.12,3.72,28.64,10.14,40.8,15.06,9.49,3.84,16.33,6.76,16.33,6.76a148.36,148.36,0,0,0,48.37,14.92c3.63-20.1,8.51-60.37-.62-101.08-1.53-6.84-3.22-13.63-5-20.27h0A719.15,719.15,0,0,0,162,178.66c-13.39,8-40.34,17.75-40.34,17.75C99.86,200.76,86.16,243.86,81.81,283V283c0,3.58-.07,7.67-.06,12.18"/><path class="cls-1" d="M81.75,295.18c0,11.1.31,24.76,1.1,39.81,1.72,6.87,4.33,11.41,7.85,12.49,12.12,3.72,28.64,10.14,40.8,15.06,9.49,3.84,16.33,6.76,16.33,6.76a148.36,148.36,0,0,0,48.37,14.92c3.63-20.1,8.51-60.37-.62-101.08-1.53-6.84-3.22-13.63-5-20.27h0A719.15,719.15,0,0,0,162,178.66c-13.39,8-40.34,17.75-40.34,17.75C99.86,200.76,86.16,243.86,81.81,283V283C81.76,286.58,81.74,290.67,81.75,295.18Z"/><path class="cls-1" d="M162,178.66a25.31,25.31,0,0,0,6.5-5"/><path class="cls-1" d="M196.2,384.22c31.9,4.29,60.62-1.33,76.51-5.67"/><path class="cls-1" d="M160.2,171.85a24.38,24.38,0,0,0,1.83,6.81"/><path d="M237.72,179a541.79,541.79,0,0,1,20.72,66.67,359.28,359.28,0,0,1,9.17,55.84c2.45,32.65,4.1,59.29,5.1,77,8.23-2.25,13-4.14,13-4.14s-1.2-45.92,1.5-51.47,11.41-23.26,11.41-23.26c35.85,56.57,69.61,47.71,81.62,35.71s9.38-74.87,9.38-74.87-1.58-28.35-2.33-51.64a49.32,49.32,0,0,1-23.55-2.28,50.45,50.45,0,0,1-11.12-6l-10.92,44.23s-43.2-50.27-56.57-56.27c-11.19-5-38.71-8.52-47.42-9.53"/><path class="cls-1" d="M237.72,179a541.79,541.79,0,0,1,20.72,66.67,359.28,359.28,0,0,1,9.17,55.84c2.45,32.65,4.1,59.29,5.1,77,8.23-2.25,13-4.14,13-4.14s-1.2-45.92,1.5-51.47,11.41-23.26,11.41-23.26c35.85,56.57,69.61,47.71,81.62,35.71s9.38-74.87,9.38-74.87-1.58-28.35-2.33-51.64a49.32,49.32,0,0,1-23.55-2.28,50.45,50.45,0,0,1-11.12-6l-10.92,44.23s-43.2-50.27-56.57-56.27C274,183.55,246.43,180,237.72,179Z"/><path class="cls-1" d="M237.72,179c-.8-2.05-1.25-3.14-1.25-3.14"/><path class="cls-1" d="M235,175.91c-.54.53-.64,44-9.13,55.84,0,0-21.08.13-54.85-55.84"/><path class="cls-1" d="M233.42,190.16s-33.26,13.61-54.13-1.28"/><line class="cls-1" x1="190.59" y1="262.87" x2="190.59" y2="262.88"/><path class="cls-1" d="M258.44,245.69a78.1,78.1,0,0,0-22-11.06c-2.85-.95-5.89-1.8-9.14-2.55-.48-.11-1-.23-1.44-.33,0,0-.53.09-1.46.33a47.63,47.63,0,0,0-11.8,4.88h0a49.94,49.94,0,0,0-22,25.89"/><path class="cls-1" d="M236.47,234.63l-8.86-1.88c1.11,2.68,5.35,13.05,9.7,26.09,6.24,1.51,10.95,6.26,13.27,9.05a.81.81,0,0,0,1.43-.61C250.3,253.12,236.47,234.63,236.47,234.63Z"/><path class="cls-1" d="M209.08,274.48a.81.81,0,0,0,1.49.42c5-7.54,9.83-12,14.31-14.34-.38-12.61-1.29-23.52-3.18-27.35L212.63,237h0C208.57,245.69,208.85,267.06,209.08,274.48Z"/><path class="cls-1" d="M224.43,314.43s12.77,10.56,13.32,10S248.07,313,248.07,313c1-14.84-5-36.85-10.76-54.17-4.35-13-8.59-23.41-9.7-26.09l-3.18-.67-2.73,1.13c1.89,3.83,2.8,14.74,3.18,27.35C225.6,284.42,224.43,314.43,224.43,314.43Z"/><path class="cls-1" d="M227.61,232.75l-.28-.67"/><path d="M81.75,295.18c0,11.1.31,24.76,1.1,39.81.09,1.79.2,3.6.31,5.43v.1c0,.9.11,1.8.17,2.71a24,24,0,0,0,46.93,3.8c-.65-7.85-1.16-13.9-1.36-16.87,0-.23,0-.45,0-.65-.73-11.77,5.55-41,5.55-41,13.18-24.52,5.29-52.91-4.72-70.05s-28.54-1.07-28.54-1.07-12.09,46.36-19.4,77.76"/><path class="cls-1" d="M81.75,295.18c0,11.1.31,24.76,1.1,39.81.09,1.79.2,3.6.31,5.43v.1c0,.9.11,1.8.17,2.71a24,24,0,0,0,46.93,3.8c-.65-7.85-1.16-13.9-1.36-16.87,0-.23,0-.45,0-.65-.73-11.77,5.55-41,5.55-41,13.18-24.52,5.29-52.91-4.72-70.05s-28.54-1.07-28.54-1.07S89.06,263.78,81.75,295.18Z"/><path class="cls-5" d="M287.18,229.94c7.88,24.54,11.89,47.51,12.06,56.56.25,13.46-2.24,26.88-5.67,39.9"/><path class="cls-5" d="M355,204.15a48.53,48.53,0,0,0,31.27,7.54s6.71,106.37-6.61,119.69"/><path class="cls-5" d="M338.94,245.79c-.88-.88-38.8-47.19-51.76-54.5s-44.51-10.23-44.51-10.23"/><path class="cls-1" d="M286,370.07c.42,1.32.84,2.65,1.25,4q.76,2.46,1.49,4.92c.12.38.23.76.34,1.14q5,17,8.29,34.39c.08.42.16.83.23,1.26s.15.78.22,1.18q3.31,17.94,4.86,36.16"/><path class="cls-5" d="M151.25,242.39a83.88,83.88,0,0,0-8.74,11.07c-1.87-5.13-3.5-10.54-5.88-15.46"/><path class="cls-5" d="M142.4,253.46c-4.71,21.83-6.27,45.77-6.08,69.65"/><path class="cls-6" d="M97.68,318.15a25.86,25.86,0,0,1,11.46-2.68h.45l.25.11a42.36,42.36,0,0,0,4.24,1.68c1.74.56,5.27,1.61,10,3,5.76,1.72,13.3,4,21.71,6.53,9.19,2.8,18.82,6.84,28.63,10h0L199,346.26a1.25,1.25,0,0,1,1.63-.58l24,11h.09l.13,0,.08,0h0l.07,0L250.23,343l1-42.72.51-3.23,24.95-.64,4.13-8.63,30.62-.72,5,8.34,23.78-.61,2.54,121.41-89.08,1.42-1.45-23a.55.55,0,0,1,0-.18,303.69,303.69,0,0,1-32.26-3.93,1.24,1.24,0,0,1-.89.26c-3.49-.35-5.63-.61-5.64-.61h-.06l-2.44-.43-6.64-1.16h0a397.84,397.84,0,0,1-50.46-9l-1.63-.3h0l-.1,0h0c-14.64-3.56-28.93-7.69-42.18-11.91h0q-4.18-1.33-8.22-2.68h0c-2.88-1-5.72-1.91-8.48-2.87l-.22-.08-.18-.15A26.44,26.44,0,0,1,85.91,353h0l-.05-.09h0a26,26,0,0,1,11.83-34.76"/><polygon class="cls-6" points="87.36 355.54 87.36 355.55 87.36 355.55 87.36 355.54"/><polygon class="cls-6" points="87.36 355.55 87.37 355.55 87.37 355.55 87.36 355.55"/><path class="cls-7" d="M255.8,415.15l84.47-1.35-2.44-116.68-22,.56h-.23l-38.29,1-23.62.61-.18,1.14-1,43.72v.09l.14,7.8c1.45-.37,3.1-.79,4.78-1.27,2.37-.67,4.82-1.44,7-2.26a23.41,23.41,0,0,0,5.13-2.54,39.82,39.82,0,0,1,6-3.41,70.07,70.07,0,0,1,12.67-4.67,31.41,31.41,0,0,1,6.13-1,10.71,10.71,0,0,1,5,.76c.11.06.22.11.31.17l6.27-2.17.52.54a3.64,3.64,0,0,1,.83,1.75,6.94,6.94,0,0,1-.76,4.43,17.91,17.91,0,0,1-2.78,4,58.36,58.36,0,0,1-6.06,5.56c-3.76,3.12-8.33,6.65-12.26,10-1.64,1.38-3.18,2.73-4.48,4h.36a16.87,16.87,0,0,0,4.58-.87c1.3-.41,2.87-1,4.55-1.65a67,67,0,0,1,7.92-2.66,18.11,18.11,0,0,1,3.82-.54,7.63,7.63,0,0,1,3.47.66,5.35,5.35,0,0,1,2,1.67l.78,1.07L304,366.05l-.42.49c-.83.91-2.55,2.67-4.89,4.91-3.49,3.35-8.32,7.75-13.3,11.76-2.48,2-5,3.94-7.45,5.59a47.31,47.31,0,0,1-6.86,4,18.85,18.85,0,0,1-4.7,1.25,65.07,65.07,0,0,1-11.29.45l-.59,0Z"/><path class="cls-8" d="M247.5,354.5S264.85,351,270.28,347s23.91-11.7,29.3-7.8l-27.39,16.32"/><path class="cls-8" d="M299.58,339.19l6.08-2.1s2.53,2.62-2.74,8.62-23.36,18-26.79,24.16"/><path class="cls-8" d="M278.79,366.52s1.28,1.62,7.49-.29,17-7.74,20.48-3L280.13,378"/><path class="cls-8" d="M224.54,357.82l.07.05.38.29,26.38-14.42v.59l.16,8.62"/><path class="cls-8" d="M218.55,389.06l.12,0c12.29,2.14,42.66,6.83,52,2.69,11.75-5.23,32.46-25.89,32.56-26.52"/><polyline class="cls-8" points="251.38 344.33 252.36 300.39 252.7 298.21 339.01 296.01 341.5 415.05 254.72 416.43 253.34 394.54"/><polyline class="cls-8" points="277.39 297.58 281.52 288.95 310.73 288.26 315.72 296.6"/><path class="cls-8" d="M218.55,389.06c.43-5.17,1.24-11.36,2-16.25a71.93,71.93,0,0,1,4-15"/><path class="cls-7" d="M205.56,386.17c2.4.41,4.34.76,5.73,1l2.36.42h.07l.31,0,3.85.42c0-2.38.06-4.75.16-7.12a7.61,7.61,0,0,1-1.18.92,8,8,0,0,1-7.24.7,8,8,0,0,1-3.64-2.86,52,52,0,0,0-.42,6.48"/><path class="cls-7" d="M210.53,380.23a5.7,5.7,0,0,0,1.58.36,5.57,5.57,0,0,0,3.42-.84,5.66,5.66,0,0,0,2.2-2.67,5.44,5.44,0,0,0,.36-1.58,5.54,5.54,0,0,0-3.51-5.62,5.6,5.6,0,0,0-5,.48,5.58,5.58,0,0,0-2.21,2.67,6.2,6.2,0,0,0-.36,1.57,5.52,5.52,0,0,0,.85,3.43,5.61,5.61,0,0,0,2.67,2.2"/><path d="M87.05,352.32l0,.09a25.66,25.66,0,0,0,1.39,2.41,24.38,24.38,0,0,0,5.09,5.69c2.75,1,5.58,1.91,8.46,2.86q4,1.35,8.21,2.68c13.22,4.21,27.48,8.33,42.08,11.88l.06,0c14.44,2.65,28.74,5.22,39.87,7.19a122.29,122.29,0,0,1,10-36.24L174,338.12c-9.87-3.22-19.5-7.25-28.6-10-8.4-2.56-15.94-4.82-21.7-6.53-4.74-1.41-8.26-2.47-10-3a42.48,42.48,0,0,1-4.38-1.72,24.64,24.64,0,0,0-22.25,35.51"/><path class="cls-1" d="M87.05,352.32l0,.09a25.66,25.66,0,0,0,1.39,2.41,24.38,24.38,0,0,0,5.09,5.69c2.75,1,5.58,1.91,8.46,2.86q4,1.35,8.21,2.68c13.22,4.21,27.48,8.33,42.08,11.88l.06,0c14.44,2.65,28.74,5.22,39.87,7.19a122.29,122.29,0,0,1,10-36.24L174,338.12c-9.87-3.22-19.5-7.25-28.6-10-8.4-2.56-15.94-4.82-21.7-6.53-4.74-1.41-8.26-2.47-10-3a42.48,42.48,0,0,1-4.38-1.72,24.64,24.64,0,0,0-22.25,35.51Z"/><path class="cls-9" d="M219.16,389.51c-3.48-.34-5.62-.6-5.62-.6l-9.18-1.61-12.11-2.15"/><path class="cls-9" d="M93.57,360.51c2.75.95,5.58,1.91,8.46,2.86q4,1.35,8.21,2.68c13.22,4.21,27.48,8.33,42.08,11.88l.06,0a399.77,399.77,0,0,0,52,9.36,57.35,57.35,0,0,1,.43-7.86,74.94,74.94,0,0,1,5.59-19.83,31.47,31.47,0,0,1,3.37-6.33"/><path class="cls-9" d="M212,381.93a6.81,6.81,0,1,0-6.23-7.33A6.8,6.8,0,0,0,212,381.93Z"/><line class="cls-9" x1="200.13" y1="346.82" x2="224.24" y2="357.82"/><path class="cls-5" d="M118.85,320.12s49.67,12.4,94.91,28.79"/><path class="cls-9" d="M128.73,358.79c-.21.8-.42,1.59-.62,2.38-.84,3.2-1.65,6.39-2.43,9.61-.11.42-.22.86-.32,1.29Q118,402.25,113.6,433"/><rect class="cls-1" x="479.37" y="151.73" width="53.88" height="53.88" rx="4.95" transform="translate(-26.68 113.88) rotate(-12.51)"/><path d="M484.25,159.66l-3.66.81a1,1,0,0,0-.77,1.18l.79,3.58a1,1,0,0,0,1.2.74l3.66-.82a1,1,0,0,0,.77-1.17l-.79-3.58a1,1,0,0,0-1.2-.74"/><path d="M493.67,157.57l-3.66.81a1,1,0,0,0-.77,1.18l.79,3.58a1,1,0,0,0,1.2.74l3.66-.81a1,1,0,0,0,.77-1.18l-.79-3.58a1,1,0,0,0-1.2-.74"/><path d="M503.09,155.48l-3.66.81a1,1,0,0,0-.77,1.18l.79,3.58a1,1,0,0,0,1.2.74l3.66-.81a1,1,0,0,0,.77-1.18l-.8-3.58a1,1,0,0,0-1.19-.74"/><path d="M512.51,153.39l-3.66.81a1,1,0,0,0-.77,1.18l.79,3.58a1,1,0,0,0,1.2.74l3.66-.81a1,1,0,0,0,.77-1.18l-.8-3.58a1,1,0,0,0-1.19-.74"/><path d="M521.93,151.3l-3.66.81a1,1,0,0,0-.77,1.18l.79,3.58a1,1,0,0,0,1.2.74l3.66-.81a1,1,0,0,0,.77-1.18l-.8-3.58a1,1,0,0,0-1.19-.74"/><path d="M493,199.1l-3.66.82a1,1,0,0,0-.77,1.17l.79,3.58a1,1,0,0,0,1.2.74l3.66-.81a1,1,0,0,0,.77-1.17l-.79-3.59a1,1,0,0,0-1.2-.74"/><path d="M502.42,197l-3.66.82A1,1,0,0,0,498,199l.79,3.58a1,1,0,0,0,1.2.75l3.66-.82a1,1,0,0,0,.77-1.17l-.79-3.58a1,1,0,0,0-1.2-.75"/><path d="M511.84,194.92l-3.66.82a1,1,0,0,0-.77,1.17l.79,3.58a1,1,0,0,0,1.2.75l3.66-.82a1,1,0,0,0,.77-1.17l-.8-3.58a1,1,0,0,0-1.19-.75"/><path d="M521.26,192.84l-3.66.81a1,1,0,0,0-.77,1.17l.79,3.58a1,1,0,0,0,1.2.75l3.66-.82a1,1,0,0,0,.77-1.17l-.8-3.58a1,1,0,0,0-1.19-.74"/><path d="M530.68,190.75l-3.66.81a1,1,0,0,0-.77,1.18l.79,3.58a1,1,0,0,0,1.2.74l3.66-.82a1,1,0,0,0,.77-1.17l-.8-3.58a1,1,0,0,0-1.19-.74"/><path class="cls-7" d="M515.83,177.21l-15.08,14.11c-.9.85-2.33.22-2.63-1.15l-4.56-20.53c-.3-1.38.72-2.54,1.9-2.16l19.63,6.42a2.06,2.06,0,0,1,.74,3.31"/><path class="cls-7" d="M55.9,69.15c8.39-5.7,13.45-14.47,12.62-23.84C67.17,30.24,51.06,19.37,32.53,21S.08,36.23,1.42,51.31s17.46,25.94,36,24.29a42,42,0,0,0,5-.75L60,78.22a1.82,1.82,0,0,0,1.66-3Z"/><path class="cls-1" d="M55.9,69.15c8.39-5.7,13.45-14.47,12.62-23.84C67.17,30.24,51.06,19.37,32.53,21S.08,36.23,1.42,51.31s17.46,25.94,36,24.29a42,42,0,0,0,5-.75L60,78.22a1.82,1.82,0,0,0,1.66-3Z"/><path class="cls-6" d="M20,49.49A3.86,3.86,0,1,1,15.82,46,3.86,3.86,0,0,1,20,49.49"/><path class="cls-6" d="M38.22,47.87A3.86,3.86,0,1,1,34,44.37a3.86,3.86,0,0,1,4.18,3.5"/><path class="cls-6" d="M56.44,46.24a3.86,3.86,0,1,1-4.18-3.49,3.86,3.86,0,0,1,4.18,3.49"/><path class="cls-1" d="M437,19.63,414.74,70.55a7,7,0,0,1-9.26,3.63l-1.36-.6v0a8.58,8.58,0,0,1-3.84-11l.53-1.22L374.93,50,396,1.75Z"/><path class="cls-7" d="M404.12,73.56v0L371,59.12l-4.12-1.79A8.59,8.59,0,0,1,362.42,46l.52-1.22,12,5.23,25.88,11.29-.53,1.22a8.58,8.58,0,0,0,3.84,11"/><path class="cls-1" d="M404.12,73.56v0L371,59.12l-4.12-1.79A8.59,8.59,0,0,1,362.42,46l.52-1.22,12,5.23,25.88,11.29-.53,1.22A8.58,8.58,0,0,0,404.12,73.56Z"/><line class="cls-10" x1="398.29" y1="11.16" x2="429.2" y2="24.64"/><line class="cls-10" x1="395.52" y1="17.52" x2="426.42" y2="31.01"/><line class="cls-10" x1="392.74" y1="23.88" x2="423.65" y2="37.37"/><line class="cls-10" x1="389.96" y1="30.25" x2="420.87" y2="43.73"/><line class="cls-10" x1="387.19" y1="36.61" x2="418.09" y2="50.1"/><line class="cls-10" x1="384.41" y1="42.98" x2="415.32" y2="56.46"/></g></g></svg>