<svg xmlns="http://www.w3.org/2000/svg" viewBox="0 0 515.29 499.44"><defs><style>.cls-1,.cls-6,.cls-8{fill-rule:evenodd;}.cls-10,.cls-2,.cls-3,.cls-7,.cls-9{fill:none;}.cls-2,.cls-3,.cls-7,.cls-9{stroke:#000;stroke-miterlimit:10;}.cls-2{stroke-width:2.05px;}.cls-10,.cls-3{stroke-width:2.74px;}.cls-4,.cls-8{fill:#fff;}.cls-5,.cls-6{fill:#f6c447;}.cls-10,.cls-7,.cls-9{stroke-linecap:round;}.cls-7{stroke-width:2.43px;}.cls-9{stroke-width:2.31px;}.cls-10{stroke:#fff;stroke-linejoin:round;}</style></defs><g id="Layer_2" data-name="Layer 2"><g id="Layer_1-2" data-name="Layer 1"><path class="cls-1" d="M290.36,123.28c-1.3-1.49-2.17-3.71-4.46-4.07-10.48-1.61-15.5,13.66-3.59,18.71a5.25,5.25,0,0,1,1.87,1.32,7.82,7.82,0,0,1,1.68,4.54c.1,1,.12,2,.12,3l-.36-.62-.28-.48-.42-.7-1.39-2.39-.79-1.34c-2.92-2.41-6.87-3.83-8.59-7.51-4.47-8,3.84-19.76,13-16.7,2.05.13,7.83,6.46,3.25,6.22"/><path class="cls-1" d="M508.94,132.73l-28.39,0-37.69-.05-38.76,0-38.33,0-38-.05-38.4-.05-36,0-38.25,0H200.63a1.21,1.21,0,1,1,.08-2.41l38.67.05,37,0,36.73,0,38.77.05,38.32,0,38.38.05,38.62.05,34.65,0H509a1.2,1.2,0,0,1,.19,2.38,1.27,1.27,0,0,1-.28,0"/><path class="cls-1" d="M509.32,125.9H201a1.21,1.21,0,0,1,.09-2.41H509.41a1.2,1.2,0,0,1,.19,2.38,1.27,1.27,0,0,1-.28,0"/><path class="cls-1" d="M451,155.15c-1.92-3.12-2-7.14-2.95-10.64-9.94-2.87-13.24-21.25-.92-22.85,1.41-.08,4.69.33,3.95,2.38-.69,1.25-1.9.23-2.87,0-9.94,0-7.6,15-.38,17.68a3.33,3.33,0,0,1,2.74,3.07,60.64,60.64,0,0,0,2.13,8.57c.08.4.17.81.26,1.21a1.37,1.37,0,0,1-1,.83,1.1,1.1,0,0,1-1-.3"/><path class="cls-1" d="M400.58,157.51c-.76-4.17-1.48-8.36-2.11-12.56-5.24-3.23-9.24-7.62-9.33-14.2.09-2.74.49-5.72,2.47-7.77,2.66-2.78,7.7-4.34,10.77-1.38,2.15,1.84.2,4.31-1.32,2.26-1.86-2.85-6.18-1-8,1.06-1.28,1.6-1.46,3.84-1.55,5.78a13.09,13.09,0,0,0,4.6,9.64c1.29,1.25,3.26,1.72,4.33,3.17a36.9,36.9,0,0,1,1.09,5.46,11.87,11.87,0,0,0,.08,1.33c.07.64.16,1.29.26,1.93.18,1.24.38,2.47.6,3.7a2.79,2.79,0,0,0,.47,1.12"/><path class="cls-1" d="M343.74,155.63a1.33,1.33,0,0,1-.74-.77c-.13-.81-.27-1.63-.42-2.44-.91-8.75-7.43-7.16-10.08-17.13-3-7.78,5.94-18.74,13.75-13.24a1.21,1.21,0,0,1-1.64,1.78,2.53,2.53,0,0,0-1.53-.73c-9.59-.63-10.61,11.66-5.32,17.39,1.63,2.6,5,3.77,6,6.75.85,2.21.91,4.64,1.53,6.89a1.25,1.25,0,0,1-.93,1.56,1.08,1.08,0,0,1-.66-.06"/><path class="cls-1" d="M499,239.86c0-2.15,3.14-1.26,4.56-1.84,9.56-2.72,9.76-3.18,9.19-12.89-1.13-15.48-3.81-32.21-16.12-42.95a30.36,30.36,0,0,0-9.46-5.36c-1.46-.81-4-.75-4.62-2.48.3-2.93,3.79,0,5.39.2,16.56,5.7,24.29,23.52,26,39.81a93.81,93.81,0,0,1,1.28,15.06c.21,5-.61,7.2-5.48,9-1.84.85-10,4.08-10.78,1.43"/><path class="cls-1" d="M461.62,324.5c-4-1.06-8.49.57-12.37-.66a1.21,1.21,0,0,1,.86-2c5.08-.08,10.08.07,15.13.45,4.11-.26,8-1.89,12-2.48,6.2-.45,13.14,1,18.11-3.79,2-2.36.55-6.26,1.08-9.18.15-5.16.44-10.31.59-15.47.2-12.79.68-25.58.61-38.38.24-6.67-1.07-13.38-.46-20a1.2,1.2,0,0,1,2.38.34,19.47,19.47,0,0,0-.14,4.37c1.29,16.8.28,33.64.1,50.45-.12,7.64-.69,15.27-.76,22.91,1.47,9.06-9.66,11.61-16.68,11.05s-13.45,3.59-20.46,2.45"/><path class="cls-1" d="M476.85,321.38c-2.14-.08-.35-5.76-.74-7.25.19-10.13,0-20.26,0-30.39-.16-10.39.09-20.78-.16-31.16a1.21,1.21,0,0,1,2.41-.11c0,1.24.07,2.48.09,3.72q0,21.46.16,42.91c-.33,2.67,1.15,23.42-1.73,22.28"/><path class="cls-1" d="M461,320c.44-2.65-1.19-22,1.28-21.21,1.37,0,1.34,1.48,1.21,2.48-.08,3.1-.11,6-.11,9.13-.25,3.39.54,7.11-.29,10.35A1.21,1.21,0,0,1,461,320"/><path class="cls-1" d="M461.19,293.56c-2.21-.59-.48-4.56-.71-6.29a1.22,1.22,0,0,1,1.31-1.09c2.23.59.41,4.55.71,6.29a1.22,1.22,0,0,1-1.31,1.09"/><path class="cls-1" d="M495.9,225.48c.07-1.18-.66-3.31,1.06-3.51,1.76,0,1.18,2.22,1.34,3.4a1.2,1.2,0,0,1-2.4.11"/><path class="cls-1" d="M335.12,251.67a1.51,1.51,0,0,1-.45-.1,1.46,1.46,0,0,0,.46.1Z"/><path class="cls-1" d="M445.88,182.12a43.43,43.43,0,0,1-15.87-2.4c-1.31-.91-5.4-.62-4.13-3,1.31-1.27,3.21.25,4.64.61a40,40,0,0,0,9.51,2.17c14.53.76,29.58-.71,42.93-6.41,5.88,3.37-19.67,8.33-21.68,8.08a128,128,0,0,1-15.4.93m-18.61-3.52.05,0,.13-.06h0a1.23,1.23,0,0,0,.28-.23,1.25,1.25,0,0,1-.45.31"/><path class="cls-1" d="M411.71,249.31c-5.54-.89-10.74-3.21-15.92-5.28-2.51-.82-4.59-2.83-3.34-5.6q1.8-7.29,4-14.48c4.89-15.92,13.57-35.27,26.66-46,6.11-3.84,7.25,1.27,4.12,1-7.83,2.54-11.71,11.26-16.17,17.59a111.37,111.37,0,0,0-12,27.06c-1.21,3.93-2.32,7.89-3.36,11.87-.13,1.67-1.73,4-.82,5.38,7.53,3.67,15.7,6.73,24.18,6.67a1.22,1.22,0,0,1,1.2,1.22c-.37,2.55-6.65.52-8.54.57"/><path class="cls-1" d="M419.42,171.67c-8.52,2.79-17.68,2.52-26.53,2.11A69.37,69.37,0,0,1,377,171.34l-1.32-.37c-.2-.07-.44-.12-.69-.18-.83-.19-1.74-.39-1.76-1.4a.2.2,0,0,1,0-.1.9.9,0,0,1,.13-.45,1.11,1.11,0,0,1,.41-.45,1.21,1.21,0,0,1,.59-.19h.06a84.69,84.69,0,0,0,23,3.38c7.13.1,14.44.07,21.27-2.23,1.5-.2,3.64-2.48,4.74-.65.49,2.07-2.77,2.23-4.07,3"/><path class="cls-1" d="M372,230.41c-.51,3.43-5,2.67-7.5,2.58a65.92,65.92,0,0,1-17.43-2.86c-1.49-.4-3.48-.27-4.43-1.69a.64.64,0,0,0,0-.07,7.79,7.79,0,0,1-.14-3.12c.73-.65,1.47-1.27,2.26-1.85a6.47,6.47,0,0,1,.51-.43c-.17,1.17-.31,2.36-.41,3.54,0,.22,0,.45-.06.67,4.4.77,8.6,2.54,13.07,2.91,3.88-.06,7.85,1.16,11.67.3.82-2.73-.5-5.67.2-8.31,3.3-2.65,2.35,6.76,2.28,8.33"/><path class="cls-1" d="M375.93,169.61a.51.51,0,0,1,0,.24,2.5,2.5,0,0,1-.9.94q-.44.32-1,.63a12.87,12.87,0,0,0-2.77,2c-5.44,4.67-9,11-13.07,16.77a87.73,87.73,0,0,0-9,17.59c-.49,1.3-.94,2.61-1.35,3.92-.38-1.31-.77-2.62-1.19-3.92.46-1.17.94-2.32,1.42-3.48a82.67,82.67,0,0,1,8.56-16c3.07-4.33,5.8-8.9,9.29-12.89a42.24,42.24,0,0,1,6.31-5.8l0,0a9.67,9.67,0,0,1,1.12-.65l.34-.14a2.45,2.45,0,0,1,.92-.22c.64,0,1.1.29,1.28,1.13"/><path class="cls-1" d="M364.41,318.66c.44-7.69-.15-75,.06-82.68.27-1.35-.77-3.61.85-4.27,2.34-.27,1.35,3,1.56,4.42,0,3.82,0,7.63,0,11.45-.32,2.24,1.39,72.16-1.24,72.29a1.21,1.21,0,0,1-1.2-1.21"/><path class="cls-1" d="M430.6,178.75c-1.47-2.15-2.77-4.45-4.81-6.13-1.14-1.28-3.42-2.12-3.58-4a1.21,1.21,0,0,1,2.25-.4c1.42,1.4,3.06,2.56,4.43,4,.93,1.3,5.05,5.56,3.4,6.71a1.21,1.21,0,0,1-1.69-.23"/><path class="cls-1" d="M340.9,172c-5.16,0-10.08-1.73-15-3.06-.87-.09-2-.15-2-1.31.21-3.14,8.81,1.27,11,1.23,4.58,1.15,9.39.64,14,.4a107.75,107.75,0,0,0,20.45-4c.75-.35,1.79-.49,2.17.44.93,2.34-6.25,2.95-7.83,3.58A103,103,0,0,1,340.9,172"/><path class="cls-1" d="M371.74,169.17c-.68-.89-2-1.7-1.87-2.95,1.05-2.42,2.63.28,3.58,1.25,1.11,1.1-.63,2.82-1.71,1.7"/><path class="cls-1" d="M377,171.34l-1.32-.37c-.2-.07-.44-.12-.69-.18q-.44.32-1,.63a15.55,15.55,0,0,0-1.82-1.9.34.34,0,0,0-.09-.08h0a6.06,6.06,0,0,0-.56-.47l-.44-.35a1.2,1.2,0,0,1-.4-.52,1.23,1.23,0,0,1,1.88-1.38l.52.39c.44.35.86.72,1.26,1.09a3.45,3.45,0,0,1,.26.28,16.1,16.1,0,0,1,1.25,1.37,16.46,16.46,0,0,1,1.11,1.49"/><path class="cls-1" d="M449.65,187.24c-2.35-.42-19.32.1-16.78-3.88a1.35,1.35,0,0,1,1.84,0,69.37,69.37,0,0,0,25,.56c5.91-1,11.81-2.2,17.64-3.61,1.15-.19,2.9-1.35,3.52.21.59,2.48-6.63,2.61-8.38,3.37-7.55,1.52-15.14,3.33-22.88,3.38"/><path class="cls-1" d="M396.4,179.2a79.54,79.54,0,0,1-16.63-2.85c-.9-1.81,1.58-2.25,2.85-1.8,7.11,1.76,14.42,2.94,21.74,1.85,2.14.2,12.5-2.82,12.52-.54.44,2.38-7,1.82-8.77,2.48a66.63,66.63,0,0,1-11.71.86"/><path class="cls-1" d="M370,216.61c.42-1.78-1.05-6.72,1.43-6.91,2.05.23.62,5.18,1,6.8a1.21,1.21,0,0,1-2.41.11"/><path class="cls-1" d="M381.85,318.15c-.4-8.69.28-63.55.82-72.15,0-1-.16-2.43,1.17-2.52,2.89-.85-.21,15.31.35,17.88-.07,3.4,0,53.28.07,56.68a1.21,1.21,0,0,1-2.41.11"/><path class="cls-1" d="M391.72,270.12c.4-1.83-1.17-8.15,1.06-8.34,2.43.1.91,6.38,1.35,8.23a1.21,1.21,0,0,1-2.41.11"/><path class="cls-1" d="M333,248.28c-2.13-.45-.63-4.93-1.07-6.65.32-1.67-1.18-5.53,1-6a1.22,1.22,0,0,1,1.26,1.15c-.34,2,1.4,11.88-1.21,11.49"/><path class="cls-1" d="M342.41,250.37c.39-1.68-.89-5.66,1.48-5.91,2.1.43.58,4.2.93,5.8a1.21,1.21,0,0,1-2.41.11"/><path class="cls-1" d="M342.13,176.17c-1.93-.25-9.86-.15-9.28-2.95,1-1.84,3.85.38,5.54.23a32.07,32.07,0,0,0,14.51-1,1.22,1.22,0,0,1,1.52.77c.49,3.05-10.11,3.05-12.29,2.95"/><path class="cls-1" d="M283.63,144.83a1.2,1.2,0,0,1,1.08,2.15c-1,.47-2.11.91-3.17,1.38a150.37,150.37,0,0,1-15.15,6.4c-1.6.26-4.65,3.59-5.36.83.45-2.06,4.2-2.72,5.92-3.64,5.76-1.89,11.1-4.77,16.68-7.12"/><path class="cls-1" d="M313.51,163.41c-6.62-4.12-13.5-7.56-20.28-11.37-2.93-1.43-6-3.14-8.69-4.79a1.22,1.22,0,0,1-1.08-1.12c.05-1.85,2.19-1.29,3.16-.46,7.75,4.65,16,8.38,23.73,13.08,1.15,1.11,5.63,2.26,4.78,4.12a1.23,1.23,0,0,1-1.62.54"/><path class="cls-1" d="M285.86,143.78a16,16,0,0,0-.24,2.4.57.57,0,0,0,0,.13,1.22,1.22,0,0,1-1.86,1.09,1,1,0,0,1-.34-.34,9.67,9.67,0,0,1-.15-2.08,19.55,19.55,0,0,1,.27-2.37c.19-1.12.45-2.25.65-3.37a7.82,7.82,0,0,1,1.68,4.54"/><path class="cls-1" d="M297,167.57c-10.15.19-20.5-.5-30-4.21-2.83-1.34-6.84-1.46-8.82-4a1.2,1.2,0,0,1,2.14-1.05,26,26,0,0,0,3.72,1.48c5.19,1.8,10.37,3.75,15.84,4.49a101.54,101.54,0,0,0,24.32.35,28.56,28.56,0,0,0,6.37-1.58c1.33-.27,3.45-2,4.3-.22.43,2-2.61,1.87-3.84,2.62-4.47,1.65-9.28,2-14,2.12"/><path class="cls-1" d="M352.46,221.09c-.19,2.22-2.78,2.42-4.41,3.11a31.64,31.64,0,0,0-3.23,2.31c-.77.61-1.5,1.23-2.22,1.86-4.34,3.77-8.17,7.5-15.29,7.81a1.2,1.2,0,0,1-.16-2.4,21,21,0,0,0,8.32-2.58c2.59-1.65,4.7-3.92,7-5.95.73-.65,1.48-1.27,2.26-1.85a6.47,6.47,0,0,1,.51-.43c2.79-2.13,5.87-.46,4.37-4.73-.55-2.21-1.13-4.4-1.77-6.58-.38-1.31-.77-2.62-1.19-3.92a106.6,106.6,0,0,0-10.69-24,49.46,49.46,0,0,0-20.69-20.33c-2.84-.11-1.21-3.81,1.47-2,8,4.54,15.26,10.53,19.83,18.65a111.6,111.6,0,0,1,11.5,24.14c.4,1.15.77,2.31,1.12,3.48s.74,2.58,1.08,3.89c.85,3.1,2,6.22,2.2,9.46"/><path class="cls-1" d="M306.18,328.67c-5.82-.35-11.49-1.58-17.21-2.6-5.83-.57-11.64,1.31-17.48.51-5.32-.65-10-3.65-15.11-4.95-6.17-2.18-13.59-1.07-19-5a1.22,1.22,0,0,1-.11-1.71c1.21-1.21,2.37.72,3.57,1,5,1.52,10.26,1.62,15.26,3.05,4.61,1.06,8.79,3.35,13.31,4.68,6.63,1.79,13.59-.89,20.24,0,11.8,2,25.25,5.9,36-1.27.5-10.31-.75-20.93-.69-31.35-1-17.71,1-35.39.6-53.08a99.51,99.51,0,0,0-2.75-19.22,1.21,1.21,0,0,1,1.12-1.28c1.91.06,1.45,3.23,2.11,4.53,4.43,21.61,0,43.69,1.25,65.53.17,11.24.72,22.47,1,33.7.28,3.85-4.34,4.81-7.14,6a28.56,28.56,0,0,1-15,1.42"/><path class="cls-1" d="M236.09,315.78c-2.54-27.95-3.65-56.12-3.68-84.19.1-15.41-.51-31.19,3.11-46.25,2.46-7.35,6.58-14.05,11.2-20.23a1.21,1.21,0,0,1,2,1.3c-1.19,1.52-2.28,3.12-3.34,4.73A60.73,60.73,0,0,0,237.53,187c-2.12,9.7-2.43,19.79-2.69,29.7-.14,17.25-.14,34.35.75,51.55.34,12.36,1.31,24.68,1.91,37,.26,3.34.38,6.71,1,10a1.21,1.21,0,0,1-2.37.49"/><path class="cls-1" d="M255.2,321.32c-3.49-3.29-5.32-7.83-7.42-12a93.65,93.65,0,0,1-5.71-14.15c-.35-1.69-4.28-13.6-.07-11.35a95.66,95.66,0,0,0,11.68,31.71,17.32,17.32,0,0,0,3.11,4c1.17,1-.43,2.87-1.59,1.82"/><path class="cls-1" d="M265.75,324c-1.59-1.09-11.75-15.12-8-15.58,1-.21,1.43.75,1.61,1.57,1,2.1,2.23,4.09,3.36,6.12a28.16,28.16,0,0,0,4.61,6.08,1.2,1.2,0,0,1-1.58,1.81"/><path class="cls-1" d="M321,212.12c0-1.83-2.4-7.13.09-7.68,2-.23,1.49,5.61,2.27,7.2a1.2,1.2,0,0,1-2.36.48"/><path class="cls-1" d="M292.17,172.85c-6.7,0-25.22-.53-28.49-6.95a1.23,1.23,0,0,1,1.12-1.28c1.12-.07,1.22,1.3,2.19,1.61a36.23,36.23,0,0,0,8.66,2.92,80.65,80.65,0,0,0,23.87.77A1.2,1.2,0,0,1,300.8,171c0,2.34-6.85,1.48-8.63,1.81"/><path class="cls-1" d="M308,172.2c-1.47.39-3.47-.8-1.93-2.22a19.42,19.42,0,0,0,6.66-1.66,1.22,1.22,0,0,1,1.62.54c.89,2.28-4.8,3-6.35,3.34"/><path class="cls-1" d="M254.33,303.45c-.44-1.64-3.55-6.14-.94-6.89,1.33-.15,1.35,1.36,1.66,2.27.43,1.26,1,2.49,1.51,3.71a1.2,1.2,0,0,1-2.23.91"/><path class="cls-1" d="M292.91,324c-2.34-4.37-3.48-9.22-4.61-14-.1-1.61-2.1-5.27.14-5.88,1.45-.14,1.38,1.51,1.56,2.51.58,2.72,1.28,5.42,1.95,8.12a39.8,39.8,0,0,0,3.05,8.06,1.21,1.21,0,0,1-2.09,1.2"/><path class="cls-1" d="M285.66,293.93c-.35-2-.6-4.07-.79-6.12a1.2,1.2,0,0,1,2.39-.29c.1,1,.2,2,.31,2.92s.31,2.14.49,3.2a1.21,1.21,0,0,1-2.4.29"/><path class="cls-1" d="M293.81,325.41c-.3-.37-.6-.74-.91-1.1-1-1.42,1.14-2.56,1.88-1.5,2.25,1.85.75,4.06-1,2.6"/><path class="cls-1" d="M450.59,324.16a134.28,134.28,0,0,1-16,2.38,28.54,28.54,0,0,1-15-1.42c-2.81-1.15-7.43-2.12-7.15-6,.29-11.24.83-22.47,1-33.71.68-12-.34-24-.67-36l2.47.4c.35,13.05,1.24,26.1.52,39.17.07,10.41-1.19,21-.69,31.34,10.34,6.87,23.12,3.54,34.54,1.53a1.24,1.24,0,0,0-.44,2c.44.13.89.23,1.34.32"/><path class="cls-2" d="M371.08,166.45S346,154.86,344.5,154.86s-24.72,10.38-24.72,10.38"/><path class="cls-2" d="M423.54,170c-.78,0-22.21-13.84-22.21-13.84l-27.73,14.1"/><polyline class="cls-2" points="483.81 174.39 451.88 154.22 430.96 178.29"/><path class="cls-3" d="M326.82,322c.18-.18,2.46-.79,19.51,0s19-2.7,19-2.7,12.24-2.9,17-1.11,29.55,4.48,31.47,1.11"/><path class="cls-1" d="M90.9,123.28c-1.31-1.49-2.17-3.71-4.46-4.07-10.48-1.61-15.5,13.66-3.59,18.71a5.29,5.29,0,0,1,1.86,1.32,7.69,7.69,0,0,1,1.68,4.54c.11,1,.12,2,.13,3l-.36-.62-.29-.48-.41-.7-1.39-2.39-.79-1.34c-2.92-2.41-6.87-3.83-8.6-7.51-4.47-8,3.84-19.76,13-16.7,2,.13,7.83,6.46,3.25,6.22"/><path class="cls-1" d="M309.48,132.73l-28.39,0-37.69-.05-38.77,0-38.33,0-38-.05-38.4-.05-36,0-38.24,0H1.16a1.21,1.21,0,0,1,.09-2.41l38.66.05,37,0,36.72,0,38.78.05,38.32,0,38.38.05,38.62.05,34.64,0h7.15a1.2,1.2,0,0,1,.2,2.38,1.33,1.33,0,0,1-.28,0"/><path class="cls-1" d="M309.86,125.9H1.55a1.21,1.21,0,0,1,.08-2.41H309.94a1.2,1.2,0,0,1,.2,2.38,1.33,1.33,0,0,1-.28,0"/><path class="cls-1" d="M201.12,157.51c-.77-4.17-1.49-8.36-2.12-12.56-5.23-3.23-9.24-7.62-9.32-14.2.09-2.74.49-5.72,2.46-7.77,2.66-2.78,7.71-4.34,10.77-1.38,2.15,1.84.2,4.31-1.32,2.26-1.86-2.85-6.17-1-8,1.06-1.27,1.6-1.45,3.84-1.54,5.78a13.12,13.12,0,0,0,4.59,9.64c1.3,1.25,3.26,1.72,4.33,3.17a36.92,36.92,0,0,1,1.1,5.46,9.89,9.89,0,0,0,.08,1.33c.07.64.16,1.29.25,1.93.18,1.24.39,2.47.6,3.7a2.94,2.94,0,0,0,.47,1.12"/><path class="cls-1" d="M144.27,155.63a1.39,1.39,0,0,1-.74-.77c-.12-.81-.27-1.63-.42-2.44-.9-8.75-7.42-7.16-10.07-17.13-3-7.78,5.93-18.74,13.74-13.24a1.21,1.21,0,0,1-1.63,1.78,2.56,2.56,0,0,0-1.53-.73c-9.6-.63-10.61,11.66-5.33,17.39,1.64,2.6,5,3.77,6.05,6.75.85,2.21.91,4.64,1.52,6.89a1.23,1.23,0,0,1-.93,1.56,1.08,1.08,0,0,1-.66-.06"/><path class="cls-1" d="M135.66,251.67a1.51,1.51,0,0,1-.45-.1,1.4,1.4,0,0,0,.45.1Z"/><path class="cls-1" d="M227.81,178.6l0,0,.14-.06h0a1,1,0,0,0,.27-.23,1.22,1.22,0,0,1-.44.31"/><path class="cls-1" d="M220,171.67c-8.52,2.79-17.68,2.52-26.53,2.11a69.2,69.2,0,0,1-15.87-2.44l-1.32-.37c-.21-.07-.45-.12-.69-.18-.84-.19-1.75-.39-1.76-1.4a.38.38,0,0,1,0-.1,1,1,0,0,1,.14-.45,1,1,0,0,1,.41-.45,1.18,1.18,0,0,1,.58-.19H175a84.58,84.58,0,0,0,23,3.38c7.12.1,14.44.07,21.27-2.23,1.5-.2,3.64-2.48,4.74-.65.48,2.07-2.77,2.23-4.08,3"/><path class="cls-1" d="M172.52,230.41c-.51,3.43-5,2.67-7.51,2.58a65.91,65.91,0,0,1-17.42-2.86c-1.49-.4-3.49-.27-4.43-1.69a.25.25,0,0,1,0-.07,7.61,7.61,0,0,1-.14-3.12,28.88,28.88,0,0,1,2.26-1.85,6.37,6.37,0,0,1,.5-.43c-.17,1.17-.3,2.36-.41,3.54l-.06.67c4.4.77,8.61,2.54,13.08,2.91,3.88-.06,7.85,1.16,11.67.3.82-2.73-.5-5.67.2-8.31,3.3-2.65,2.35,6.76,2.28,8.33"/><path class="cls-1" d="M176.47,169.61a.69.69,0,0,1,0,.24,2.58,2.58,0,0,1-.9.94c-.29.21-.62.42-1,.63a12.62,12.62,0,0,0-2.77,2c-5.44,4.67-9,11-13.08,16.77a88.26,88.26,0,0,0-9,17.59c-.48,1.3-.93,2.61-1.34,3.92-.38-1.31-.78-2.62-1.2-3.92.47-1.17.94-2.32,1.43-3.48a82.09,82.09,0,0,1,8.55-16c3.08-4.33,5.8-8.9,9.3-12.89a42.24,42.24,0,0,1,6.31-5.8l.05,0a8.9,8.9,0,0,1,1.12-.65l.34-.14a2.45,2.45,0,0,1,.92-.22c.64,0,1.09.29,1.28,1.13"/><path class="cls-1" d="M165,318.66c.43-7.69-.16-75,.06-82.68.26-1.35-.78-3.61.84-4.27,2.35-.27,1.36,3,1.57,4.42,0,3.82,0,7.63,0,11.45-.31,2.24,1.4,72.16-1.24,72.29a1.2,1.2,0,0,1-1.19-1.21"/><path class="cls-1" d="M231.14,178.75c-1.48-2.15-2.77-4.45-4.82-6.13-1.13-1.28-3.41-2.12-3.58-4a1.22,1.22,0,0,1,2.26-.4c1.42,1.4,3.06,2.56,4.43,4,.93,1.3,5,5.56,3.39,6.71a1.2,1.2,0,0,1-1.68-.23"/><path class="cls-1" d="M141.44,172c-5.16,0-10.08-1.73-15-3.06-.88-.09-2.06-.15-2-1.31.21-3.14,8.81,1.27,11,1.23,4.58,1.15,9.39.64,14,.4a107.65,107.65,0,0,0,20.44-4c.75-.35,1.8-.49,2.18.44.93,2.34-6.25,2.95-7.83,3.58A103,103,0,0,1,141.44,172"/><path class="cls-1" d="M172.27,169.17c-.68-.89-2-1.7-1.86-2.95,1-2.42,2.63.28,3.58,1.25s-.63,2.82-1.72,1.7"/><path class="cls-1" d="M177.55,171.34l-1.32-.37c-.21-.07-.45-.12-.69-.18-.29.21-.62.42-1,.63a15.55,15.55,0,0,0-1.82-1.9l-.09-.08h0a4.88,4.88,0,0,0-.55-.47c-.14-.12-.3-.24-.45-.35a1.25,1.25,0,0,1-.39-.52,1.23,1.23,0,0,1,1.88-1.38l.52.39c.44.35.86.72,1.25,1.09a2.37,2.37,0,0,1,.27.28c.44.44.85.89,1.25,1.37s.76,1,1.11,1.49"/><path class="cls-1" d="M196.94,179.2a79.54,79.54,0,0,1-16.63-2.85c-.91-1.81,1.57-2.25,2.85-1.8,7.11,1.76,14.42,2.94,21.74,1.85,2.14.2,12.5-2.82,12.51-.54.44,2.38-7,1.82-8.76,2.48a66.63,66.63,0,0,1-11.71.86"/><path class="cls-1" d="M170.54,216.61c.41-1.78-1-6.72,1.42-6.91,2.06.23.63,5.18,1,6.8a1.21,1.21,0,0,1-2.41.11"/><path class="cls-1" d="M182.39,318.15c-.4-8.69.27-63.55.81-72.15,0-1-.16-2.43,1.17-2.52,2.9-.85-.2,15.31.36,17.88-.07,3.4,0,53.28.07,56.68a1.21,1.21,0,0,1-2.41.11"/><path class="cls-1" d="M192.25,270.12c.41-1.83-1.16-8.15,1.07-8.34,2.42.1.9,6.38,1.34,8.23a1.21,1.21,0,0,1-2.41.11"/><path class="cls-1" d="M133.48,248.28c-2.13-.45-.62-4.93-1.07-6.65.33-1.67-1.17-5.53,1-6a1.21,1.21,0,0,1,1.26,1.15c-.33,2,1.41,11.88-1.21,11.49"/><path class="cls-1" d="M143,250.37c.39-1.68-.9-5.66,1.48-5.91,2.09.43.57,4.2.93,5.8a1.21,1.21,0,0,1-2.41.11"/><path class="cls-1" d="M142.66,176.17c-1.92-.25-9.86-.15-9.27-2.95,1-1.84,3.84.38,5.53.23a32.07,32.07,0,0,0,14.51-1,1.21,1.21,0,0,1,1.52.77c.5,3.05-10.1,3.05-12.29,2.95"/><path class="cls-1" d="M84.17,144.83A1.2,1.2,0,0,1,85.25,147c-1,.47-2.12.91-3.17,1.38a152.34,152.34,0,0,1-15.15,6.4c-1.6.26-4.65,3.59-5.37.83.45-2.06,4.2-2.72,5.92-3.64,5.77-1.89,11.11-4.77,16.69-7.12"/><path class="cls-1" d="M114,163.41c-6.61-4.12-13.49-7.56-20.27-11.37-2.94-1.43-6-3.14-8.69-4.79A1.22,1.22,0,0,1,84,146.13c0-1.85,2.19-1.29,3.15-.46,7.75,4.65,16,8.38,23.74,13.08,1.15,1.11,5.62,2.26,4.77,4.12a1.22,1.22,0,0,1-1.62.54"/><path class="cls-1" d="M86.4,143.78a16,16,0,0,0-.24,2.4.57.57,0,0,0,0,.13,1.22,1.22,0,0,1-1.86,1.09,1.13,1.13,0,0,1-.35-.34A9.07,9.07,0,0,1,83.8,145a17.74,17.74,0,0,1,.27-2.37c.19-1.12.44-2.25.64-3.37a7.76,7.76,0,0,1,1.69,4.54"/><path class="cls-1" d="M97.54,167.57c-10.15.19-20.5-.5-30-4.21-2.82-1.34-6.84-1.46-8.82-4a1.21,1.21,0,0,1,2.15-1.05,26,26,0,0,0,3.72,1.48c5.19,1.8,10.37,3.75,15.84,4.49a101.54,101.54,0,0,0,24.32.35,28.69,28.69,0,0,0,6.37-1.58c1.32-.27,3.45-2,4.3-.22.42,2-2.61,1.87-3.84,2.62-4.47,1.65-9.28,2-14,2.12"/><path class="cls-1" d="M153,221.09c-.18,2.22-2.77,2.42-4.41,3.11a34,34,0,0,0-3.23,2.31c-.76.61-1.5,1.23-2.21,1.86-4.34,3.77-8.18,7.5-15.29,7.81a1.2,1.2,0,0,1-.16-2.4A20.92,20.92,0,0,0,136,231.2c2.6-1.65,4.71-3.92,7-5.95a28.88,28.88,0,0,1,2.26-1.85,6.37,6.37,0,0,1,.5-.43c2.8-2.13,5.88-.46,4.37-4.73-.55-2.21-1.13-4.4-1.76-6.58-.38-1.31-.78-2.62-1.2-3.92a106.57,106.57,0,0,0-10.68-24,49.52,49.52,0,0,0-20.69-20.33c-2.85-.11-1.21-3.81,1.46-2,8,4.54,15.27,10.53,19.83,18.65a111.64,111.64,0,0,1,11.51,24.14c.4,1.15.76,2.31,1.11,3.48s.75,2.58,1.09,3.89c.85,3.1,2,6.22,2.19,9.46"/><path class="cls-1" d="M106.71,328.67c-5.82-.35-11.48-1.58-17.21-2.6-5.82-.57-11.64,1.31-17.47.51-5.32-.65-10-3.65-15.11-4.95-6.18-2.18-13.6-1.07-19.05-5a1.22,1.22,0,0,1-.11-1.71c1.22-1.21,2.38.72,3.57,1,5,1.52,10.26,1.62,15.27,3.05,4.6,1.06,8.79,3.35,13.31,4.68,6.63,1.79,13.58-.89,20.23,0,11.8,2,25.25,5.9,36-1.27.5-10.31-.76-20.93-.7-31.35-1-17.71,1-35.39.61-53.08a99.51,99.51,0,0,0-2.75-19.22,1.21,1.21,0,0,1,1.12-1.28c1.9.06,1.44,3.23,2.11,4.53,4.43,21.61,0,43.69,1.25,65.53.17,11.24.71,22.47,1,33.7.28,3.85-4.34,4.81-7.15,6a28.55,28.55,0,0,1-15,1.42"/><path class="cls-1" d="M36.63,315.78c-2.54-27.95-3.66-56.12-3.69-84.19.1-15.41-.5-31.19,3.11-46.25,2.46-7.35,6.58-14.05,11.2-20.23a1.21,1.21,0,0,1,2,1.3c-1.2,1.52-2.28,3.12-3.35,4.73A60.7,60.7,0,0,0,38.07,187c-2.13,9.7-2.44,19.79-2.69,29.7-.15,17.25-.15,34.35.75,51.55.34,12.36,1.31,24.68,1.91,37,.25,3.34.38,6.71,1,10a1.21,1.21,0,0,1-2.36.49"/><path class="cls-1" d="M55.74,321.32c-3.49-3.29-5.33-7.83-7.42-12a92.62,92.62,0,0,1-5.71-14.15c-.35-1.69-4.29-13.6-.08-11.35a95.88,95.88,0,0,0,11.68,31.71,17.6,17.6,0,0,0,3.11,4c1.17,1-.42,2.87-1.58,1.82"/><path class="cls-1" d="M66.28,324c-1.58-1.09-11.74-15.12-8-15.58,1-.21,1.44.75,1.61,1.57,1,2.1,2.23,4.09,3.37,6.12a28.16,28.16,0,0,0,4.61,6.08A1.21,1.21,0,0,1,66.28,324"/><path class="cls-1" d="M121.56,212.12c0-1.83-2.41-7.13.08-7.68,2-.23,1.5,5.61,2.28,7.2a1.2,1.2,0,0,1-2.36.48"/><path class="cls-1" d="M92.71,172.85c-6.71,0-25.23-.53-28.49-6.95a1.21,1.21,0,0,1,1.12-1.28c1.12-.07,1.21,1.3,2.18,1.61a36.38,36.38,0,0,0,8.66,2.92,80.72,80.72,0,0,0,23.88.77,1.21,1.21,0,0,1,1.28,1.12c0,2.34-6.85,1.48-8.63,1.81"/><path class="cls-1" d="M108.56,172.2c-1.47.39-3.47-.8-1.93-2.22a19.48,19.48,0,0,0,6.66-1.66,1.21,1.21,0,0,1,1.61.54c.9,2.28-4.79,3-6.34,3.34"/><path class="cls-1" d="M54.87,303.45c-.44-1.64-3.55-6.14-.95-6.89,1.34-.15,1.35,1.36,1.67,2.27.43,1.26,1,2.49,1.51,3.71a1.2,1.2,0,0,1-2.23.91"/><path class="cls-1" d="M93.45,324c-2.34-4.37-3.48-9.22-4.62-14-.09-1.61-2.1-5.27.15-5.88,1.45-.14,1.38,1.51,1.56,2.51.57,2.72,1.27,5.42,1.94,8.12a40.43,40.43,0,0,0,3.06,8.06,1.21,1.21,0,0,1-2.09,1.2"/><path class="cls-1" d="M86.2,293.93c-.36-2-.6-4.07-.79-6.12a1.2,1.2,0,0,1,2.39-.29c.09,1,.19,2,.31,2.92s.31,2.14.48,3.2a1.2,1.2,0,0,1-2.39.29"/><path class="cls-1" d="M94.34,325.41c-.29-.37-.59-.74-.91-1.1-1-1.42,1.14-2.56,1.88-1.5,2.26,1.85.75,4.06-1,2.6"/><path class="cls-2" d="M171.61,166.45S146.53,154.86,145,154.86s-24.72,10.38-24.72,10.38"/><path class="cls-2" d="M224.07,170c-.77,0-22.2-13.84-22.2-13.84l-27.73,14.1"/><path class="cls-3" d="M127.36,322c.17-.18,2.46-.79,19.5,0s19-2.7,19-2.7,12.24-2.9,17-1.11,29.56,4.48,31.48,1.11"/><path class="cls-4" d="M301.62,116.08l-.1,0-.09,0,.19-.07"/><path class="cls-4" d="M381.42,433.09a1.55,1.55,0,0,1-2.74.73c-.71-3.48.25-7.38,0-11a104.88,104.88,0,0,0-.87-15c5.1-10.09,3.93,23.44,3.64,25.31"/><path class="cls-4" d="M430.32,409.93c0,2.49-.07,5-.13,7.47a1.54,1.54,0,0,1-3.07,0c.53-2.1-1.14-8.92,1.66-9a1.55,1.55,0,0,1,1.54,1.53"/><path class="cls-4" d="M493.07,387.61l-.45,0-.6,0-1.39,0c-1.63,0-3.4,0-5.08.09l-1.25.05h-.12l-2.18.07c-.86,0-1.62,0-2.19,0h-.22l-.52-.07h-2.29c2-5.25,1.79-17.31.78-20.17-.83-3.11-7.59-3.07-12.16-3.23,4.42-4.84,6.52-17.12,1.53-20.57-6.06-2.29-12.87-1.65-19.23-2.61-1.57-.17-3.14-.29-4.72-.39l-1.23-.07-.82,0-1.37-.05c-3-.11-6-.11-9-.05l-1.47,0-1.47,0c-2,.06-3.92.14-5.89.23l-2.94.14c-11.62.35-23.26.52-34.87,1.07a2.27,2.27,0,0,0-2.24,1.52h0a1,1,0,0,0,0,.1,1.25,1.25,0,0,0-.19.15c-2.68,2.33-3.71,16.22-3.2,18.34.19.94.08,2,.2,3h-.15l-1.23,0h-.27l-.59,0-.54,0-.77,0h-.95l-.54,0-.48,0c-4.76.43-5.22,3.06-5.38,9.55,0,1.6-.42,6.11.43,8.68,0,0,0,0,0,.05l-.13.05c-3.25,1.09-6.26,3.15-9.58,4a22.25,22.25,0,0,1-2.44.17H315.08c-.8-4.91-1.48-9.84-2.35-14.73-2.65-12.9-3.66-26.09-7.18-38.81-1.26-4.87-3-9.63-4-14.57a1.41,1.41,0,0,0-.32-.89,1.11,1.11,0,0,0,.17-.3c4.42-9.85,7.53-20.2,11-30.42a161.93,161.93,0,0,0,6.82-22.7l0-.18c3.7,6.42,12.47,17.1,13.35,17.95,6.85,6.52,14.68,13.74,24.42,14.94h.09c15.39-2.77,26.27-22.67,33.64-35.15,1.26-2.23,10.77-18.19,11.49-24.19a1.53,1.53,0,0,0,.72-.32c4.69-4,6.44-10.18,9.22-15.47,2.18-4.3,4.47-8.85,4.53-13.78a4.13,4.13,0,0,0-1-2.86c3-3.25,5.61-6.87,9.22-9.43,9.92-6.22,21.89-9.53,30-18.46a2.5,2.5,0,0,0,.43-2.85c2.15-1.95,5-4.08,4.36-7.06a2.29,2.29,0,0,0-1.11-1.25c1.73-3.23,0-5.18-3.09-5.15l-.39,0a9,9,0,0,0-1.55.23s0,0,0,0h0c-.21-1.63-1.48-2.24-3.15-2.29h-.37c-2.82,0-6.57,1.51-8.38,2.36-6.56,2.69-12.79,6.16-19.37,8.79a28.7,28.7,0,0,1-4.59,1.11h0c.06-.27.13-.55.2-.82,1.12-4.21,5.75-7.5,5-12.12-.64-1.54-1.53-2.09-2.54-2.06h-.13c-2.28.19-5.1,3.22-6.81,4.47-4.95,3.76-9.71,7.82-13.16,13.06-3.35,4.46-4.42,10-6.94,14.92a21.59,21.59,0,0,1-2.79,4.2,2.17,2.17,0,0,0-.27.37s0,0,0,0a.89.89,0,0,1-.19.07h0a5.65,5.65,0,0,0-2.7,2.38c-.05.09-.09.18-.13.26a3.19,3.19,0,0,0-.26.26h0c-1.9,2-3.87,5.39-4.83,6.31-5.68,7.66-11.35,15.34-16.3,23.5-1.66,2.78-3.22,5.62-4.88,8.4-.4,1-1.69,2.54-2.62,4.06l-.08-.11a8.52,8.52,0,0,0-1.79-1.81,3.33,3.33,0,0,0-1.25-.33h-.06a31.54,31.54,0,0,0-3.39-9.45c-4.36-10.18-8.87-20.3-14.06-30.09-5.2-10.18-11-20.24-18.55-28.86-8.26-7.76-19.68-10.51-30.34-13.29-1.31-.18-4.49-1.4-6.7-1.5h-.39c-.54-2.93-1.13-5.85-1.64-8.77-.83-3.94-1.14-8.19-3.32-11.67a6.09,6.09,0,0,0-4.26-3.12h-.37c-.09-.91.16-2.07.11-3h0l.54,0,.54,0h1.93l.92,0,.54,0H277c.24,0,.48,0,.71-.06l.87-.1a23.05,23.05,0,0,0,17.1-10.57s0,0,0,0a4.74,4.74,0,0,0,1.58.29h.08l.4,0a13,13,0,0,0,3.76-.82l.07,0h0c12-4.13,12.76-18.9,2-25a4.38,4.38,0,0,0-2.07-.61c-.26-6.18-1.14-12.37-1.33-18.47-.23-9.25-.57-18.8-3.78-27.58h0a.69.69,0,0,0-.05-.13h0c2.29,1.59,7.43,2.67,9.64,2.76h.75c5.11-.37,5.28-6.61,2.62-9.84l0,0a6.83,6.83,0,0,0,1.13.19h.39c2.47,0,5.11-1.27,4.94-4.09-.95-5-7.06-9.13-11.16-11.72C314.77,18.18,305,9.28,299,8a28.17,28.17,0,0,0-5.44-.82H293l-.71,0h-.61c-.25,0-.51,0-.76,0a1.22,1.22,0,0,0-.27,0h-.15l-.76,0a.22.22,0,0,0-.11,0q-1.39.09-2.79.3v0a4,4,0,0,0-1.83-5,10.74,10.74,0,0,0-4.4-.91c-.37,0-.75,0-1.13,0h-.29l-.29,0-.57,0-.74.05c-.73.06-1.47.11-2.19.15l-.48,0c-5.94.55-12.12.72-17.69,3.06v0C257,2.55,255.29,1.7,253,1.63h-.73c-4.3.15-10.07,2.57-11.85,4.14-.54.42-1.1.86-1.64,1.31a.62.62,0,0,1,0-.13c.31-2.89-.49-5.94-3.63-6.79A3.59,3.59,0,0,0,234,0h-.33a9.37,9.37,0,0,0-4.16,2.14c-2.93,2-4.62,5.21-6,8.42a49.87,49.87,0,0,0-3.38,10.79l-.09-.24h0a17.1,17.1,0,0,0-2.65-4.69,6.5,6.5,0,0,0-5-2.66h-.36a6.47,6.47,0,0,0-5.75,3.9c-2.81,6.3-.88,13.55.83,19.91l-.16-.06h0a9.61,9.61,0,0,0-2.76-.54h-.52c-7.05.39-3.74,13.62-1.78,18.71a60.22,60.22,0,0,0,6.64,13.07c.8.93,2.57,4.16,4.28,5.91l.13.14a.57.57,0,0,1,0,.13h0a19.56,19.56,0,0,0,6,15.62.46.46,0,0,0,.07.07l-.08.06a14.59,14.59,0,0,0-4.58,6c-3.9,9.76,1.74,22.1,12.15,22.22h.87l.5,0a13.71,13.71,0,0,0,2.53-.44,13,13,0,0,0,5.19-3.06.74.74,0,0,0,.13-.12c.11.92.18,1.84.22,2.77.2,3.37.26,6.74.31,10.12v0l-.15,0-.4.11c-5.5,2.53-4.6,10.78-5.35,15.84-.24,3-.45,6.09-.81,9.12h-.15a0,0,0,0,0,0,0h-.27c-1.47,0-3.5,1.2-4.61,1.6-11.67,4.77-24.06,9.32-33.45,18C174.67,193,166.94,218.52,159.52,243c-6.26,21.6-11.32,43.53-16.84,65.33-2,7.43-4,14.85-5.56,22.36a1.4,1.4,0,0,0,.07,1l-.17,0h-.26a1.36,1.36,0,0,0-1.24.81l0,0-.18.05h0a2.36,2.36,0,0,0-1.5,2.23,209.37,209.37,0,0,0-2.08,23.08,1.5,1.5,0,0,0,.19.76l.06.1-.08.09a1.6,1.6,0,0,0-.19,1.91h0s0,0,0,0l-.13,0a1.65,1.65,0,0,0-.5.27c-9,5.9-17.8,12.3-27.37,17.36-3.46,1.82-7,3.49-10.5,5.23a1.39,1.39,0,0,0-.74,1.11h0a1.2,1.2,0,0,0,0,.19,1,1,0,0,0-.13.22h0a1.6,1.6,0,0,0-.18.95c-.06-.1-.1-.2-.16-.28a1.38,1.38,0,0,0-1.15-.75h-.12A2.16,2.16,0,0,0,89,387.35s0,0,0,0,0,0,0,0a.14.14,0,0,0-.09,0s0,0,0,0,0,0,0,0,0,0,0,0c-1.14,0-2.28,0-3.42,0a.69.69,0,0,0-.25,0h0s0,0,0,0,0,0,0,0a2,2,0,0,0-.81.19h-.79c-1.32,0-2.76,0-4.21,0l-.66,0-1.7.05-.47,0-1.79.06-.51,0h0l-.81,0H72.9l-.39,0H70.84a7.47,7.47,0,0,1-1.25-.09H28.11a1.54,1.54,0,0,0,0,3.07H79.86a2.94,2.94,0,0,1,.55-.07l.27,0h.24c1,0,2.42.14,3.74.22l.55,0h1.15a4.93,4.93,0,0,0,2.19-.47H92q1.65,0,3.3,0l6.61.07H102a1.56,1.56,0,0,0,1.25-.65h0l.77,0,2.76.05h1.14c1.09,0,2.18,0,3.27,0,2,0,4,0,6,0h2.83l.48,0,.54,0,.46,0h.14a5.13,5.13,0,0,0,.6.68,38.72,38.72,0,0,0,8.23,1.06c.46,0,.93.05,1.4.06l1.38,0,1.42,0h.15a77.34,77.34,0,0,0,11.47-1.42l.12,0a6.46,6.46,0,0,0,3.18.65h1l.6,0,1.22-.05.79,0,.39,0,1.11-.06h.06a3.17,3.17,0,0,1,.43,0c.44,0,.83,0,1.18,0a4.55,4.55,0,0,1,1,.09h155s0,0,0,.06l2.06,0,.89,0h.16v0h1l2.07-.08.37,0a2.6,2.6,0,0,1,.56-.06h.2a3.08,3.08,0,0,1,.75.09l.3.09h34a3.17,3.17,0,0,0,.79.15h.15c.12.63.23,1.26.29,1.91a107,107,0,0,1,.5,17.52l-.16-.05a8.68,8.68,0,0,0-2.95-.43h-.83l-1.2,0-.66,0-1.69.06-1.05,0h-.94a7,7,0,0,1-1.24-.11h-.15c-1.58,0-3.15,0-4.73,0-.94,0-1.89,0-2.83-.06l-2.31-.06-2.7-.09h-.08l-4.18-.17-2.19-.08-.92,0-4.92-.2-1.24-.05-3.55-.12h-.16l-3.22-.08-3.3-.06c-2.09,0-4.19,0-6.28,0s-4.35.05-6.52.06h-6.52l-3.74,0-2.85,0c-1.54,0-3.07,0-4.61-.06l-7.41-.13-7.41-.16-4.39-.1-5.24-.12-3.27-.07-5.31-.11-1.07,0-2.13,0L240,408c-.52,0-1,0-1.57,0l-1.53,0q-3.27-.06-6.53-.06h-1.55q-3.51,0-7,0h-3.22l-2.29,0-1.07,0-1.27,0c-.75,0-1.49,0-2.23.05l-2.49.06h-.43c-.63,0-1.25,0-1.87.06-1.08,0-2.17.07-3.24.12l-2.55.11c-.86,0-1.71.07-2.56.12l-2.55.14-2.55.16c-1.7.1-3.4.22-5.09.36a1.55,1.55,0,0,0-.37,2.81,5.23,5.23,0,0,0,1,.1,11.34,11.34,0,0,0,1.73-.15c1.19-.17,2.42-.45,3.59-.5h.57c24.29-.38,48.57-.29,72.85,0q7.95.1,15.89.24l17.29.32c4.83.08,9.65.19,14.48.29l39.7.84h.15l.35,0h.11a2,2,0,0,0,.64-.12l.16-.06c-.2,3.78-.5,7.55-.76,11.31-.2,3-.3,6-.37,9.06h-.85c-.59,0-1.17,0-1.67,0H343c-1,0-2,0-2.94,0-.66,0-1.32,0-2,0l-.74,0-.77,0-.47,0-2.89-.1-4.32-.2-1.76-.08-3.16-.17-5.17-.26c-1.34-.06-2.68-.12-4-.16-3-.11-5.93-.16-8.9-.13l-1.88,0c-10.63.09-21.25.05-31.88-.06-8.39-.09-16.78-.22-25.18-.33-3.38-.05-6.76-.1-10.14-.13-10.1-.13-20.2-.21-30.31-.17h-.05c-3.44,0-6.88,0-10.32.09-1.72,0-3.45,0-5.19.08a1.55,1.55,0,0,0-1.53,1.54c0,1.16,1.3,1.56,3,1.65h1.38c1,0,2.13-.13,3.14-.22l1-.06.52,0h.77a3.34,3.34,0,0,1,.78.08c3.27,0,6.53-.06,9.8-.06s6.56,0,9.85,0h.19l10,0,17.88.25,8.94.11,17.83.18,9,.06,8.94,0h8.85q6.3,0,12.61,0H314c11.82.59,23.76,1.35,35.59,1.27l1.85,0,1.84,0,1.84-.06h.15c-.09,5.83-.08,11.66-.29,17.49.36,3.94-1.57,14.48,1.78,17.85l.12.12a.5.5,0,0,0,0,.12.93.93,0,0,0,0,.24c0,4.34,0,8.68-.2,13a68.81,68.81,0,0,1-.89,7.85,1.54,1.54,0,0,0,1.47,1.74h.2a1.32,1.32,0,0,0,.8-.31c1.25-1.62.86-4.09,1.24-6,.51-5,.45-10,.46-15,0-.22,0-.45,0-.68l.32,0,.14,0a1.41,1.41,0,0,0,1.11.68,1.46,1.46,0,0,0,.53-.07c.36-.16.73-.3,1.09-.43h0l.14,0a.09.09,0,0,1,0,0,127.27,127.27,0,0,1,.39,16.57c.23,1.71-1.58,4.47.62,5.32a1.06,1.06,0,0,0,.31.05h.18a1.54,1.54,0,0,0,1.4-1.11c1.31-7.09.57-14.42.12-21.58a16.23,16.23,0,0,1,1.7-.14h.56c.23,0,.45,0,.68,0a22.44,22.44,0,0,1,2.32.19h0l.14,0,0,0c-.58.89.22,1.93.32,2.91a75.32,75.32,0,0,1,.42,14.86c.21,1.74-1.82,4.24.18,5.34a1.4,1.4,0,0,0,.5.11.42.42,0,0,0,.16,0h.07a1.45,1.45,0,0,0,1.28-.91c1.43-4.8,1.71-16.68-.22-21.83l0,0c1.28.26,2.56.55,3.87.81l.15,0v0a9.3,9.3,0,0,0,.19,1.43A108.59,108.59,0,0,1,379,491c.21,1.7-1.78,4.11.21,5.17a1.4,1.4,0,0,0,.49.11h.18a1.54,1.54,0,0,0,1.35-.92c1.72-5.79.82-12.06.67-18-.21-.86-.11-2.19-.25-3.37h0l.65,0h.86l.75,0c.75,0,1.51-.11,2.26-.2l.15,0a5.11,5.11,0,0,0,.09,2c.17,4.24.39,8.5.21,12.75a74.16,74.16,0,0,1-1.17,9,1.51,1.51,0,0,0,1.48,1.91h.16a1.38,1.38,0,0,0,1.33-1.08c1.45-6.6,1.47-13.39,1.18-20.11-.25-1.38.27-3.76-.64-4.92,1.65-.32,3.3-.69,4.95-1l.15,0a1.09,1.09,0,0,0,0,.24c0,.13,0,.27,0,.41h0a169.27,169.27,0,0,0,1.74,19.59c.57,1.73-.19,5.44,2.28,5.56h.11a1.54,1.54,0,0,0,1.32-1.73c-1-5.74-1.67-11.54-2.1-17.35-.31-2.35.1-4.91-.48-7.18.68-.08,1.37-.14,2.07-.16.36,0,.73,0,1.09,0h.15l.73-.05h1.73a0,0,0,0,0,0,0,1.43,1.43,0,0,0-.12.86c.29,3.58.24,7.18.33,10.78.06,3.43.09,6.86.05,10.3a1.43,1.43,0,0,0,1.47,1.48h.07a1.44,1.44,0,0,0,1.53-1.48c0-7.16,0-14.35-.41-21.49a.15.15,0,0,0,0-.07,0,0,0,0,0,0,0c1.39.26,2.75.6,4.12,1l.15,0a.06.06,0,0,0,0,0c-.22.85.4,2,.45,2.87a56.64,56.64,0,0,1,.07,9.21,79.6,79.6,0,0,1-1.16,9,1.54,1.54,0,0,0,1.48,1.74h0a1.31,1.31,0,0,0,.95-.32c1.27-1.49,3-16.36,1.27-21.65a.07.07,0,0,0,0,0,31.06,31.06,0,0,0,4.55.83h.15v0a1.13,1.13,0,0,0-.05.41c.16,6.5.37,13,.85,19.47,0,1.13.19,2.65,1.5,2.7h.32a1.58,1.58,0,0,0,1.31-1.88c-.21-3.11-.4-6.23-.55-9.35-.17-3.32-.24-6.64-.32-10a5.17,5.17,0,0,0-.15-1.53c1.76-.3,3.4-.64,5-1h0a.9.9,0,0,0,.16,0c-.43,2.24.14,4.74,0,7a77.1,77.1,0,0,1-.63,12.35,1.46,1.46,0,0,0,1.47,1.69h.2a1.4,1.4,0,0,0,1.38-1.27c1-6.75.66-13.7.54-20.44,1.63-.36,3.2-.69,4.8-.9l.15,0c0,.87,0,1.75,0,2.61-.24,6.23-.47,12.48-1.2,18.68a1.47,1.47,0,0,0,1.48,1.69h.2a1.4,1.4,0,0,0,1.37-1.28,200.94,200.94,0,0,0,1.21-21.94h1.49a24.35,24.35,0,0,1,2.61.24l.14,0v0c0,2.84-.14,5.66-.2,8.5q-.17,6.15-.35,12.3a1.43,1.43,0,0,0,1.46,1.48h0s0,0,0,0,0,0,0,0h0a0,0,0,0,0,0,0h0a1.45,1.45,0,0,0,1.53-1.48c.19-6.72.39-13.43.53-20.15v0c.88.23,1.79.52,2.75.87.49.16,1,.29,1.37.39a.7.7,0,0,0,.14,0,.06.06,0,0,0,0,0c-1,2.22-.53,5.38-1,7.72-.32,4.27-.56,8.55-.63,12.83A1.44,1.44,0,0,0,448,496h.08a1.45,1.45,0,0,0,1.53-1.49c.1-5.77.48-11.53,1-17.26.08-1,.22-1.92.39-2.87a1.51,1.51,0,0,0-.08-.48c2.68-.9,2.67-4.78,3-8.63,1-9.44,1.61-18.92,2.12-28.4h0s0-.06,0-.09a7,7,0,0,0,3.3.69c.89,0,1.85,0,2.75,0l.57,0,.48,0,.6,0c.35,0,.67,0,1,0h.38a4.9,4.9,0,0,1,.92,0h.05c1.16-.09,2.31-.15,3.48-.18,6.86-.2,13.78.34,20.59-.07,1.22-.07,2.44-.17,3.66-.32a1.56,1.56,0,0,0-.65-3h-.07a1.85,1.85,0,0,0-.48.14c-.43,0-.86.08-1.29.1l-1.37.06c-.6,0-1.2,0-1.8,0h-1l-2,0c-1.13,0-2.28,0-3.41,0-5.27,0-10.65,0-16,.07-2.14,0-4.26.07-6.36.15-1.08,0-2.14.08-3.2.13.13-2.49.26-5,.37-7.48.29-4.65.43-9.3.45-14v0c2.91.75,8.37.83,13.33.74h.32l2,0,.95,0,1.21,0,1.09,0,.71,0,.81,0,.45,0,.5,0,1,0h1.18c3.66-.18,7.29-.67,10.94-.95a1.43,1.43,0,0,1,.29,0h.83l.5,0h.52c.82,0,1.51-.26,1.69-1.28-.11-1.56-1.28-1.93-2.69-1.92a4.61,4.61,0,0,0-.64,0c-1.29.1-2.69.41-3.65.39h-.3q-3.13.35-6.26.57c-.57.05-1.14.08-1.71.11-2.76.17-5.52.26-8.29.25h-1.51c-1.51,0-3,0-4.55-.05l-1.86-.06-1.86-.09h0a1.88,1.88,0,0,1-.34,0h-.25c-1.3-.05-3-.6-4.32-.56h0c0-4.12-.17-8.26-.43-12.38a29.25,29.25,0,0,0-.85-6.86v0a10.59,10.59,0,0,0,1.88.25,3.77,3.77,0,0,0,.48,0c1,0,2.05,0,3.11,0l.89,0,2.69-.13a3.39,3.39,0,0,1,.44,0c.44,0,.84,0,1.18,0h.18a3.74,3.74,0,0,1,.75.08h25.68c.41,0,.88,0,1.34,0,1.17,0,2.33-.15,2.4-1.56.32-1-1.32-1.44-3.72-1.6M297.21,113.78a44,44,0,0,0,4.18-17.35c0-1,.06-1.9.06-2.84,10.72,5.25,7.41,19.56-4.24,20.19m-69.67,2c-11.53,1-15.27-16.1-7.06-22.45a2.08,2.08,0,0,0,.82-.71A15.91,15.91,0,0,0,226.59,95a12.93,12.93,0,0,0,3.84.61,4.68,4.68,0,0,0,.41,1.23A93,93,0,0,1,235,111.19a10.05,10.05,0,0,1-7.45,4.57M457.32,345.9c-.06-.26-.11-.56-.19-.87,3.08.14,6.18.33,8.69,1.83,1.46,5.16.52,11.52-3.08,15.63-.68.87-2,.84-2.84,1.38-1.36-.11-2.73-.2-4.1-.28,2.71-5.41,2.6-11.84,1.52-17.69m-14.82-2.14c3.21.21,6.4.59,9.61.86.53.09,1.06.16,1.61.21a4,4,0,0,1,.57,1.57c.86,4.67,1.06,9.56-.5,14.11a14.09,14.09,0,0,1-1.18,2.52,1.54,1.54,0,0,0-.16.38c-18.27-.86-36.67-.11-54.87.9l-.69,0c1.83-5.18.69-15-2.18-19.61,15.93-.54,31.87-1.43,47.79-1M384.41,345c2.41,0,4.82-.12,7.24-.19a2.66,2.66,0,0,0,.55,1.55A29,29,0,0,1,394.41,362a7.51,7.51,0,0,1-1,2.43.54.54,0,0,0,0,.11c-3,.15-6.06.32-9.08.44,3.54-5.8,1.11-13.61.08-19.93m-14,34.78c.17-2.11-.83-12.39,2.27-11.52,2.15,0,4.31-.06,6.46-.11.05,3.78,1.32,7.58,1.05,11.42.08,1.51-.89,3-.6,4.44a1.38,1.38,0,0,0,.14.27,41.46,41.46,0,0,0-7.61-1.56,10.79,10.79,0,0,0-1.14,0,10.62,10.62,0,0,1-.57-3M441,469.1l-.06-.18,0,.07c-2.29-10.15-2.46-20.63-1.89-31a1.55,1.55,0,0,0-1.53-1.54c-2.83-.35-1.39,9.71-1.8,11.86a98,98,0,0,0,1.74,19c0,.38.12.84.22,1.3a21.59,21.59,0,0,0-8,.65c-1.83.41-3.68,1-5.54,1.47.2-3.93.11-7.88.2-11.82a1.54,1.54,0,1,0-3.07,0l-.12,9c.13,1-.28,2.43,0,3.45a15.28,15.28,0,0,1-5.05.05c-13.47-4.3-18.64-3-32-.61-8.44.13-14.41-4.39-23.12-.62l-.09,0a1.32,1.32,0,0,0-1-.52,3.11,3.11,0,0,1-1.39-.41c-1.19-2.24-.67-5.11-.85-7.59.24-11.28.31-22.57.65-33.85.72-12.33,2.16-24.74.36-37a2.8,2.8,0,0,0,0-.41,34.18,34.18,0,0,0,6.71-2.77c5.7-3.23,10.42-1.07,15.82,0a2.6,2.6,0,0,0,.34.66c2.27,6.29,2.53,13.14,3.13,19.75a1.54,1.54,0,0,0,1.73,1.32c3.11.38-.49-17.62-1.62-21.27a17.25,17.25,0,0,0,7.47-1.26c3.23-1.08,6.27-2.68,9.61-3.4,6.37-1.14,12,3.29,18.23,4h0a1.58,1.58,0,0,0,.13.26c3.4,3.45,3.68,8.91,4.9,13.4.22,1.22.33,3.18,2,3a1.55,1.55,0,0,0,1.31-1.73c-1-4.92-1.83-10-4.19-14.51,0-.13-.12-.25-.18-.37,7.11-.42,14.2-2.36,21.3-.59,7.29,1.41,7.56,3.71,7.88,10.54.42,6.51.49,13,.43,19.57-.84,18-1.31,36.06-3.85,53.88-3-.53-6-1.31-9-1.83m16.29-81.42c-.91,0-2.15-.13-2.8.46a8.53,8.53,0,0,0-5.42-3.43c-9-3.29-18.24-.28-27.36-.24-6.2-.2-11.36-4.27-17.51-4.36-6.4.21-11.77,4.62-18.16,4.9a15.9,15.9,0,0,1-4.25-.25,1.27,1.27,0,0,0,.62-.72c1.57-4.38.63-9.1,0-13.57a16.15,16.15,0,0,1-.25-2.39c12.68-.42,25.35-1.31,38-1.72a379.43,379.43,0,0,1,45.12.95c.14.58.48,1.18.59,1.76.64,4.61,1.15,9.48-.34,14a18.91,18.91,0,0,1-1.65,3.46,1.39,1.39,0,0,0-.16,1.17Z"/><path class="cls-4" d="M181.48,409.45c-7-.17-14,1-21.09.74-3,0-6.08,0-9.11-.07-1.64.19-4.72-1-4.95,1.42.14,2.91,8,1.23,10.28,1.71,3.2,0,6.4,0,9.61,0,5.09-.1,10.15-.89,15.26-.69a1.54,1.54,0,0,0,0-3.07"/><path class="cls-4" d="M37.32,411.86c25.49-1.07,50.9,2.46,76.4,1.4,8-.07,16.09-.12,24.12.28,1.49-.11,3.69,1.18,4.36-.78.53-3.44-7.35-2-9.53-2.51q-9.7-.19-19.4-.06c-18.13.47-36.24-.4-54.31-1.54-10-.57-20,.7-30-.18a1.56,1.56,0,0,0-1.73,1.32c-.21,3.17,7.91,1.74,10.07,2.07"/><path class="cls-4" d="M172.59,431.72c-4.62.15-9.23.44-13.85.38a1.55,1.55,0,0,0-1.54,1.54c.35,2.93,6.63,1,8.82,1.42,2.15-.58,7.7,1,8.11-1.8a1.55,1.55,0,0,0-1.54-1.54"/><path class="cls-4" d="M140,432.68c-14.81,2.17-29.88.29-44.79.55-13,0-26-.13-39-.56-4,.44-30.46-3.3-29.81.43a1.55,1.55,0,0,0,1.54,1.54c9.26-.13,18.48.62,27.71,1.08,24.36.64,48.73.77,73.09,1,4-.56,10.67.6,13.61-2.15a1.55,1.55,0,0,0-2.34-1.87"/><path class="cls-4" d="M104,372c5-3.15,10-6.23,15-9.13,1.12-.85,3.36-.5,3.41-2.32a1.55,1.55,0,0,0-1.53-1.54c-6.43,1.81-11.82,6.61-17.66,9.81-2.36.73-1.81,4.22.73,3.18"/><path class="cls-4" d="M94.09,379.3c1.31-1.22,4.73-1.7,4.07-4-1.42-2.4-4,.61-5.62,1.32a1.54,1.54,0,0,0,1.55,2.66"/><path class="cls-4" d="M315,419.07c4.83-.09,9.67-.05,14.5,0,4.33.07,8.68,0,13,.51,2.33-.27,7.3,2.72,8.26-.22-.64-4.69-25.62-3-30.42-3.37-2.5.47-11.63-1.19-11.89,1.81.5,2.85,4.57.94,6.57,1.31"/><path class="cls-4" d="M298.21,414.66c-3.29.29-6.62,0-9.92,0a1.55,1.55,0,0,0-1.54,1.53c.2,2.86,7.35,1.2,9.55,1.65,4.5.64,4.89-3.44,1.69-3.13l.08,0,.14,0"/><path class="cls-4" d="M244,439.07c-5-.1-10-.26-15-.44-2.87.49-19.95-2.59-19.17.69a1.56,1.56,0,0,0,1.54,1.54c6.48.19,13,.7,19.44.91,2.86-.45,19.78,2.08,19.17-1.15-.39-2.68-4.14-1.15-6-1.55"/><path class="cls-4" d="M72.32,440.13c-3.29.16-6.58.29-9.87.23-2.32.51-10.83-1.85-10.82,1.17-.21,3.35,18.47,1.43,21.55,1.64,2.37-.68,10.14,1.05,10.37-1.86,0-3-8.93-.8-11.23-1.18"/><path class="cls-5" d="M496.64,389.21c-.06,1.34-1.13,1.56-2.25,1.56-.46,0-.93,0-1.34,0H467.22a4,4,0,0,0-.6-.08h-.18c-.34,0-.74,0-1.18,0a3.39,3.39,0,0,0-.44,0c-.81,0-1.73.07-2.69.13l-.89,0c-1.06,0-2.14.07-3.11,0a12.24,12.24,0,0,1-2.35-.24l-.16,0a18.89,18.89,0,0,1,.69,4.07h-3.08c-.39-4.71-1.52-6.55-7.71-7.75-7.1-1.77-14.18.17-21.3.59l-1.44.07a13.76,13.76,0,0,1-2.57-.09h0c-6.23-.75-11.86-5.18-18.23-4-3.34.71-6.38,2.31-9.61,3.39a17.25,17.25,0,0,1-7.47,1.26,23,23,0,0,1-3.58-.46c-5.4-1.05-10.12-3.21-15.82,0a34.18,34.18,0,0,1-6.71,2.77,11.1,11.1,0,0,1-3,.46h-.15a3.43,3.43,0,0,1-1-.17,1.58,1.58,0,0,1-1.13-1.39c.13-1.26,1-1.59,2-1.68a23,23,0,0,0,2.48-.17c3.37-.9,6.4-3,9.71-4.1-.86-2.56-.4-7.1-.44-8.72.16-6.55.64-9.17,5.53-9.55.16,0,.32,0,.49,0a4.58,4.58,0,0,1,.53,0h.95l.77,0,.54,0,.46,0h.4l1.23,0c-.13-1,0-2.05-.2-3-.52-2.16.57-16.67,3.39-18.5h0a2.28,2.28,0,0,1,2.28-1.62c11.61-.55,23.25-.72,34.88-1.07l3.08-.14c2-.09,3.92-.16,5.89-.23l1.47,0,1.47,0c3-.06,6-.06,9,.05l1.37.05.82,0,1.23.07c1.52.1,3,.23,4.57.39,6.36,1,13.17.32,19.23,2.61,5,3.46,2.9,15.73-1.52,20.57,4.56.16,11.33.12,12.14,3.23,1,2.86,1.19,14.92-.77,20.17h2.29a5.8,5.8,0,0,0,.89.08c.57,0,1.33,0,2.19,0l2.18-.07h.12l1.25-.05c1.68-.06,3.45-.11,5.08-.09.48,0,.95,0,1.39,0l.6,0c2.57.15,4.36.58,4,1.63"/><path class="cls-6" d="M301.47,116.08h0l-.07,0-.1,0a13,13,0,0,1-3.91.8h-.08a4.94,4.94,0,0,1-1.62-.24l-.11,0c-2.15-.85-1.4-3.25,1.09-2.87l.57,0c11.65-.63,15-14.94,4.24-20.19l-.1-.06c-3.05.33-2.57-3.12,0-3.11a4.38,4.38,0,0,1,2.07.61c10.78,6.15,10,20.93-2,25"/><path d="M139.93,331.51c9.25-36.36,17.13-73.31,29.11-108.88,5.67-16.54,12.48-33.06,23.35-46.91,8.76-8.66,20.78-13,32-17.59.78-.32,1.55-.68,2.34-1a21.93,21.93,0,0,1,2.14-.81,11.1,11.1,0,0,0,1.54,2.23l.71.89c6.84,6.27,17.33,8.33,26.38,7.95,9,0,15.1-2.8,21.51-7.94.89-.72,1.79-1.47,2.7-2.27l.86.17a55.28,55.28,0,0,1,5.77,1.32c10.27,2.73,21.64,5.32,29.27,13.18,14.21,17.64,23.16,38.8,32.15,59.41,2.3,4.61,3.45,9.72,2.08,14.8,0,2.21-3.95,9.71-1.18,10.2a1.54,1.54,0,0,0,1.89-1.07c1.81-5.52,2.93-10,2.83-14.42,2.89,4.54,1.92,10.62,2.24,15.8a1.54,1.54,0,0,0,3.08,0c-.31-3.89.24-8.92-.78-13.11a1.53,1.53,0,0,0,.55-1.18,1.23,1.23,0,0,0,0-.33c4.9-8.08,9.56-16.33,15-24.09,2.15,4,9.09,10,10.65,11.64,1,1.26,8.86,6.69,13.36,8a3.29,3.29,0,0,0-.15.6c-1.56,4.14-3.22,8.25-5.15,12.23-8.34,14.78-16,30.94-29.84,41.43-5.54,4.31-9.91,3.51-15.66.14-12.5-6.92-21.09-19-28.41-31l-.19-.09c.07-.35.14-.69.2-1,2.22-12.87,1.42-25.89-.93-38.68a1.41,1.41,0,0,0,.31-.73c0-2.77,2.58-16.46-1.23-16.28-2,.33-1.25,4.48-1.11,7.45-1.08-4.49-2.3-8.94-3.61-13.34a1.55,1.55,0,0,0-2-.81c-2.24.89.74,5.44.72,7.35,8.79,31.37,8.2,53.91-3.7,84.35-2.37,7.08-4.58,14.23-7.26,21.16-.31,1.51-2.55,4.87-2.89,7.07-1.57-.05-4.09,1.46-5.64,1.71a48.77,48.77,0,0,0,3.45-9.06c.48-1,.85-2.43-.46-3-3.1-1.09-3.52,7.62-5.16,9.61a20.56,20.56,0,0,1-1.95,3c-1.44.18-2.88.35-4.33.5a12.31,12.31,0,0,0,2-4.66,1.56,1.56,0,0,0-1.54-1.54c-1.39,0-1.43,1.41-1.89,2.36-.31,1.32-1.94,2.8-2.5,4.21a251.39,251.39,0,0,1-31.89.29c-4.56-.19-9.17-.37-13.77-.6-.93-2.22-3.59-5.69-3.08-9.23a1.54,1.54,0,0,0-3.08,0c-.18,1.53.76,6.11,2.34,9q-3-.17-6-.4c-.23-.29-.48-.58-.67-.85a28.5,28.5,0,0,1-3.84-10.53,43.11,43.11,0,0,1-1.05-7.4,1.54,1.54,0,0,0-3.08,0c0,2.62,1.63,13.05,4.45,18.36a34.13,34.13,0,0,1-7.77-2.06c.23-1.57-2.18-3.57-2.3-5.27-2.18-6.21-3.16-12.77-4.4-19.21-2.63-12.12-2.25-25.15-5.31-37q3-8.28,6.15-16.5a1.56,1.56,0,0,0-1.07-1.9c-1.53-.37-2,1.2-2.29,2.36-9.34,23-16.11,46.93-25.69,69.77-3.58,8.69-7.21,17.36-11.46,25.74-.55,1.48-1.65,2.9-2.31,4.39-5.87-3-18.83-6.16-24.76-7.33a1.39,1.39,0,0,0,.3-.62"/><path class="cls-7" d="M139.93,331.51c9.25-36.36,17.13-73.31,29.11-108.88,5.67-16.54,12.48-33.06,23.35-46.91,8.76-8.66,20.78-13,32-17.59.78-.32,1.55-.68,2.34-1a21.93,21.93,0,0,1,2.14-.81,11.1,11.1,0,0,0,1.54,2.23l.71.89c6.84,6.27,17.33,8.33,26.38,7.95,9,0,15.1-2.8,21.51-7.94.89-.72,1.79-1.47,2.7-2.27l.86.17a55.28,55.28,0,0,1,5.77,1.32c10.27,2.73,21.64,5.32,29.27,13.18,14.21,17.64,23.16,38.8,32.15,59.41,2.3,4.61,3.45,9.72,2.08,14.8,0,2.21-3.95,9.71-1.18,10.2a1.54,1.54,0,0,0,1.89-1.07c1.81-5.52,2.93-10,2.83-14.42,2.89,4.54,1.92,10.62,2.24,15.8a1.54,1.54,0,0,0,3.08,0c-.31-3.89.24-8.92-.78-13.11a1.53,1.53,0,0,0,.55-1.18,1.23,1.23,0,0,0,0-.33c4.9-8.08,9.56-16.33,15-24.09,2.15,4,9.09,10,10.65,11.64,1,1.26,8.86,6.69,13.36,8a3.29,3.29,0,0,0-.15.6c-1.56,4.14-3.22,8.25-5.15,12.23-8.34,14.78-16,30.94-29.84,41.43-5.54,4.31-9.91,3.51-15.66.14-12.5-6.92-21.09-19-28.41-31l-.19-.09c.07-.35.14-.69.2-1,2.22-12.87,1.42-25.89-.93-38.68a1.41,1.41,0,0,0,.31-.73c0-2.77,2.58-16.46-1.23-16.28-2,.33-1.25,4.48-1.11,7.45-1.08-4.49-2.3-8.94-3.61-13.34a1.55,1.55,0,0,0-2-.81c-2.24.89.74,5.44.72,7.35,8.79,31.37,8.2,53.91-3.7,84.35-2.37,7.08-4.58,14.23-7.26,21.16-.31,1.51-2.55,4.87-2.89,7.07-1.57-.05-4.09,1.46-5.64,1.71a48.77,48.77,0,0,0,3.45-9.06c.48-1,.85-2.43-.46-3-3.1-1.09-3.52,7.62-5.16,9.61a20.56,20.56,0,0,1-1.95,3c-1.44.18-2.88.35-4.33.5a12.31,12.31,0,0,0,2-4.66,1.56,1.56,0,0,0-1.54-1.54c-1.39,0-1.43,1.41-1.89,2.36-.31,1.32-1.94,2.8-2.5,4.21a251.39,251.39,0,0,1-31.89.29c-4.56-.19-9.17-.37-13.77-.6-.93-2.22-3.59-5.69-3.08-9.23a1.54,1.54,0,0,0-3.08,0c-.18,1.53.76,6.11,2.34,9q-3-.17-6-.4c-.23-.29-.48-.58-.67-.85a28.5,28.5,0,0,1-3.84-10.53,43.11,43.11,0,0,1-1.05-7.4,1.54,1.54,0,0,0-3.08,0c0,2.62,1.63,13.05,4.45,18.36a34.13,34.13,0,0,1-7.77-2.06c.23-1.57-2.18-3.57-2.3-5.27-2.18-6.21-3.16-12.77-4.4-19.21-2.63-12.12-2.25-25.15-5.31-37q3-8.28,6.15-16.5a1.56,1.56,0,0,0-1.07-1.9c-1.53-.37-2,1.2-2.29,2.36-9.34,23-16.11,46.93-25.69,69.77-3.58,8.69-7.21,17.36-11.46,25.74-.55,1.48-1.65,2.9-2.31,4.39-5.87-3-18.83-6.16-24.76-7.33A1.39,1.39,0,0,0,139.93,331.51Z"/><path class="cls-1" d="M301.45,93.59c0,.94,0,1.89-.06,2.84a44,44,0,0,1-4.18,17.35,31.43,31.43,0,0,1-1.66,2.89,23.1,23.1,0,0,1-17,10.61l-.87.1c-.23,0-.47.05-.71.06h-.26l-.54,0-.92,0c-.3,0-.6,0-.9,0h-1.18c-.31,0-.62,0-.93-.05h-.15A23,23,0,0,1,269,127c-6.4-1.28-12.4-5-17.68-8.6-1.21-1.44-5.43-3-3.69-5.29a1.63,1.63,0,0,1,2.38.19c6.78,5.91,17.13,12.18,26.43,11C298,123.49,299.94,97.62,297.6,81c-.6-5.83-.61-11.7-1-17.53l0-.44c-.06-1-.13-1.93-.22-2.88,0-.59-.11-1.19-.17-1.78s-.14-1.24-.22-1.87c-.06-.47-.13-.94-.2-1.41-.18-1.14-.38-2.26-.63-3.39a39.51,39.51,0,0,0-1.73-6.24c-.06-.14-.11-.28-.17-.41a1.54,1.54,0,0,1,1.9-2,1.44,1.44,0,0,1,.93.84,1.46,1.46,0,0,1,.07.19,1,1,0,0,1,.06.16c3.24,8.81,3.59,18.42,3.82,27.72.19,6.09,1.07,12.28,1.33,18.46,0,1.06.07,2.11.07,3.17"/><path class="cls-1" d="M233.34,78.71a1.44,1.44,0,0,1-.76.3,1.51,1.51,0,0,1-1.39-.58c-.95-3.2-2.15-6.59-5-8.59-6.24-3.34-9.51-.33-10.13,4.44v0c0,.11,0,.22,0,.33a0,0,0,0,1,0,0c-.63,6.25,3.09,15.2,10.47,17.06,1,.65,3,.47,4.3.89a1.88,1.88,0,0,1,.95.6.41.41,0,0,1,.05.09,1.29,1.29,0,0,1,.22.76,1.61,1.61,0,0,1-1.54,1.54,12.93,12.93,0,0,1-3.84-.61,15.91,15.91,0,0,1-5.29-2.38A17.6,17.6,0,0,1,219,90.7l-.07-.06a19.55,19.55,0,0,1-6-15.82l0-.15a14.8,14.8,0,0,1,.93-3.66A14.41,14.41,0,0,1,215,68.66a7.93,7.93,0,0,1,8.47-3.19,11.79,11.79,0,0,1,2.85,1,14.38,14.38,0,0,1,2.74,1.86,13.79,13.79,0,0,1,2.19,2.33,12,12,0,0,1,2.19,4.6c.07.29.18.59.26.91.26.91.44,1.87-.36,2.5"/><path class="cls-1" d="M231.88,88.44c3.76-1.3-1.66-6-3.09-7.36a14.29,14.29,0,0,0-6.54-3.31,1.54,1.54,0,0,0-.42,3c3.39.73,6.09,3.31,8,6,.41.8.92,1.76,2,1.59"/><path class="cls-1" d="M226.24,87.54a6.24,6.24,0,0,1,2.32-2.13c1.76.41,2.59-2.15,1.06-3-2.31-.86-4.53,1.57-5.81,3.23a1.54,1.54,0,0,0,2.43,1.88"/><path class="cls-1" d="M232.41,78.86l.17.15c1.39,1.22,3.44,2.09,5.17,1,3.58-2.49,5-7,5.88-11.06a66.9,66.9,0,0,0,1.49-12.23,11.47,11.47,0,0,0-.37-3.06h0c-.32-1-.87-1.66-1.73-1.6a1.56,1.56,0,0,0-1.32,1.74,28.09,28.09,0,0,1,.2,6.08c-.33,3.53-2,18.1-6.7,17.22a2.36,2.36,0,0,0-1.49-.93c-1.43-.25-2.68,1.09-1.29,2.65"/><path class="cls-1" d="M245.12,56.76a.51.51,0,0,0,.17,0c5.34-1,9.27-5.9,10.89-10.88a15.57,15.57,0,0,0,11.35-2l.76-.46c1-.92,3.33-1.59,4.11-2.83a1.65,1.65,0,0,0,.12-1.63c-1.63-3.06-7.61,5.31-14,4.15-3.11-.51-4.57-1-5.53,2.61-1.41,3.6-4.3,7.2-8.23,8h0c-3.13-.65-2.63,3.59.38,3.06"/><path class="cls-1" d="M296.18,41.27a1.41,1.41,0,0,0-1.74.27c-2.52,1.94-6.39,2.11-9.39,1.42-.91-1.19.4-3.06.67-4.38a1.55,1.55,0,0,0-1.47-2c-1.75.26-2.62,3.14-4.15,4.18-2.17,1.62-7.3,5.31-9.6,2.67.4-1.07,1.91-1.52,1.91-2.76a.22.22,0,0,0,0-.08,1.54,1.54,0,0,0-1.53-1.46c-2.65,1.11-3.61,3-3.34,4.75.34,2.28,2.84,4.19,6.43,3.38a19.35,19.35,0,0,0,7.82-3.9c1.12,3.82,7.42,3.71,11.66,2.17a9.66,9.66,0,0,0,2.65-1.36.21.21,0,0,0,.08-.06,3.19,3.19,0,0,0,.44-.37,1.5,1.5,0,0,0-.43-2.44"/><path class="cls-1" d="M264.32,77.21c4.18-1.27,2.64-9.61-2-7.94-3.8,1.14-1.61,8.64,2,7.94"/><path class="cls-1" d="M292.82,76.58c4-2.22.32-9.66-3.46-6.15-2.25,2.27.17,7.5,3.46,6.15"/><path class="cls-1" d="M289.44,60.81a11,11,0,0,0,4.6,1.45l.57.19c-.05-.83-.11-1.67-.18-2.5,0-.44-.08-.89-.13-1.34-.09-.82-.2-1.65-.32-2.47a4.07,4.07,0,0,0-1-.1c-2.6-.43-6.43,2.45-3.57,4.77"/><path class="cls-1" d="M296.39,60.19c.1,1.11.18,2.21.25,3.32.72.23,1.46.35,2-.4.85-1.9-.49-2.54-2.26-2.92"/><path class="cls-1" d="M295.8,55.13c.16,1.09.31,2.18.42,3.28,2,0,2.47-2.65-.42-3.28"/><path class="cls-1" d="M259.18,63.54c3.4-.57,8.8-.06,11-3.15a2.46,2.46,0,0,0-1.53-3.47c-3.25-2-9.87-.49-12.64,2.07s.13,5.3,3.18,4.55"/><path class="cls-1" d="M267.11,99a1.13,1.13,0,0,0-.85,1.08c0,1,1,1.17,1.83,1.13a11.8,11.8,0,0,1-1-2.21m13.25,6.76a13.16,13.16,0,0,1-2.21.53c.35.62.77,1.12,1.59.82a1.08,1.08,0,0,0,.62-1.35"/><path class="cls-1" d="M287.46,99.83c.57-1.51-1.16-1.66-2.22-1.75-1.8-.2-3.6-.41-5.38-.77-3.75-.73-7.45-1.62-11.17-2.44-1.17-.14-2.46-.78-3.59-.22-1.31.94-.6,2.84-.33,4.15,1.27,5.71,6.81,10.51,12.8,9.78,3.84-.35,7.95-2.1,9.62-5.79.29-.9,1.07-2.16.27-3m-7.1,5.92a1.08,1.08,0,0,1-.62,1.35c-.82.3-1.24-.2-1.59-.82a13.16,13.16,0,0,0,2.21-.53,5.26,5.26,0,0,0-1-1.77c-2.12-2.72-5.6-4-8.87-4.71a15.36,15.36,0,0,0-3.09-.32,1.17,1.17,0,0,0-.27,0,11.8,11.8,0,0,0,1,2.21c-.81,0-1.82-.11-1.83-1.13a1.13,1.13,0,0,1,.85-1.08,11.71,11.71,0,0,1-.5-2.26c6.34,1.25,12.57,3,19,3.65-.52,2.8-2.71,4.51-5.27,5.37"/><path class="cls-1" d="M280.36,105.75a13.16,13.16,0,0,1-2.21.53c.35.62.77,1.12,1.59.82a1.07,1.07,0,0,0,.62-1.35"/><path class="cls-1" d="M266.26,100.06c0,1,1,1.18,1.83,1.14a11.8,11.8,0,0,1-1-2.21,1.13,1.13,0,0,0-.85,1.07"/><path class="cls-1" d="M201.81,55.7a60.38,60.38,0,0,0,6.64,13.06c.82,1,2.67,4.33,4.41,6.06.94.92,1.85,1.38,2.57.73a1.6,1.6,0,0,0,.55-.9s0,0,0,0a1.86,1.86,0,0,1,.05-.34v0a1.4,1.4,0,0,0-.33-.89c-.66-.77-1.28-1.56-1.9-2.38-.8-1.06-1.58-2.15-2.33-3.26a55.66,55.66,0,0,1-8.54-19.16c-2.69-16.52,5.13-3.39,7.62-8.21a6.39,6.39,0,0,0-.45-3.25,44.35,44.35,0,0,1-2.2-13.75c.57-8.64,6.85-8.49,9.35-.74.49,1.26.94,2.53,1.33,3.82a1.54,1.54,0,0,0,2.59.63,1.36,1.36,0,0,0,.38-1.45c-.24-.75-.43-1.32-.63-1.9-.28-.79-.57-1.59-.88-2.37a17.2,17.2,0,0,0-2.74-4.94,6.41,6.41,0,0,0-11.1,1.24c-2.81,6.3-.88,13.55.83,19.91-11.4-3.93-7.45,12.33-5.22,18.12"/><path class="cls-1" d="M221.17,27.09a1.34,1.34,0,0,0,1-.88c.89-3.37,1.22-7.19,2.51-10.42,1.48-3.65,2.63-7.79,5.67-10.49,1.37-.93,3.53-3.44,4.92-1.33,1.19,2-.71,5.21-1,7.29-.11.86,0,1.54.8,1.87,2.06.73,2.38-2,2.88-3.34a12.07,12.07,0,0,0,.64-2.71c.34-2.93-.43-6.06-3.62-6.91-2.08-.67-4,.83-5.6,2-2.94,2-4.62,5.21-6,8.42A50.61,50.61,0,0,0,220,21.37c-.26,1.23-.49,2.47-.72,3.7a1.56,1.56,0,0,0,1.85,2"/><path class="cls-1" d="M232.24,14.6a1.6,1.6,0,0,0,2.89.86c4-6.31,11.18-11.29,18.87-10.59,0,.09,0,.18,0,.27v.11c0,1.56-2,2.93-.72,4.32a1.71,1.71,0,0,0,2.64-.5A13.33,13.33,0,0,1,260.13,7c5-1.48,10.54-1.75,15.59-2.18,2.58-.09,11.34-1.27,6.88,3.37a.3.3,0,0,0-.07.1A1.54,1.54,0,0,0,285,10a6.1,6.1,0,0,0,1.64-2.55,4,4,0,0,0-1.83-5c-3.12-1.48-6.76-.77-10.09-.66-5.94.55-12.12.72-17.69,3.06-.43-6.45-13.95-1.61-16.84.94-.54.43-1.1.86-1.64,1.31a28.49,28.49,0,0,0-4.32,4.18,13.82,13.82,0,0,0-2,3.34"/><path class="cls-1" d="M278.12,12.7c3.55-.82,6.86-2.35,10.55-2.41,3.91-.15,8.05-.22,11.65,1.49,1.95,1.07,8.46,5.1,3.72,6.64a18.27,18.27,0,0,1-5,.49,1.57,1.57,0,0,0-.75,2.77c3.37,1.83,6.91,3.43,9.76,6.1,1.2,1.33,5.27,4.26,4.28,6.12-2.51.93-5.19-.69-7.48-1.65-.9-.58-2.15-1.28-3-.18-1.39,2.12,2.7,3.66,3.66,5.3,1.25,1.59,3.64,4.54,1.62,6.32-3.27.77-6.83-.94-9.77-2.3a1.64,1.64,0,0,0-1.22-.13,1.55,1.55,0,0,0-.89.69,1.26,1.26,0,0,0-.13,1.09,2.53,2.53,0,0,0,.93,1.1.71.71,0,0,0,.14.1c2.61,1.83,8.92,3,10.39,2.74,5.13-.38,5.28-6.67,2.58-9.89,2.74.71,6.67-.47,6.46-3.88-1-5-7.06-9.14-11.16-11.73,10.12-3.3.36-12.2-5.66-13.53a31,31,0,0,0-12.16-.48c-1.4.19-2.78.46-4.15.78-1.77.42-3.51.92-5.23,1.48a1.54,1.54,0,0,0,.82,3"/><path class="cls-1" d="M239.29,130.12c0,.95,0,1.89,0,2.84a1.36,1.36,0,0,1-.05.41,1.6,1.6,0,0,1-2.57.7h0a1.43,1.43,0,0,1-.46-1.1l0-1.46c0-1.12,0-2.23,0-3.36v0c-.05-3.38-.11-6.77-.31-10.14,0-.89-.11-1.77-.2-2.65,0,0,0-.07,0-.11-.15-1.35-.36-2.7-.61-4a93,93,0,0,0-4.15-14.37,4.68,4.68,0,0,1-.41-1.23c-.2-1.08,0-2.18,1.32-2.3h.11c.88,0,1.25.56,1.48,1.24.17.46.26,1,.43,1.4a62.79,62.79,0,0,1,3.18,9.91c.47,2,.85,4,1.16,6.08a118.65,118.65,0,0,1,1.17,17.29c0,.31,0,.61,0,.92"/><path class="cls-1" d="M271.13,137.28c-1.05,0-1.55-.62-1.78-1.56-.42-1.61-.06-4.08-.38-5.28,0-1.6-.71-4.59,1.6-4.79,2.36.26,1.25,3.07,1.42,4.86a3.12,3.12,0,0,0,.09.46,11.86,11.86,0,0,0,.28,2.86c.05.33.09.65.11,1,.07,1.17-.15,2.17-1.34,2.49"/><path class="cls-1" d="M272.68,137.56l-.15.07h.05a18.3,18.3,0,0,1-1.91.89,19.66,19.66,0,0,1-2.46.81,31.41,31.41,0,0,1-5.47.92c-1,.1-2,.16-3,.21h-.2a22.56,22.56,0,0,1-5.57,0c-.91-.07-1.88-.17-2.88-.3-1.82-.22-3.73-.54-5.54-.94-1-.22-2-.47-3-.76a21.82,21.82,0,0,1-2.82-1,7.42,7.42,0,0,1-2.53-1.69,2,2,0,0,1-.59-1.69h0a1.78,1.78,0,0,1,.18-.6c.79-.93,1.59-.62,2.38-.08a12.17,12.17,0,0,0,1.71,1.12,36.87,36.87,0,0,0,12.6,2.9c5.08.12,10.3.12,15.2-1.45.2-.07.41-.14.62-.23.73-.28,1.44-.63,2.14-1a1.48,1.48,0,0,1,1,0,1.59,1.59,0,0,1,.21,2.77"/><path class="cls-1" d="M281.73,155a1.15,1.15,0,0,1-.09.51,1.61,1.61,0,0,1-1.24,1,1,1,0,0,1-.34,0,.8.8,0,0,1-.42-.19,2.55,2.55,0,0,1-.73-1c-2.1-4.36-2.12-19.37-6.28-21.58l-.27.09a1.64,1.64,0,0,1-2-1.63c.25-1.13.86-1.62,1.6-1.69,1.65-.17,4,1.66,4.63,3.13,2.18,3.47,2.49,7.72,3.32,11.66.51,2.92,1.1,5.84,1.64,8.77,0,.23.09.46.13.69a.9.9,0,0,1,0,.23"/><path class="cls-1" d="M239.29,130.12a1.84,1.84,0,0,1-1.48,1,1.8,1.8,0,0,0-1.64.34c-3.51,2.73-2.79,18.79-3.71,22.13a1.51,1.51,0,0,1-.86,1.16,1.43,1.43,0,0,1-.87.15h0a1.54,1.54,0,0,1-1.25-1.23,1.29,1.29,0,0,1,0-.48h0c.36-3,.57-6.07.81-9.12.75-5.05-.15-13.31,5.35-15.84a4.77,4.77,0,0,1,.55-.13c1.75-.36,2.86.29,3.16,1.08a1.18,1.18,0,0,1,0,.92"/><path class="cls-1" d="M281.72,157.14l-.05,0-.66.59c-.23.18-.45.38-.68.57h0c-.44.38-.89.75-1.33,1.1-.24.2-.49.39-.73.57l-.68.53-.68.5c-.22.17-.45.33-.68.49l-.68.46c-.91.62-1.83,1.18-2.76,1.69l-.58.31-.11.06-.72.36-.54.26-.15.07-.17.07-.63.28-.48.19-.48.18-.06,0s-.06,0-.08,0l-1.06.37-.77.24-.66.18q-.42.12-.84.21l-.54.13-.7.14-.72.13-.56.09-.85.12-.95.1H261l-.53,0a5.46,5.46,0,0,1-.58,0l-.66,0-.73,0h-1c-1.46.06-3,.06-4.49,0-.35,0-.69,0-1.05-.06l-.58,0-.73-.07h-.08c-.46,0-.91-.09-1.36-.15l-.55-.08-.55-.08c-.41-.06-.83-.13-1.23-.21s-.82-.15-1.22-.24-1.08-.23-1.62-.37-1.07-.29-1.59-.45-1.05-.33-1.57-.51-1-.38-1.54-.58a30.5,30.5,0,0,1-2.95-1.38h0l-.7-.4c-.24-.13-.47-.27-.7-.41l-.68-.43-.67-.45L233,161l-.57-.44-.22-.18a3.36,3.36,0,0,1-.29-.24l-.24-.2-.54-.48c-.19-.25-.44-.55-.71-.88h0c-.28-.34-.58-.71-.85-1.08l-.14-.21-.24-.37c0-.09-.12-.19-.16-.28a2.7,2.7,0,0,1-.15-.29,2.09,2.09,0,0,1-.18-1.8,1.83,1.83,0,0,1,.76-.82h0a1.36,1.36,0,0,1,.73-.12,1.83,1.83,0,0,1,1.43,1.21l.07.18a10.78,10.78,0,0,0,2.07,2.77,12,12,0,0,0,1.62,1.32l.15.08a39.21,39.21,0,0,0,5.43,2.57c1,.38,2,.73,3,1a43.49,43.49,0,0,0,7,1.46c1,.13,2.06.22,3.09.26a36.76,36.76,0,0,0,7.49-.38c.66-.09,1.33-.22,2-.36a30,30,0,0,0,9.67-3.82c.53-.33,1.07-.68,1.58-1a27.55,27.55,0,0,0,2.9-2.42c.42-.33.82-.76,1.25-1.12a3.44,3.44,0,0,1,1.07-.67,2.08,2.08,0,0,1,.62-.14,1.45,1.45,0,0,1,1.13.48,1.49,1.49,0,0,1,.4.79,1.45,1.45,0,0,1-.41,1.36"/><path class="cls-1" d="M139.94,331.51c9.24-36.35,17.11-73.31,29.09-108.88,5.68-16.54,12.49-33.06,23.37-46.91,8.75-8.67,20.77-13,32-17.59a47.57,47.57,0,0,1,4.63-1.86,1.57,1.57,0,0,0,1.68-1.34c-.24-3.47-4.54-.78-6.35-.13-11.67,4.78-24.06,9.32-33.45,18C174.52,193,166.79,218.52,159.36,243c-6.25,21.61-11.31,43.54-16.83,65.34-2,7.42-4,14.84-5.56,22.35-.52,1.84,2.47,2.8,3,.82"/><path class="cls-1" d="M166.65,341.94c17.29-32.72,27.24-68.51,40.57-102.84a1.55,1.55,0,0,0-1.08-1.89c-1.53-.38-2,1.19-2.29,2.35-9.34,23-16.11,46.93-25.68,69.77-3.58,8.69-7.21,17.36-11.47,25.74-.81,2.17-2.75,4.18-2.86,6.5a1.55,1.55,0,0,0,2.81.37"/><path class="cls-1" d="M352.52,255.19c3.46-10.55,4.43-17.22-.9-27.37-4.37-10.18-8.88-20.3-14.06-30.09-5.2-10.18-11-20.24-18.55-28.86-8.26-7.76-19.68-10.51-30.34-13.29-2-.26-8.31-3-8.92-.47a1.57,1.57,0,0,0,1.08,1.89c2.5.54,5,.9,7.49,1.67,10.26,2.73,21.64,5.32,29.27,13.18,14.2,17.64,23.16,38.8,32.15,59.41,2.3,4.6,3.45,9.72,2.08,14.8,0,2.21-3.95,9.72-1.19,10.21a1.55,1.55,0,0,0,1.89-1.08"/><path class="cls-1" d="M360.68,256.57c-.47-6,1.11-14.9-4.36-19-3.38-1.59-5.28,2.83-1.16,2.86,3.13,4.57,2.12,10.81,2.44,16.1a1.54,1.54,0,0,0,3.08,0"/><path class="cls-1" d="M358.92,243.82a1.55,1.55,0,0,0,1.54-1.54,1.86,1.86,0,0,0,0-.33c6-9.84,11.58-19.92,18.57-29.1,3.31-4.49,6.5-9.12,10.09-13.37.82-.86,2.09-2.1.95-3.24-2.26-2.26-6.49,5.84-8,7.33-5.68,7.66-11.35,15.34-16.3,23.5-1.66,2.78-3.22,5.62-4.88,8.4-.89,2.22-6.31,7.28-1.89,8.35"/><path class="cls-1" d="M301.27,318.39c4.42-9.86,7.54-20.21,11-30.43a162.32,162.32,0,0,0,7.95-28.2c3.56-20.67-.66-41.74-6.57-61.57a1.54,1.54,0,0,0-2-.82c-2.25.89.74,5.44.72,7.35,8.79,31.37,8.2,53.91-3.7,84.35-2.37,7.07-4.58,14.22-7.26,21.16-.42,2.12-4.69,7.88-2.11,9a1.55,1.55,0,0,0,2-.82"/><path class="cls-1" d="M212.56,318c1.83-1.66-1.65-4.15-1.8-6.19-2.16-6.22-3.15-12.77-4.4-19.21-2.65-12.25-2.24-25.45-5.4-37.39-4-1.64-1.82,4.32-1.8,6.25.59,4.74,1.29,9.47,1.78,14.23.55,5.08,5.11,45.54,11.62,42.31"/><path class="cls-1" d="M268.2,324.17c6-.66,29.71-.28,31.66-5.44-.35-3.45-5.39.41-7.48.32-14.45,2.26-29.2,2.36-43.79,1.69-8.89-.38-18-.67-26.8-1.46a35.59,35.59,0,0,1-9.15-2.4,1.54,1.54,0,0,0-1.2,2.83c7.19,3.14,15.2,3.05,22.89,3.42,11.28.68,22.57,1.15,33.87,1"/><path class="cls-1" d="M315.45,390.78c-1.05-5.93-1.82-11.91-2.88-17.83-2.64-12.89-3.65-26.09-7.17-38.81-1.26-4.87-3-9.63-4-14.57a1.54,1.54,0,0,0-3.08.06,70,70,0,0,0,2.35,9.19c5.08,16.14,6.44,33.09,9.69,49.62.61,4.13,1.25,8.26,2,12.37l3.11,0"/><path class="cls-1" d="M187.17,387.23c4.85-23.75,14.36-46.31,24-68.45,1.33-2.53-2.41-3.54-3-.79-4.95,11.79-10.41,23.37-14.44,35.52-3.47,11-7.7,21.88-9.6,33.31a1.53,1.53,0,0,0,3,.41"/><path class="cls-1" d="M166.05,343.51c8.62-3.87-26.85-11.83-29.36-11.86a1.54,1.54,0,0,0,0,3.07,125.9,125.9,0,0,1,29.36,8.79"/><path class="cls-1" d="M134.65,357.86a175.77,175.77,0,0,1,2.18-23c1.33-2.86-2.89-3.54-3.17-.1a209.37,209.37,0,0,0-2.08,23.08,1.54,1.54,0,0,0,3.07,0"/><path class="cls-1" d="M155.75,368c2.59-.16,3.32-3.05,4.36-5a107.93,107.93,0,0,0,7.16-17.35c1.34-2.41-2-4.22-2.77-1.46a106.13,106.13,0,0,1-8.88,20.69c-5.74-.17-15.05-1.39-20-4.29-1.26-.67-1.85-3.06-3.6-2.1-2.25,1.8,1.24,4.29,2.79,5.22,2.84,1.68,6.15,2.2,9.33,2.84,3.81.72,7.68,1.55,11.57,1.42"/><path class="cls-1" d="M152.19,364.37c3.57-6.77,5.58-14.18,8.58-21.17,1.78-2.18-2.07-5-3.71.72-2,5.27-3.56,10.67-6.06,15.72-.56,1.18-1.08,2.36-1.64,3.54a1.54,1.54,0,0,0,2.83,1.19"/><path class="cls-1" d="M145.94,365.57c1.27-1.17,1.29-3.26,1.91-4.82,1.53-5.73,2.15-11.69,4-17.33.35-1.83,3.09-5.21.21-6.07-1.18-.14-1.69.81-1.87,1.74a51.59,51.59,0,0,0-2.91,9.65c-.83,3.9-1.39,7.44-2.39,11.19-.35,1.31-.77,2.61-1.2,3.9a1.55,1.55,0,0,0,2.26,1.74"/><path class="cls-1" d="M140,363c1.41-8.84,2.12-17.82,4.46-26.48a1.54,1.54,0,0,0-3-.81c-2.09,7.53-2.79,15.34-4,23.05-.18,1.27-.34,2.55-.55,3.82A1.54,1.54,0,0,0,140,363"/><path class="cls-1" d="M134.73,391.69c20.65-1.5,19.28-3.62,23.18-22.1.94-3-3.1-3.18-3.25.28-1.57,4.87-1.08,11.23-4.37,15.19-7.6,4.51-17.28,3.73-25.76,2.85,2.8-2.07,6.43-2.56,9.79-3,1.62-.44,5,.34,4.89-2.15a1.56,1.56,0,0,0-1.73-1.32,63.43,63.43,0,0,0-9.3,1.49c-3.1.67-9.88,4-6,7.6,4,1.05,8.41,1.1,12.58,1.19"/><path class="cls-1" d="M94.63,386.32c13.51-6.05,25.7-14.39,37.92-22.62,2.24-.94.36-4.09-1.6-2.63-9,5.9-17.8,12.3-27.37,17.36-3.46,1.83-7,3.49-10.5,5.23a1.54,1.54,0,0,0,1.55,2.66"/><path class="cls-1" d="M117.25,390c1.47-.05,2.94,0,4.4-.14a1.54,1.54,0,0,0-.41-3.05c-5,.22-10,.14-15,.11,5.22-1.37,10.43-2.72,15.68-4a1.54,1.54,0,0,0-.82-3c-6.82,1.73-13.73,3.22-20.41,5.43-2,.5-3.69,3.25-1.07,4.2a16.91,16.91,0,0,0,3.41.31c4.73.12,9.47.13,14.2.07"/><path class="cls-1" d="M98.82,389.61a1.55,1.55,0,0,0,.2-3.07,51.75,51.75,0,0,1-6.93-.27c-1.49-3.29-5.2,1.3-2,2.59,2.76,1.07,5.85.61,8.74.75"/><path class="cls-1" d="M93.93,387.33c5.94-1.62,11.48-4.52,17.52-5.81,1.61-.64,4.77.36,5-2-.88-4.64-16,2.72-19.13,3.48-1.65,1-5.61.61-5.3,3.25a1.56,1.56,0,0,0,1.9,1.07"/><path class="cls-1" d="M402.5,236.44c-.65-2.71-4.76-2.47-6.77-3.93a51.79,51.79,0,0,1-18.31-17.38,1.55,1.55,0,0,0-2.11-.55C372,217.2,383.92,227.31,386,229.5c1.38,1.78,16.5,11.83,16.48,6.94"/><path class="cls-1" d="M402.81,238.32c4.69-4,6.44-10.18,9.22-15.47,2.18-4.3,4.47-8.85,4.54-13.77.12-4.65-5.94-5.34-9.07-7.36-2.68-1.42-5.28-3-8-4.29s-5.63-3.14-8.76-3.33a5.38,5.38,0,0,0-3.81,3.37c.58,2.9,3,1,4.14-.31,4.88,1.61,9.38,4.21,13.84,6.65,2.7,1.71,6.44,2.46,8.59,4.72-.12,7.57-5.17,13.94-7.9,20.75a20.08,20.08,0,0,1-4.64,6.61,1.54,1.54,0,0,0,1.88,2.43"/><path class="cls-1" d="M357,298c15.39-2.77,26.27-22.67,33.64-35.15,1.55-2.76,15.8-26.62,10.26-26.47-1,0-1.48.85-1.63,1.72-1.56,4.14-3.21,8.25-5.14,12.23-8.34,14.78-16,30.94-29.84,41.43-5.53,4.31-9.91,3.52-15.66.14-12.5-6.93-21.09-19-28.41-31C310.13,256,331.07,281.68,332.45,283c6.86,6.54,14.73,13.78,24.51,15"/><path class="cls-1" d="M397,235.11a142,142,0,0,0,13.25-26c.6-1.39,2-3.88-.3-4.39a1.55,1.55,0,0,0-1.71,1.22,124.59,124.59,0,0,1-9.32,19.8c-1.41,2.52-2.72,5.11-4.35,7.48a1.54,1.54,0,0,0,2.43,1.88"/><path class="cls-1" d="M388.93,229.12c6.14-8.18,10.37-17.78,15.39-26.57a1.54,1.54,0,0,0-2.95-.59c-4.54,7-7.81,14.73-12.3,21.76-.81,1.2-1.65,2.4-2.57,3.52a1.54,1.54,0,0,0,2.43,1.88"/><path class="cls-1" d="M382.65,221.89c3.5-5,6.61-10.28,10-15.39,1.4-2.43,3.49-4.6,4.32-7.3a1.54,1.54,0,0,0-3-.48c-4.1,6.77-8.58,13.33-12.78,20.05-.74,1-1.94,2.35-.62,3.4a1.56,1.56,0,0,0,2.16-.28"/><path class="cls-1" d="M392.64,196c3.82-4.28,5.33-9.93,7.48-15.11,4.18-8.89,12.17-14.6,19.71-20.41-3.41,8.21-6,7.83-6,18.44a1.56,1.56,0,0,0,1.38,1.68,1.54,1.54,0,0,0,1.68-1.37,37.39,37.39,0,0,1,.83-7.83c1.12-4.21,5.75-7.5,5-12.12-2.1-5.07-7,.6-9.48,2.43-4.95,3.75-9.71,7.81-13.16,13-3.35,4.47-4.43,10-6.95,14.93a21.1,21.1,0,0,1-2.78,4.2,1.54,1.54,0,0,0,2.23,2.12"/><path class="cls-1" d="M414.89,207c3.27-3.43,6-7.43,9.93-10.2,9.92-6.22,21.89-9.52,30-18.46a2.31,2.31,0,0,0-.95-3.89c-4.42-.42-8.25,3.06-12.18,4.68a75.75,75.75,0,0,1-9.16,4.21c-1.32.6-4,.59-3.49,2.68,1.1,4.16,18.53-7.08,21.7-8-8.24,7.91-19.78,10.59-28.88,17.17-3.51,2.76-6.1,6.46-9.16,9.67-1.37,1.43.87,3.58,2.23,2.11"/><path class="cls-1" d="M459.57,168.41a2.31,2.31,0,0,0-1.1-1.25h0a4.36,4.36,0,0,0-3.06-.24l-.66.21h0c-5.92,1.9-11.18,5.47-16.92,7.84-3.1,1.36-6.25,2.88-9.41,4a1.54,1.54,0,0,0,.86,2.95c9-2.94,17-8.28,25.8-11.57h0l1.28-.46c-.06.07-.11.15-.17.21s0,0,0,0a34,34,0,0,1-4.47,4.43l-.51.46c-.89,2,1.69,3,2.95,1.51.32-.33.68-.67,1.06-1,2.15-1.95,5-4.08,4.36-7.06m-6.48,5.85.19.08a1.9,1.9,0,0,0-.28-.1l.09,0"/><path class="cls-1" d="M427.11,177.72c5.63-2.42,11.15-5.09,16.68-7.75,4-1.7,7.84-4.51,12.25-4.91a10.09,10.09,0,0,1-1.84,2.7,1.54,1.54,0,0,0,2.23,2.11c6.26-6.62.65-10-6.11-6.41-8.18,3.73-16.17,7.91-24.45,11.44a1.54,1.54,0,0,0,1.24,2.82"/><path class="cls-1" d="M417.15,175.36c11.88-1.5,21.5-10.89,33.31-12.38l0,.07c-2.56,2.23,1.58,4.45,2.83,1.21,1.76-7.25-8.37-3.55-11.74-2-6.57,2.68-12.79,6.15-19.37,8.78a27.17,27.17,0,0,1-5.48,1.24,1.54,1.54,0,0,0,.48,3"/><path class="cls-1" d="M274.76,158.86a1.48,1.48,0,0,1-1.12,1.1,1.66,1.66,0,0,1-.46-.05c-2.27-.52-1.31-5.34-2.15-7.19-.9-4.35-1.54-8.78-2.86-13a1.42,1.42,0,0,1,0-.36,1.6,1.6,0,0,1,2.35-1l.11.16c2,3,1.76,7.25,2.8,10.68,0,1.86,2.06,7.29,1.29,9.67"/><path class="cls-1" d="M263.82,162.78a1.43,1.43,0,0,1-.31.95,1.65,1.65,0,0,1-2,.36,1.39,1.39,0,0,1-.79-1.31c-.16-4.28-.22-8.56-.48-12.83-.14-3.12-.46-6.25-.52-9.37a.53.53,0,0,1,0-.13,1.51,1.51,0,0,1,3-.21c.34,1.12,0,2.78.24,3.82.45,6.23.67,12.47.84,18.72"/><path class="cls-1" d="M254,164.47c0,.15,0,.31,0,.46a1.53,1.53,0,0,1-1.73,1.31c-.92-.11-1.25-.93-1.33-2-.13-1.92.52-4.65.28-5.89.05-5.51-.21-11-.24-16.51a2.35,2.35,0,0,1,.11-1.64,1.48,1.48,0,0,1,2.88.3,2,2,0,0,1,.05.24c.06,7.92.58,15.85,0,23.76"/><path class="cls-1" d="M245.68,138.48c0,.25-.09.5-.12.75-1.2,7.79-1.31,15.66-1.59,23.52,0,.13,0,.26,0,.39a1.54,1.54,0,0,1-3-.42l0-1c.27-7.75.34-15.51,1.66-23.18v-.06a1.54,1.54,0,0,1,3.08,0"/><path class="cls-1" d="M239.89,136.85c0,.19-.08.39-.11.6-1.3,6.72-2.12,13.61-3,20.42a1.41,1.41,0,0,1-1.3,1.27,1.53,1.53,0,0,1-1.77-1.4c0-.09,0-.19,0-.29.51-3.43.84-6.89,1.29-10.32s1.1-6.83,1.77-10.3a1.44,1.44,0,0,1,.43-1.07,1.56,1.56,0,0,1,2.64,1.09"/><path class="cls-1" d="M263.43,230.68c2.15-9,6-17.44,8-26.46,3.53-14.77,7.77-29.39,10.57-44.33.16-1,.53-2,.62-3a1.54,1.54,0,0,0-3.06-.13C275.85,175,271.18,193,266.37,211c-1.93,6.3-4.4,12.44-5.91,18.87a1.54,1.54,0,0,0,3,.81"/><path class="cls-1" d="M261.56,231.34a1.55,1.55,0,0,0-1.07-1.89c-2.47-1-3.15-4.14-4.57-6.18-4.06-7.17-7-14.86-9.82-22.58-5.81-15.08-11.69-30.15-16.84-45.46-.74-1.82-3.66-.64-2.84,1.19a7.66,7.66,0,0,1,.34.87c4.06,12.31,8.73,24.42,13.39,36.51,1.88,4.12,15.69,45.79,21.41,37.54"/><path class="cls-1" d="M264.14,239.06c-.53-1.31-.46-5.52-1.39-7.47-.28-.59-.66-1-1.18-1a1.67,1.67,0,0,0-1,.33,2.84,2.84,0,0,0-.51.36,1.57,1.57,0,0,0-1.83.48,1.5,1.5,0,0,0-.26.52,64,64,0,0,0-2,8.62c-.66,5.21-1.33,17.66,6.49,17,6.3-2.83,2.4-13.61,1.67-18.85m-2.47,15.88-.12,0c-4.95-3.11-2.49-15-1.18-19.87.21,5.09,4.59,15.85,1.3,19.83"/><path class="cls-1" d="M225.26,322c1.15-1.17-.2-2.35-.91-3.32a28.41,28.41,0,0,1-3.83-10.53,43.11,43.11,0,0,1-1.05-7.4,1.54,1.54,0,0,0-3.07,0c-.07,3.77,3.42,23.84,8.86,21.25"/><path class="cls-1" d="M234.63,322.27c2.18-1.35-3.62-6.28-2.9-11.36a1.54,1.54,0,0,0-3.07,0c-.29,2.5,2.43,13.23,6,11.36"/><path class="cls-1" d="M290.94,321.71c2.92-3.32,4-7.66,5.34-11.76.49-1,.86-2.43-.45-3-3.1-1.08-3.52,7.62-5.17,9.61a19.06,19.06,0,0,1-2.15,3.25,1.54,1.54,0,0,0,2.43,1.88"/><path class="cls-1" d="M283,322.26c1.37-2.11,3.07-4.31,3.46-6.84a1.55,1.55,0,0,0-1.54-1.53c-1.39,0-1.43,1.4-1.89,2.35-.47,2-4,4.41-2.18,6.3a1.54,1.54,0,0,0,2.15-.28"/><path class="cls-1" d="M210.12,232.69c.48-2.22,4.25-6.91.62-7.88a1.59,1.59,0,0,0-1.54,1.77c-.46,1.69-1.33,3.25-1.91,4.91a1.54,1.54,0,0,0,2.83,1.2"/><path class="cls-1" d="M229.7,70.91a1.52,1.52,0,0,0,1.55-.21,1.44,1.44,0,0,0,.47-.61c.82-2.33,5-14.61,1.15-14.88-2.52,0-1.26,5.3-2.13,7.19a48.5,48.5,0,0,1-1.45,5.41,5.92,5.92,0,0,0-.23.56c-.36.95-.49,2.06.64,2.54"/><path class="cls-1" d="M225.72,67.74a5.86,5.86,0,0,0,.6-1.23c1-2.63,1.78-7.74-.68-7.85-2.66.39-1.12,4.12-1.87,6a3,3,0,0,1-.3.85,5.07,5.07,0,0,1-.4.72,1.54,1.54,0,0,0,2.65,1.55"/><path class="cls-1" d="M496.64,389.21c-.06,1.34-1.13,1.56-2.25,1.56-.46,0-.93,0-1.34,0H467.22a4,4,0,0,0-.6-.08h-.18c-.34,0-.74,0-1.18,0a3.39,3.39,0,0,0-.44,0c-.81,0-1.73.07-2.69.13l-.89,0c-1.06,0-2.14.07-3.11,0a12.24,12.24,0,0,1-2.35-.24l-.16,0c-1-.24-1.61-.68-1.57-1.41a1.41,1.41,0,0,1,.43-1.07c.65-.58,1.89-.49,2.8-.46h21.64a5.8,5.8,0,0,0,.89.08c.57,0,1.33,0,2.19,0l2.18-.07h.12l1.25-.05c1.68-.06,3.45-.11,5.08-.09.48,0,.95,0,1.39,0l.6,0c2.57.15,4.36.58,4,1.63"/><path class="cls-1" d="M153.29,390.77a20.33,20.33,0,0,1,4,0H316.43l2.06-.08.38,0a3.39,3.39,0,0,1,1.52,0l.29.08h34.71a6.72,6.72,0,0,1,1.14-1.79,4.92,4.92,0,0,1,1.62-1.28H147.31a1.55,1.55,0,0,0-1.54,1.53c-.07,1.37,1.93,1.69,4.32,1.69,1,0,2.16-.06,3.2-.13"/><path class="cls-1" d="M43,390.75h36.7c2.32-.53,9.19,1.42,9.53-1.54,1-3-17.08-1-19.8-1.53H28a1.54,1.54,0,0,0,0,3.07Z"/><path class="cls-1" d="M101.86,390.54a1.54,1.54,0,1,0,0-3.07c-2.7,0-5.41-.08-8.11-.09s-5.64-.06-8.46,0a1.67,1.67,0,0,0-2,1.54,1.55,1.55,0,0,0,1.53,1.54c5.69-.07,11.37.05,17,.1"/><path class="cls-1" d="M456.93,413h0c0,4.67-.16,9.35-.45,14-.11,2.5-.24,5-.37,7.48h0l-.12,2.3c-.51,9.51-1.14,19-2.11,28.49-.38,3.85-.37,7.73-3.05,8.63h0a5.09,5.09,0,0,1-2.67.06l-.14,0a10.55,10.55,0,0,1-1.51-.42c-.9-.33-1.76-.6-2.6-.84l-.14,0h0a26.22,26.22,0,0,0-2.91-.62l-.14,0a24.52,24.52,0,0,0-2.61-.26l-.54,0h-1.1a24.62,24.62,0,0,0-3,.23c-1.65.21-3.27.54-4.94.91h0c-1,.22-1.92.45-2.93.67h0c-1.61.37-3.3.74-5.12,1l-1.37.2c-.46,0-.92,0-1.39-.05h-.15a30,30,0,0,1-4.53-.8l-.17,0c-1-.25-1.95-.52-2.93-.79l-.15,0c-1.35-.37-2.72-.72-4.1-1l-.16,0a25.2,25.2,0,0,0-2.75-.35h-.16l-.45,0H401c-.28,0-.57,0-.85.05H399a20.34,20.34,0,0,0-2.21.16h0c-1,.11-1.95.26-2.92.45h0c-1.71.31-3.4.7-5.1,1-.88.17-1.76.32-2.64.43h0c-.75.09-1.5.17-2.26.21l-.75,0h-.21c-.21,0-.43,0-.65,0s-.43,0-.65,0h-.36c-1-.13-1.94-.3-2.89-.49l-.15,0c-1.3-.26-2.58-.54-3.85-.8l-.17,0h0c-.85-.17-1.69-.32-2.53-.44l-.15,0a22.55,22.55,0,0,0-2.31-.22c-.23,0-.45,0-.68,0H368c-.61,0-1.23.05-1.85.12a15.69,15.69,0,0,0-3,.73,12.59,12.59,0,0,0-1.23.49,1.31,1.31,0,0,1-.38.06,1.38,1.38,0,0,1-1.25-.66h0a1.52,1.52,0,0,1,.73-2.32l.09,0c8.71-3.77,14.68.75,23.12.62,13.35-2.38,18.52-3.68,32,.61a15,15,0,0,0,5.05-.05c1-.16,2-.39,3-.64,1.87-.49,3.71-1.07,5.54-1.48a21.59,21.59,0,0,1,8-.65c1.1.1,2.19.25,3.29.44,3,.52,6,1.3,9,1.84,2.54-17.83,3-35.91,3.85-53.88.07-6.53,0-13.06-.43-19.58-.32-6.82-.59-9.13-7.88-10.54-7.1-1.77-14.18.17-21.3.59l-1.44.07a13.76,13.76,0,0,1-2.57-.09h0c-6.23-.75-11.86-5.18-18.23-4-3.34.71-6.38,2.31-9.61,3.39a17.25,17.25,0,0,1-7.47,1.26,23,23,0,0,1-3.58-.46c-5.4-1.05-10.12-3.21-15.82,0a34.18,34.18,0,0,1-6.71,2.77,11.1,11.1,0,0,1-3,.46h-.15a3.43,3.43,0,0,1-1-.17,1.58,1.58,0,0,1-1.13-1.39c.13-1.26,1-1.59,2-1.68a23,23,0,0,0,2.48-.17c3.37-.9,6.4-3,9.71-4.1l.14,0a12.84,12.84,0,0,1,3-.6,10.79,10.79,0,0,1,1.14,0,42.3,42.3,0,0,1,7.61,1.56h0c.69.17,1.37.33,2.06.45A15.12,15.12,0,0,0,386,385c6.39-.27,11.76-4.69,18.16-4.9,6.15.09,11.31,4.16,17.52,4.36,9.11,0,18.39-3.05,27.35.25a8.52,8.52,0,0,1,5.42,3.42,9.19,9.19,0,0,1,1.14,2.48,28.47,28.47,0,0,1,.86,6.89c.26,4.13.4,8.25.44,12.39h0c0,1,0,2.05,0,3.08"/><path class="cls-1" d="M360.75,472.5l-.51.11-.46.06a3.74,3.74,0,0,1-2.92-.79.49.49,0,0,1-.13-.12c-3.52-3.21-1.53-14-1.9-18,.21-5.82.2-11.65.29-17.48h0l.06-3c.07-3,.18-6,.37-9.05.26-3.73.55-7.49.75-11.25a.09.09,0,0,0,0-.05q.07-1.31.12-2.61a.11.11,0,0,0,0-.05,106.35,106.35,0,0,0-.5-17.47,17.23,17.23,0,0,0-.28-1.91v0c0-.17-.07-.34-.09-.51l-.07-.33c.2-1.11.82-1.57,1.46-1.55a2.08,2.08,0,0,1,1.82,1.95,2.94,2.94,0,0,1,0,.42c1.8,12.29.36,24.7-.36,37-.34,11.28-.41,22.57-.65,33.85.19,2.48-.34,5.35.85,7.6a3.24,3.24,0,0,0,1.4.4,1.29,1.29,0,0,1,1,.53,1.55,1.55,0,0,1-.22,2.21"/><path class="cls-1" d="M427.28,404.14c-1.71.21-1.82-1.75-2-3-1.22-4.49-1.49-10-4.9-13.41a1.58,1.58,0,0,1-.13-.26h0c-1.27-2.53,2.17-3.55,4,0a2.53,2.53,0,0,1,.18.37c2.36,4.49,3.19,9.59,4.19,14.51a1.55,1.55,0,0,1-1.31,1.73"/><path class="cls-1" d="M441,469.62a1.58,1.58,0,0,1-.58,1c-1.7,1-2.4-.49-2.73-2-.1-.46-.17-.92-.22-1.3a98,98,0,0,1-1.74-19c.41-2.14-1-12.21,1.8-11.86a1.54,1.54,0,0,1,1.53,1.54c-.57,10.35-.4,20.83,1.89,31,0,0,0-.05,0-.07l.06.18a1.8,1.8,0,0,1,0,.52"/><path class="cls-1" d="M424.4,459c-.09,3.93,0,7.88-.2,11.82,0,.14,0,.29,0,.43a1.55,1.55,0,0,1-1.73,1.32,1.47,1.47,0,0,1-1.23-1.11c-.29-1,.12-2.47,0-3.45l.12-9a1.54,1.54,0,1,1,3.07,0"/><path class="cls-1" d="M477.4,367.51c-.82-3.11-7.58-3.07-12.14-3.23a26.42,26.42,0,0,1-3-.24c-.77-.07-1.54-.13-2.32-.17-1.36-.11-2.73-.2-4.1-.28l-3.35-.18c-18.27-.86-36.67-.11-54.87.9l-.69,0-3.48.18c-3,.15-6.06.32-9.08.44-1,0-2,.08-3,.1h0l-.62,0c-.82,0-1.65,0-2.48.06l-1.23,0h-.4l-.46,0-.54,0-.77,0h-.95l-.54,0-.48,0c-4.89.38-5.37,3-5.53,9.55,0,1.62-.43,6.16.44,8.72a.14.14,0,0,0,0,.06c.39,1.13,1.06,1.86,2.15,1.74,1.18-.45,1.21-1.39,1-2.44a10.62,10.62,0,0,1-.57-3c.17-2.11-.83-12.39,2.27-11.52,2.15,0,4.31-.06,6.46-.11l3-.1c12.68-.42,25.35-1.31,38-1.72a379.43,379.43,0,0,1,45.12.95c1.07.09,2.14.19,3.21.31,1.9.18,3.81.39,5.7.63,1.84,5,.61,11.28-.08,16.61a19.43,19.43,0,0,1-.78,2.82c-.34,1.25-.31,2.34,1.5,2.37a3.71,3.71,0,0,0,1.77-2.37c2-5.25,1.79-17.31.77-20.17m-3.5,19.67a1.79,1.79,0,0,1,.46-.16,1.6,1.6,0,0,0-.67.32,2.35,2.35,0,0,1,.21-.16"/><path class="cls-1" d="M465.26,364.28a7.07,7.07,0,0,1-1.71,1.4c-1.32,1-4.43,1.72-4.32-.79a1.41,1.41,0,0,1,.67-1c.82-.54,2.16-.51,2.85-1.38,3.6-4.11,4.53-10.46,3.07-15.63-2.51-1.5-5.61-1.69-8.69-1.83-1.15,0-2.3-.09-3.41-.2-.55-.05-1.08-.11-1.61-.2-3.2-.28-6.4-.65-9.61-.87-15.91-.45-31.86.44-47.79,1l-3.06.1c-2.42.07-4.83.14-7.24.19,1,6.32,3.46,14.13-.08,19.93a9.66,9.66,0,0,1-1,1.36,1.44,1.44,0,0,1-2.14,0,1.6,1.6,0,0,1-.48-1.22,1.37,1.37,0,0,1,.44-.93.33.33,0,0,0,.09-.11,7.94,7.94,0,0,0,1.73-4.66,51.27,51.27,0,0,0-.77-9.61c-.05-.34-.11-.68-.17-1-.31-1.43-1-3.48-.65-4.95a.94.94,0,0,0,0-.16h0a2.28,2.28,0,0,1,2.28-1.62c11.61-.55,23.25-.72,34.87-1.07l3.09-.14c2-.09,3.92-.16,5.89-.23l1.47,0,1.47,0c3-.06,6-.06,9,.05l1.37.05.82,0,1.23.07c1.52.1,3,.23,4.57.39,6.36,1,13.17.32,19.23,2.61,5,3.46,2.9,15.73-1.52,20.57"/><path class="cls-1" d="M381.41,365.54c-.51-5.43-.69-10.68.86-15.92.06-1.92,2.71-5,.17-6.09-3.55-1.39-5,16.21-4.37,18.61.28,1.48-.15,3.23.71,4.49a1.55,1.55,0,0,0,2.63-1.09"/><path class="cls-1" d="M396.89,364.35a8,8,0,0,1-.77,1.61,1.54,1.54,0,0,1-2.71-1.44.54.54,0,0,1,0-.11,7.51,7.51,0,0,0,1-2.43,28.91,28.91,0,0,0-2.21-15.59,2.66,2.66,0,0,1-.55-1.55,1.47,1.47,0,0,1,1.88-1.6,7.68,7.68,0,0,1,1.18,1.5c2.87,4.62,4,14.42,2.18,19.61"/><path class="cls-1" d="M455.8,363.59c-.17.34-.34.67-.53,1a1.55,1.55,0,0,1-2.82-1.17,1.59,1.59,0,0,1,.17-.38,14.42,14.42,0,0,0,1.17-2.52c1.56-4.55,1.37-9.44.5-14.11a4,4,0,0,0-.57-1.57,2.28,2.28,0,0,1-.24-.79A1.55,1.55,0,0,1,455,342.5c1.35,0,1.83,1.33,2.11,2.53.08.31.13.61.19.88,1.08,5.84,1.19,12.28-1.52,17.68"/><path class="cls-1" d="M466.79,387.68c-.07.13-.14.26-.22.38a1.56,1.56,0,0,1-2.82-.38,1.4,1.4,0,0,1,.17-1.17,20,20,0,0,0,1.65-3.46c1.48-4.5,1-9.37.33-14-.11-.58-.45-1.18-.59-1.76a1.3,1.3,0,0,1,.52-1.51,1.54,1.54,0,0,1,2.15.28c.2.5.38,1,.54,1.54,2,6.32,1.54,14.32-1.73,20.06"/><path class="cls-1" d="M382.4,384a1.27,1.27,0,0,1-.62.72,1.59,1.59,0,0,1-2.06-.45h0a1.38,1.38,0,0,1-.14-.27c-.29-1.45.68-2.93.6-4.44.27-3.84-1-7.64-1.05-11.42a2.17,2.17,0,0,1,0-.26,1.51,1.51,0,0,1,.61-.86,1.59,1.59,0,0,1,1-.26h0a1.36,1.36,0,0,1,.79.28,1.52,1.52,0,0,1,.63,1,16.15,16.15,0,0,0,.25,2.39c.62,4.47,1.56,9.19,0,13.57"/><path class="cls-1" d="M449.48,494.5c.1-5.76.48-11.52,1-17.26a27.47,27.47,0,0,1,.38-2.87,1.56,1.56,0,0,0-2.5-1.2c-1.48,2.21-.88,5.86-1.36,8.5-.32,4.27-.56,8.55-.63,12.83a1.54,1.54,0,0,0,3.07,0"/><path class="cls-1" d="M443.22,492.8c.2-7.19.43-14.39.56-21.58a1.54,1.54,0,1,0-3.07,0c0,3.09-.16,6.18-.22,9.28q-.17,6.15-.35,12.3a1.54,1.54,0,0,0,3.08,0"/><path class="cls-1" d="M435.24,493.65a194.47,194.47,0,0,0,1.2-22.75,1.54,1.54,0,0,0-3,.49,30.28,30.28,0,0,1,0,3.16c-.24,6.24-.47,12.48-1.2,18.68a1.54,1.54,0,0,0,3.05.42"/><path class="cls-1" d="M428,493.3c1-6.78.66-13.76.54-20.53a1.55,1.55,0,0,0-2.63-.34c-.94,2.5-.13,5.46-.33,8.11a75.72,75.72,0,0,1-.63,12.34,1.54,1.54,0,0,0,3.05.42"/><path class="cls-1" d="M420.14,497.28a1.58,1.58,0,0,0,1.31-1.88c-.21-3.11-.4-6.23-.55-9.35-.18-3.32-.24-6.64-.32-10,0-.7.07-1.51-.48-2a1.55,1.55,0,0,0-2.63,1.09c.16,6.49.38,13,.85,19.46-.05,1.22.23,2.89,1.82,2.69"/><path class="cls-1" d="M411.56,495.56c1.62-1.92,4-25.51-1-23.39-1.71.76-.46,2.47-.39,3.77a57.8,57.8,0,0,1,.07,9.21,79.6,79.6,0,0,1-1.16,9,1.55,1.55,0,0,0,2.46,1.43"/><path class="cls-1" d="M405.92,493.6c0-7.16,0-14.35-.42-21.49a1.53,1.53,0,0,0-3,.41c.28,3.58.24,7.19.33,10.78.06,3.43.09,6.86,0,10.3a1.54,1.54,0,0,0,3.08,0"/><path class="cls-1" d="M398.08,498.12a1.55,1.55,0,0,0,1.32-1.73q-1.45-8.62-2.09-17.36c-.35-2.55.18-5.35-.65-7.77a1.54,1.54,0,0,0-2.48,1.82,1.57,1.57,0,0,1-.25-.63,171.25,171.25,0,0,0,1.76,20.1c.57,1.76-.21,5.56,2.39,5.57"/><path class="cls-1" d="M388.25,498.35c1.46-6.6,1.48-13.39,1.19-20.1-.32-1.8.65-5.28-1.87-5.6-1.75.06-1.56,1.84-1.32,3.07.17,4.25.39,8.51.21,12.76a74.16,74.16,0,0,1-1.17,9,1.54,1.54,0,0,0,3,.82"/><path class="cls-1" d="M381.07,495.36c1.71-5.8.82-12.06.67-18-.42-1.76.42-5.47-2-5.77-1.83.07-1.58,2-1.31,3.32a107.25,107.25,0,0,1,.4,16.13c.22,1.7-1.77,4.11.22,5.17a1.56,1.56,0,0,0,2-.82"/><path class="cls-1" d="M374.46,494.43c1.49-5,1.74-17.92-.53-22.57a1.58,1.58,0,0,0-2.18,0c-1,.95,0,2.11.1,3.18a75.32,75.32,0,0,1,.42,14.86c.21,1.74-1.83,4.25.18,5.34a1.54,1.54,0,0,0,2-.81"/><path class="cls-1" d="M366,493.6c1.34-7.22.53-14.7.1-22-.66-2.48-3.73-1.16-3,1.17a127.12,127.12,0,0,1,.39,16.56c.23,1.72-1.58,4.48.62,5.33A1.56,1.56,0,0,0,366,493.6"/><path class="cls-1" d="M358.06,494.42c1.25-1.62.86-4.08,1.24-6,.51-5,.44-10,.46-15,.1-1.16,0-2.76-1.54-2.77a1.55,1.55,0,0,0-1.54,1.54c0,4.34,0,8.68-.19,13a74.42,74.42,0,0,1-.89,7.86,1.54,1.54,0,0,0,2.46,1.42"/><path class="cls-1" d="M430.32,409.93c0,2.49-.07,5-.13,7.47a1.54,1.54,0,0,1-3.07,0c.53-2.1-1.14-8.92,1.66-9a1.55,1.55,0,0,1,1.54,1.53"/><path class="cls-1" d="M386.51,409.4a1.54,1.54,0,0,1-1.73-1.32c-.6-6.61-.86-13.46-3.13-19.74a2.82,2.82,0,0,1-.34-.67c-.84-2.28,2.86-2.83,3.43,0l.15.44c1.13,3.66,4.73,21.65,1.62,21.27"/><path class="cls-1" d="M381.42,433.09a1.55,1.55,0,0,1-2.74.73c-.71-3.48.25-7.38,0-11a104.88,104.88,0,0,0-.87-15c5.1-10.09,3.93,23.44,3.64,25.31"/><path class="cls-1" d="M480.45,413.43c3.65-.18,7.29-.67,10.94-.95,1.35-.22,3.5.64,3.83-1.28-.24-3.23-5-1.38-7.13-1.51a149.64,149.64,0,0,1-16.26.93c-3.29,0-6.64,0-9.93-.2-2.14.31-6.09-1.85-7,.84-1.12,3.82,22.46,2.07,25.59,2.17"/><path class="cls-1" d="M355.05,413.11c1.25.23,2.77-.79,2.15-2.17-1.24-1.95-8.92-.56-11.48-1.05-14.21,0-28.39-1.27-42.61-1.08-38.26.56-76.77-2.68-114.92.32a1.55,1.55,0,0,0-.36,2.81c2.22.43,4.72-.66,7-.56,53.41-.84,106.82.63,160.21,1.73"/><path class="cls-1" d="M166.06,413.21c5.1-.1,10.16-.89,15.27-.69a1.54,1.54,0,0,0,0-3.07c-7.05-.17-14,1-21.09.74-3,0-6.08,0-9.11-.07-1.64.19-4.72-1-4.95,1.42.14,2.91,8,1.23,10.28,1.71,3.2,0,6.4,0,9.6,0"/><path class="cls-1" d="M142.05,412.76c.53-3.44-7.35-2-9.53-2.51q-9.71-.19-19.4-.06c-18.13.47-36.24-.4-54.31-1.54-10-.57-20,.7-30-.18a1.56,1.56,0,0,0-1.73,1.32c-.21,3.17,7.91,1.74,10.07,2.07,25.49-1.07,50.9,2.46,76.4,1.4,8-.07,16.09-.12,24.12.28,1.48-.11,3.69,1.18,4.36-.78"/><path class="cls-1" d="M466,437.37c9.21-.68,18.6.53,27.73-.55a1.54,1.54,0,0,0-1.2-2.84c-3.56.35-7.17.1-10.76.13-8.52,0-17.37-.05-25.75.36-3.21,4.42,7.87,2.55,10,2.9"/><path class="cls-1" d="M357.29,436.23c3.08-3.61-3.54-2.84-5.53-2.92-5.29-.05-10.57,0-15.86-.19-10.65-.32-21.29-1.34-31.95-1.06-37.74.35-75.47-1.21-113.21-.52a1.55,1.55,0,0,0-1.54,1.54c.1,3,8.41.91,10.65,1.41,10-.12,20,0,30,0,28,.4,56,.75,84,.61,14.43.71,29.06,1.72,43.44,1.09"/><path class="cls-1" d="M165.87,435.06c2.15-.58,7.7,1,8.11-1.8a1.56,1.56,0,0,0-1.54-1.54c-4.62.15-9.23.44-13.85.38a1.55,1.55,0,0,0-1.54,1.54c.35,2.93,6.63,1,8.82,1.42"/><path class="cls-1" d="M128.55,436.7c4-.56,10.67.6,13.61-2.15a1.55,1.55,0,0,0-2.34-1.86c-14.82,2.16-29.88.28-44.8.54-13,0-26-.13-39-.56-4,.44-30.46-3.3-29.81.43a1.55,1.55,0,0,0,1.54,1.54c9.25-.13,18.48.62,27.71,1.08,24.36.64,48.73.77,73.09,1"/><path class="cls-1" d="M319.57,220.35c0-2.77,2.58-16.46-1.23-16.28-2.6.44-.52,7.45-1.24,9.74.35,2.21-2,7,.74,7.86a1.55,1.55,0,0,0,1.73-1.32"/><path class="cls-8" d="M238.35,43.87c1-2.09,4.92-6.73,1.59-8.19-2.15-.16-1.68,2.61-2.62,3.87-.51,1-1,1.87-1.62,2.78a1.53,1.53,0,0,0,2.65,1.54"/><path class="cls-1" d="M308.05,27.78c-2.85-2.67-6.39-4.27-9.76-6.1a1.57,1.57,0,0,1,.75-2.77,18.27,18.27,0,0,0,5-.49c4.74-1.54-1.77-5.57-3.72-6.64-3.6-1.71-7.75-1.64-11.65-1.49-3.69.05-7,1.59-10.54,2.41a1.54,1.54,0,0,1-.83-3c1.72-.56,3.46-1.06,5.23-1.47a.26.26,0,0,1,.07-.11c4.46-4.64-4.3-3.46-6.88-3.37-5.05.44-10.63.7-15.6,2.18a13,13,0,0,0-4.18,2.12,1.72,1.72,0,0,1-2.64.49c-1.29-1.4.75-2.76.73-4.32a.31.31,0,0,0,0-.09v0a2.45,2.45,0,0,0,0-.27c-7.69-.7-14.9,4.28-18.87,10.59a1.6,1.6,0,0,1-2.89-.86,13.82,13.82,0,0,1,2-3.34c.29-2.08,2.19-5.26,1-7.29-1.39-2.11-3.56.4-4.92,1.33-3,2.7-4.19,6.84-5.67,10.49-1.29,3.23-1.62,7-2.51,10.42a1.34,1.34,0,0,1-1,.88,1.54,1.54,0,0,1-2.59-.63c-.39-1.29-.84-2.56-1.33-3.82-2.5-7.75-8.79-7.9-9.34.74a44.34,44.34,0,0,0,2.19,13.75,6.28,6.28,0,0,1,.45,3.25c-2.49,4.82-10.31-8.31-7.62,8.21a55.47,55.47,0,0,0,8.54,19.16c.76,1.11,1.53,2.2,2.34,3.26A14.41,14.41,0,0,1,215,68.66a7.92,7.92,0,0,1,8.47-3.19,2.93,2.93,0,0,0,.3-.86c.75-1.83-.79-5.55,1.86-6,2.47.11,1.67,5.22.69,7.85a14.38,14.38,0,0,1,2.74,1.86,4.1,4.1,0,0,1,.24-.56,50.72,50.72,0,0,0,1.44-5.41c.87-1.89-.39-7.15,2.13-7.19,3.82.27-.33,12.55-1.16,14.89a1.37,1.37,0,0,1-.46.6,12,12,0,0,1,2.19,4.6c.07.29.18.59.26.91a2.4,2.4,0,0,1,1.5.93c4.71.88,6.36-13.69,6.69-17.22a28.2,28.2,0,0,0-.2-6.09A1.56,1.56,0,0,1,243,52.1c.86-.06,1.41.56,1.73,1.6h0c3.94-.81,6.84-4.41,8.25-8,.95-3.64,2.4-3.12,5.52-2.62,6.4,1.17,12.37-7.2,14-4.14a1.68,1.68,0,0,1-.13,1.63.22.22,0,0,1,0,.08c0,1.24-1.51,1.69-1.91,2.76,2.3,2.64,7.43-1,9.6-2.67,1.53-1,2.4-3.92,4.15-4.18a1.55,1.55,0,0,1,1.47,2c-.27,1.32-1.58,3.19-.67,4.38,3,.69,6.87.52,9.39-1.42a1.4,1.4,0,0,1,1.73-.27,1.53,1.53,0,0,1,1.23.13c2.94,1.35,6.5,3.06,9.77,2.29,2-1.78-.37-4.73-1.62-6.32-1-1.64-5.06-3.17-3.66-5.3.81-1.1,2.07-.4,3,.18,2.29,1,5,2.58,7.48,1.65,1-1.86-3.08-4.79-4.28-6.12m-76,14.57a1.54,1.54,0,0,1-2.84-1.19c.94-1.29.54-4.07,2.69-3.93,2.49.59.76,3.62.15,5.12m6.27,1.52a1.53,1.53,0,0,1-2.65-1.54c.58-.91,1.11-1.84,1.62-2.78.94-1.26.47-4,2.62-3.87,3.33,1.46-.55,6.1-1.59,8.19"/><path class="cls-8" d="M232.07,42.36c.62-1.51,2.36-4.54-.14-5.13-2.15-.14-1.75,2.64-2.69,3.93a1.54,1.54,0,0,0,2.83,1.2"/><path class="cls-1" d="M216.86,347.15c2-7,4-14.17,7.09-20.81.56-1.51,3.11-3.66.85-4.87-4.08-.76-7.84,15.57-9.23,19-.17,2.22-3.26,6.4-.6,7.74a1.55,1.55,0,0,0,1.89-1.08"/><path class="cls-1" d="M223,354.91c1.18-4.25,2.48-8.48,4-12.62,1.78-2.71-1.09-5.19-2.44-2.27-1.73,4.61-3.23,9.32-4.55,14.07a1.54,1.54,0,0,0,3,.82"/><path class="cls-1" d="M103.83,372c5-3.15,10-6.23,15-9.13,1.12-.85,3.36-.5,3.41-2.32a1.55,1.55,0,0,0-1.54-1.54c-6.42,1.81-11.81,6.61-17.65,9.81-2.36.73-1.81,4.22.73,3.18"/><path class="cls-1" d="M93.94,379.3c1.31-1.22,4.72-1.7,4.07-4-1.42-2.4-4,.61-5.62,1.32a1.54,1.54,0,0,0,1.55,2.66"/><path class="cls-1" d="M350.59,419.32c-.65-4.69-25.62-3-30.42-3.37-2.5.47-11.63-1.19-11.89,1.81.5,2.85,4.57.94,6.57,1.31,4.83-.09,9.67-.05,14.5,0,4.33.07,8.67,0,13,.51,2.33-.27,7.3,2.72,8.26-.22"/><path class="cls-1" d="M296.15,417.85c4.5.64,4.89-3.44,1.69-3.13l.08,0,.14,0c-3.29.29-6.62,0-9.92,0a1.55,1.55,0,0,0-1.54,1.53c.2,2.86,7.35,1.2,9.55,1.65"/><path class="cls-1" d="M249.81,440.62c-.39-2.68-4.14-1.15-6-1.55-5-.1-10-.26-15-.44-2.87.49-20-2.59-19.17.69a1.56,1.56,0,0,0,1.53,1.54c6.49.19,13,.7,19.45.91,2.86-.45,19.78,2.08,19.17-1.15"/><path class="cls-1" d="M73,443.17c2.37-.68,10.14,1.05,10.37-1.86,0-3-8.93-.8-11.24-1.18-3.28.16-6.57.29-9.86.23-2.33.51-10.83-1.85-10.82,1.17C51.27,444.88,70,443,73,443.17"/><path class="cls-6" d="M238.11,111.91a14.18,14.18,0,0,1-2.51,3.31,13.16,13.16,0,0,1-5.33,3.18,16.39,16.39,0,0,1-2.38.43l-.5,0h-.69c-10.62.13-16.43-12.37-12.48-22.22a14.79,14.79,0,0,1,4.66-6l.08-.07.17-.13a1.55,1.55,0,0,1,2.17,2.16,2.08,2.08,0,0,1-.82.71c-8.21,6.35-4.47,23.43,7.06,22.45a10.05,10.05,0,0,0,7.45-4.57,12.84,12.84,0,0,0,2-5.36,13.32,13.32,0,0,0-3.61-11.31,9.62,9.62,0,0,0-1.52-1.23.47.47,0,0,0-.12-.09l-.51-.32-.44-.28a7.23,7.23,0,0,0-2.14-1c-1.26-.06-3.07-.46-2.65-2.14,2.14-3.61,9.33,2.37,11,4.59a16.57,16.57,0,0,1,1.15,17.91"/><path class="cls-1" d="M294.61,62.45l4,1.24-1.13-6.35a6.47,6.47,0,0,0-3.52-1.2Z"/><path class="cls-9" d="M282.27,79.19s3.08,5,2.89,6.91c-.17,1.56-1.75,2.53-5.76,2.53"/><path class="cls-10" d="M194.29,176.26a76.93,76.93,0,0,1,9.87,50"/><path class="cls-10" d="M315.16,173.58a86.52,86.52,0,0,0-2.88,21.77"/><path class="cls-10" d="M358.08,234.53a129.83,129.83,0,0,0-1,16.37"/></g></g></svg>