<svg width="58" height="39" viewBox="0 0 58 39" fill="none" xmlns="http://www.w3.org/2000/svg">
<path d="M29.3953 12.3852C32.5392 12.3852 35.0879 9.8365 35.0879 6.69258C35.0879 3.54865 32.5392 1 29.3953 1C26.2514 1 23.7027 3.54865 23.7027 6.69258C23.7027 9.8365 26.2514 12.3852 29.3953 12.3852Z" stroke="white" stroke-miterlimit="10"/>
<path d="M16.9036 18.929C18.34 16.8009 20.4326 15.0133 23.4793 14.1373" stroke="white" stroke-miterlimit="10"/>
<path d="M22.5607 32.4422L13.8959 32.3854C13.8959 32.3854 13.7895 31.2753 13.8569 29.5941" stroke="white" stroke-miterlimit="10"/>
<path d="M44.9018 29.4736C44.9692 30.4489 44.9976 31.4881 44.9834 32.5876L37.0067 32.5344" stroke="white" stroke-miterlimit="10"/>
<path d="M35.6093 14.1408C35.6093 14.1408 39.266 14.8395 42.0148 19.2943" stroke="white" stroke-miterlimit="10"/>
<path d="M29.711 22.2204L32.2753 27.4164L38.0069 28.2499L33.8571 32.2897L34.8396 38L29.711 35.3045L24.5859 38L25.5648 32.2897L21.415 28.2499L27.1466 27.4164L29.711 22.2204Z" stroke="#FFC314" stroke-miterlimit="10"/>
<path d="M44.7742 19.312L46.3064 22.419L49.7361 22.9156L47.2569 25.3345L47.8421 28.75L44.7742 27.1362L41.7098 28.75L42.295 25.3345L39.8122 22.9156L43.242 22.419L44.7742 19.312Z" stroke="#FFC314" stroke-miterlimit="10"/>
<path d="M14.6052 19.312L16.141 22.419L19.5672 22.9156L17.088 25.3345L17.6732 28.75L14.6052 27.1362L11.5408 28.75L12.126 25.3345L9.64328 22.9156L13.073 22.419L14.6052 19.312Z" stroke="#FFC314" stroke-miterlimit="10"/>
<path d="M52.6019 10.2926L53.8468 12.8108L56.6275 13.2151L54.6165 15.18L55.0917 17.9501L52.6019 16.6413L50.112 17.9501L50.5873 15.18L48.5763 13.2151L51.357 12.8108L52.6019 10.2926Z" stroke="#FFC314" stroke-miterlimit="10"/>
<path d="M6.02559 10.2926L7.27051 12.8108L10.0547 13.2151L8.04017 15.18L8.51543 17.9501L6.02559 16.6413L3.5393 17.9501L4.01457 15.18L2 13.2151L4.78422 12.8108L6.02559 10.2926Z" stroke="#FFC314" stroke-miterlimit="10"/>
</svg>
