<?xml version="1.0" encoding="UTF-8"?>
<svg id="Layer_2" data-name="Layer 2" xmlns="http://www.w3.org/2000/svg" viewBox="0 0 99.29 96.41">
  <defs>
    <style>
      .cls-1 {
        fill: #b7b7b7;
      }
    </style>
  </defs>
  <g id="Layer_1-2" data-name="Layer 1">
    <g>
      <path class="cls-1" d="m39.75,38.53c-.2,0-.35,0-.5,0-3.87,0-7.74,0-11.6,0-.4,0-.51.13-.5.5.01,1.59-.08,3.17-.41,4.74-.65,3.14-2.54,5.03-5.68,5.63-3.13.6-6.26.61-9.37-.08-3.06-.67-4.81-2.66-5.36-5.69-.22-1.24-.33-2.51-.37-3.77-.05-1.83.02-3.66.01-5.48,0-.17-.1-.38-.22-.5-2.69-2.59-4.42-5.69-5.04-9.38-.78-4.67.16-8.99,2.96-12.82,2.77-3.8,6.52-6.08,11.17-6.81.84-.13,1.71-.2,2.56-.2,10.68-.01,21.35,0,32.03,0h.61c-.25-.79-.2-1.53.09-2.25.81-1.99,3.23-2.72,5.05-1.56.14.09.4.12.56.07,5.95-1.96,11.23-.81,15.86,3.4.21.2.42.28.71.28,3.28,0,6.55,0,9.83,0,4.4,0,8.28,1.39,11.57,4.33,3.03,2.72,4.93,6.1,5.44,10.14.65,5.25-.61,9.99-4.26,13.96-2.83,3.06-6.33,4.83-10.46,5.36-.56.07-1.12.11-1.68.11-6.95,0-13.9,0-20.84,0-.72,0-.88.18-.92.93-.06,1.14-.09,2.28-.25,3.4-.24,1.81-.8,3.51-2.18,4.82-1.09,1.03-2.44,1.55-3.88,1.8-2.97.52-5.96.54-8.92-.08-1.92-.4-3.56-1.28-4.6-3.05-.64-1.1-1-2.29-1.13-3.55-.13-1.24-.17-2.49-.24-3.74,0-.15,0-.3,0-.51ZM70.1,4.4c-1.85-.02-3.43,1.5-3.45,3.32-.02,1.92,1.5,3.5,3.4,3.52,1.84.02,3.42-1.55,3.43-3.4,0-1.88-1.5-3.42-3.38-3.44Z"/>
      <path class="cls-1" d="m38.99,86.19v8.22c-.15.02-.26.04-.37.04-1.55,0-3.09,0-4.64,0-.31,0-.4-.09-.4-.4,0-7.82-.04-15.64.03-23.47.03-3.08,1.65-5.28,4.5-6.43,2.87-1.15,5.84-1.25,8.78-.22,2.33.81,4.06,2.39,5,4.67,1.67,4.03,1.77,8.17.23,12.25-1.2,3.2-3.7,4.93-7.01,5.5-1.92.33-3.84.26-5.74-.13-.11-.02-.22-.02-.38-.04Zm-.01-10.21c0,1.9,0,3.8,0,5.7,0,.28.05.46.37.47,1.18.06,2.36.21,3.53.18,2.35-.05,3.82-1.24,4.44-3.52.42-1.55.44-3.13.35-4.73-.07-1.3-.2-2.58-.7-3.79-.52-1.24-1.42-2.05-2.76-2.29-1.16-.21-2.33-.15-3.47.16-1.25.35-1.77,1.07-1.77,2.38,0,1.81,0,3.63,0,5.44Z"/>
      <path class="cls-1" d="m61.31,86.19v8.24h-5.38c0-.21-.03-.41-.03-.62,0-7.5.04-15-.02-22.49-.04-4.2,2.42-6.8,6.01-7.64,2.54-.6,5.08-.61,7.54.36,2.84,1.11,4.52,3.28,5.38,6.14.39,1.3.57,2.63.62,3.98.08,1.95-.05,3.87-.62,5.75-1.13,3.76-4.12,6.18-8.04,6.56-1.73.16-3.45.12-5.15-.25-.08-.02-.17-.01-.32-.02Zm0-4.14c.1.03.18.08.26.08,1.36.07,2.72.24,4.07.16,1.94-.12,3.31-1.19,3.85-3.07.84-2.93.76-5.89-.16-8.79-.37-1.15-1.17-1.98-2.38-2.31-1.41-.38-2.82-.31-4.19.17-1.02.35-1.45,1.04-1.45,2.12,0,3.74,0,7.48,0,11.22,0,.14,0,.28,0,.43Z"/>
      <path class="cls-1" d="m5.37,86.09H0v-31.07h5.36v8.93c.68-.17,1.31-.36,1.96-.47,2.54-.42,5.05-.34,7.45.67,2.85,1.19,4.43,3.4,4.92,6.41.13.79.17,1.59.17,2.39.02,4.21,0,8.41,0,12.62v.52h-5.38v-.49c0-4.59,0-9.17,0-13.76,0-1.1-.26-2.1-1.17-2.81-.61-.48-1.33-.71-2.09-.84-1.8-.3-3.58-.28-5.33.28-.39.13-.54.3-.54.74.02,5.46.01,10.92.01,16.37v.51Z"/>
      <path class="cls-1" d="m98.74,74.66c0,2.17-.22,4.05-.92,5.86-1.27,3.28-3.7,5.14-7.11,5.75-2.07.37-4.14.33-6.18-.23-2.99-.81-5.09-2.67-6.13-5.58-1.31-3.67-1.31-7.4-.04-11.07,1.06-3.07,3.27-4.98,6.44-5.73,2.47-.59,4.94-.56,7.36.21,3.38,1.07,5.28,3.51,6.13,6.86.35,1.37.47,2.77.46,3.93Zm-5.28.31c-.17-1.3-.24-2.51-.49-3.68-.36-1.73-1.3-3.03-3.16-3.37-.78-.14-1.59-.16-2.39-.13-2.27.08-3.58,1.17-4.15,3.36-.4,1.53-.44,3.08-.38,4.64.04,1.21.18,2.41.63,3.55.52,1.34,1.45,2.25,2.88,2.49.78.13,1.59.17,2.39.14,2.25-.07,3.58-1.09,4.12-3.27.31-1.24.39-2.54.56-3.74Z"/>
      <path class="cls-1" d="m23.99,86.08v-22.47h5.35v22.47h-5.35Z"/>
      <path class="cls-1" d="m23.33,57.28c-.02-1.72,1.47-3.44,3.62-3.33,1.68.09,3.15,1.62,3.13,3.4-.02,1.85-1.59,3.38-3.42,3.35-1.87-.04-3.36-1.56-3.33-3.42Z"/>
      <path class="cls-1" d="m79.24,91.19v5.11h-.58v-6.31c.38-.11.63-.03.86.31.65.98,1.33,1.95,2.03,2.97.26-.37.51-.71.74-1.05.44-.63.89-1.26,1.31-1.91.2-.32.44-.44.83-.32v6.32h-.56v-5.13s-.06-.03-.09-.04c-.73,1.05-1.47,2.09-2.23,3.17-.76-1.08-1.49-2.12-2.21-3.16-.03.01-.07.03-.1.04Z"/>
      <path class="cls-1" d="m86.76,96.32h-.58v-6.34c.34-.1.6-.06.83.3.57.88,1.19,1.74,1.79,2.6.08.11.16.22.27.37.57-.82,1.11-1.6,1.66-2.38.13-.18.27-.36.38-.56.18-.33.42-.48.83-.33v6.3h-.54v-5.12s-.07-.03-.1-.05c-.74,1.05-1.48,2.1-2.23,3.18-.75-1.08-1.48-2.12-2.21-3.16-.03,0-.06.02-.09.03v5.15Z"/>
      <path class="cls-1" d="m97.33,90.9c-.68-.28-1.38-.5-2.12-.33-.19.04-.39.1-.55.19-.66.38-.66,1.28.01,1.64.33.17.71.26,1.06.39.33.12.67.2.99.35.72.33,1.11.99,1.03,1.72-.1.83-.57,1.44-1.4,1.51-.75.07-1.54,0-2.29-.13-.63-.11-.62-.19-.57-.74.65.11,1.29.26,1.95.33.28.03.58-.06.86-.15.42-.13.69-.41.74-.88.05-.49-.16-.86-.59-1.07-.36-.18-.76-.29-1.14-.43-.3-.11-.62-.18-.92-.31-1.11-.49-1.26-2-.27-2.72.88-.64,2.29-.5,3.1-.08.14.07.14.42.21.65-.04.02-.08.04-.11.06Z"/>
      <path class="cls-1" d="m77.16,95.58c.14.45-.05.69-.48.72-.77.05-1.55.17-2.3.07-1.08-.15-1.72-.9-1.97-1.95-.2-.85-.19-1.7,0-2.55.28-1.21,1.2-1.97,2.49-2.01.59-.02,1.19.12,1.79.2.47.06.6.33.47.72-.6-.09-1.19-.25-1.79-.26-1.51-.04-2.25.57-2.45,2.07-.07.56-.04,1.16.09,1.71.26,1.17,1.31,1.78,2.64,1.59.5-.07.99-.2,1.5-.3Z"/>
    </g>
  </g>
</svg>