<?xml version="1.0" encoding="UTF-8"?>
<svg id="Layer_2" data-name="Layer 2" xmlns="http://www.w3.org/2000/svg" viewBox="0 0 142.43 93.93">
  <defs>
    <style>
      .cls-1 {
        fill: #b7b7b7;
      }
    </style>
  </defs>
  <g id="Layer_1-2" data-name="Layer 1">
    <g>
      <path class="cls-1" d="m67.66,83.73c-28.14,2.6-57.48-1.49-61.59-23.49-2.01-10.84,2.94-22.34,9.49-29.49v-3.82C3.75,37.29-2.64,50.39,1.04,65.86c4.71,19.85,29.88,31.09,68.31,27.35,15.21-1.47,35.1-6.37,48.94-13.97v-10.79c-12.56,7.48-33.33,13.67-50.63,15.27Zm74.14-57.05C135.12-5.91,71.84-7.98,31.04,16.85v2.74C71.79-1.35,129.59-1.23,134.85,28.8c1.77,9.93-3.83,20.28-13.82,26.24v7.79c12.02-4.41,24.36-18.67,20.77-36.15Z"/>
      <path class="cls-1" d="m116.01,21.93h-7.38v32.87c0,3.85,1.86,7.2,7.38,7.74V21.93Z"/>
      <path class="cls-1" d="m28.15,33.93h-7.39v21.47c0,3.87,1.86,7.21,7.39,7.74v-29.21Z"/>
      <rect class="cls-1" x="20.75" y="22.93" width="7.37" height="6.99"/>
      <path class="cls-1" d="m72.34,62.8c-5.97,0-8.5-4.15-8.5-8.24v-28.51h7.31v7.88h5.51v5.91h-5.51v14.27c0,1.67.79,2.6,2.53,2.6h2.98v6.1h-4.32"/>
      <path class="cls-1" d="m85.8,50.66c0,3.74,2.34,6.49,6.48,6.49,3.25,0,4.85-.9,6.72-2.75l4.52,4.31c-2.9,2.86-5.93,4.6-11.29,4.6-7,0-13.71-3.82-13.71-14.96,0-9.52,5.86-14.91,13.55-14.91s12.3,6.3,12.3,14.57v2.64h-18.57m5.95-11.16c-2.5,0-4.43,1.29-5.24,3.03-.47,1.05-.65,1.86-.7,3.14h11.27c-.14-3.14-1.57-6.17-5.33-6.17Z"/>
      <path class="cls-1" d="m48.01,39.84c2.15,0,3.04,1.06,3.04,2.78v20.22h7.32v-20.26c0-4.11-2.19-8.64-8.61-8.64h-15.11s0,28.9,0,28.9h7.32v-23h6.05Z"/>
      <path class="cls-1" d="m123.95,27.81c-1.63,0-2.93-1.31-2.93-2.94s1.3-2.94,2.93-2.94,2.95,1.32,2.95,2.94-1.33,2.94-2.95,2.94Zm0-5.38c-1.34,0-2.42,1.11-2.42,2.45s1.08,2.43,2.42,2.43,2.45-1.09,2.45-2.43-1.11-2.45-2.45-2.45Zm1.3,4.21h-.55c-.05,0-.09-.03-.11-.07l-.74-1.26s-.08-.06-.1-.06h-.34v1.26c0,.06-.04.14-.12.14h-.49c-.07,0-.12-.07-.12-.14v-3.17c0-.19.06-.26.22-.28.18-.02.64-.04.9-.04.92,0,1.45.27,1.45,1.12v.06c0,.52-.26.81-.66.94l.77,1.32s.02.07.02.09c0,.05-.03.11-.12.11Zm-.71-2.52c0-.35-.22-.47-.69-.47h-.47v1.01c.07,0,.41.02.47.02.47,0,.69-.16.69-.49v-.06Z"/>
    </g>
  </g>
</svg>