<?xml version="1.0" encoding="UTF-8"?>
<svg id="Layer_2" data-name="Layer 2" xmlns="http://www.w3.org/2000/svg" viewBox="0 0 142.29 106.54">
  <defs>
    <style>
      .cls-1 {
        fill: #b7b7b7;
      }
    </style>
  </defs>
  <g id="Layer_1-2" data-name="Layer 1">
    <g>
      <path class="cls-1" d="m36.15,0h32.87c0,10.96,0,21.91,0,32.87h-32.87V0h0Z"/>
      <path class="cls-1" d="m72.38,0h32.87c0,10.96,0,21.91,0,32.87-10.96,0-21.91,0-32.87,0,0-10.96,0-21.91,0-32.87h0Z"/>
      <path class="cls-1" d="m125.77,80.09c1.84-1.2,4.23-1.31,6.3-.74.02,1.23,0,2.47,0,3.71-.99-.43-2.15-.72-3.19-.29-.82.33-1.31,1.17-1.44,2.02-.15,1.07-.05,2.16-.08,3.24,2.11,0,4.22,0,6.33,0,.02-1.37-.02-2.74.02-4.11,1.43-.41,2.85-.87,4.28-1.3.01,1.8-.02,3.61.02,5.42,1.43-.02,2.85,0,4.28,0v3.51c-1.43-.06-2.87-.02-4.3-.02,0,2.02,0,4.04,0,6.06.02,1.12-.06,2.24.07,3.36.08.66.32,1.39.93,1.73,1.03.58,2.34.33,3.29-.31v3.55c-1.24.54-2.62.7-3.95.61-1.27-.09-2.58-.55-3.41-1.56-.96-1.14-1.2-2.68-1.22-4.13-.01-3.1,0-6.2,0-9.3-2.11,0-4.22,0-6.33,0,0,4.86,0,9.73,0,14.59h-4.33c0-4.86,0-9.72,0-14.59-1-.02-2.01,0-3.01-.02,0-1.15,0-2.31,0-3.47,1-.02,2-.01,3,0,.07-1.54-.16-3.11.3-4.61.39-1.35,1.25-2.57,2.44-3.33h0Z"/>
      <path class="cls-1" d="m33.15,80.34c.87-.13,1.82.17,2.39.85.68.75.8,1.94.3,2.81-.55.99-1.8,1.44-2.88,1.21-1.12-.2-2.06-1.25-2.01-2.41-.03-1.23.99-2.32,2.19-2.45h0Z"/>
      <path class="cls-1" d="m0,80.88h6.29c1.96,4.97,3.93,9.94,5.89,14.91.5,1.24.97,2.5,1.49,3.73,2.52-6.21,5.07-12.41,7.57-18.63,2.02-.03,4.04,0,6.05-.01,0,8.41,0,16.82,0,25.22-1.46,0-2.91.01-4.37,0,.02-6.2,0-12.41,0-18.61,0-.28,0-.56-.03-.84-.09.13-.16.26-.23.4-2.5,6.35-5.05,12.68-7.53,19.04-1.04.04-2.07,0-3.11.02-2.58-6.35-5.13-12.72-7.69-19.07-.07-.13-.14-.26-.22-.38-.05,2.72,0,5.44-.02,8.16,0,3.76,0,7.53,0,11.29-1.37,0-2.75,0-4.12,0C0,97.7,0,89.29,0,80.88H0Z"/>
      <path class="cls-1" d="m45.06,88.01c2.09-.59,4.34-.57,6.43.02.43.12.85.29,1.23.51-.02,1.38,0,2.76-.01,4.14-1.39-1.07-3.16-1.74-4.94-1.52-1.41.13-2.75.86-3.59,2-1.08,1.41-1.33,3.28-1.15,5.01.14,1.35.7,2.7,1.75,3.59,1.09.97,2.62,1.31,4.05,1.2,1.41-.16,2.74-.76,3.88-1.59.01,1.31,0,2.61,0,3.92-1.77,1.05-3.89,1.32-5.91,1.22-2.07-.11-4.14-.89-5.64-2.35-1.63-1.57-2.51-3.81-2.62-6.05-.11-2.33.37-4.76,1.71-6.71,1.12-1.66,2.88-2.84,4.8-3.39h0Z"/>
      <path class="cls-1" d="m92.31,87.73c2-.35,4.09-.09,5.99.62,0,1.33,0,2.65,0,3.98-1.32-.91-2.94-1.4-4.54-1.34-.81.03-1.7.37-2.07,1.14-.29.76-.09,1.76.63,2.21,1.23.82,2.69,1.17,3.96,1.9,1,.56,1.97,1.3,2.48,2.36.95,1.98.55,4.61-1.13,6.09-1.6,1.49-3.9,1.91-6.02,1.83-1.5-.1-3.02-.39-4.4-1.01,0-1.39,0-2.79,0-4.18,1.16.84,2.5,1.45,3.92,1.69.99.16,2.06.17,2.99-.27.88-.44,1.04-1.69.52-2.46-.49-.59-1.21-.92-1.89-1.24-1.27-.57-2.61-1.05-3.73-1.91-.79-.61-1.38-1.48-1.62-2.45-.35-1.44-.24-3.06.6-4.31.96-1.46,2.61-2.34,4.3-2.64h0Z"/>
      <path class="cls-1" d="m62.39,88.3c1.19-.72,2.71-.78,4.01-.34,0,1.44,0,2.89,0,4.33-.85-.55-1.92-.79-2.92-.69-1.23.14-2.2,1.08-2.71,2.16-.55,1.14-.65,2.44-.62,3.69,0,2.88,0,5.76,0,8.65h-4.26c0-6.02,0-12.05,0-18.07,1.42-.02,2.85-.01,4.27,0,0,1.03,0,2.07,0,3.1.46-1.13,1.15-2.22,2.24-2.83h0Z"/>
      <path class="cls-1" d="m31.35,88.03c1.43,0,2.87-.02,4.3,0-.02,6.02,0,12.05,0,18.07h-4.29c0-6.02,0-12.05,0-18.07h0Z"/>
      <path class="cls-1" d="m80.56,88.43c-1.93-.88-4.12-.99-6.19-.73-2.18.28-4.3,1.3-5.69,3.04-1.26,1.55-1.88,3.55-2,5.52-.17,2.33.22,4.81,1.58,6.75,1.17,1.68,3.01,2.83,5,3.26,1.66.35,3.4.35,5.06,0,1.94-.4,3.76-1.48,4.97-3.06,1.18-1.5,1.77-3.38,1.9-5.26.14-1.93-.06-3.92-.86-5.7-.75-1.67-2.11-3.06-3.78-3.82Zm-.4,12.12c-.41.93-1.17,1.72-2.13,2.09-1.12.43-2.37.45-3.53.15-1.17-.31-2.17-1.16-2.71-2.24-.7-1.39-.8-3-.66-4.53.13-1.39.61-2.81,1.67-3.77.77-.72,1.81-1.07,2.85-1.12,1.3-.09,2.68.28,3.62,1.23,1,.98,1.39,2.41,1.49,3.77.08,1.49.02,3.04-.61,4.42Z"/>
      <path class="cls-1" d="m118.98,92.77c-.67-1.79-2-3.35-3.72-4.21-1.97-.99-4.26-1.14-6.42-.87-1.74.22-3.45.88-4.78,2.05-1.62,1.4-2.57,3.45-2.85,5.55-.27,2.1-.18,4.31.68,6.28.82,1.93,2.44,3.5,4.39,4.26,1.93.76,4.07.84,6.09.52,2.07-.34,4.04-1.43,5.32-3.11,1.37-1.73,1.96-3.97,1.96-6.16.03-1.46-.15-2.94-.67-4.32Zm-3.9,6.13c-.17.95-.49,1.9-1.12,2.65-.63.76-1.56,1.22-2.53,1.36-1.04.15-2.13.08-3.09-.34-1.05-.44-1.85-1.35-2.28-2.39-.51-1.24-.62-2.61-.51-3.94.1-1.28.46-2.6,1.31-3.6.77-.93,1.96-1.45,3.16-1.51,1.22-.09,2.53.2,3.47,1.02.87.72,1.35,1.79,1.57,2.88.25,1.27.25,2.59.04,3.86Z"/>
      <path class="cls-1" d="m36.15,36.23c10.96,0,21.91,0,32.87,0,0,10.96,0,21.91,0,32.87h-32.87v-32.87h0Z"/>
      <path class="cls-1" d="m72.38,36.23c10.96,0,21.91,0,32.87,0v32.87h-32.87c0-10.96,0-21.91,0-32.87h0Z"/>
    </g>
  </g>
</svg>