<?xml version="1.0" encoding="UTF-8"?>
<svg id="Layer_2" data-name="Layer 2" xmlns="http://www.w3.org/2000/svg" viewBox="0 0 228.59 64.89">
  <defs>
    <style>
      .cls-1 {
        fill: #b7b7b7;
      }
    </style>
  </defs>
  <g id="Layer_1-2" data-name="Layer 1">
    <g>
      <path class="cls-1" d="m68.06,22.19c-.08.09-.1.2-.1.32-.05.03-.08.08-.07.15-.12.21-.19.44-.24.68-.04.02-.05.05-.03.08-.08.09-.1.2-.1.32-.05.03-.08.08-.07.15-.12.21-.19.44-.24.68-.04.02-.05.05-.03.08-.08.09-.1.2-.1.32-.05.03-.08.08-.07.15-.51,1.39-1.03,2.79-1.54,4.18-1.45,3.96-2.89,7.93-4.33,11.89-.08.21-.18.41-.2.64-.05.03-.08.08-.07.15-.15.35-.31.7-.37,1.08-.05.03-.08.08-.07.15-.15.35-.31.7-.37,1.08-.05.03-.08.08-.07.15-.22.59-.47,1.17-.66,1.77-.34,1.07-1,1.84-2.04,2.28-.09-.02-.16.02-.23.08-.27-.03-.51.12-.78.13-.04,0-.07,0-.11,0-.15,0-.3-.02-.44-.02-5.61,0-11.21,0-16.82,0-.09,0-.19,0-.28.01-.05-.03-.11-.06-.16-.1.74-.11,1.36-.45,1.84-1.04.05-.01.08-.05.09-.1,0,0,.02-.02.02-.02.05,0,.07-.03.07-.08.46-.58.64-1.29.88-1.97,1.62-4.43,3.25-8.85,4.84-13.29.26-.72.5-1.46.76-2.17.24-.68.52-1.36.77-2.05.34-.96.7-1.92,1.03-2.88.19-.56.42-1.12.63-1.68.24-.65.47-1.31.71-1.96.19-.52.39-1.06.59-1.58.26-.68.49-1.38.74-2.07.19-.52.38-1.06.59-1.58.26-.68.51-1.37.74-2.07.17-.51.37-1.02.57-1.52.27-.66.49-1.35.73-2.02.17-.45.34-.91.51-1.36.24-.67.48-1.35.72-2.02.2-.54.4-1.08.6-1.63.25-.69.49-1.38.75-2.07.36-.94.57-1.94,1.04-2.84.09-.18.13-.38.2-.58,3.44,0,6.88,0,10.32,0,2.64,0,5.28,0,7.92,0-.3.86-.6,1.71-.9,2.57-.02.07-.04.14-.05.21-.04.02-.05.05-.03.08-.08.09-.1.2-.1.32-.05.03-.08.08-.07.15-.12.21-.19.44-.24.68-.04.02-.05.05-.03.08-.57,1.55-1.15,3.1-1.72,4.65-1.45,3.98-2.9,7.96-4.35,11.94-.07.19-.17.37-.17.58-.05.03-.08.08-.07.15-.12.21-.19.44-.24.68-.04.02-.05.05-.03.08Z"/>
      <path class="cls-1" d="m18.14,64.87c-5.85,0-11.7,0-17.55,0-.21,0-.46.1-.59-.18.25-.95.67-1.84,1.01-2.76,2.61-7.15,5.22-14.31,7.82-21.47.9-2.48,1.81-4.96,2.71-7.44.31-.86.63-1.71.94-2.57.3-.82.64-1.63.88-2.47.17-.6.41-1.18.62-1.75.21-.57.43-1.16.64-1.74.24-.65.47-1.31.7-1.96.3-.86.64-1.71.98-2.56.18-.46.36-.92.5-1.39.39-1.31,1.3-2.02,2.59-2.31.07,0,.13,0,.2,0,.2,0,.41.02.61.02,5.71,0,11.41,0,17.12,0l-.06.11s-.09.02-.13.03c-.08-.01-.14.02-.2.08-.31.09-.58.25-.81.48-.05,0-.08.03-.08.07-.41.31-.7.72-.87,1.19-.72,1.92-1.45,3.85-2.14,5.78-2.53,7.09-5.13,14.16-7.7,21.23-2.02,5.57-4.05,11.14-6.09,16.7-.35.97-.66,1.96-1.11,2.89Z"/>
      <path class="cls-1" d="m101.35,41.41c0-.2.02-.41.02-.61,0-7.33,0-14.66,0-22,0-.2.01-.41.02-.61.06-.01.08-.05.09-.1,0,0,0-.04,0-.04,1.56.03,3.13.03,4.69,0,0,0,0,.04,0,.04,0,.05.03.09.09.1,0,.19.02.37.02.56,0,9.75,0,19.49,0,29.24,0,.19-.02.37-.02.56-.8,0-1.6,0-2.4,0-1.47,0-2.94.01-4.41.02-.49-.85-.99-1.69-1.48-2.54-1.93-3.36-3.85-6.73-5.78-10.09-2.04-3.56-4.08-7.13-6.13-10.69-.05-.09-.13-.18-.19-.27-.02-.14-.07-.25-.2-.31-.07.1-.05.21-.02.31,0,.2-.02.41-.02.61,0,7.44,0,14.88,0,22.32,0,.2-.02.41-.02.61-1.59,0-3.17,0-4.76,0-.06-.16-.04-.33-.04-.5,0-9.83,0-19.65,0-29.48,0-.17.01-.33.02-.5,2.23,0,4.47,0,6.7,0,.56.96,1.11,1.91,1.67,2.87.7,1.21,1.39,2.42,2.09,3.63.46.8.93,1.6,1.39,2.4.95,1.64,1.91,3.27,2.86,4.91.81,1.39,1.61,2.79,2.41,4.19,1.03,1.78,2.06,3.56,3.09,5.34.03.05.07.08.11.12,0,.1-.01.24.15.21.12-.02.08-.14.08-.22,0-.03-.01-.07-.02-.1Z"/>
      <path class="cls-1" d="m157.24,34.07c.13-.59.32-1.17.5-1.75.41-1.32,1.04-2.5,2.02-3.48.05-.05.09-.12.13-.18.05,0,.08-.03.08-.09h.03s0-.03,0-.03c.07-.08.14-.16.15-.28.11-.01.16-.09.2-.18.05-.03.14.03.17-.07h.03s0-.03,0-.03c.05,0,.08-.03.09-.08,1.1-1.11,2.5-1.7,3.92-2.21.57-.21,1.2-.25,1.8-.37.27.04.52-.04.77-.1.04,0,.08,0,.12,0,.19,0,.38,0,.57.01.85.03,1.7.03,2.56,0h.78c.15,0,.3,0,.45,0,.26.06.51.12.78.1.07.01.15.02.22.03.19.09.38.23.55-.03,0-2.84,0-5.68,0-8.53,0-.17.02-.33.02-.5,1.7,0,3.39,0,5.09,0,0,.2.02.41.02.61,0,10.38,0,20.75,0,31.13v.61c-.21.01-.38.03-.55.04-.14-.05-.28,0-.43,0-.17-.04-.32,0-.46.08-.07,0-.15.02-.22.02-.2-.04-.38,0-.56.09-.11,0-.22.02-.33.03-.2-.04-.39,0-.57.08-.11,0-.22.02-.33.02-.2-.03-.39-.03-.57.08,0,0,0,.02,0,.02-.11,0-.22,0-.33,0-.3-.03-.6-.01-.89.09-.15,0-.3.02-.45.02-.38-.03-.75-.01-1.12.09-.15,0-.3.02-.45.02-.82,0-1.64,0-2.46,0-.15,0-.3-.02-.45-.02-.25-.11-.51-.12-.78-.09-.11,0-.22,0-.34,0-.11,0-.22,0-.33-.01-.08-.16-.22-.1-.34-.09-.07,0-.15-.01-.22-.02-.08-.15-.21-.11-.34-.09-.49,0-.92-.24-1.36-.42-.07-.03-.13-.05-.21-.05-.06-.08-.13-.11-.23-.09-.11-.05-.23-.09-.34-.14-.05-.08-.12-.11-.22-.1,0,0-.03,0-.03,0-.02-.05-.05-.04-.07,0-.23,0-.38-.22-.61-.22-.08-.06-.03-.23-.19-.21,0,0-.04-.01-.04-.01-.05-.06-.1-.12-.19-.11-.06-.07-.13-.12-.23-.13-.01-.06-.04-.09-.11-.08l-.02-.03s-.03,0-.03,0c-.04-.06-.09-.12-.18-.11-.1-.1-.21-.19-.35-.24-.01-.05-.04-.09-.1-.08v-.03s-.04,0-.04,0c-.04-.07-.09-.12-.17-.13-.02-.06-.06-.1-.13-.11-.01-.06-.04-.09-.1-.08,0,0-.03-.02-.03-.02-.1-.08-.2-.16-.29-.24-.3-.3-.59-.59-.89-.89-.12-.14-.23-.28-.35-.42-.06-.15-.17-.25-.27-.36,0-.05-.02-.07-.06-.08,0,0-.01-.02-.01-.02,0-.07-.03-.1-.09-.11-.03-.04-.06-.08-.08-.13,0,0,0-.04,0-.04l-.04-.02s-.02-.03-.02-.03c0-.06-.03-.1-.09-.12-.03-.14-.11-.26-.22-.36,0,0,.02-.02.02-.02h-.03s0-.04,0-.04c0,0-.03-.01-.03-.01.01-.15-.15-.11-.2-.2-.19-.49-.38-.99-.57-1.48.02-.1,0-.18-.08-.24-.13-.66-.43-1.28-.54-1.95-.02-.12.13-.19.07-.3,0,0,.02-.03.02-.03l-.03-.02c-.22-1.61-.17-3.22.08-4.83.03-.18.08-.36.06-.55.01,0,.03-.02.03-.02,0-.02,0-.05,0-.07Zm9.57-4.5h0s-.07,0-.1.03c-.18-.07-.29.12-.45.11-.08-.02-.11.02-.12.09h0c-.08.02-.16.04-.21.12-.18.02-.33.11-.46.23-.09-.01-.14.05-.19.11h-.03c-.06,0-.1.03-.12.1-.04.03-.07.05-.11.08h-.04s-.02.05-.02.05h-.03s0,.02,0,.02c-.07,0-.1.02-.11.08-.06,0-.11.04-.12.1-.09,0-.13.07-.17.14h-.03s0,.04,0,.04c-.04,0-.06.02-.06.06-.13.06-.21.16-.28.28-.04,0-.06.02-.06.06h-.04s0,.05,0,.05c-.07.04-.13.08-.13.17-.06.02-.09.06-.1.13-.06.01-.09.05-.09.11l-.02.03c-.07.04-.13.1-.12.19h0c-.06.02-.09.05-.08.12v.03c-.08.05-.14.1-.13.19-.57.87-.81,1.85-.95,2.87-.06.04-.07.1-.04.16-.11.83-.18,1.66-.13,2.5.07,1.23.21,2.44.77,3.58.83,1.72,2.15,2.89,3.88,3.6.32.13.67.26,1.04.24.18.05.35.14.55.09.04,0,.09,0,.13.01.96.18,1.92.14,2.88.01.15,0,.3-.01.45-.02.38.05.74-.01,1.1-.1h.02c.09,0,.12-.02.09-.11,0-.17,0-.33,0-.5,0-4.81,0-9.62,0-14.43,0-.37-.06-.62-.45-.7-.17-.11-.36-.13-.56-.09-.08,0-.15-.01-.23-.02-.25-.1-.51-.13-.78-.09-.15-.01-.29-.02-.44-.03-.47-.21-.97-.07-1.45-.1-.23-.01-.48-.06-.68.1-.08,0-.15.02-.23.03-.19-.02-.39-.04-.56.09v.02c-.15.02-.33-.07-.45.1-.04,0-.07,0-.1.02h-.22s-.08,0-.11,0c-.08-.02-.11.02-.13.08Z"/>
      <path class="cls-1" d="m228.59,25.56c0,10.38,0,20.77,0,31.15-.12.07-.23.15-.35.22-.12-.01-.21.06-.3.12-.05.02-.1.03-.15.05-.04,0-.06.02-.07.06,0,0-.03.01-.03.01-.09-.01-.15.03-.21.1-.25.04-.47.17-.69.28-.04,0-.06.02-.08.06,0,0-.03,0-.03,0-.09-.02-.15.03-.21.1-.25.03-.47.18-.69.28-.04,0-.06.02-.08.06,0,0-.03,0-.03,0-.09-.01-.16.02-.21.1-.25.04-.46.18-.69.28-.04,0-.06.02-.08.06,0,0-.03,0-.03,0-.09-.01-.16.02-.21.1-.32.07-.59.25-.9.36-.04,0-.08-.01-.12-.02,0-1.38-.01-2.75-.02-4.13,0-1.9,0-3.79-.01-5.69.03-.09-.02-.12-.1-.12-.23-.02-.45-.01-.65.1-.11,0-.22.02-.33.02-.27-.03-.53,0-.78.09l-.45.02c-.86,0-1.72,0-2.58,0-.15,0-.3-.01-.45-.02-.21-.09-.44-.12-.67-.09-.15,0-.29-.05-.44,0-.07,0-.15-.01-.22-.02-.08-.15-.22-.11-.34-.09-.07,0-.15-.01-.22-.02-.05-.11-.13-.11-.23-.09-.04,0-.08-.01-.12-.02-.13-.1-.28-.13-.44-.1-.54-.15-1.08-.32-1.63-.46-.14-.04-.2-.14-.3-.21-.16-.12-.35-.2-.54-.24-.05-.07-.11-.11-.2-.1,0,0-.02,0-.02,0-.05-.08-.11-.12-.2-.11-.09-.13-.22-.13-.35-.11-.09-.06-.03-.24-.2-.23,0,0,0,0,0,0-.01-.06-.05-.09-.11-.08v-.03s-.04,0-.04,0c-.04-.07-.1-.12-.18-.12-.02-.07-.07-.1-.14-.1-.08-.11-.18-.19-.31-.24,0,0,0,0,0,0-.01-.07-.05-.1-.12-.1-.02-.06-.06-.1-.13-.11,0-.06-.04-.09-.1-.09,0,0-.02-.01-.02-.01,0-.06-.04-.09-.1-.09,0,0-.02-.02-.02-.02-.08-.13-.18-.24-.32-.31,0,0-.02-.02-.02-.02,0-.06-.03-.09-.09-.1,0,0-.01-.02-.01-.02,0-.06-.03-.09-.09-.1-.04-.11-.11-.19-.21-.24-.01-.07-.03-.12-.12-.1,0,0-.01,0-.01,0-.04-.06-.07-.13-.11-.19,0,0-.02-.02-.02-.02,0-.06-.03-.09-.09-.11-.12-.25-.29-.47-.46-.68.01-.09-.05-.13-.11-.17v-.03s-.02-.01-.02-.01c0-.06-.02-.09-.08-.11-.04-.17-.14-.32-.24-.45,0-.09-.04-.14-.1-.19,0,0,0-.02,0-.02.02-.09-.04-.15-.1-.2-.04-.21-.15-.4-.25-.59.02-.07-.01-.11-.07-.13-.31-.75-.55-1.52-.72-2.31-.04-.17.12-.3,0-.45.03-.06.02-.12-.04-.15-.16-1.21-.19-2.43-.15-3.65.01-.04.01-.07,0-.11.07-.67.12-1.35.23-2.02.14-.79.4-1.56.72-2.3.53-1.2,1.22-2.29,2.17-3.2.73-.7,1.55-1.25,2.45-1.71,1.09-.55,2.24-.88,3.43-1.11.13-.03.26-.03.39-.04.19.03.38.06.55-.09.04-.01.08-.02.11-.03.27.04.53,0,.78-.09.11,0,.22-.01.34-.02.33,0,.67,0,1,0,.93.03,1.87.03,2.8,0,.37,0,.74,0,1.12,0,.15,0,.3,0,.45.01.41.07.82.13,1.23.08.07,0,.14,0,.21,0,.15.02.31.03.46.05.28.17.59.1.89.09.3,0,.6,0,.89,0,.15,0,.3.02.45.03.2.16.43.08.65.1h.02Zm-11.96,4.24h0c-.1.05-.24,0-.3.12l-.03.02c-.06,0-.11.02-.13.08-.37.12-.7.32-.99.58-.08.01-.2-.05-.21.1-.08.08-.16.16-.24.25-.06,0-.09.03-.09.09l-.02.02c-.14,0-.21.07-.21.21v.02c-.07,0-.1.03-.1.09-.52.5-.86,1.12-1.15,1.78-.18.06-.06.24-.12.34-.18.11-.05.29-.1.43-.05.03-.07.07-.05.12-.05.15-.12.29-.16.45-.11.45-.14.91-.17,1.36-.13,1.7-.07,3.39.5,5.02.5,1.41,1.31,2.57,2.62,3.34.79.46,1.61.84,2.54.87.4.11.79.17,1.2.11h.67c.71.06,1.41.02,2.1-.11h.13c.3.04.59-.04.88-.11.11,0,.23,0,.25-.15.01-.13,0-.26,0-.39,0-4.87,0-9.73,0-14.6,0-.16.03-.33-.04-.49-.27-.18-.57-.11-.87-.1-.26,0-.52-.02-.78-.03-.82-.13-1.65-.16-2.47,0,0,0,0,.03,0,.03-.15,0-.3,0-.45,0-.19-.03-.39-.03-.56.09v.02c-.16,0-.33-.06-.45.1-.38.03-.74.15-1.11.24-.08-.02-.11.02-.12.09Z"/>
      <path class="cls-1" d="m196.87,25.32c.57.16,1.16.27,1.73.45,1.54.48,2.75,1.33,3.51,2.77.48.91.72,1.89.81,2.91,0,.01-.03.03-.02.04,0,.03.03.06.04.09.11.42.08.85.08,1.27,0,5.12,0,10.24,0,15.37,0,.07,0,.15-.01.22-.03.03-.07.07-.1.1-.11,0-.22,0-.33.01-.16-.02-.32-.05-.45.09-.11.01-.22.02-.33.03-.27-.04-.53-.01-.78.09-.15,0-.29.02-.44.03-.31-.04-.6-.02-.9.08-.22.01-.44.02-.66.03-.38-.04-.76-.02-1.13.08-.19,0-.38.01-.56.02-.59-.06-1.18.02-1.77.01-.53,0-1.06-.1-1.59.07-.6,0-1.19,0-1.79,0-.33-.15-.68-.09-1.03-.07-.33,0-.65-.07-.98-.02-.08,0-.16,0-.24-.01-.22-.08-.44-.13-.67-.09-.11,0-.21,0-.32,0,0,0,0-.02,0-.02-.25-.12-.5-.19-.76-.03-.5-.13-.99-.27-1.49-.4-.08-.05-.04-.23-.21-.2-.04-.01-.07-.02-.11-.03-.05-.08-.13-.11-.22-.1-.21-.14-.43-.26-.67-.35-.02-.06-.05-.09-.12-.08,0,0-.03-.02-.03-.02-.04-.07-.1-.12-.18-.12,0,0,0,0,0,0-.01-.06-.05-.09-.11-.09,0,0-.03-.01-.03-.01-.04-.07-.09-.13-.18-.13,0,0,0,0,0,0-.01-.07-.05-.1-.12-.1-.05-.1-.14-.18-.24-.22,0-.06-.04-.09-.1-.1,0,0-.01-.01-.01-.01,0-.06-.04-.09-.1-.1-.08-.14-.19-.26-.32-.36-.04-.14-.13-.23-.24-.32,0,0,0-.01,0-.01.01-.09-.05-.13-.11-.17v-.03s-.02-.01-.02-.01c0-.06-.02-.09-.08-.11-.18-.54-.59-.97-.69-1.55-.06-.34-.21-.66-.2-1.03.01-.4-.07-.81-.09-1.21-.04-.9.03-1.8.2-2.68.04-.02.06-.06.03-.1.17-.64.4-1.25.74-1.83.05-.1.23-.04.23-.2.06-.03.1-.07.11-.14.05,0,.07-.04.07-.09h.03s0-.04,0-.04c.07-.04.03-.1.04-.15.1-.05.18-.12.22-.23.09,0,.11-.06.13-.13.05,0,.07-.02.07-.06.1-.05.19-.11.29-.16.31-.29.72-.44,1.06-.7.08.01.12-.04.16-.09.03.01.05,0,.06-.03.07,0,.12-.03.17-.08h.03s.02-.02.02-.02c.08.02.13-.05.19-.09.13-.05.25-.1.38-.15.05-.02.11-.05.16-.07.06-.02.13-.04.19-.06.06.02.11-.01.16-.05.63-.23,1.28-.35,1.94-.46.56-.04,1.11-.1,1.66-.21.08,0,.16,0,.24-.01.19,0,.37,0,.56.01.3,0,.6.1.89-.07,1.01-.04,2.02-.05,3.03,0,.21.15.44.09.67.06.41,0,.81.06,1.22,0,.11,0,.22,0,.33,0,.09.01.13-.02.1-.11.03-.85.01-1.71-.13-2.55.03-.08-.01-.11-.07-.13-.03-.39-.18-.73-.39-1.05-.13-.19-.3-.32-.54-.42-.38-.16-.69-.47-1.15-.44-.04,0-.08-.06-.13-.1-.14-.12-.31-.1-.48-.09,0,0,0-.02,0-.02-.17-.12-.37-.12-.56-.08-.11-.01-.22-.02-.33-.03-.29-.17-.6-.1-.9-.08-.78,0-1.55,0-2.33,0-.27-.02-.54-.09-.79.08-.14.01-.28.03-.42.04-.24-.04-.46-.02-.68.08-.11,0-.22.02-.33.03-.2-.03-.39-.03-.57.08-.07,0-.15.02-.22.02-.16-.03-.32-.02-.46.08,0,0,0,.02,0,.02-.19.02-.4-.08-.56.1-.04,0-.07,0-.1.02-.19,0-.4-.09-.57.09-.04,0-.07,0-.1.02-.16,0-.33-.07-.45.09-.04,0-.07,0-.11.02-.19-.01-.4-.08-.56.09-.07,0-.15.02-.22.02-.16,0-.33-.07-.45.09-.16.02-.23-.04-.23-.21,0-.46,0-.92,0-1.39,0-.72.01-1.44,0-2.16,0-.25.11-.31.31-.41.22-.11.47-.11.68-.14.61-.08,1.2-.25,1.82-.28.27.05.52-.04.77-.1.04,0,.08,0,.12-.01.27.04.52-.01.78-.09.11,0,.23-.01.34-.02.08,0,.17.02.25.03.37,0,.74.06,1.09-.11,0,0,.01-.02,0-.02.79,0,1.58-.01,2.37-.01.66,0,1.32,0,1.98,0,.15.01.3.02.45.03.17.14.37.1.57.08.15,0,.29,0,.44,0,.11,0,.22.01.34.02.18.09.36.12.56.09Zm-4.69,20.21c.19,0,.37,0,.56-.01.82.04,1.64.04,2.46,0,.63.06,1.25-.04,1.88-.1.04,0,.09,0,.13,0,.32,0,.65.08.94-.12.01-.11.04-.22.04-.33,0-2.26,0-4.52,0-6.79,0-.11-.02-.22-.04-.33-.04-.07-.11-.1-.18-.1-.84-.03-1.68-.08-2.53-.03h-.02c-.2-.17-.43-.11-.64-.11-.57.02-1.14-.1-1.7.09v.02c-.34-.05-.67,0-1,0-.16-.03-.32-.05-.45.08-.63.12-1.26.2-1.88.41-1.82.62-2.57,2-2.28,3.96,0,.01-.03.03-.02.04,0,.03.03.06.04.08.04.19.02.39.09.58.44,1.3,1.77,2.23,3.29,2.41.21.09.42.15.65.1v.02c.21.16.44.12.67.1Z"/>
      <path class="cls-1" d="m114.55,48.25s-.07-.02-.11-.03c-.05-.08-.13-.11-.22-.1,0,0-.01,0-.01,0-.05-.08-.12-.11-.22-.09-.45-.3-.9-.61-1.35-.91,0-.06-.04-.09-.1-.09,0,0-.01-.01-.01-.01,0-.06-.04-.09-.1-.09,0,0-.02-.02-.02-.02,0-.06-.04-.09-.1-.1,0,0-.01-.02-.01-.02,0-.06-.04-.09-.09-.1-.52-.58-.92-1.24-1.18-1.96-.22-.63-.39-1.29-.43-1.97.02-.07.02-.13-.04-.18-.01-.83-.07-1.67.08-2.5.05-.26.08-.51.12-.77.04-.02.06-.05.03-.1.15-.23.1-.52.22-.77.17-.34.27-.7.56-.97.21-.2.39-.45.53-.71.11-.2.27-.36.44-.49,1.16-.85,2.44-1.45,3.85-1.77.28-.06.56-.17.86-.12.26.03.53.04.77-.09.29-.04.59-.09.88-.13.08,0,.16,0,.24-.01.19,0,.37,0,.56.01.26.01.53.09.77-.07,1.05-.05,2.1-.06,3.14,0,.25.16.51.08.77.07.37,0,.74,0,1.12,0,.11,0,.22,0,.33,0,.09.01.13-.02.1-.11.02-.86.01-1.72-.14-2.57.03-.07-.02-.08-.06-.11,0-.04-.01-.07-.02-.11.02-.12.04-.25-.09-.33-.18-.69-.63-1.12-1.3-1.34-.3-.1-.59-.26-.93-.23-.04-.11-.13-.11-.23-.09-.04-.01-.09-.02-.13-.03-.2-.15-.42-.12-.65-.09-.12,0-.24,0-.36-.01-.29-.13-.59-.09-.89-.08-.74-.05-1.47-.02-2.21-.01-.27-.02-.54-.09-.79.08-.11,0-.22.02-.32.03-.27-.03-.53-.03-.78.09-.08,0-.15.01-.23.02-.23-.03-.45-.02-.66.09-.04,0-.09.01-.13.02-.23-.03-.45-.02-.66.1l-.34.03s-.08,0-.11,0c-.08-.02-.11.02-.12.09,0,0,0,0,0,0-.15.01-.29.02-.44.04h-.11c-.08-.03-.11.02-.12.08,0,0,0,0,0,0-.11,0-.22.01-.33.02-.2-.03-.39-.06-.56.1-.08.04-.19,0-.23.12-.07,0-.15.02-.22.02-.16,0-.33-.07-.45.09-.16.02-.23-.05-.23-.22,0-.35,0-.7,0-1.06,0-.8,0-1.59,0-2.39,0-.43,0-.43.44-.47.16.01.32.03.46-.09.15-.02.32,0,.44-.14.23.04.45-.02.67-.1.04,0,.08-.01.11-.02.2.04.38-.03.56-.09.04,0,.08,0,.12-.01.27.05.52-.04.77-.1.04,0,.08,0,.12-.01.27.04.52-.01.78-.1.08,0,.15,0,.23-.01.22,0,.44,0,.66,0,.2.03.39.07.57-.07.08,0,.15-.02.23-.03.79,0,1.58-.01,2.37-.01.66,0,1.32,0,1.98,0,.15.01.3.02.45.03.17.14.37.11.56.08.15,0,.29,0,.44,0,.11,0,.22.01.34.02.18.09.36.12.56.09.04.01.08.02.11.03.12.14.28.12.43.09.86.24,1.74.43,2.53.88,1.25.72,2.07,1.76,2.55,3.1.06.16.04.32.09.48-.06.17.07.23.18.29.01.42.18.83.15,1.25,0,.01-.03.03-.02.04,0,.03.03.06.04.08.11.42.08.85.08,1.27,0,5.09,0,10.17,0,15.26,0,.07,0,.15,0,.22-.01.3-.17.38-.44.3-.15-.17-.3-.11-.45,0-.15.01-.3.03-.44.04-.07,0-.15-.01-.22-.02-.16-.02-.32-.05-.45.08-.11.01-.22.02-.33.03-.34-.03-.67-.02-1,.09l-.56.02c-.41-.03-.82-.01-1.23.09-.19,0-.38.01-.56.02-.62-.05-1.25.02-1.87.02-.5-.03-.99-.1-1.48.06-.6,0-1.19,0-1.79,0-.33-.15-.68-.09-1.03-.07-.26,0-.51-.06-.77,0-.15,0-.3-.02-.44-.03-.22-.08-.44-.13-.67-.09-.11,0-.21,0-.32,0,0,0,0-.02,0-.02-.25-.12-.5-.19-.76-.03-.5-.13-.99-.27-1.49-.4-.08-.05-.04-.24-.21-.2Zm5.14-10.43h-.02c-.23,0-.45-.04-.66.11-.66.1-1.29.3-1.89.6-.66.33-1.18.84-1.42,1.5-.33.93-.35,1.91-.05,2.88.4,1.31,1.83,2.24,3.27,2.4.21.09.42.15.65.1v.02c.21.16.44.11.67.1.19,0,.37,0,.56-.01.82.04,1.64.04,2.46,0,.63.06,1.25-.04,1.88-.1.04,0,.09,0,.13,0,.32,0,.64.08.93-.12.01-.09.03-.18.03-.27,0-2.28,0-4.56,0-6.84,0-.11-.03-.22-.04-.33-.04-.08-.1-.1-.18-.1-.84-.04-1.68-.07-2.52-.04h-.02c-.2-.17-.43-.11-.64-.11-.57.02-1.14-.1-1.7.09v.02c-.34-.05-.67,0-1,0-.16-.03-.32-.05-.45.08Z"/>
      <path class="cls-1" d="m32.67,42.77c-.48-1.34-.96-2.69-1.44-4.03-.15-.42-.32-.83-.47-1.25,0-.07-.02-.11-.07-.15,0-.11-.03-.22-.1-.31.02-.04.01-.06-.03-.08-.05-.24-.13-.47-.24-.68,0-.11-.02-.21-.03-.32.54-1.42,1.07-2.85,1.55-4.29.17-.51.37-1.02.58-1.52.27-.64.48-1.31.72-1.96.21-.58.45-1.15.63-1.73.17-.54.4-1.06.59-1.59.22-.61.47-1.22.66-1.84.22-.7.47-1.39.73-2.07.38-1.02.65-2.11,1.33-3,.27-.35.67-.55,1.07-.74.15-.07.31-.12.47-.17.09.02.16,0,.22-.07.04.01.07,0,.11-.01.04,0,.07,0,.11-.01.08,0,.15,0,.23-.01.07,0,.14,0,.21,0,.08,0,.15,0,.23,0,.04,0,.07,0,.11,0,.7.17,1.33.44,1.82,1,.27.31.49.65.63,1.04,1.14,3.11,2.26,6.23,3.41,9.34.14.38.15.71-.06,1.05-.06,0-.11,0-.07.09-.05.4-.24.76-.38,1.14-.06,0-.11,0-.07.09-.05.4-.24.76-.38,1.14-.06,0-.11,0-.07.09-.13.72-.45,1.37-.69,2.05-.59,1.66-1.2,3.31-1.81,4.97-.04.12-.07.25-.11.37,0,0-.03.03-.03.03v.04c-.17.38-.32.76-.41,1.17,0,0-.03.03-.03.03v.04c-.17.38-.32.76-.41,1.17,0,0-.03.03-.03.03v.04c-.13.29-.26.58-.31.91-.05.03-.07.06-.06.12-.01.05-.03.09-.04.14,0,0-.03.03-.03.03v.04c-.13.29-.26.58-.32.9-.05.03-.07.07-.06.12-.01.05-.03.09-.04.14,0,0-.03.03-.03.03v.04c-.13.29-.26.58-.31.9-.05.03-.07.07-.06.12-.01.05-.03.09-.04.14,0,0-.03.03-.03.03v.04c-.18.34-.27.72-.49,1.04-.54.75-1.25,1.24-2.19,1.35-.28,0-.56,0-.84,0-.09,0-.18,0-.26-.01-.09-.08-.2-.12-.32-.1,0,0-.02,0-.02,0-.05-.06-.12-.1-.2-.09-.92-.42-1.46-1.16-1.75-2.1-.03-.1-.09-.2-.13-.3,0,0,.01-.04.01-.04l-.03-.03c-.09-.41-.25-.79-.42-1.17,0,0,.01-.04.01-.04l-.03-.03c-.09-.41-.25-.79-.43-1.17,0,0,.01-.04.01-.04,0,0-.03-.03-.03-.03Z"/>
      <path class="cls-1" d="m137.67,36.73c-.37-.19-.64-.51-.93-.79-.04-.12-.04-.27-.19-.32-.04-.14-.14-.25-.24-.35,0-.07-.03-.11-.09-.13-.01-.03-.03-.06-.04-.1,0-.06,0-.09-.08-.08-.31-.67-.62-1.32-.6-2.1.01-.59-.03-1.18.02-1.77.16-1.99,1.13-3.46,2.8-4.52.69-.44,1.49-.64,2.21-1,.46.09.82-.29,1.26-.25.2.04.38,0,.55-.09.04,0,.08,0,.12-.01.3.05.59-.03.89-.1.12-.01.23-.02.35-.03.07,0,.14,0,.21,0,1.05,0,2.09,0,3.14.01.15,0,.3.01.45.02.3.07.59.13.9.08h.05s.05,0,.05,0c.12.01.23.02.35.04.22.07.44.12.67.1.11,0,.23.01.34.02.18.07.36.12.55.1.11,0,.22.01.34.02.17.09.36.13.56.1.07,0,.15.01.22.02.14.08.29.12.45.09.18.05.37.09.55.14.03.03.07.07.1.1,0,1.32.06,2.65-.03,3.97v.02c-.1,0-.19.02-.28.03-.04-.12-.13-.11-.23-.09,0,0-.01-.02-.01-.02-.16-.11-.34-.14-.53-.09-.39.04-.74-.18-1.13-.13-.08-.15-.21-.1-.34-.09-.04-.01-.08-.02-.13-.04-.12-.14-.28-.11-.43-.09-.07,0-.15,0-.22.01-.04-.01-.09-.02-.13-.04-.13-.13-.29-.1-.45-.08-.15,0-.3-.02-.44-.03-.25-.12-.51-.12-.77-.09-.22,0-.44-.02-.66-.03-.24-.19-.53-.1-.79-.1-.45,0-.91-.1-1.34.1-.11,0-.22.02-.33.03-.23-.03-.46-.03-.67.09-.11.01-.22.02-.34.03-.44.14-.88.28-1.32.42-.54.18-.96.54-1.25,1.01-.49.77-.32,1.86.46,2.41.49.35,1.02.64,1.59.81.69.21,1.39.38,2.09.56.14.04.3,0,.44.01.06.06.12.09.2.07.25.15.52.18.8.15.06.06.12.09.2.07.79.29,1.63.4,2.42.71.44.17.89.3,1.33.44.11.11.26.16.4.2l.02.03s.03,0,.03,0c.04.05.09.11.17.09.31.19.62.39.93.58,0,.05.03.07.08.07,0,.04.03.05.07.05,0,0,0,.03,0,.03h.02c.3.29.59.58.89.88,0,0,0,.03,0,.03h.03s0,.06.04.06c0,.05.02.08.07.09.39.63.71,1.28.82,2.02.03.03.06.06.09.09.02.08.03.16.05.25-.04.06-.02.1.03.14.08.79.04,1.58,0,2.37-.06.04-.08.1-.05.17-.19.66-.38,1.31-.7,1.93-.03.07-.06.13-.09.2,0,0-.01.03-.01.03-.06.05-.12.1-.12.19,0,0,0,0,0,0-.06.02-.09.05-.08.11h-.03s0,.04,0,.04c0,0-.04.01-.04.01v.04c-.09.06-.15.15-.19.25-.06.01-.09.04-.09.1,0,0-.02.02-.02.02-.05,0-.08.03-.08.08-.2.2-.4.41-.6.61-.04,0-.07.02-.07.07h-.03s0,.02,0,.02c-.06,0-.09.03-.1.09-.07,0-.11.04-.14.11-.09,0-.13.06-.17.12h-.03s-.01.03-.01.03c-.06,0-.09.03-.1.08,0,0-.02,0-.02,0-.07,0-.11.03-.13.09-.03.02-.07.04-.1.05-.06,0-.08.02-.09.07,0,0-.02,0-.02,0-.09,0-.14.04-.18.11h-.03s-.01.02-.01.02c-.06-.01-.1.02-.12.08-.37.09-.65.36-1,.48-.1-.03-.16.02-.22.09-.26-.02-.47.08-.68.21-.11.03-.24.03-.32.13-.36,0-.69.07-1.01.24-.07,0-.15,0-.22,0-.12-.01-.26-.09-.35.07-.11.01-.21.02-.32.04-.16-.03-.32-.04-.46.08,0,0,0,.03,0,.03-.15,0-.29,0-.44.01-.25,0-.5.01-.75.02-.28-.05-.55-.09-.82.06-.3,0-.59,0-.89,0-.04-.06-.08-.06-.12,0-.07,0-.15,0-.22,0-.18-.14-.38-.08-.58-.06-.33,0-.66-.07-.99-.01-.15,0-.3-.01-.45-.02-.25-.1-.52-.13-.79-.09-.11,0-.22-.02-.33-.03-.21-.1-.44-.12-.67-.09-.11,0-.22,0-.33,0,0,0,0-.03,0-.03-.14-.12-.3-.11-.46-.08-.11,0-.22,0-.33,0,0,0,0-.03,0-.02-.1-.1-.22-.11-.35-.08-.11,0-.21,0-.32-.01,0,0,0-.03,0-.03-.1-.1-.22-.1-.35-.07-.11,0-.22,0-.32,0-.07,0-.15-.01-.22-.02-.08-.15-.21-.11-.34-.09-.17-.04-.41.06-.4-.29.02-1.31.01-2.63.02-3.94,0-.03.03-.06.04-.09.91.12,1.79.38,2.69.52.41.06.82.15,1.23.21.22.05.43.14.66.1.04,0,.08,0,.12.01.25.07.5.14.77.1.04,0,.07.02.11.03.21.14.45.11.68.08.89.01,1.78.1,2.66-.09.08,0,.15-.01.23-.02.23.05.44-.02.66-.1.04,0,.09-.02.13-.03.09.02.18.04.22-.07.11,0,.23,0,.34-.05.08.02.15-.01.2-.07.1,0,.18,0,.26-.07.07.03.11-.01.15-.05.15.01.26-.08.39-.14.08.02.12-.04.17-.09.52-.13.83-.55,1.17-.91.07.01.09-.03.08-.09h.03s0-.04,0-.04c0,0,.03-.01.03-.01l-.02-.02c.06-.04.1-.1.1-.18.05-.05.11-.1.09-.19.01-.04.02-.07.04-.11.05-.03.06-.07.03-.12.1-.29.1-.58.02-.88.03-.06.02-.1-.06-.11-.2-.15,0-.44-.21-.58,0-.07-.01-.12-.1-.12,0,0,0,0,0,0-.01-.08-.03-.17-.13-.2,0,0,0,0,0,0,0-.07-.04-.1-.1-.11,0,0,0,0,0,0,0-.06-.04-.1-.11-.1,0,0,0,0,0,0,0-.06-.04-.1-.11-.09,0,0-.04-.01-.04-.01-.04-.07-.08-.12-.17-.12,0,0-.01,0-.01,0-.04-.09-.11-.15-.21-.1-.13,0-.22-.15-.36-.12-.08-.06-.04-.23-.2-.2l-.02-.02s-.03.01-.03.01c-.08-.07-.17-.14-.29-.1-.37-.08-.74-.17-1.11-.25-.07-.25-.26-.24-.46-.21-.07,0-.14,0-.22,0-.08-.15-.22-.11-.34-.09-.07,0-.15-.01-.22-.02-.08-.15-.21-.11-.34-.09-.07,0-.15-.01-.22-.02-.08-.15-.21-.11-.34-.09-.07,0-.15-.01-.22-.02-.08-.15-.21-.11-.34-.11,0,0-.02,0-.02,0-.13-.1-.28-.13-.43-.09-.25-.04-.51,0-.72-.2-.09-.09-.28-.14-.4-.13-.55.03-.98-.28-1.45-.47-.06-.08-.13-.11-.22-.09,0,0-.03,0-.03,0-.02-.05-.05-.04-.07,0-.06,0-.11,0-.17,0-.07-.05-.03-.22-.18-.2-.39-.26-.86-.32-1.25-.59-.04-.09-.13-.14-.22-.18v-.03s0-.02,0-.02c.02-.08-.03-.1-.09-.1Z"/>
    </g>
  </g>
</svg>