<svg width="44" height="39" viewBox="0 0 44 39" fill="none" xmlns="http://www.w3.org/2000/svg">
<path d="M39.5917 22.7087C39.782 21.665 39.8824 20.5948 39.8824 19.4984C39.8824 9.49187 31.5329 1.34245 21.1038 1.00989V37.9868C22.4083 37.944 23.6782 37.7827 24.9066 37.5061" stroke="#FFC314" stroke-miterlimit="10"/>
<path d="M20.4394 1.00329C9.70242 1.00329 1 9.28442 1 19.5016C1 29.7189 9.70242 38 20.4394 38C20.6609 38 20.8824 37.9967 21.1003 37.9868V1.01317C20.8824 1.00659 20.6609 1 20.4394 1V1.00329Z" stroke="#FFC314" stroke-miterlimit="10"/>
<path d="M21.6367 22.014C23.0948 22.014 24.2768 20.8892 24.2768 19.5017C24.2768 18.1142 23.0948 16.9893 21.6367 16.9893C20.1786 16.9893 18.9965 18.1142 18.9965 19.5017C18.9965 20.8892 20.1786 22.014 21.6367 22.014Z" fill="#FFC314"/>
<path d="M20.91 18.392L33.5744 16.0575L34.7647 16.5218L33.7128 17.4635L20.91 20.9208V18.392Z" fill="#FFC314"/>
<path d="M27.1176 7.13432L28.519 5.23773" stroke="#FFC314" stroke-miterlimit="10"/>
<path d="M33.2906 12.2742L35.5571 11.4115" stroke="#FFC314" stroke-miterlimit="10"/>
<path d="M35.6505 19.528H38.1419" stroke="#FFC314" stroke-miterlimit="10"/>
<path d="M19.135 37.9835C14.7751 36.2252 11.4948 28.6224 11.4948 19.5082C11.4948 10.3941 14.7682 2.8077 19.1211 1.03952" stroke="#FFC314" stroke-miterlimit="10"/>
<path d="M21.0727 14.0456C13.6644 14.0456 7.48443 10.9439 6.04498 6.81818" stroke="#FFC314" stroke-miterlimit="10"/>
<path d="M6.04498 32.1621C7.47405 28.0297 13.6609 24.9214 21.0761 24.9214" stroke="#FFC314" stroke-miterlimit="10"/>
<path d="M1 19.5016H17.2526" stroke="#FFC314" stroke-miterlimit="10"/>
<path d="M40.7924 26.3175H29.1107V33.9105H40.7924V26.3175Z" stroke="white" stroke-miterlimit="10"/>
<path d="M25.2699 34.4439H44" stroke="white" stroke-miterlimit="10"/>
</svg>
