<?xml version="1.0" encoding="UTF-8"?>
<svg id="Layer_2" data-name="Layer 2" xmlns="http://www.w3.org/2000/svg" viewBox="0 0 244.53 31.78">
  <defs>
    <style>
      .cls-1 {
        fill: #b7b7b7;
      }
    </style>
  </defs>
  <g id="Layer_1-2" data-name="Layer 1">
    <path class="cls-1" d="m105.8,20.66h16.13l-8.52-13.76-15.66,24.85h-7.12L109.67,1.94c1.44-2.06,4.27-2.56,6.32-1.12.42.29.79.66,1.09,1.07l19.1,29.86h-7.12l-3.35-5.56h-16.32l-3.56-5.53m74,5.53V.3h-6.05v28.45c0,.8.32,1.56.9,2.12.58.59,1.37.92,2.2.92h27.51l3.59-5.56h-28.18m-100.04-4.66c5.87,0,10.64-4.76,10.64-10.64S85.63.3,79.75.3h-26.46v31.45h6.04V5.87h20.04c2.81,0,5.09,2.28,5.09,5.09s-2.28,5.09-5.09,5.09h-17.05l18.05,15.7h8.77l-12.13-10.18h2.72m-63.62,10.18h18.28c8.68-.23,15.54-7.45,15.31-16.13-.22-8.37-6.95-15.09-15.31-15.31h-18.28C7.45.09.23,6.94,0,15.62c-.23,8.68,6.63,15.9,15.31,16.13.27,0,.54,0,.82,0m17.86-5.53h-17.46c-5.62-.18-10.03-4.88-9.85-10.5.17-5.36,4.48-9.67,9.85-9.85h17.46c5.62-.18,10.32,4.23,10.5,9.85.18,5.62-4.23,10.32-9.85,10.5-.22,0-.44,0-.66,0m114.81,5.53h18.66l3.53-5.53h-21.78c-5.62.18-10.32-4.23-10.5-9.85-.18-5.62,4.23-10.32,9.85-10.5.22,0,.44,0,.66,0h17.73l3.58-5.56h-21.71c-8.68-.23-15.9,6.63-16.13,15.31-.23,8.68,6.63,15.9,15.31,16.13.27,0,.54,0,.82,0m73.94-5.53c-4.56,0-8.56-3.02-9.8-7.41h25.84l3.56-5.55h-29.4c1.24-4.39,5.24-7.41,9.8-7.41h17.74l3.55-5.56h-21.69c-8.68.23-15.54,7.45-15.31,16.13.22,8.37,6.95,15.09,15.31,15.31h18.66l3.55-5.53h-21.8"/>
  </g>
</svg>