<?xml version="1.0" encoding="UTF-8"?>
<svg id="Layer_2" data-name="Layer 2" xmlns="http://www.w3.org/2000/svg" viewBox="0 0 245.3 36.77">
  <defs>
    <style>
      .cls-1 {
        fill: #b7b7b7;
      }
    </style>
  </defs>
  <g id="Layer_1-2" data-name="Layer 1">
    <g>
      <path class="cls-1" d="m18.58,29.88c-.03-.12-.07-.24-.07-.36,0-.45-.02-.9.01-1.35.08-1.32.29-2.63.51-3.94.15-.89.24-1.79.05-2.69-.17-.79-.63-1.35-1.4-1.63-.57-.21-1.16-.32-1.77-.35-1-.04-2-.05-3-.07-.33,0-.66,0-.99,0-.34,0-.37.02-.43.36-.13.73-.24,1.45-.36,2.18-.29,1.67-.57,3.34-.87,5-.15.83-.3,1.67-.45,2.5-.02.11-.05.21-.08.34H0C1.73,19.95,3.46,10.05,5.19.13c.13-.01.24-.03.34-.03,4.7,0,9.4-.02,14.1,0,1.89,0,3.78.1,5.64.47,1.1.22,2.18.53,3.18,1.05,1.81.94,2.74,2.43,2.82,4.44.1,2.5-.58,4.76-2.01,6.83-1,1.43-2.37,2.27-3.98,2.8-.09.03-.18.06-.27.09-.02,0-.04.04-.09.08.08.05.14.11.21.15.36.16.74.3,1.09.47.31.15.61.32.89.51.92.61,1.37,1.5,1.54,2.55.2,1.31.08,2.62-.12,3.92-.2,1.31-.43,2.61-.63,3.92-.03.19-.02.38-.03.57-.02.52.1.96.72,1.11-.03.27-.06.53-.09.8h-9.92Zm-5.86-16.89c.19.01.32.03.46.03,1.45-.01,2.9-.03,4.36-.05.89-.01,1.73-.22,2.55-.56.36-.15.67-.37.93-.66.61-.68.82-1.49.78-2.39-.04-.85-.45-1.47-1.21-1.86-.43-.22-.89-.37-1.37-.4-.72-.05-1.45-.07-2.17-.07-.99-.01-1.97,0-2.96,0-.34,0-.34,0-.4.32-.01.07-.03.13-.04.2-.23,1.39-.45,2.78-.68,4.16-.07.4-.14.8-.23,1.28Z"/>
      <path class="cls-1" d="m85.88,10.38c.14-.87.28-1.74.42-2.61.35-.12,7.19-.12,7.56,0-.02.18-.04.37-.07.56-.37,2.12-.75,4.25-1.12,6.37-.37,2.1-.73,4.2-1.09,6.29-.32,1.86-.65,3.71-.99,5.56-.22,1.2-.54,2.37-.94,3.52-.61,1.74-1.6,3.24-3.07,4.37-.97.75-2.11,1.21-3.28,1.58-1.43.45-2.91.63-4.41.68-.75.03-1.51.06-2.26.05-.64-.01-1.28-.08-1.92-.14-1.32-.11-2.6-.4-3.83-.89-1.2-.47-2.21-1.2-2.95-2.26-.56-.81-.82-1.72-.83-2.7,0-.07.02-.13.03-.22h8.56c.03.09.06.18.09.27.14.51.46.88.98,1.02,1.24.34,2.45.26,3.56-.43.72-.44,1.14-1.14,1.4-1.92.34-1,.55-2.03.7-3.07.01-.09,0-.17,0-.33-.14.09-.23.14-.31.2-1.72,1.26-3.63,2-5.79,2.05-1.12.03-2.22-.04-3.29-.38-2.51-.79-4.05-2.52-4.75-5.01-.39-1.38-.43-2.79-.23-4.22.22-1.6.63-3.13,1.27-4.6.98-2.27,2.48-4.1,4.58-5.44,1.49-.95,3.12-1.42,4.87-1.56,1.05-.09,2.08-.05,3.09.26,1.55.48,2.77,1.4,3.69,2.73.07.1.14.19.21.28.04,0,.08-.01.12-.02Zm-1.83,6.52c0-1.06-.16-1.91-.66-2.67-.26-.39-.6-.67-1.04-.83-1.91-.65-3.83-.01-4.8,2.01-.58,1.22-.89,2.55-.87,3.92,0,.73.22,1.39.61,2.01.29.44.69.73,1.19.9,1.53.5,3.25-.09,4.25-1.45.89-1.21,1.23-2.6,1.32-3.89Z"/>
      <path class="cls-1" d="m114.32,11.69c0-.27.02-.5,0-.73-.05-.46-.09-.93-.22-1.37-.35-1.17-1.2-1.9-2.33-2.24-2.1-.63-3.97-.21-5.58,1.32-1.01.96-1.63,2.15-2.1,3.43-.6,1.68-.93,3.42-1.1,5.19-.08.82-.05,1.64.09,2.45.28,1.6,1.22,2.63,2.77,3.08,1.1.32,2.21.32,3.33.03,1.06-.27,1.86-.9,2.54-1.72.61-.74,1.04-1.57,1.37-2.46.15-.4.16-.41.59-.41,2.67,0,5.35,0,8.02,0,.09,0,.19.01.3.02,0,.09.02.17,0,.24-.67,2.03-1.58,3.92-2.94,5.59-1.75,2.15-3.93,3.7-6.53,4.68-1.35.51-2.75.84-4.19.97-1.02.09-2.04.11-3.08.05-1.36-.08-2.69-.3-3.99-.7-1.69-.52-3.2-1.35-4.46-2.61-1.55-1.54-2.43-3.42-2.79-5.55-.14-.86-.25-1.74-.23-2.61.06-3.03.66-5.94,2.04-8.66,1.74-3.43,4.3-6.08,7.78-7.79,1.9-.93,3.91-1.47,6.03-1.62,2.19-.15,4.35.02,6.47.6,1.05.29,2.05.7,2.95,1.31,1.96,1.32,3.15,3.15,3.68,5.43.28,1.18.28,2.38.32,3.58.01.42-.05.47-.48.47-2.65,0-5.29,0-7.94,0-.09,0-.19-.01-.33-.02Z"/>
      <path class="cls-1" d="m220.9,27c-.11.08-.21.15-.32.23-1.09.84-2.26,1.55-3.58,1.96-1.15.36-2.34.54-3.55.64-.87.07-1.73.07-2.58-.04-1.87-.23-3.54-.87-4.63-2.53-.45-.68-.66-1.43-.69-2.24-.06-1.21.18-2.37.62-3.48.57-1.45,1.63-2.47,2.94-3.27,1.29-.79,2.71-1.24,4.18-1.52,1.13-.21,2.27-.34,3.41-.5,1.35-.19,2.72-.3,4.05-.66.41-.11.81-.26,1.18-.45.55-.28.85-.75.93-1.37.05-.38-.03-.72-.33-.96-.21-.17-.44-.33-.69-.42-1.02-.39-2.07-.42-3.1-.08-.81.27-1.46.77-1.77,1.59-.11.28-.26.33-.52.33-2.45,0-4.91,0-7.36,0-.12,0-.24-.02-.39-.03,0-.14-.02-.26,0-.38.51-2.25,1.74-3.95,3.8-5.03,1.53-.81,3.18-1.25,4.88-1.49,1.67-.24,3.35-.35,5.04-.3,1.72.05,3.45.15,5.12.64.79.23,1.54.55,2.21,1.05.9.66,1.38,1.57,1.57,2.65.18,1.06.14,2.13-.04,3.18-.57,3.42-1.17,6.83-1.75,10.25-.1.61-.21,1.21-.29,1.82-.11.79-.05,1.53.57,2.13.18.17.15.4.14.62q-.02.59-.59.59c-2.56,0-5.13,0-7.69,0-.59,0-.58,0-.59-.59-.01-.76-.04-1.52-.07-2.28-.03-.02-.07-.03-.1-.05Zm.9-7.33c-.17.06-.29.1-.42.14-.7.2-1.39.4-2.09.58-.7.18-1.41.32-2.12.49-.6.15-1.15.43-1.66.78-.54.37-.83.9-.93,1.53-.11.72.34,1.4,1.12,1.66.63.21,1.28.28,1.94.18,1.16-.17,2.14-.63,2.88-1.57.79-1.01,1.13-2.2,1.32-3.44.02-.1-.01-.21-.03-.36Z"/>
      <path class="cls-1" d="m50.04,29.88h-8.59c1.25-7.22,2.49-14.41,3.74-21.63h7.84c-.12,1.09-.36,2.13-.52,3.2.22.03.29-.13.39-.22.69-.69,1.42-1.32,2.21-1.9,1.72-1.25,3.66-1.75,5.76-1.7.87.02,1.72.11,2.56.33,2.11.56,3.44,1.9,3.95,4.02.24.99.3,1.99.23,3.01-.09,1.41-.36,2.79-.6,4.17-.31,1.79-.61,3.58-.92,5.37-.28,1.63-.56,3.26-.84,4.88-.03.15-.07.29-.1.46h-8.61c.02-.13.03-.25.05-.36.3-1.69.61-3.39.91-5.08.35-1.98.7-3.95,1.04-5.93.13-.73.19-1.46.04-2.2-.04-.17-.08-.35-.13-.51-.27-.81-.83-1.26-1.67-1.37-.72-.1-1.42-.03-2.11.19-1.02.34-1.64,1.09-2.06,2.05-.4.92-.56,1.91-.73,2.89-.32,1.84-.64,3.68-.96,5.53-.26,1.48-.51,2.96-.77,4.44-.02.12-.05.24-.08.37Z"/>
      <path class="cls-1" d="m148.16,29.83c.08-.48.16-.96.24-1.44.3-1.72.59-3.44.89-5.16.46-2.63.92-5.27,1.38-7.9.39-2.24.78-4.49,1.16-6.74.06-.35.07-.37.41-.37,2.37,0,4.74,0,7.11,0,.09,0,.18.02.33.05-.18,1.08-.36,2.13-.55,3.2.22.06.3-.09.4-.18.44-.41.87-.84,1.33-1.22,1.15-.97,2.4-1.77,3.89-2.13,1.22-.3,2.46-.4,3.71-.24.6.08,1.2.15,1.78.31,2.08.58,3.32,1.97,3.82,4.04.29,1.21.32,2.44.13,3.66-.35,2.35-.77,4.69-1.17,7.03-.38,2.26-.78,4.52-1.17,6.78-.06.37-.07.37-.45.37-2.59,0-5.18,0-7.77,0-.11,0-.21-.02-.35-.03,0-.13-.02-.23,0-.34.45-2.55.9-5.11,1.35-7.66.22-1.26.45-2.53.64-3.79.1-.66.12-1.33-.03-2-.22-.95-.84-1.52-1.79-1.67-.77-.12-1.53-.03-2.26.23-.94.34-1.51,1.05-1.92,1.92-.33.71-.52,1.46-.66,2.23-.38,2.18-.75,4.36-1.13,6.53-.23,1.34-.46,2.69-.69,4.03-.03.16-.06.32-.1.46-.34.09-8.15.1-8.54,0Z"/>
      <path class="cls-1" d="m148.65,20.38h-.6c-5.13,0-10.25,0-15.38,0-.61,0-.63,0-.63.61,0,.37-.02.75.06,1.1.29,1.3,1.18,2.09,2.42,2.43,1.81.51,3.35-.02,4.57-1.44.15-.18.3-.28.55-.28,2.52,0,5.04,0,7.57,0,.07,0,.13.01.26.03-.08.17-.14.32-.21.46-1.2,2.33-3.09,3.94-5.43,5.06-1.47.7-3.02,1.11-4.64,1.33-1.06.14-2.12.23-3.19.22-1.85-.02-3.66-.31-5.36-1.07-2.75-1.24-4.43-3.33-4.92-6.32-.19-1.15-.12-2.31.04-3.47.2-1.46.62-2.86,1.28-4.17,1.35-2.7,3.4-4.73,6.08-6.14,1.51-.79,3.11-1.31,4.78-1.54.85-.12,1.72-.2,2.58-.17,2.02.06,3.97.41,5.77,1.4,2.37,1.3,3.77,3.32,4.38,5.91.36,1.53.41,3.08.2,4.64-.06.46-.13.91-.2,1.43Zm-7.84-4.37c.03-.26.07-.46.07-.66-.04-1.53-.93-2.54-2.26-2.99-.6-.21-1.23-.2-1.86-.11-1.87.27-3.32,1.37-3.83,3.38-.03.1-.03.2-.05.38,2.65,0,5.26,0,7.93,0Z"/>
      <path class="cls-1" d="m178.06,12.99h-2.98c-.01-.11-.04-.18-.03-.24.2-1.18.4-2.37.6-3.55.04-.26.09-.51.12-.77.05-.37.04-.37.43-.37.52,0,1.04,0,1.56,0,.41,0,.82,0,1.27,0,.1-.5.19-.97.27-1.43.29-1.62.58-3.25.87-4.87.08-.42.09-.42.49-.42,2.52,0,5.04,0,7.56,0,.12,0,.24.02.42.03-.15,1.14-.38,2.22-.57,3.32-.19,1.1-.39,2.2-.59,3.35.38.06.72.02,1.05.02.34,0,.69,0,1.03,0,.33,0,.66,0,.99,0,.34,0,.68,0,1.06,0-.01.17,0,.29-.03.4-.23,1.37-.47,2.74-.7,4.12-.06.36,0,.42-.53.42-1.08,0-2.17,0-3.25,0-.13,0-.27.01-.44.02-.06.28-.12.54-.16.81-.38,2.16-.75,4.33-1.13,6.49-.08.46-.16.91-.24,1.37-.01.08-.03.16-.03.24,0,1.02.38,1.5,1.3,1.62.45.06.9.07,1.35.08.34.01.68,0,1.04,0,0,.15.01.26,0,.36-.3,1.8-.61,3.61-.92,5.41-.05.27-.09.31-.38.32-.82.04-1.64.06-2.46.09-.37.02-.74.07-1.11.06-1.16-.02-2.33-.02-3.49-.09-.81-.05-1.6-.21-2.36-.5-1.09-.42-1.72-1.22-1.9-2.37-.11-.71-.08-1.41-.03-2.12.12-1.79.52-3.53.82-5.3.34-2.03.7-4.06,1.05-6.09.02-.12.02-.24.04-.44Z"/>
      <path class="cls-1" d="m245.3.13c-1.74,9.94-3.46,19.83-5.19,29.74h-8.53c.02-.17.02-.33.05-.48.31-1.79.63-3.57.95-5.36.31-1.77.62-3.55.93-5.32.29-1.68.59-3.36.88-5.04.31-1.79.62-3.58.93-5.37.35-1.99.7-3.98,1.05-5.97.11-.63.21-1.26.33-1.89.06-.32.07-.33.4-.33,1.08,0,2.17,0,3.25,0,1.52,0,3.04,0,4.56,0,.11,0,.21.01.39.03Z"/>
      <path class="cls-1" d="m200.58,12.59c.3-.07.34-.26.42-.4.5-.85,1.06-1.66,1.78-2.35,1.24-1.2,2.71-1.93,4.43-2.13.64-.08,1.28-.11,1.92,0,.06.01.12.04.22.07-.51,2.83-1.01,5.64-1.52,8.5-.25-.04-.46-.08-.67-.12-2.02-.37-3.84.04-5.4,1.41-.54.47-.89,1.11-1.19,1.75-.47.98-.73,2.03-.91,3.09-.42,2.39-.83,4.79-1.24,7.18-.05.27-.06.29-.39.29-1,0-2,0-3,0-1.56,0-3.12,0-4.69,0-.15,0-.29,0-.4,0-.05-.06-.06-.07-.07-.08,0-.01-.02-.02-.02-.04,0-.04-.01-.08,0-.12,1.21-7.03,2.43-14.06,3.64-21.1.02-.09.05-.18.08-.27.31-.09,7.3-.1,7.72,0-.19,1.41-.49,2.82-.71,4.3Z"/>
      <path class="cls-1" d="m41.21,12.34c0,.1.03.18.02.25-.83,5.75-1.66,11.51-2.49,17.28h-8.55c.03-.14.05-.27.09-.4.75-2.71,1.51-5.42,2.26-8.13.64-2.33,1.27-4.66,1.91-6.99.16-.58.33-1.16.48-1.74.06-.22.15-.32.39-.31,1.89,0,3.78,0,5.67.01.07,0,.13.02.21.03Z"/>
      <path class="cls-1" d="m39.22,0c1.54.03,3.05.36,4.45,1.12.99.54,1.82,1.25,2.44,2.2.19.3.31.61.17.97-.13.35-.37.57-.75.62-.37.05-.68-.05-.91-.34-.18-.23-.33-.47-.52-.68-.75-.83-1.73-1.28-2.77-1.6-.73-.23-1.5-.33-2.27-.33-1.19,0-2.26.37-3.24,1.02-.08.05-.15.12-.23.17-.52.33-.95.14-1.28-.21-.25-.27-.31-.95.08-1.26.38-.29.76-.58,1.18-.81,1.12-.61,2.33-.84,3.64-.85Z"/>
      <path class="cls-1" d="m39.08,3.78c1.48.06,2.89.5,3.97,1.73.12.14.24.3.32.47.2.4.08.82-.27,1.04-.37.23-.77.17-1.06-.2-.94-1.18-2.19-1.53-3.62-1.37-.45.05-.88.2-1.25.48-.1.07-.21.14-.32.18-.34.14-.69.05-.92-.24-.21-.25-.23-.69-.02-.95.11-.14.25-.25.39-.35.8-.56,1.71-.78,2.78-.8Z"/>
      <path class="cls-1" d="m39.12,10.64c-.99,0-1.64-.31-2.08-1.01-.36-.58-.28-1.35.15-1.87.85-1.02,2.62-1.04,3.5-.05.56.63.57,1.58,0,2.2-.47.52-1.06.74-1.58.72Z"/>
    </g>
  </g>
</svg>