<?xml version="1.0" encoding="UTF-8"?>
<svg id="Layer_1" data-name="Layer 1" xmlns="http://www.w3.org/2000/svg" viewBox="0 0 206.09 180">
  <defs>
    <style>
      .cls-1 {
        stroke: #ffc514;
      }

      .cls-1, .cls-2 {
        fill: none;
        stroke-miterlimit: 10;
        stroke-width: 4px;
      }

      .cls-2 {
        stroke: #fff;
      }
    </style>
  </defs>
  <g>
    <g>
      <path class="cls-1" d="m178.04,100.69c.52-4.04.73-8.17.59-12.38-1.37-42.21-36.69-75.31-78.9-73.95-32.77,1.06-60.06,22.6-69.98,51.93"/>
      <polyline class="cls-1" points="164.38 86.72 177.96 101.88 193.62 86.61"/>
    </g>
    <g>
      <path class="cls-1" d="m28.27,78.11c-.59,4.03-.86,8.16-.79,12.36.7,42.22,35.49,75.89,77.71,75.19,32.79-.54,60.41-21.64,70.8-50.81"/>
      <polyline class="cls-1" points="41.72 92.29 28.38 76.92 12.48 91.94"/>
    </g>
  </g>
  <g>
    <path class="cls-2" d="m131.74,81.39v29.46c0,4.33-3.51,7.83-7.83,7.83h-41.71c-4.33,0-7.83-3.51-7.83-7.83v-41.71c0-4.33,3.51-7.83,7.83-7.83h29.46"/>
    <polyline class="cls-2" points="86.53 87.41 99.5 98.43 128.69 65.35"/>
  </g>
</svg>