<?xml version="1.0" encoding="UTF-8"?>
<svg id="Layer_2" data-name="Layer 2" xmlns="http://www.w3.org/2000/svg" viewBox="0 0 32.92 32.92">
  <defs>
    <style>
      .cls-1 {
        fill: #cacccc;
      }
    </style>
  </defs>
  <g id="Layer_1-2" data-name="Layer 1">
    <path class="cls-1" d="M29.83,32.92c-.84-.16-1.45-.67-2.03-1.26-2.16-2.18-4.33-4.34-6.5-6.5-.48-.48-.93-.98-1.07-1.7-3.61,2.34-7.46,2.93-11.53,1.59-2.78-.92-5-2.63-6.58-5.09C-1.37,14.54-.47,7.6,4.24,3.3,8.83-.88,15.88-1.12,20.84,2.75c1.73,1.35,3.02,3.06,3.87,5.08,.86,2.03,1.17,4.15,.95,6.35-.22,2.18-.97,4.18-2.23,6.04,1.12,.24,1.73,1.12,2.46,1.84,1.92,1.9,3.82,3.82,5.74,5.72,.6,.59,1.12,1.2,1.29,2.05v.71c-.18,.43-.32,.89-.57,1.28-.41,.65-1.09,.94-1.81,1.1h-.71Zm-7.34-20.05c-.01-5.31-4.32-9.61-9.62-9.6-5.31,0-9.61,4.31-9.6,9.61,0,5.31,4.32,9.63,9.61,9.61,5.3-.02,9.62-4.34,9.61-9.62Z"/>
  </g>
</svg>