<svg width="76" height="39" viewBox="0 0 76 39" fill="none" xmlns="http://www.w3.org/2000/svg">
<path d="M75.1913 1H33.5034V27.7838H46.2633L54.2065 38L62.1004 27.7838H75.1913V1Z" stroke="#FFC314" stroke-miterlimit="10"/>
<path d="M25.3903 7.63336H0" stroke="white" stroke-miterlimit="10"/>
<path d="M25.3903 17.0444H5.689" stroke="white" stroke-miterlimit="10"/>
<path d="M25.3903 26.0215H11.1633" stroke="white" stroke-miterlimit="10"/>
<path d="M43.6649 17.7019C44.9345 17.7019 45.9637 16.6726 45.9637 15.4028C45.9637 14.1331 44.9345 13.1037 43.6649 13.1037C42.3952 13.1037 41.366 14.1331 41.366 15.4028C41.366 16.6726 42.3952 17.7019 43.6649 17.7019Z" fill="#FFC314"/>
<path d="M54.2378 18.2655C55.5074 18.2655 56.5367 17.2361 56.5367 15.9664C56.5367 14.6966 55.5074 13.6673 54.2378 13.6673C52.9682 13.6673 51.9389 14.6966 51.9389 15.9664C51.9389 17.2361 52.9682 18.2655 54.2378 18.2655Z" fill="#FFC314"/>
<path d="M64.8107 18.8291C66.0803 18.8291 67.1096 17.7997 67.1096 16.53C67.1096 15.2602 66.0803 14.2309 64.8107 14.2309C63.5411 14.2309 62.5119 15.2602 62.5119 16.53C62.5119 17.7997 63.5411 18.8291 64.8107 18.8291Z" fill="#FFC314"/>
</svg>
