<svg width="57" height="39" viewBox="0 0 57 39" fill="none" xmlns="http://www.w3.org/2000/svg">
<path d="M46.3146 15.9705V8.19564C48.0955 7.97258 49.4735 6.4543 49.4735 4.61221C49.4735 2.61542 47.8544 1 45.8612 1C43.8681 1 42.249 2.61902 42.249 4.61221C42.249 5.7887 42.8139 6.82847 43.6846 7.49047L35.773 18.1868L27.3289 7.13069C27.9621 6.47948 28.3542 5.59082 28.3542 4.61221C28.3542 2.61542 26.7352 1 24.742 1C22.7488 1 21.1298 2.61902 21.1298 4.61221C21.1298 5.84267 21.745 6.92561 22.6841 7.58042L15.0711 18.7732L6.67736 7.58042C7.6164 6.92921 8.23522 5.84267 8.23522 4.61221C8.23522 2.61542 6.6162 1 4.62301 1C2.62981 1 1 2.61902 1 4.61221C1 6.60541 2.57944 8.18485 4.54026 8.22083L4.70935 31.6642H34.1935" stroke="#FFC314" stroke-miterlimit="10"/>
<path d="M23.7922 25.807H34.1971" stroke="#FFC314" stroke-miterlimit="10"/>
<path d="M14.0853 25.807H18.3847" stroke="#FFC314" stroke-miterlimit="10"/>
<path d="M46.3865 38C51.6641 38 55.9423 33.7217 55.9423 28.4442C55.9423 23.1667 51.6641 18.8884 46.3865 18.8884C41.109 18.8884 36.8307 23.1667 36.8307 28.4442C36.8307 33.7217 41.109 38 46.3865 38Z" stroke="white" stroke-miterlimit="10"/>
<path d="M41.569 29.9517L45.6993 32.2831L50.0563 24.0872" stroke="white" stroke-miterlimit="10"/>
</svg>
