<?xml version="1.0" encoding="UTF-8"?>
<svg id="Layer_2" data-name="Layer 2" xmlns="http://www.w3.org/2000/svg" viewBox="0 0 217.69 33.08">
  <defs>
    <style>
      .cls-1 {
        fill: #b7b7b7;
      }
    </style>
  </defs>
  <g id="Layer_1-2" data-name="Layer 1">
    <g>
      <path class="cls-1" d="m50.39,0s-.03.04-.07.08c.09.01.17.03.26.03.11,0,.21,0,.32.01.42.03.83.06,1.25.1.27.03.54.09.81.13.04,0,.08.01.13.02.31.02.61.09.91.16.3.07.61.12.91.19.31.08.61.17.91.27.59.19,1.16.45,1.7.76.29.17.57.37.85.56.47.31.84.73,1.23,1.14.29.31.53.66.74,1.03.15.27.31.54.44.82.15.31.28.63.39.96.11.34.19.69.28,1.03.12.43.21.87.27,1.31.02.15.05.3.07.46.05.38.1.76.15,1.14.01.11.02.23.02.34,0,.42.05.83.08,1.24.02.44-.03.88.03,1.31.08.55.05,1.1.06,1.65,0,1.62,0,3.24-.01,4.86-.12.65,0,1.31-.09,1.96-.06.4-.03.8-.07,1.2-.03.29-.05.59-.09.88-.05.38-.1.75-.17,1.12-.06.32-.15.63-.23.94-.06.24-.11.48-.18.71-.09.29-.21.57-.3.85-.15.46-.37.89-.62,1.3-.17.29-.35.59-.59.84-.15.16-.27.34-.42.5-.41.46-.91.82-1.42,1.16-.47.32-.99.54-1.5.78-.32.15-.66.26-1,.37-.31.1-.62.18-.93.25-.21.05-.43.07-.64.11-.19.04-.38.08-.57.13-.03,0-.05.02-.08.02-.31.03-.62.07-.92.1-.16.02-.32.06-.48.07-.25.02-.5.02-.76.07-.28.05-.58.02-.87.03-.1,0-.21.03-.31.05-.07.01-.14.02-.21.02-1.84,0-3.67,0-5.51,0-.02,0-.04,0-.06,0-.33-.12-.67-.05-1.01-.08-.36-.03-.73-.08-1.09-.11-.21-.02-.42-.04-.63-.07-.28-.04-.55-.1-.83-.14-.21-.04-.43-.06-.64-.1-.18-.03-.36-.07-.53-.12-.29-.07-.58-.15-.87-.23-.2-.06-.41-.12-.6-.2-.33-.13-.65-.28-.97-.43-.19-.09-.38-.17-.56-.28-.32-.2-.62-.41-.93-.61-.42-.28-.76-.66-1.1-1.03-.24-.26-.43-.56-.63-.84-.3-.41-.5-.88-.71-1.34-.13-.27-.21-.56-.3-.85-.1-.3-.19-.61-.28-.92-.06-.24-.08-.49-.16-.72-.08-.23-.03-.49-.15-.71,0-.01,0-.03,0-.04-.03-.32-.06-.64-.09-.96-.01-.12-.03-.23-.05-.35-.01-.08-.02-.15-.03-.23,0-.16,0-.31,0-.47,0-.21.02-.42-.05-.63-.03-.09-.02-.2-.03-.29,0-.08,0-.17,0-.25-.02-.42.02-.84-.04-1.27-.05-.38-.04-.78-.04-1.16,0-1.6,0-3.2.01-4.79,0-.24.05-.49.07-.73,0-.06,0-.11,0-.17,0-.4,0-.79.01-1.19,0-.16.04-.32.06-.48,0-.08,0-.15.01-.23.01-.33-.03-.66.08-.99.02-.06,0-.13,0-.19.02-.21.05-.42.07-.63,0-.03,0-.07.01-.11.05-.33.11-.67.16-1,.03-.17.06-.33.09-.5.04-.19.09-.38.14-.57.06-.22.12-.45.2-.67.08-.23.16-.45.25-.67.11-.25.21-.51.34-.75.21-.39.44-.77.71-1.13.18-.23.38-.44.57-.65.07-.07.12-.15.18-.23.02-.03.04-.06.07-.08.76-.66,1.58-1.23,2.52-1.61.36-.15.74-.27,1.11-.39.29-.09.57-.18.87-.25.16-.04.33-.06.5-.09.21-.04.42-.09.64-.14.02,0,.04-.01.06-.01.31-.04.63-.07.94-.11.33-.04.67-.1,1-.13.26-.03.52-.02.79-.04.12,0,.24-.02.36-.04.04,0,.07-.04.1-.07,2.24,0,4.48,0,6.72,0Zm-3.48,7.55c-.49,0-.98-.01-1.47,0-.28,0-.56.06-.84.09-.01,0-.03,0-.04.01-.2.05-.39.11-.59.14-.26.05-.51.15-.75.25-.33.13-.59.38-.88.57-.03.02-.06.06-.08.1-.07.09-.14.18-.21.27-.05.06-.1.12-.14.18-.13.25-.27.5-.38.76-.1.22-.17.44-.24.67-.05.18-.07.37-.11.56-.04.23-.12.45-.13.68-.02.53-.14,1.05-.1,1.58,0,.08,0,.17,0,.25-.03.33,0,.66-.07.99-.04.17,0,.35,0,.53,0,.6-.01,1.2,0,1.8.01.6-.02,1.19.05,1.79.07.68.01,1.38.1,2.07.04.33.06.66.11.98.03.19.08.37.13.55.08.28.16.55.27.82.14.34.29.66.52.94.52.65,1.22,1.02,2.02,1.2.2.04.4.08.6.11.35.05.71.13,1.07.13.91-.01,1.82.07,2.73-.05.26-.04.53-.04.8-.08.31-.04.6-.12.9-.2.42-.12.8-.32,1.14-.58.36-.28.63-.65.84-1.05.05-.1.12-.2.15-.3.14-.45.31-.9.39-1.38.06-.38.15-.76.14-1.15,0-.07,0-.14.02-.21.09-.33.05-.66.06-.99,0-.13,0-.27,0-.4.02-.38.08-.76.07-1.14-.02-1.15.06-2.3-.05-3.45-.05-.53-.02-1.07-.03-1.61,0-.06.01-.13,0-.19-.09-.26-.07-.53-.08-.8,0-.06,0-.11-.01-.17-.05-.27-.12-.53-.15-.81-.03-.28-.14-.54-.21-.81-.07-.27-.22-.53-.35-.79-.13-.25-.29-.48-.49-.69-.2-.21-.41-.4-.67-.55-.3-.18-.64-.29-.97-.39-.19-.05-.38-.09-.58-.12-.32-.05-.64-.12-.96-.13-.51-.02-1.02,0-1.53,0Z"/>
      <path class="cls-1" d="m84.5,0s-.05.04-.1.07c.1.01.19.03.28.04.27.01.54,0,.81.03.39.03.77.09,1.15.13.03,0,.06,0,.08.01.33.04.66.06.99.11.24.03.47.09.7.13.28.06.57.12.85.18.67.16,1.3.41,1.88.79.4.26.78.53,1.13.86.51.5.93,1.06,1.24,1.7.22.44.38.89.51,1.36.12.42.21.84.28,1.27.04.25.04.51.09.75.09.42.03.85.09,1.26.08.56.03,1.11.05,1.67,0,.28,0,.29-.28.3-.21,0-.43.01-.64.01-2.3,0-4.61,0-6.91,0-.19,0-.38,0-.57-.01-.18-.01-.25-.09-.27-.26-.01-.14-.03-.28-.02-.42.02-.31-.03-.61-.1-.9-.13-.54-.35-1.05-.83-1.38-.19-.13-.39-.27-.62-.35-.2-.07-.41-.14-.62-.21-.17-.05-.34-.09-.52-.1-.41-.04-.82-.1-1.24-.09-.79.01-1.57-.01-2.36.02-.29.01-.59.03-.87.14-.03,0-.06.02-.08.02-.17-.03-.31.07-.47.1-.14.03-.27.1-.41.16-.33.15-.62.36-.86.64-.16.19-.28.41-.36.66-.14.44-.19.9-.15,1.36.04.45.09.91.31,1.32.25.47.62.82,1.13.99.21.07.42.15.64.22.03,0,.05.01.08.02.2.03.4.07.61.09.58.04,1.17.07,1.76.1.55.03,1.1.03,1.65.1.38.05.76.02,1.14.08.36.06.73.06,1.1.09.27.02.53.05.8.08.33.04.67.09,1,.14.02,0,.04,0,.06,0,.33.04.66.07.99.11.24.03.47.09.7.13.21.04.42.08.62.12.14.03.28.05.41.09.6.15,1.18.33,1.74.6.26.13.51.3.75.47.34.24.67.49.99.76.19.16.35.37.52.55.01.02.02.04.04.05.34.33.58.74.82,1.15.25.41.42.85.56,1.29.09.29.18.58.24.87.05.22.07.46.11.68.05.3.1.61.14.91.02.2.03.41.03.61,0,.83,0,1.65,0,2.48,0,.31-.06.62-.09.92-.02.37-.1.72-.16,1.08-.1.59-.26,1.16-.47,1.72-.15.4-.33.8-.59,1.15-.09.12-.16.25-.24.37-.01.02-.03.05-.04.07-.28.31-.52.66-.85.91-.35.28-.71.54-1.09.79-.53.34-1.11.59-1.67.87-.2.1-.43.14-.65.21-.09.03-.18.06-.28.09-.13.03-.26.05-.39.08-.13.03-.25.08-.38.09-.2.02-.39.09-.59.14-.01,0-.03,0-.04,0-.2.01-.39.04-.58.08-.21.04-.43.05-.64.09-.21.04-.42.06-.63.07-.61.02-1.22.16-1.84.12-.09,0-.18.03-.27.04-.08.01-.15.03-.23.03-1.58,0-3.16,0-4.74,0-.02,0-.04,0-.06,0-.36-.13-.75-.03-1.11-.08-.38-.05-.77-.06-1.16-.1-.23-.03-.46-.04-.69-.07-.28-.03-.57-.09-.85-.14-.04,0-.08,0-.13-.01-.3-.01-.6-.08-.89-.16-.17-.05-.36-.06-.54-.1-.28-.06-.56-.13-.84-.2-.23-.06-.45-.15-.67-.22-.04-.01-.08-.03-.12-.04-.38-.17-.76-.34-1.11-.56-.28-.17-.53-.37-.79-.57-.17-.13-.34-.27-.5-.42-.58-.57-1.01-1.25-1.31-2-.14-.34-.24-.7-.34-1.05-.06-.21-.05-.44-.13-.64-.09-.26-.02-.55-.15-.8-.02-.04-.01-.08-.02-.13-.03-.48-.07-.95-.08-1.43-.01-.48,0-.96,0-1.44,0-.21,0-.42,0-.64,0-.19.03-.22.22-.24.07,0,.14,0,.21,0,2.61,0,5.22,0,7.82,0,0,0,.01,0,.02,0,.34,0,.35.03.37.36.02.39.03.78.1,1.15.06.34.18.68.32,1,.12.27.32.49.57.67.31.23.65.4,1.01.53.18.06.38.1.58.13.3.05.61.09.92.14.06,0,.13,0,.19,0,1.03,0,2.06.01,3.08,0,.33,0,.65-.1.98-.13.26-.02.5-.09.73-.19.44-.17.87-.36,1.17-.74.21-.27.38-.56.44-.9.05-.31.11-.62.16-.93,0-.04,0-.09,0-.13-.02-.16-.05-.32-.06-.48-.03-.49-.21-.91-.48-1.31-.16-.24-.37-.38-.6-.51-.18-.11-.38-.2-.57-.28-.11-.05-.24-.08-.36-.11-.18-.04-.36-.08-.54-.11-.34-.06-.68-.11-1.02-.16-.06,0-.11,0-.17,0-.35-.01-.7,0-1.06-.07-.29-.05-.59-.01-.89-.02-.24,0-.48.02-.71-.07-.06-.02-.14,0-.21,0-.36-.01-.72.02-1.08-.08-.07-.02-.16,0-.23,0-.32-.01-.64.02-.95-.08-.05-.02-.11,0-.17,0-.44-.04-.89-.06-1.33-.11-.36-.04-.72-.1-1.08-.16-.21-.04-.42-.1-.63-.15-.18-.04-.36-.06-.54-.1-.23-.05-.47-.11-.69-.18-.55-.18-1.09-.38-1.6-.66-.26-.15-.51-.3-.76-.46-.38-.26-.75-.54-1.08-.88-.39-.41-.72-.86-.98-1.37-.3-.59-.53-1.21-.68-1.86-.08-.34-.17-.68-.22-1.03-.06-.37-.08-.74-.12-1.11-.01-.12,0-.24,0-.36,0-.12-.03-.24-.04-.35-.02-.38-.05-.76.03-1.14.01-.06.01-.13.02-.19,0-.3,0-.61.01-.91.02-.35.06-.7.15-1.04.02-.06,0-.13.02-.19.05-.24.1-.48.15-.72.03-.16.07-.33.1-.49.03-.12.05-.23.1-.34.16-.42.31-.84.5-1.25.14-.31.34-.6.54-.88.25-.35.51-.68.82-.96.27-.24.56-.45.83-.68.36-.31.78-.53,1.19-.76.2-.11.41-.23.63-.31.31-.12.63-.23.96-.32.31-.09.62-.16.94-.23.23-.05.46-.07.69-.1.37-.05.74-.11,1.1-.16.12-.02.24,0,.36-.02.5-.04,1-.11,1.5-.1.11,0,.24,0,.33-.11C80.42,0,82.46,0,84.5,0Z"/>
      <path class="cls-1" d="m217.69,32.51c-.09.02-.18.05-.27.05-.51,0-1.02.02-1.53.02-2.26,0-4.52,0-6.78,0-.19,0-.38,0-.57-.01-.17,0-.27-.08-.31-.24-.09-.34-.17-.68-.27-1.02-.11-.39-.24-.78-.36-1.17-.08-.28-.15-.57-.24-.85-.09-.32-.19-.63-.28-.95-.11-.36-.2-.73-.31-1.09-.06-.2-.13-.39-.2-.6-.04,0-.1-.01-.15-.01-3.27,0-6.55,0-9.82,0-.11,0-.23,0-.34,0-.16,0-.2.04-.24.18-.11.39-.23.78-.34,1.17-.1.35-.18.7-.28,1.05-.09.32-.21.64-.3.96-.08.26-.14.53-.21.79-.03.1-.06.2-.09.3-.1.33-.21.65-.31.98-.03.11-.05.22-.08.33-.03.12-.11.17-.23.17-.16,0-.31,0-.47,0-2.7,0-5.4,0-8.1,0-.16,0-.31,0-.47-.02-.07,0-.14-.04-.21-.07.14-.46.27-.88.41-1.31.14-.44.28-.88.41-1.32.06-.21.12-.42.18-.63.05-.16.11-.32.16-.48.06-.21.12-.43.18-.65.11-.35.22-.69.32-1.04.06-.21.12-.42.18-.63.14-.45.28-.89.42-1.34.07-.22.12-.45.19-.67.1-.34.21-.67.31-1,.09-.31.18-.62.28-.92.11-.35.22-.69.32-1.04.09-.31.18-.62.27-.93.1-.34.21-.68.32-1.02.07-.21.12-.43.19-.65.05-.16.11-.32.16-.48.06-.21.12-.43.18-.65.11-.35.22-.69.32-1.04.06-.21.12-.42.18-.63.14-.45.28-.89.42-1.34.07-.22.12-.45.19-.67.1-.34.21-.67.31-1,.1-.31.18-.63.28-.94.1-.33.21-.67.31-1,.07-.23.13-.45.2-.68.13-.43.28-.86.41-1.3.1-.31.18-.63.27-.95.1-.33.22-.66.32-1,.07-.22.12-.45.19-.67.1-.34.21-.68.32-1.02.1-.31.18-.63.28-.94.1-.33.21-.67.31-1,.07-.23.13-.46.2-.69.13-.43.27-.85.4-1.28.07-.22.13-.45.19-.67,0-.01,0-.03,0-.04.09-.32.12-.34.45-.35.19,0,.38,0,.57,0,4.03,0,8.06,0,12.1,0,.36,0,.36,0,.47.33.13.41.25.82.38,1.23.1.34.21.67.31,1,.13.44.25.88.38,1.31.06.2.13.39.19.58.11.37.21.74.33,1.11.09.29.19.57.28.86.11.36.21.71.31,1.07.06.2.12.39.18.58.11.34.21.68.32,1.03.1.34.21.67.31,1.01.11.36.2.72.3,1.07.08.28.18.55.26.82.11.37.22.74.33,1.11.09.28.18.56.27.84.11.37.21.74.32,1.11.06.2.13.39.19.58.14.46.27.91.41,1.37.06.2.14.4.2.6.11.36.21.73.32,1.09.09.28.18.56.27.84.11.37.22.74.33,1.11.06.2.13.4.19.6.14.45.27.9.4,1.35.06.2.13.39.19.58.14.46.27.91.41,1.37.06.2.14.4.2.6.11.36.21.73.32,1.09.09.28.18.56.27.84.11.37.21.74.33,1.11.06.2.13.4.19.6.14.45.27.9.4,1.35.05.18.12.36.17.54.09.3.18.61.27.91,0,.03.04.06.06.08v.25Zm-16.36-23.98c-.08.24-.16.46-.22.69-.08.27-.14.54-.22.81-.06.2-.14.4-.2.6-.1.34-.18.68-.27,1.01-.02.07-.06.13-.07.2-.08.28-.15.57-.23.85-.11.39-.24.77-.36,1.16-.1.34-.18.68-.27,1.01-.02.07-.06.13-.07.2-.08.28-.15.57-.23.85-.06.2-.13.39-.19.58-.1.34-.19.69-.28,1.03-.02.06-.05.12-.07.18-.07.26-.13.53-.21.79-.09.31-.19.63-.28.94.2.05,6.18.05,6.35,0-.04-.19-.08-.38-.14-.57-.07-.26-.15-.51-.23-.76-.05-.17-.1-.33-.15-.5-.06-.2-.12-.4-.18-.61-.07-.25-.13-.5-.2-.75-.07-.26-.16-.52-.24-.78-.11-.37-.22-.73-.33-1.1-.15-.51-.29-1.01-.43-1.52-.03-.09-.06-.17-.08-.26-.07-.25-.13-.5-.2-.75-.07-.26-.16-.52-.24-.78-.07-.24-.15-.48-.22-.73-.09-.32-.19-.63-.28-.95-.07-.26-.13-.53-.2-.79,0,0-.02-.02-.06-.04Z"/>
      <path class="cls-1" d="m177,15.85c.18.05.31.08.45.12.43.13.85.3,1.26.49.79.36,1.51.83,2.11,1.46.32.34.6.71.83,1.12.29.5.48,1.04.65,1.59.09.31.12.63.2.95.07.28.06.56.1.84.12.83.08,1.66.05,2.49-.01.26-.04.52-.08.77-.06.34-.14.69-.23,1.02-.08.33-.17.65-.28.97-.12.31-.26.61-.43.9-.21.36-.42.72-.72,1.01-.15.15-.26.34-.42.47-.32.27-.63.55-1,.78-.32.2-.64.42-.99.57-.37.16-.74.3-1.12.43-.36.12-.72.22-1.08.31-.21.05-.43.07-.64.11-.26.04-.52.09-.79.14-.04,0-.08.01-.13.02-.68.05-1.37.13-2.05.1-.12,0-.24,0-.35.05-.06.03-.15.02-.23.02-3.11,0-6.22,0-9.33,0-2.34,0-4.68,0-7.02,0-.18,0-.37,0-.55-.02-.19-.01-.22-.04-.22-.23,0-.06,0-.11,0-.17,0-10.41,0-20.82,0-31.23,0-.36.01-.37.38-.38.18,0,.37,0,.55,0,4.95,0,9.89,0,14.84,0,.63,0,1.26-.01,1.89.04.44.04.87.03,1.31.07.47.05.94.08,1.4.18.54.11,1.07.21,1.6.37.52.16,1.03.35,1.51.6.77.39,1.42.93,1.97,1.58.38.44.67.94.89,1.48.16.41.33.82.4,1.26.05.3.1.61.17.91.08.31.04.63.09.94.08.47.07.94.04,1.41-.03.4-.03.81-.12,1.21-.06.24-.07.49-.12.73-.04.21-.11.41-.17.61-.08.23-.15.45-.26.67-.14.27-.29.53-.47.78-.21.29-.46.54-.7.79-.27.28-.59.5-.93.69-.33.18-.65.37-.99.53-.21.1-.45.15-.67.24-.18.07-.39.09-.6.24Zm-12.91,9.31c.06,0,.13,0,.2,0,1.96,0,3.91,0,5.87,0,.33,0,.66,0,.99-.06.3-.06.58-.15.85-.29.33-.17.63-.37.83-.69.25-.4.4-.83.44-1.3.01-.16.02-.33.01-.49-.01-.51.02-1.01-.18-1.5-.18-.45-.42-.83-.88-1.03-.2-.08-.41-.15-.61-.22-.28-.1-.57-.15-.87-.15-2.14,0-4.28,0-6.42,0-.08,0-.17,0-.25,0-.05.22-.05,5.53,0,5.74Zm0-17.28c-.06.31-.04,5.04.02,5.21.08,0,.16,0,.25,0,1.03,0,2.05.01,3.08,0,1.03-.02,2.06.05,3.09-.05.41-.04.81-.1,1.17-.3.31-.17.6-.35.79-.67.2-.33.33-.68.38-1.06.01-.11.05-.22.06-.33,0-.1,0-.21,0-.31,0-.07-.03-.14-.03-.21,0-.45-.14-.88-.37-1.26-.09-.14-.18-.3-.31-.4-.3-.22-.62-.4-1-.49-.33-.07-.67-.12-1-.13-1.96-.02-3.92,0-5.89,0h-.24Z"/>
      <path class="cls-1" d="m120.8,20.26h-10.42c0,.12-.01.23-.01.35,0,3.83,0,7.67,0,11.5,0,.08,0,.17,0,.25-.01.15-.05.18-.2.2-.16.01-.31.02-.47.02-2.57,0-5.15,0-7.72,0-.15,0-.3,0-.45-.01-.21-.02-.23-.04-.23-.24,0-.04,0-.08,0-.13,0-10.42,0-20.85,0-31.27,0-.35,0-.35.35-.37.19,0,.38,0,.57,0,2.55,0,5.1,0,7.65,0,.08,0,.16,0,.23,0,.21.02.25.06.25.26,0,.07,0,.14,0,.21,0,3.61,0,7.21,0,10.82,0,.11,0,.22.01.35h10.41s.02-.02.02-.04c0-1.74,0-3.48,0-5.22,0-1.99,0-3.99,0-5.98,0-.39,0-.4.39-.4,1.08,0,2.15,0,3.23,0,1.68,0,3.36,0,5.04,0,.09,0,.18,0,.28,0,.14.02.18.06.2.2,0,.05,0,.1,0,.15,0,10.25,0,20.51,0,30.76,0,.23,0,.45-.01.68,0,.18-.04.21-.21.22-.18,0-.35.01-.53.01-2.57,0-5.13,0-7.7,0-.16,0-.33,0-.49-.02-.15-.01-.17-.03-.17-.19,0-.17-.01-.34-.01-.51,0-3.67,0-7.34,0-11.01v-.59Z"/>
      <path class="cls-1" d="m9.53,8.57H.04C0,8.4-.02.87.03.57c.04,0,.09-.02.14-.02,3.49,0,6.97,0,10.46,0,5.88,0,11.76,0,17.65,0,.09,0,.17,0,.26,0,.13,0,.18.05.19.18,0,.06,0,.11,0,.17,0,2.43,0,4.85,0,7.28,0,.03,0,.06,0,.08,0,.27-.02.29-.29.29-2.98,0-5.97,0-8.95,0h-.29c0,.09-.02.15-.02.21,0,7.7,0,15.4,0,23.1,0,.16,0,.33,0,.49,0,.16-.04.2-.2.2-.16,0-.31,0-.47,0-2.76,0-5.51,0-8.27,0-.16,0-.33,0-.49-.02-.17-.01-.2-.05-.21-.22,0-.09,0-.18,0-.28,0-7.72,0-15.44,0-23.17,0-.1,0-.19,0-.33Z"/>
      <path class="cls-1" d="m137.79,16.56c0-5.21,0-10.42,0-15.63,0-.37,0-.38.38-.38,1.48,0,2.96,0,4.44,0,1.3,0,2.59,0,3.89,0,.42,0,.44.02.44.42,0,10.32,0,20.63,0,30.95,0,.14,0,.28,0,.42,0,.17-.04.21-.21.22-.16,0-.31.01-.47.01-2.61,0-5.22,0-7.82,0-.16,0-.31,0-.47-.02-.14-.01-.17-.05-.17-.19,0-.07,0-.14,0-.21,0-5.2,0-10.39,0-15.59h0Z"/>
    </g>
  </g>
</svg>