<?xml version="1.0" encoding="UTF-8"?>
<svg id="Layer_2" data-name="Layer 2" xmlns="http://www.w3.org/2000/svg" viewBox="0 0 251.98 60.43">
  <defs>
    <style>
      .cls-1 {
        fill: #b7b7b7;
      }
    </style>
  </defs>
  <g id="Layer_1-2" data-name="Layer 1">
    <g>
      <path class="cls-1" d="m216.9,0c-13.09,0-23.87,10.59-23.87,23.87s10.59,23.87,23.87,23.87,23.87-10.59,23.87-23.87S229.99,0,216.9,0m18.48,10.59c-1.15.77-2.5,1.54-3.85,2.31-.77-1.54-1.73-3.08-2.89-4.43.96-.58,1.92-1.35,2.69-1.92,1.73.96,3.08,2.5,4.04,4.04m-10.01-7.89c1.92.77,3.66,1.73,5.39,3.08-.77.77-1.73,1.35-2.69,1.92-1.15-1.35-2.5-2.5-3.85-3.66.38-.58.77-.96,1.15-1.35m1.92,5.39c-1.35.77-2.69,1.15-4.04,1.73-.58-1.35-1.15-2.69-1.92-3.85.77-.38,1.54-.77,2.12-1.35,1.35.96,2.69,2.12,3.85,3.46m-2.89-5.77c-.38.38-.77.77-.96,1.15-1.35-.77-2.5-1.54-4.04-2.12,1.73,0,3.46.38,5,.96m-1.73,1.73c-.58.38-1.15.77-1.73.96-.77-1.15-1.54-2.12-2.31-3.27,1.35.58,2.69,1.35,4.04,2.31m-5.39-2.12c.96.96,1.73,2.12,2.5,3.46-.77.19-1.54.38-2.5.38V1.92Zm0,4.81c.96,0,2.12-.19,3.08-.58.77,1.15,1.35,2.5,1.92,3.85-1.54.38-3.27.58-5,.77v-4.04Zm-.96-4.81v3.85c-.77,0-1.54-.19-2.5-.38.96-1.15,1.73-2.31,2.5-3.46m-3.27,3.08c-.58-.19-1.35-.58-1.73-.96,1.35-.77,2.69-1.54,4.04-2.12-.96.96-1.73,1.92-2.31,3.08m1.35-3.85c-1.35.58-2.69,1.35-4.04,2.12-.38-.38-.77-.77-.96-1.15,1.54-.38,3.27-.77,5-.96m16.36,40.8c-3.08-1.73-3.27-4.23-3.08-5,.19-.96.77-.58,1.15-.58,2.12,0,4.23-.58,6.93-3.46,3.08-3.08,4.04-10.01-.77-14.43-5-4.81-10.39-4.04-13.86.38-.77.96-2.5,1.54-3.85,1.54-2.31,0-.77,1.73-.77,2.12s-.38.58-.58.58c-.77-.19-.38.96-.38,1.15s-.38.58-.38.58c-.96,0-.77.77-.58,1.15,0,.19,0,.58-.38.77-.38.19-.58.96-.58,1.54,0,.96.96,1.73,2.5,2.89,1.54,1.15,1.73,2.31,1.73,3.08s.19,2.12.38,2.89c.38.96.38,2.89-1.73,2.89-2.69.19-7.31,2.12-7.7,2.31-1.54.58-3.46.77-5,.38-.77-.58-1.54-1.15-2.31-1.92-.38-.96.19-2.12.77-2.89.96.96,2.12.77,2.89.77s4.23-.58,4.81-.77.77-.19.96,0c1.35.58,3.27.58,4.04-1.92.77-2.69-.96-1.92-1.35-1.73-.19.19-.58,0-.38-.19.38-.58-.19-.58-.38-.58-.77,0-1.73.77-1.92.96-.38.19-.58.19-.77.19-.96-.58-3.85.19-4.81-1.35,0-.38-.77-6.74-1.15-7.89,0-.19-.19-.58.19-.96.77-1.15,2.69,0,3.85,0,1.35,0,1.54-.58,1.92-.96s.58-.19.77-.38c.19-.19,0-.38,0-.58s.19,0,.38-.19,0-.58,0-.77c.38-.58,1.15-.19.77-1.35-.19-.77.19-1.54.58-1.92.58-.77,3.08-4.23-1.15-7.89-4.04-3.46-8.28-3.08-10.97-.19-2.69,2.89-1.35,7.12-1.15,8.28s-.58,2.12-1.54,2.5c-.77.38-2.5,1.54-3.66,2.5.19-9.24,5.77-17.32,14.24-20.59.38.38.77.96,1.15,1.35-.96.77-3.08,2.5-3.08,2.5,0,0,.19,0,.58.19.19,0,.58.19.58.19,0,0,1.73-1.54,2.69-2.12.58.58,1.35.96,2.12,1.35-.38.77-1.54,2.69-1.54,2.69,0,0,.19.19.38.19.19.19.38.19.38.19,0,0,1.15-2.12,1.54-2.89.96.38,1.92.58,2.89.58v3.85c-.58,0-1.92,0-2.5-.19h-.38l.19.38c.19.19.19.38.38.58h2.31v7.12h.96v-1.73c1.54,0,2.69-.19,4.04-.38h0l1.35-1.15h-.77c-1.54.19-2.89.38-4.04.38h-.58v-4.43c1.73,0,3.66-.19,5.39-.77.38,1.15,1.35,4.04,1.35,4.04l.96-.38s-.96-2.89-1.35-4.04c1.54-.38,2.89-1.15,4.23-1.73,1.15,1.35,2.12,2.89,2.89,4.43-.77.38-1.92.77-1.92.77.96.19,1.73.38,1.73.38,0,0,.38-.19.58-.19,0,.19.19.58.19.58l1.35.58-.19-.38s-.38-.96-.58-1.15c1.35-.58,2.69-1.35,4.04-2.31,2.5,3.66,3.66,8.08,3.66,12.51.38,7.31-3.27,13.86-8.66,18.09"/>
      <path class="cls-1" d="m190.92,6.35l-.38.38c-1.35,1.15-4.62,4.43-4.04,8.08v.19l.19.77.38-.38c1.92-1.73,3.46-4.81,4.04-8.28l.19-.96-.38.19Z"/>
      <path class="cls-1" d="m184.38,12.51l-.19.38c-.19.58-.58,1.92-.77,3.46-.38,2.31-.19,5.77,1.73,8.28l.19.38.19.38.38-1.54c.38-2.69-.19-8.28-1.15-10.78l-.38-.77v.19Z"/>
      <path class="cls-1" d="m182.07,22.13v.38c-.19,2.31,0,8.28,4.81,11.55l.58.38v-.77c0-2.31-2.69-9.05-4.62-11.36l-.58-.77-.19.58Z"/>
      <path class="cls-1" d="m182.84,32.72v.38c.77,3.46,3.85,8.85,8.85,10.59l.77.19-.19-.77c-.96-2.5-5.77-8.47-8.85-10.39l-.58-.38v.38Z"/>
      <path class="cls-1" d="m193.04,11.55l-.58.19c-3.66,2.31-5.39,5-5.39,8.47v.77l.58-.38c1.92-1.73,4.62-5.97,5.2-8.28l.19-.96v.19Z"/>
      <path class="cls-1" d="m190.73,18.86l-.19.38c-.96.96-4.04,4.23-3.85,8.28,0,.58.19,1.35.38,1.92l.19.58.38-.58c1.54-2.12,3.46-7.51,3.27-10.01v-.77l-.19.19Z"/>
      <path class="cls-1" d="m190.92,25.98l-.19.38c-1.54,2.31-2.31,4.62-2.31,6.93,0,1.54.58,3.08,1.54,4.62l.38.58.19-.58c.58-1.35,1.15-5.39,1.15-8.66,0-1.15-.19-2.12-.38-2.69l-.19-.77-.19.19Z"/>
      <path class="cls-1" d="m192.65,33.49l-.19.38c-.38,1.54-.77,2.89-.58,4.43,0,3.08,1.54,5.58,4.23,7.31l.38.19.19-.58v-.58c0-2.5-1.92-9.05-3.46-10.97l-.38-.58-.19.38Z"/>
      <path class="cls-1" d="m187.46,43.5l.19.38c1.92,3.27,5.39,7.7,11.74,6.54h.58l-.38-.38c-1.15-1.73-8.85-6.16-11.55-6.54l-.77-.19.19.19Z"/>
      <path class="cls-1" d="m196.89,51.96h0l-.96.19.96.38c4.04,1.73,9.05,2.12,12.13,1.15,1.15-.38,1.73-.96,2.5-1.73,5.2.58,10.01,4.81,12.89,8.28l.19.19h.19c.38-.19.77-.58.96-.77l.19-.19-.19-.19c-2.89-3.85-7.51-6.16-7.7-6.35-4.23-1.92-11.55-3.46-21.17-.96"/>
      <path class="cls-1" d="m197.08,41.19v.38c.58,3.85,2.12,8.85,8.66,8.28h.38l-.19-.38c-.38-1.73-6.35-6.74-8.47-8.08l-.58-.38.19.19Z"/>
      <path class="cls-1" d="m242.5,5.97l.19.96c.58,3.46,2.12,6.54,4.04,8.28l.38.38.19-.77v-.19c.58-3.66-2.69-6.93-4.04-8.08l-.38-.38-.38-.19Z"/>
      <path class="cls-1" d="m249.24,12.13l-.38.77c-.96,2.5-1.35,8.08-1.15,10.78l.38,1.54.19-.19.19-.38c2.12-2.5,2.12-5.77,1.73-8.28-.19-1.73-.58-2.89-.77-3.46l-.19-.38v-.38Z"/>
      <path class="cls-1" d="m251.74,21.75l-.58.77c-1.92,2.5-4.62,9.05-4.62,11.36v.77l.58-.38c4.81-3.08,5-9.05,4.81-11.55v-.38l-.19-.58Z"/>
      <path class="cls-1" d="m250.97,32.33l-.77.38c-3.08,1.92-7.89,7.89-8.85,10.39l-.19.77.77-.19c5-1.54,8.28-7.12,8.85-10.59v-.38l.19-.38Z"/>
      <path class="cls-1" d="m240.77,11.16l.19.96c.77,2.5,3.08,6.74,5.2,8.47l.58.38v-.77c.19-3.46-1.54-6.16-5.2-8.47l-.38-.19-.38-.38Z"/>
      <path class="cls-1" d="m242.89,18.67v.77c-.19,2.5,1.92,8.08,3.27,10.01l.38.58.19-.58c.19-.77.38-1.35.38-1.92.19-4.04-2.89-7.31-3.85-8.28l-.19-.19-.19-.38Z"/>
      <path class="cls-1" d="m242.69,25.6l-.19.77c-.19.58-.38,1.54-.38,2.69,0,3.27.38,7.31,1.15,8.66l.19.58.38-.58c.96-1.35,1.54-2.89,1.54-4.62,0-2.12-.77-4.62-2.31-6.93l-.19-.38-.19-.19Z"/>
      <path class="cls-1" d="m240.96,33.1l-.38.58c-1.54,1.92-3.46,8.47-3.46,10.97v.58l.19.58.38-.19c2.69-1.73,4.04-4.23,4.23-7.31,0-1.35-.19-2.89-.58-4.43l-.19-.38-.19-.38Z"/>
      <path class="cls-1" d="m246.54,43.11l-.77.19c-2.69.38-10.39,4.81-11.55,6.54l-.38.38h.58c6.35,1.15,9.82-3.27,11.74-6.54l.19-.38.19-.19Z"/>
      <path class="cls-1" d="m215.94,52.93c-.19,0-4.81,2.5-7.7,6.35l-.19.19.19.19c.19.19.77.58.96.77h.19l.19-.19c2.89-3.46,7.7-7.89,12.89-8.28.77.77,1.54,1.35,2.5,1.73,2.89.96,8.08.58,12.13-1.15l.96-.38-.96-.19c-9.82-2.5-17.13-.96-21.17.96"/>
      <path class="cls-1" d="m236.73,40.8l-.58.38c-2.12,1.35-7.89,6.35-8.47,8.08l-.19.38h.38c6.35.58,7.89-4.43,8.66-8.28v-.38l.19-.19Z"/>
      <path class="cls-1" d="m74.29,2.31h8.08v7.31h-8.08V2.31Zm.77,15.78h6.74v35.8h-6.74V18.09Z"/>
      <path class="cls-1" d="m24.06,18.09h6.74v35.8h-6.54v-5.2h-.19c-2.69,4.43-7.31,6.35-12.32,6.35-7.51,0-11.74-5.77-11.74-12.89v-24.06h6.74v21.17c0,6.16,1.35,10.78,7.89,10.78,2.69,0,6.54-1.35,7.89-5.2,1.35-3.27,1.35-7.51,1.35-8.47v-18.28h.19Z"/>
      <path class="cls-1" d="m44.27,23.29h0c2.5-4.43,7.31-6.35,10.97-6.35,2.5,0,13.47.58,13.47,12.13v24.64h-6.74v-22.52c0-5.97-2.5-9.05-8.28-9.05,0,0-3.66-.19-6.54,2.69-.96.96-2.89,2.5-2.89,9.62v19.44h-6.74V18.09h6.74v5.2Z"/>
      <path class="cls-1" d="m110.09,29.45c-.38-4.43-2.5-7.51-7.31-7.51-6.35,0-8.85,5.58-8.85,13.86s2.5,13.86,8.85,13.86c4.43,0,7.12-2.89,7.51-8.08h6.74c-.58,8.08-6.54,12.89-14.43,12.89-11.36,0-15.97-8.08-15.97-18.48s5.2-19.05,16.55-19.05c7.51,0,13.09,4.81,13.47,12.51,0,0-6.54,0-6.54,0Z"/>
      <path class="cls-1" d="m127.02,37.15c-.58,6.16,2.12,12.7,8.85,12.7,5.2,0,7.89-2.12,8.66-7.31h7.12c-1.15,8.08-7.31,12.13-15.78,12.13-11.36,0-15.97-8.08-15.97-18.48s5.2-19.05,16.55-19.05c10.59.19,15.59,6.93,15.59,16.74v3.27s-25.02,0-25.02,0Zm18.09-4.62c.19-5.97-2.5-10.59-9.05-10.59-5.58,0-8.85,4.81-8.85,10.59h17.9Z"/>
      <path class="cls-1" d="m159.74,53.5v-30.79h-6.16v-4.62h6.16v-7.7c.19-7.7,6.16-9.82,11.16-9.82,1.54,0,3.27.38,4.81.77v5.58c-1.15,0-2.31-.19-3.46-.19-3.85,0-5.97.96-5.77,4.81v6.54h8.28v4.62h-8.28v30.79h-6.74Z"/>
    </g>
  </g>
</svg>