<?xml version="1.0" encoding="UTF-8"?>
<svg id="Layer_1" data-name="Layer 1" xmlns="http://www.w3.org/2000/svg" viewBox="0 0 206.09 180">
  <defs>
    <style>
      .cls-1 {
        fill: #fff;
      }

      .cls-1, .cls-2 {
        stroke-width: 0px;
      }

      .cls-2 {
        fill: #ffc514;
      }
    </style>
  </defs>
  <path class="cls-2" d="m67.97,151.68c-15.48-15.49-30.65-30.67-45.99-46.01-3.25,3.3-6.58,6.67-9.92,10.04-1.78,1.8-3.58,3.58-5.38,5.37-1.21,1.21-2.43,1.34-3.4.38-.95-.95-.84-2.19.38-3.41,4.88-4.89,9.77-9.76,14.65-14.64.69-.68,1.36-1.38,2.06-2.05,1.37-1.3,2.41-1.33,3.76.03.79.8,1.45,1.73,2.19,2.63,2.5-2.65,4.62-5.02,6.87-7.26,7.3-7.24,15.39-13.3,25.56-15.83,12.17-3.02,24-2.04,34.79,4.7,3.51,2.19,6.91,2.99,10.89,2.85,5.5-.2,11.01-.04,16.52-.04,5.7,0,10.55,1.92,14.29,6.35.17.2.38.36.67.63,3.61-2.7,7.18-5.38,10.76-8.06,7.61-5.69,15.13-11.49,22.85-17.03,5.49-3.94,11.65-5.91,18.49-4.56,5.93,1.18,10.65,4.53,14.78,8.8,1,1.03.77,2.14-.27,3.12-3.96,3.74-7.91,7.5-11.87,11.24-12.96,12.22-25.93,24.43-38.9,36.64-3.69,3.48-7.4,6.94-11.08,10.44-1.98,1.88-4.27,2.73-7.03,2.72-23.55-.04-47.1-.02-70.65-.01-.32,0-.64,0-1.43,0,1.57,1.61,2.88,2.97,4.21,4.31,2.16,2.19,4.36,4.35,6.5,6.55,1.27,1.31,1.28,2.17,0,3.46-5.67,5.7-11.35,11.39-17.04,17.06-.96.96-2.38,1-3.16.17-.89-.94-.82-2.2.27-3.3,4.72-4.74,9.46-9.47,14.21-14.19.42-.42.94-.73,1.4-1.09Zm130.15-75.67c-2.9-2.7-5.95-4.67-9.54-5.72-5.79-1.7-11.06-.14-15.82,3.07-4.87,3.28-9.5,6.93-14.21,10.45-6.44,4.81-12.86,9.66-19.29,14.47-.78.58-1.12,1.08-.86,2.24.72,3.24,1.25,6.54,1.63,9.84.23,1.96-.7,2.74-2.68,2.74-16.36,0-32.72,0-49.08,0-1.78,0-2.79-.84-2.74-2.23.04-1.33,1-2.01,2.77-2.01,15.33,0,30.67,0,46,0,.46,0,.92-.06,1.46-.1-.12-1.06-.19-1.97-.32-2.88-1.22-8.53-6.61-13.2-15.21-13.2-5.78,0-11.56-.15-17.32.05-3.88.14-7.17-.71-10.56-2.84-12.23-7.69-25.21-8.16-38.41-2.71-8.14,3.36-14.56,9.17-20.51,15.51-1.28,1.36-2.49,2.78-3.7,4.14,9.08,9.11,17.98,18.06,26.94,26.96.48.48,1.44.65,2.18.65,24.79.03,49.58,0,74.38.05,1.99,0,3.53-.62,4.94-1.96,3.78-3.62,7.61-7.19,11.42-10.78,11.75-11.07,23.49-22.13,35.24-33.2,4.4-4.14,8.79-8.29,13.31-12.54Z"/>
  <path class="cls-1" d="m84.9,31.15c3.45,5.27,7.56,9.54,13.43,11.72,6.17,2.3,11.35.31,14.42-5.57,1.09-2.09,1.84-4.35,2.79-6.66-3.52-1.27-6-3.38-7.28-6.69-.91-2.34-.97-4.73-.23-7.14,1.42-4.59,5.99-7.87,10.67-7.65,5.25.25,9.34,3.71,10.39,8.81,1.12,5.39-1.48,9.71-7.63,12.67.42,5,4.03,11.18,8.29,12.63,3.01,1.03,5.89.56,8.67-.6,5.55-2.3,9.76-6.24,13.17-11.11.12-.17.14-.4.23-.66-2.94-1.88-4.82-4.49-5.22-7.98-.5-4.41,1.07-8.01,4.77-10.45,3.76-2.47,7.75-2.57,11.62-.23,3.68,2.23,5.46,5.59,5.14,9.93-.42,5.8-4.47,9.78-10.4,10.19-.93.06-1.3.39-1.57,1.23-2.31,7.24-4.65,14.46-7.02,21.68-.31.93-.29,1.49.58,2.16,2.31,1.77,3.07,4.82,2.06,7.58-.92,2.53-3.46,4.32-6.26,4.32-18.74.01-37.49.02-56.23,0-3.16,0-5.65-2-6.52-5.08-.76-2.71.46-5.8,3.07-7.37.87-.52,1.01-.95.72-1.91-2.1-7.08-4.15-14.17-6.16-21.28-.26-.92-.63-1.27-1.63-1.33-5.56-.36-9.88-4.93-10.09-10.57-.2-5.37,3.98-10.29,9.42-11.06,5.42-.77,10.65,2.75,12.03,8.1,1.09,4.2-.43,8.63-3.87,11.28-.42.32-.84.65-1.39,1.06Zm.93,7.86c1.35,4.65,2.68,9.3,4.06,13.94.85,2.86.89,2.85,3.83,2.85,16.58,0,33.17-.01,49.75.03,1.24,0,1.8-.33,2.13-1.55.62-2.29,1.43-4.52,2.18-6.77.95-2.84,1.91-5.67,2.98-8.85-.52.31-.73.38-.85.52-2.51,2.83-5.6,4.89-8.99,6.49-8.29,3.93-15.66,1.8-20.2-5.88-.97-1.65-1.65-3.47-2.49-5.27-.92,1.84-1.69,3.66-2.69,5.35-4.18,7.08-11.32,9.44-18.94,6.37-4.09-1.64-7.45-4.29-10.77-7.22Zm31.68,20.56h0c-9.28,0-18.56,0-27.84.01-1.98,0-3.37,1.25-3.38,2.94,0,1.77,1.29,3.04,3.26,3.04,18.56.02,37.12.04,55.68,0,.79,0,1.72-.36,2.33-.86,1-.81,1.22-2.02.7-3.23-.57-1.32-1.58-1.92-3.07-1.91-9.23.03-18.45.01-27.68.01Zm47.16-37.97c-.17-4.32-3.47-7.57-7.54-7.39-4.08.17-7.26,3.66-7.05,7.72.2,3.93,3.7,7.06,7.7,6.88,3.69-.16,7.03-3.65,6.89-7.21Zm-77.8-.09c0-4.03-3.24-7.3-7.26-7.3-3.97,0-7.38,3.38-7.34,7.29.03,3.98,3.36,7.3,7.33,7.31,4,0,7.26-3.27,7.27-7.3Zm31.52,5.81c4.04.01,7.31-3.24,7.33-7.28.01-3.98-3.18-7.19-7.18-7.22-4.19-.03-7.42,3.15-7.42,7.32,0,3.91,3.3,7.17,7.27,7.18Z"/>
</svg>