<?xml version="1.0" encoding="UTF-8"?>
<svg id="Layer_2" data-name="Layer 2" xmlns="http://www.w3.org/2000/svg" viewBox="0 0 209.69 61.05">
  <defs>
    <style>
      .cls-1 {
        fill: #b7b7b7;
      }
    </style>
  </defs>
  <g id="Layer_1-2" data-name="Layer 1">
    <g>
      <path class="cls-1" d="m75.8,37.83h-8.36l-7.82-25.13h6.16l4.11,14.35c.68,2.37,1.2,4.68,1.8,6.82.54-2.14,1.03-4.42,1.71-6.82l4.08-14.35h6.16l-7.85,25.13Z"/>
      <path class="cls-1" d="m86.1,37.83V12.7h5.93v25.13h-5.93Z"/>
      <path class="cls-1" d="m103.96,38.46c-3.48,0-7.45-.63-8.59-1v-4.19c1.28.09,5.11.57,8.33.57,3.65,0,4.65-.86,4.65-2.65s-.74-2.2-4.48-3.68l-1.91-.74c-4.74-1.88-6.93-4.02-6.93-7.9,0-5.05,3.34-6.85,10.04-6.85,2.85,0,6.62.57,7.85,1v4.14c-2.82-.26-5.59-.46-7.76-.46-3.02,0-4.34.26-4.34,2.05,0,1.6.88,2.05,3.97,3.25l2.03.8c5.39,2.2,7.28,3.88,7.33,8.05,0,4.76-3.17,7.62-10.19,7.62Z"/>
      <path class="cls-1" d="m133.15,37.83v-2c-3,1.6-5.79,2.68-8.7,2.68-6.56,0-7.56-4.65-7.56-9.84v-15.98h5.85v15.98c0,3.57.66,4.85,3.62,4.85,1.71,0,3.88-.66,6.56-1.71V12.67h5.91v25.13h-5.68v.03Z"/>
      <path class="cls-1" d="m157.14,37.83v-1.65c-2.37,1.54-5.14,2.34-7.93,2.31-4.68,0-7.36-2.31-7.36-7.19v-.94c0-6.7,4.82-7.59,11.87-7.59h3v-1.57c0-3.57-.77-4.28-5.22-4.28-2.65,0-5.28.17-7.9.49v-3.97c1.08-.46,4.82-1.4,8.9-1.4,8.05,0,10.13,2.71,10.13,9.16v16.6h-5.48v.03Zm-.31-11.44h-3.14c-4.34,0-6.16.49-6.16,3.77v1.08c0,2.31,1.43,2.94,3.54,2.94,2.03-.06,3.99-.57,5.76-1.51v-6.28Z"/>
      <path class="cls-1" d="m166.76,37.83V3.14h5.91v34.69h-5.91Z"/>
      <path class="cls-1" d="m177.03,37.83V3.14h5.91v34.69h-5.91Z"/>
      <path class="cls-1" d="m200.94,38.77c-2.03,5.93-3.88,8.84-9.41,8.84-2,0-4.02-.17-5.99-.54v-4.28c2.05.14,3.17.17,4.74.17,2.14,0,2.82-1,3.88-3.77l.57-1.57-9.39-24.96h6.39l4.37,13.35c.71,2.23,1.11,4.25,1.83,6.7.54-2.45.97-4.48,1.65-6.7l3.97-13.38h6.16l-8.76,26.13Z"/>
      <g id="_Ícone" data-name="Ícone">
        <path class="cls-1" d="m30.84,0h-12.35C6.16,0,0,7.47,0,22.91s6.16,22.97,18.49,22.97h12.35c12.35,0,18.49-7.5,18.49-22.97S43.19,0,30.84,0Zm-.88,41.03h-10.53c-13.27,0-13.24-7.93-13.24-18.12s-.03-18.06,13.24-18.06h0c5.56,0,0-.03,0-.03h10.56s-5.56.03,0,.03c13.27,0,13.24,7.9,13.24,18.06s.03,18.12-13.27,18.12Z"/>
        <path class="cls-1" d="m36.6,25.48v-4.85h-9.67v-9.59h-4.82v14.44h14.49Z"/>
        <path class="cls-1" d="m15.38,34.86h18.57c1.46,0,2.65-1.17,2.65-2.65h0v-2.2h-19V11.04h-2.2c-1.46,0-2.65,1.17-2.65,2.65v18.54c0,1.46,1.17,2.62,2.62,2.62Z"/>
        <path class="cls-1" d="m33.67,11.04c1.88,0,2.91,1.14,2.91,2.91v2.14h-5.22v-5.05h2.31Z"/>
      </g>
      <path class="cls-1" d="m66.65,58.2c-.94,0-1.85-.06-2.77-.2v-10.67h1.23v3.37c.63-.34,1.31-.51,2.03-.51,1.97,0,2.85,1.03,2.85,3.22v1.28c.03,2.43-1.11,3.51-3.34,3.51Zm2.11-4.76c0-1.51-.49-2.11-1.77-2.11-.66,0-1.28.11-1.88.4v5.34c.34.03.88.06,1.57.06,1.43,0,2.08-.57,2.08-2.4v-1.28Z"/>
      <path class="cls-1" d="m74.49,58.66c-.51,1.46-1,2.4-2.54,2.4-.49,0-1-.06-1.46-.14v-.94c.6.03.94.06,1.43.06.74,0,.94-.37,1.37-1.48l.2-.54-2.94-7.56h1.37l1.54,4.25c.23.68.37,1.2.63,2,.14-.68.34-1.37.57-2.03l1.4-4.22h1.31l-2.88,8.22Z"/>
      <path class="cls-1" d="m82.45,52.18v5.79h-1.8v-7.73h1.71v.63c.74-.6,1.68-.88,2.65-.83v1.65c-.88.03-1.77.17-2.57.49Z"/>
      <path class="cls-1" d="m89.07,58.2c-2.28,0-3.48-1.14-3.48-3.59v-.97c0-2.43,1.23-3.59,3.48-3.59s3.51,1.14,3.51,3.59v.94c0,2.45-1.26,3.62-3.51,3.62Zm1.68-4.54c0-1.48-.51-2.03-1.68-2.03s-1.68.51-1.68,2v.94c0,1.48.51,2.05,1.68,2.05s1.68-.57,1.68-2.05v-.91Z"/>
      <path class="cls-1" d="m96.8,58.2c-2.23,0-3.25-1.26-3.25-3.59v-.97c0-2.37,1.03-3.57,3.25-3.57.8-.03,1.63.09,2.4.29v1.37c-.97-.09-1.65-.11-2.08-.11-1.14,0-1.77.37-1.77,2.03v.97c0,1.65.63,2.05,1.77,2.05.43,0,1.11-.03,2.08-.11v1.37c-.77.2-1.57.31-2.4.29Z"/>
      <path class="cls-1" d="m104.76,57.97l-2.74-3.68v3.68h-1.8v-10.7h1.8v6.39l2.77-3.42h2.08l-3,3.71,3.08,4.02h-2.2Z"/>
      <path class="cls-1" d="m110.32,58.2c-2.23,0-3.25-1.26-3.25-3.59v-.97c0-2.37,1.03-3.57,3.25-3.57.8-.03,1.63.09,2.4.29v1.37c-.97-.09-1.65-.11-2.08-.11-1.14,0-1.77.37-1.77,2.03v.97c0,1.65.63,2.05,1.77,2.05.43,0,1.11-.03,2.08-.11v1.37c-.8.2-1.6.31-2.4.29Z"/>
      <path class="cls-1" d="m116.94,58.2c-2.28,0-3.48-1.14-3.48-3.59v-.97c0-2.43,1.26-3.59,3.48-3.59s3.48,1.14,3.48,3.59v.94c0,2.45-1.23,3.62-3.48,3.62Zm1.68-4.54c0-1.48-.51-2.03-1.68-2.03s-1.68.54-1.68,2.03v.94c0,1.48.51,2.05,1.68,2.05s1.68-.57,1.68-2.05v-.94Z"/>
      <path class="cls-1" d="m126.59,57.97v-4.91c0-1.11-.2-1.51-1.08-1.51-.71.06-1.4.23-2.03.51v5.88h-1.8v-7.7h1.71v.63c.77-.49,1.63-.77,2.54-.83,2.2,0,2.48,1.26,2.48,3.02v4.91h-1.83Z"/>
      <path class="cls-1" d="m132.86,58.2c-1.51,0-2.14-.6-2.14-2.23v-4.28l-1.46-.11v-1.31h1.46v-1.97h1.83v1.97h1.88v1.46h-1.88v4.19c0,.71.06.86.71.86.4,0,.94-.03,1.17-.06v1.23c-.51.17-1.06.26-1.57.26Z"/>
      <path class="cls-1" d="m136.86,54.69v.14c0,1.14.17,1.85,2.05,1.85.83,0,1.77-.09,2.8-.17v1.37c-.94.23-1.91.34-2.88.34-2.8,0-3.77-1.08-3.77-3.77v-.49c0-2.6,1.2-3.85,3.48-3.85,2.6,0,3.48,1.68,3.48,4.02v.6l-5.16-.06Zm3.4-1.31c0-.88-.17-1.85-1.68-1.85s-1.68,1-1.68,1.85v.11h3.37v-.11Z"/>
      <path class="cls-1" d="m148.13,57.97v-4.91c0-1.11-.2-1.51-1.08-1.51-.71.06-1.4.23-2.03.51v5.88h-1.8v-7.7h1.74v.63c.77-.49,1.63-.77,2.54-.83,2.2,0,2.48,1.26,2.48,3.02v4.91h-1.85Z"/>
      <path class="cls-1" d="m154.4,58.2c-1.51,0-2.14-.6-2.14-2.23v-4.28l-1.46-.11v-1.31h1.46v-1.97h1.83v1.97h1.88v1.46h-1.88v4.19c0,.71.06.86.71.86.4,0,.94-.03,1.17-.06v1.23c-.51.17-1.06.26-1.57.26Z"/>
      <rect class="cls-1" x="86.1" y="2.88" width="6.11" height="5.71"/>
    </g>
  </g>
</svg>