<?xml version="1.0" encoding="UTF-8"?>
<svg id="Layer_2" data-name="Layer 2" xmlns="http://www.w3.org/2000/svg" viewBox="0 0 259 46.99">
  <defs>
    <style>
      .cls-1 {
        fill: #ffc514;
      }
    </style>
  </defs>
  <g id="Layer_1-2" data-name="Layer 1">
    <g>
      <g>
        <path class="cls-1" d="M0,4.35s4.45,2.9,14.87,24.38c8.94,18.43,14.77,25.18,26,9.53,0,0-7.57,4.82-17.13-18.21C15.24-.39,7.47,1.38,0,4.35"/>
        <path class="cls-1" d="M47.02,16.23s-1.43,1.66-3.55,2.96c-.14-.09-.33-.2-.39-.29-.05-.08-.06-.17-.04-.27,0-.03,.04-.26,.41-.53,.03-.03,.07-.05,.1-.08,.08-.06,.17-.13,.28-.2,0,0,.01,0,.02-.01,.14-.1,.24-.17,.29-.21,2.41-1.8,9.33-8.46,6.88-13.83-2.33-5.1-15.38-6.55-30.56,5.54,0,0,3.79,4.77,7.84,3.53,4.04-1.24,10.5-4.77,12.69-1.14,1.99,3.29-2.3,6.36-4.24,8.2-.08,.07-.24,.22-.5,.46-.39,.36-.4,.74-.4,.74h0c-.01,.09,0,.17,.01,.26,.08,.37,.43,.64,.9,.75,.22,.06,.59,.13,1.18,.15,.86,.03,1.5,.25,1.86,.42,.26,.14,.5,.32,.72,.57,2.41,2.68-.85,6.66-7.14,8.87,0,0,3.68,7.75,11.61,1.23,3.9-3.21,5.84-7.43,5.72-10.55,.02-1.36-.3-4.78-3.69-6.57"/>
      </g>
      <g>
        <path d="M76.82,37.52c-.42,0-.74-.1-.98-.31-.23-.21-.41-.47-.51-.78l-8.38-25.15c-.05-.13-.08-.25-.08-.35,0-.24,.08-.43,.23-.59s.35-.24,.59-.24h3.45c.37,0,.65,.1,.84,.29,.2,.2,.32,.39,.37,.57l6.62,20.18,6.62-20.18c.05-.18,.18-.37,.37-.57,.2-.2,.48-.29,.84-.29h3.45c.21,0,.4,.08,.57,.24,.17,.16,.25,.35,.25,.59,0,.1-.03,.22-.08,.35l-8.38,25.15c-.1,.31-.27,.58-.51,.78-.24,.21-.56,.31-.98,.31h-4.31Z"/>
        <path d="M94.22,13.78c-.26,0-.48-.09-.67-.27-.18-.18-.27-.4-.27-.67v-2.82c0-.26,.09-.48,.27-.67,.18-.18,.4-.27,.67-.27h3.57c.29,0,.52,.09,.71,.27,.18,.18,.27,.41,.27,.67v2.82c0,.26-.09,.48-.27,.67-.18,.18-.42,.27-.71,.27h-3.57Zm.16,23.74c-.26,0-.48-.09-.67-.27-.18-.18-.27-.4-.27-.67V18.09c0-.26,.09-.48,.27-.67s.4-.27,.67-.27h3.25c.29,0,.52,.09,.69,.27,.17,.18,.25,.41,.25,.67v18.49c0,.26-.09,.48-.25,.67-.17,.18-.4,.27-.69,.27h-3.25Z"/>
        <path d="M110.71,37.91c-1.57,0-2.91-.18-4.02-.55-1.11-.37-2.02-.82-2.72-1.37s-1.23-1.1-1.57-1.65c-.34-.55-.52-1.01-.55-1.37-.03-.29,.06-.52,.25-.69,.2-.17,.41-.25,.65-.25h3.1c.1,0,.2,.01,.27,.04,.08,.03,.18,.1,.31,.23,.34,.29,.7,.59,1.08,.9,.38,.31,.83,.58,1.35,.8,.52,.22,1.18,.33,1.96,.33,1.02,0,1.87-.2,2.57-.61,.69-.4,1.04-.99,1.04-1.74,0-.55-.15-.99-.45-1.33-.3-.34-.86-.65-1.67-.92-.81-.27-1.96-.57-3.45-.88-1.46-.34-2.68-.77-3.64-1.29-.97-.52-1.68-1.18-2.15-1.96-.47-.78-.71-1.7-.71-2.74s.31-1.99,.92-2.92c.61-.93,1.53-1.69,2.74-2.29,1.21-.6,2.72-.9,4.53-.9,1.41,0,2.64,.18,3.68,.53,1.04,.35,1.91,.79,2.61,1.31,.69,.52,1.22,1.05,1.59,1.59,.37,.54,.56,1,.59,1.39,.03,.29-.05,.52-.23,.69-.18,.17-.39,.25-.63,.25h-2.9c-.13,0-.25-.03-.35-.08-.1-.05-.21-.12-.31-.2-.29-.26-.6-.54-.94-.84-.34-.3-.75-.55-1.23-.76-.48-.21-1.12-.31-1.9-.31-.99,0-1.75,.22-2.27,.65-.52,.43-.78,.97-.78,1.63,0,.44,.12,.83,.37,1.16,.25,.33,.75,.63,1.51,.92,.76,.29,1.91,.59,3.45,.9,1.75,.31,3.14,.78,4.17,1.39,1.03,.61,1.76,1.32,2.19,2.12,.43,.8,.65,1.68,.65,2.64,0,1.18-.35,2.23-1.04,3.17-.69,.94-1.71,1.68-3.06,2.21-1.35,.54-3.01,.8-4.99,.8Z"/>
        <path d="M130.61,37.91c-1.59,0-2.97-.36-4.13-1.08-1.16-.72-2.06-1.74-2.68-3.06-.63-1.32-.94-2.88-.94-4.68v-11.01c0-.26,.09-.48,.27-.67,.18-.18,.4-.27,.67-.27h3.45c.29,0,.52,.09,.69,.27,.17,.18,.25,.41,.25,.67v10.77c0,3.24,1.42,4.86,4.27,4.86,1.36,0,2.44-.43,3.23-1.29,.8-.86,1.2-2.05,1.2-3.57v-10.77c0-.26,.09-.48,.27-.67s.4-.27,.67-.27h3.45c.26,0,.48,.09,.67,.27,.18,.18,.27,.41,.27,.67v18.49c0,.26-.09,.48-.27,.67-.18,.18-.41,.27-.67,.27h-3.17c-.29,0-.52-.09-.69-.27-.17-.18-.25-.4-.25-.67v-1.61c-.71,.91-1.58,1.63-2.63,2.15-1.04,.52-2.35,.78-3.92,.78Z"/>
        <path d="M152.51,37.91c-1.36,0-2.59-.27-3.68-.8-1.1-.54-1.97-1.25-2.61-2.15-.64-.9-.96-1.91-.96-3.04,0-1.83,.74-3.28,2.23-4.37,1.49-1.08,3.43-1.81,5.84-2.17l5.37-.78v-.82c0-1.1-.27-1.95-.82-2.55-.55-.6-1.49-.9-2.82-.9-.76,0-1.38,.12-1.88,.37-.5,.25-.91,.54-1.23,.86l-.88,.88c-.08,.18-.16,.31-.25,.37-.09,.07-.2,.1-.33,.1h-3.02c-.23,0-.44-.08-.61-.24-.17-.16-.25-.37-.25-.63,.03-.42,.2-.93,.53-1.53,.33-.6,.82-1.18,1.49-1.74,.67-.56,1.53-1.04,2.61-1.43,1.07-.39,2.36-.59,3.88-.59,1.65,0,3.04,.2,4.17,.61,1.14,.41,2.04,.95,2.72,1.63s1.18,1.48,1.49,2.39c.31,.91,.47,1.88,.47,2.9v12.3c0,.26-.09,.48-.27,.67s-.41,.27-.67,.27h-3.17c-.29,0-.52-.09-.69-.27-.17-.18-.25-.4-.25-.67v-1.53c-.34,.47-.8,.93-1.37,1.37-.57,.44-1.27,.8-2.1,1.08-.82,.27-1.8,.41-2.92,.41Zm1.33-3.72c.91,0,1.74-.2,2.49-.59,.74-.39,1.33-1,1.76-1.82,.43-.82,.65-1.86,.65-3.11v-.82l-3.92,.63c-1.54,.23-2.69,.61-3.45,1.14-.76,.52-1.14,1.16-1.14,1.92,0,.57,.18,1.06,.53,1.47,.35,.41,.8,.71,1.35,.9,.55,.2,1.12,.29,1.72,.29Z"/>
        <path d="M169.16,37.52c-.26,0-.48-.09-.67-.27-.18-.18-.27-.4-.27-.67V10.65c0-.26,.09-.48,.27-.67,.18-.18,.4-.27,.67-.27h3.25c.26,0,.48,.09,.67,.27,.18,.18,.27,.41,.27,.67v25.94c0,.26-.09,.48-.27,.67s-.41,.27-.67,.27h-3.25Z"/>
        <path d="M179.19,37.52c-.26,0-.48-.09-.67-.27-.18-.18-.27-.4-.27-.67V11.08c0-.29,.09-.52,.27-.7s.4-.27,.67-.27h11.36c2.12,0,3.84,.32,5.17,.96,1.33,.64,2.32,1.52,2.96,2.64,.64,1.12,.96,2.43,.96,3.92,0,.99-.18,1.86-.53,2.61-.35,.74-.78,1.35-1.29,1.82-.51,.47-1.01,.84-1.51,1.1,1.02,.47,1.92,1.25,2.7,2.35s1.18,2.4,1.18,3.92-.35,2.96-1.06,4.19c-.71,1.23-1.75,2.19-3.13,2.88-1.38,.69-3.1,1.04-5.13,1.04h-11.68Zm4.51-16.18h6.15c1.38,0,2.42-.33,3.11-1,.69-.67,1.04-1.53,1.04-2.61s-.35-1.96-1.04-2.59c-.69-.63-1.73-.94-3.11-.94h-6.15v7.13Zm0,12.03h6.54c1.41,0,2.48-.38,3.21-1.16,.73-.77,1.1-1.7,1.1-2.8s-.37-2.1-1.12-2.86c-.74-.76-1.81-1.14-3.19-1.14h-6.54v7.95Z"/>
        <path d="M212.65,37.91c-2.9,0-5.2-.84-6.9-2.51-1.7-1.67-2.61-4.05-2.74-7.13-.03-.26-.04-.59-.04-1s.01-.72,.04-.96c.1-1.98,.55-3.69,1.35-5.11,.8-1.42,1.9-2.52,3.31-3.29,1.41-.77,3.07-1.16,4.98-1.16,2.12,0,3.89,.44,5.33,1.31,1.44,.88,2.52,2.09,3.25,3.64,.73,1.55,1.1,3.35,1.1,5.39v.82c0,.26-.09,.48-.27,.67s-.42,.27-.71,.27h-13.01v.31c.03,.91,.2,1.76,.53,2.53,.33,.77,.81,1.39,1.45,1.86,.64,.47,1.4,.7,2.29,.7,.73,0,1.34-.11,1.84-.33,.5-.22,.9-.48,1.21-.76,.31-.29,.54-.52,.67-.71,.24-.31,.42-.5,.57-.57,.14-.06,.36-.1,.65-.1h3.37c.26,0,.48,.08,.65,.24s.24,.35,.22,.59c-.03,.42-.24,.93-.65,1.53-.41,.6-.99,1.19-1.74,1.76-.76,.58-1.7,1.05-2.84,1.43-1.14,.38-2.44,.57-3.9,.57Zm-4.31-12.34h8.66v-.12c0-1.02-.17-1.91-.51-2.68-.34-.77-.84-1.37-1.49-1.8-.65-.43-1.44-.65-2.35-.65s-1.7,.22-2.35,.65c-.65,.43-1.14,1.03-1.47,1.8-.33,.77-.49,1.66-.49,2.68v.12Z"/>
        <path d="M233.42,37.91c-1.57,0-2.91-.18-4.02-.55-1.11-.37-2.02-.82-2.72-1.37s-1.23-1.1-1.57-1.65c-.34-.55-.52-1.01-.55-1.37-.03-.29,.06-.52,.25-.69,.2-.17,.41-.25,.65-.25h3.1c.1,0,.2,.01,.27,.04,.08,.03,.18,.1,.31,.23,.34,.29,.7,.59,1.08,.9,.38,.31,.83,.58,1.35,.8,.52,.22,1.18,.33,1.96,.33,1.02,0,1.87-.2,2.57-.61,.69-.4,1.04-.99,1.04-1.74,0-.55-.15-.99-.45-1.33-.3-.34-.86-.65-1.67-.92-.81-.27-1.96-.57-3.45-.88-1.46-.34-2.68-.77-3.64-1.29-.97-.52-1.68-1.18-2.15-1.96-.47-.78-.71-1.7-.71-2.74s.31-1.99,.92-2.92c.61-.93,1.53-1.69,2.74-2.29,1.21-.6,2.72-.9,4.53-.9,1.41,0,2.64,.18,3.68,.53,1.04,.35,1.91,.79,2.61,1.31,.69,.52,1.22,1.05,1.59,1.59,.37,.54,.56,1,.59,1.39,.03,.29-.05,.52-.23,.69-.18,.17-.39,.25-.63,.25h-2.9c-.13,0-.25-.03-.35-.08-.1-.05-.21-.12-.31-.2-.29-.26-.6-.54-.94-.84-.34-.3-.75-.55-1.23-.76-.48-.21-1.12-.31-1.9-.31-.99,0-1.75,.22-2.27,.65-.52,.43-.78,.97-.78,1.63,0,.44,.12,.83,.37,1.16,.25,.33,.75,.63,1.51,.92,.76,.29,1.91,.59,3.45,.9,1.75,.31,3.14,.78,4.17,1.39,1.03,.61,1.76,1.32,2.19,2.12,.43,.8,.65,1.68,.65,2.64,0,1.18-.35,2.23-1.04,3.17-.69,.94-1.71,1.68-3.06,2.21-1.35,.54-3.01,.8-4.99,.8Z"/>
        <path d="M254.89,37.52c-1.57,0-2.89-.27-3.96-.82-1.07-.55-1.87-1.36-2.39-2.45-.52-1.08-.78-2.44-.78-4.06v-8.89h-3.1c-.26,0-.48-.09-.67-.27-.18-.18-.27-.42-.27-.71v-2.23c0-.26,.09-.48,.27-.67s.4-.27,.67-.27h3.1v-6.5c0-.26,.08-.48,.25-.67,.17-.18,.4-.27,.69-.27h3.17c.26,0,.48,.09,.67,.27,.18,.18,.27,.41,.27,.67v6.5h4.9c.26,0,.48,.09,.67,.27,.18,.18,.27,.41,.27,.67v2.23c0,.29-.09,.52-.27,.71s-.41,.27-.67,.27h-4.9v8.5c0,1.07,.19,1.91,.57,2.51,.38,.6,1.04,.9,1.98,.9h2.7c.26,0,.48,.09,.67,.27,.18,.18,.27,.41,.27,.67v2.43c0,.26-.09,.48-.27,.67s-.41,.27-.67,.27h-3.17Z"/>
      </g>
    </g>
  </g>
</svg>