<?xml version="1.0" encoding="UTF-8"?>
<svg id="Layer_2" data-name="Layer 2" xmlns="http://www.w3.org/2000/svg" viewBox="0 0 115.67 113.89">
  <defs>
    <style>
      .cls-1 {
        fill: #b7b7b7;
      }
    </style>
  </defs>
  <g id="Layer_1-2" data-name="Layer 1">
    <g>
      <path class="cls-1" d="m51.04.23c-6.36.68-13,2.66-19.13,5.67-11.36,5.56-20.43,14.55-26.07,25.85-2.59,5.22-4.14,9.95-5.21,15.87-.6,3.37-.83,11.48-.44,15.33,1.11,10.66,5.67,21.48,12.61,30,1.97,2.44,5.97,6.38,8.44,8.31,8.63,6.86,19.36,11.25,30.17,12.39,2.82.32,9.99.32,12.82,0,10.8-1.14,21.49-5.53,30.17-12.37,2.48-1.96,6.48-5.9,8.47-8.34,6.99-8.59,11.36-18.95,12.58-29.77.3-2.64.3-9.84-.02-12.55-1.18-10.7-5.6-21.11-12.56-29.7-1.94-2.41-5.97-6.35-8.47-8.31C85.77,5.77,75.03,1.37,64.23.23c-2.59-.32-10.6-.3-13.19,0Zm12.15,5.08c7.59.75,16.03,3.6,22.28,7.47,3.61,2.23,6.27,4.35,9.53,7.56,6.13,6.04,10.16,12.34,12.77,20.16,4.35,12.82,3.45,26.9-2.45,38.88-2.68,5.44-5.74,9.61-10.32,14.14-6.13,6.04-12.54,10-20.47,12.57-16.63,5.44-34.52,2.55-48.51-7.88-4.4-3.28-9.18-8.36-12.26-12.94-11.34-16.99-11.45-39.24-.25-56.35,5.53-8.47,13.95-15.53,23.16-19.52,4.65-2,10.66-3.62,15.41-4.1,2.78-.25,8.42-.27,11.13,0Z"/>
      <path class="cls-1" d="m78.76,42.32c-1.74.32-3.61.89-4.9,1.57-7.36,3.67-10.78,11.93-8.05,19.45,1.85,5.01,6.2,8.86,11.52,10.11,2.11.52,6.04.52,8.14,0,4.53-1.07,8.65-4.26,10.71-8.29,1.16-2.3,1.16-2.32-.14-2.32-1.11,0-1.16.02-1.71,1-.93,1.55-2.78,3.21-4.35,3.94-3.54,1.62-8.58.68-11.61-2.16-2.13-1.98-3.35-4.67-3.59-7.86l-.14-1.82,10.66-.07,10.64-.07.58-.52c.51-.48.58-.73.58-1.8,0-4.05-5.21-9.04-11.15-10.7-1.8-.52-5.55-.77-7.19-.46Zm5.39,2.69c1.78.84,2.98,2.82,3.59,5.88.19.93.35,1.84.35,2.03,0,.27-1.09.32-6.69.32h-6.66l.12-.73c.46-2.51,1.41-4.71,2.64-6.08,1.57-1.75,4.56-2.41,6.66-1.41Zm-68.55-1.48c0,.71.05.75.95.89.65.11,1.16.39,1.62.87.46.5,2.43,4.76,6.29,13.76,5.88,13.57,6.08,14.05,7.56,14.39.83.2,2.06-.09,2.71-.64.42-.34,1.64-3.01,4.09-8.86,1.94-4.6,3.61-8.45,3.7-8.54s1.78,3.62,3.77,8.22c2.43,5.63,3.79,8.61,4.23,9.02,1.13,1.12,3.03,1.12,4.19,0,.83-.84,11.82-26.97,11.82-28.13,0-.52-.16-.93-.53-1.28-.51-.48-.69-.5-5.55-.5h-5.02v.77c0,.68.07.77.58.77,1.78,0,4.07,1.53,4.86,3.23.83,1.8.65,2.76-1.74,8.43-1.2,2.85-2.2,5.19-2.24,5.24-.02.02-1.55-3.44-3.38-7.68-2.96-6.83-3.33-7.81-3.1-8.27.14-.32.56-.66.93-.8.56-.2.67-.39.67-.98v-.73h-16.52v.75c0,.68.07.75.88.89,1.36.2,2.06,1.05,3.42,4.15.65,1.55,1.2,2.89,1.2,3.03,0,.27-3.96,9.7-4.05,9.63-.3-.34-6.5-15.15-6.48-15.53,0-.57.76-1.37,1.32-1.37.21,0,.32-.27.32-.77v-.77H15.6v.8h0Z"/>
    </g>
  </g>
</svg>